<?xml version="1.0" encoding="UTF-8" standalone="no"?>
<!-- Created with Inkscape (http://www.inkscape.org/) -->

<svg
   width="23.143166mm"
   height="38.730476mm"
   viewBox="0 0 23.143166 38.730476"
   version="1.1"
   id="svg3964"
   xmlns="http://www.w3.org/2000/svg"
   xmlns:svg="http://www.w3.org/2000/svg">
  <defs
     id="defs3961" />
  <g
     id="layer1"
     transform="translate(-102.44637,-152.75143)">
    <path
       fill-rule="nonzero"
       fill="#959595"
       fill-opacity="1"
       d="m 110.73664,186.33009 0.44925,0.26045 1.85208,-13.26775 -0.45062,-0.25907 -1.85071,13.26637"
       id="path1950"
       style="stroke-width:0.352778" />
    <path
       fill-rule="nonzero"
       fill="#b0b0af"
       fill-opacity="1"
       d="m 111.18589,186.59054 0.47542,-0.29077 1.81901,-12.96596 -0.44235,-0.011 -1.85208,13.26776"
       id="path1952"
       style="stroke-width:0.352778" />
    <path
       fill-rule="nonzero"
       fill="#959595"
       fill-opacity="1"
       d="m 102.44637,181.52349 0.44924,0.26045 1.85208,-13.26775 -0.45062,-0.25907 -1.8507,13.26637"
       id="path1954"
       style="stroke-width:0.352778" />
    <path
       fill-rule="nonzero"
       fill="#b0b0af"
       fill-opacity="1"
       d="m 102.89561,181.78394 0.47542,-0.29076 1.81901,-12.96597 -0.44235,-0.011 -1.85208,13.26775"
       id="path1956"
       style="stroke-width:0.352778" />
    <path
       fill-rule="nonzero"
       fill="#959595"
       fill-opacity="1"
       d="m 115.63833,172.77433 1.45245,10.40556 -0.45062,0.25907 -1.46348,-10.48824 c 0.16537,-0.04 0.32109,-0.0965 0.46165,-0.17639"
       id="path1958"
       style="stroke-width:0.352778" />
    <path
       fill-rule="nonzero"
       fill="#b0b0af"
       fill-opacity="1"
       d="m 115.00167,172.99482 c 0.062,-0.01 0.11714,-0.0289 0.17501,-0.0441 l 1.46348,10.48824 -0.47405,-0.29076 -1.42626,-10.16579 c 0.0813,0.0179 0.16812,0.0262 0.26182,0.0124"
       id="path1960"
       style="stroke-width:0.352778" />
    <path
       fill-rule="nonzero"
       fill="#959595"
       fill-opacity="1"
       d="m 108.72609,178.35814 -0.44924,0.25907 -1.85209,-13.26637 0.45062,-0.26045 1.85071,13.26775"
       id="path1962"
       style="stroke-width:0.352778" />
    <path
       fill-rule="nonzero"
       fill="#b0b0af"
       fill-opacity="1"
       d="m 108.27685,178.61721 -0.47543,-0.29076 -1.81901,-12.96597 0.44235,-0.01 1.85209,13.26638"
       id="path1964"
       style="stroke-width:0.352778" />
    <path
       fill-rule="nonzero"
       fill="#ca8436"
       fill-opacity="1"
       d="m 105.22587,153.01326 v 14.95998 l 9.56083,5.58106 v -15.01648 l -9.56083,-5.52456"
       id="path1966"
       style="stroke-width:0.352778" />
    <path
       fill-rule="nonzero"
       fill="#ffffff"
       fill-opacity="1"
       d="m 106.05131,154.41335 v 12.37754 l 7.91132,4.6178 V 158.9843 l -7.91132,-4.57095"
       id="path1968"
       style="stroke-width:0.352778" />
    <path
       fill-rule="nonzero"
       fill="#d79442"
       fill-opacity="1"
       d="m 114.7867,158.53782 0.47404,-0.26183 v 14.99994 l -0.47404,0.27837 v -15.01648"
       id="path1970"
       style="stroke-width:0.352778" />
    <path
       fill-rule="nonzero"
       fill="#e6ad59"
       fill-opacity="1"
       d="m 105.22587,153.01326 0.47405,-0.26183 9.56082,5.52456 -0.47404,0.26183 -9.56083,-5.52456"
       id="path1972"
       style="stroke-width:0.352778" />
    <path
       fill-rule="nonzero"
       fill="#e6ad59"
       fill-opacity="1"
       d="m 116.17301,171.8538 -0.91227,-0.58291 v 1.40146 l -1.11345,0.63115 v 0.77996 l 1.56269,-1.16306 -0.0193,-0.77721 0.48231,-0.28939"
       id="path1974"
       style="stroke-width:0.352778" />
    <path
       fill-rule="nonzero"
       fill="#b96f2b"
       fill-opacity="1"
       d="m 114.14729,173.8616 -10.48549,-6.05923 v 0.58429 l 10.48549,6.08541 v -0.61047"
       id="path1976"
       style="stroke-width:0.352778" />
    <path
       fill-rule="nonzero"
       fill="#ca8436"
       fill-opacity="1"
       d="m 116.17301,171.8538 -0.48232,0.28939 0.0193,0.77721 -1.5627,0.9412 v 0.61047 l 2.02572,-1.20854 v -1.40973"
       id="path1978"
       style="stroke-width:0.352778" />
    <path
       fill-rule="nonzero"
       fill="#e6ad59"
       fill-opacity="1"
       d="m 114.14729,173.8616 1.06247,-0.67386 -9.98389,-5.77398 v -0.49609 l -1.56407,0.8847 10.48549,6.05923"
       id="path1980"
       style="stroke-width:0.352778" />
    <path
       fill-rule="nonzero"
       fill="#b96f2b"
       fill-opacity="1"
       d="m 115.70998,172.9204 -0.44924,-0.24805 v -0.7717 l 0.42995,0.24254 0.0193,0.77721"
       id="path1982"
       style="stroke-width:0.352778" />
    <path
       fill-rule="nonzero"
       fill="#e12e2e"
       fill-opacity="1"
       d="m 106.73207,159.16758 c 0,1.01837 0.62011,2.2021 1.38355,2.64308 v -3.68763 c -0.76344,-0.44097 -1.38355,0.0275 -1.38355,1.04455"
       id="path1984"
       style="stroke-width:0.352778" />
    <path
       fill-rule="nonzero"
       fill="#3d75be"
       fill-opacity="1"
       d="m 109.49779,160.7661 c 0,-1.01974 -0.61874,-2.2021 -1.38217,-2.64307 v 3.68763 c 0.76343,0.44097 1.38217,-0.0276 1.38217,-1.04456"
       id="path1986"
       style="stroke-width:0.352778" />
    <path
       fill-rule="nonzero"
       fill="#87c6ee"
       fill-opacity="1"
       d="m 111.5235,168.78077 c 0.76344,0.44098 1.38355,-0.0275 1.38355,-1.04593 l -2.7671,-1.59714 c 0,1.01974 0.62012,2.2021 1.38355,2.64307"
       id="path1988"
       style="stroke-width:0.352778" />
    <path
       fill-rule="nonzero"
       fill="#e6ad59"
       fill-opacity="1"
       d="m 108.11562,163.1253 v 1.84382 l -0.008,-0.004 -1.02526,0.62977 c 0.25356,0.52641 0.62149,0.98116 1.03353,1.21818 0.76343,0.44098 1.38217,-0.0275 1.38217,-1.04593 0,-1.01699 -0.61874,-2.20073 -1.38217,-2.6417"
       id="path1990"
       style="stroke-width:0.352778" />
    <path
       fill-rule="nonzero"
       fill="#87c6ee"
       fill-opacity="1"
       d="m 106.73207,164.17124 c 0,0.46853 0.13367,0.97289 0.35002,1.42351 l 1.02526,-0.62976 c 0,0 -1.02526,-0.59256 -1.37528,-0.79375"
       id="path1992"
       style="stroke-width:0.352778" />
    <path
       fill-rule="nonzero"
       fill="#e12e2e"
       fill-opacity="1"
       d="m 108.11562,163.1253 c -0.3142,-0.1819 -0.60221,-0.2067 -0.8351,-0.1061 -0.0496,0.022 -0.0978,0.0468 -0.14331,0.0813 -0.24943,0.18879 -0.40514,0.56086 -0.40514,1.07074 l 1.37528,0.79375 0.008,-0.006 1.02664,-0.62976 c -0.25356,-0.5209 -0.61874,-0.96876 -1.02664,-1.20441"
       id="path1994"
       style="stroke-width:0.352778" />
    <path
       fill-rule="nonzero"
       fill="#3d75be"
       fill-opacity="1"
       d="m 108.11562,164.96912 1.38217,0.79788 c 0,-0.47404 -0.13505,-0.98392 -0.35554,-1.43729 l -1.02663,0.62976 v 0.01"
       id="path1996"
       style="stroke-width:0.352778" />
    <path
       fill-rule="nonzero"
       fill="#3d75be"
       fill-opacity="1"
       d="m 108.10735,164.96499 0.008,0.004 v -0.01 z m 0,0"
       id="path1998"
       style="stroke-width:0.352778" />
    <path
       fill-rule="nonzero"
       fill="#e12e2e"
       fill-opacity="1"
       d="m 111.5235,160.09087 c -0.76343,-0.44098 -1.38355,0.0275 -1.38355,1.04455 l 1.38355,0.79926 v -1.84381"
       id="path2000"
       style="stroke-width:0.352778" />
    <path
       fill-rule="nonzero"
       fill="#3d75be"
       fill-opacity="1"
       d="m 112.90705,162.73256 c 0,-1.01837 -0.62011,-2.20072 -1.38355,-2.64169 v 1.84381 l 1.38355,0.79788"
       id="path2002"
       style="stroke-width:0.352778" />
    <path
       fill-rule="nonzero"
       fill="#87c6ee"
       fill-opacity="1"
       d="m 111.5235,163.7785 v -1.84382 l -1.38355,-0.79926 c 0,1.01837 0.62012,2.2021 1.38355,2.64308"
       id="path2004"
       style="stroke-width:0.352778" />
    <path
       fill-rule="nonzero"
       fill="#e6ad59"
       fill-opacity="1"
       d="m 111.5235,163.7785 c 0.76344,0.44097 1.38355,-0.0276 1.38355,-1.04594 l -1.38355,-0.79788 v 1.84382"
       id="path2006"
       style="stroke-width:0.352778" />
    <path
       fill-rule="nonzero"
       fill="#e12e2e"
       fill-opacity="1"
       d="m 110.13995,166.1377 1.35875,0.78548 v -1.84244 c -0.75241,-0.41754 -1.35875,0.051 -1.35875,1.05696"
       id="path2008"
       style="stroke-width:0.352778" />
    <path
       fill-rule="nonzero"
       fill="#87c6ee"
       fill-opacity="1"
       d="m 111.5235,165.09314 c -0.008,-0.006 -0.0165,-0.008 -0.0248,-0.0124 v 1.84244 l 1.40836,0.81166 c 0,-1.01837 -0.62012,-2.20073 -1.38355,-2.6417"
       id="path2010"
       style="stroke-width:0.352778" />
    <path
       fill-rule="nonzero"
       fill="#211f1f"
       fill-opacity="1"
       d="m 112.80784,159.52449 -5.60311,-3.23426 v -0.50849 l 5.60311,3.23426 v 0.50849"
       id="path2012"
       style="stroke-width:0.352778" />
    <path
       fill-rule="nonzero"
       fill="#27559f"
       fill-opacity="1"
       d="m 116.58917,169.97829 c 1.72117,0 2.76573,-7.45932 2.76573,-7.45932 l -0.26597,-0.37069 c 0,0 -1.02526,-0.0593 -1.8259,1.8135 -0.80064,1.87413 -1.33394,3.97012 -1.42489,4.00457 0.0579,0.44511 0.40652,2.01194 0.75103,2.01194"
       id="path2014"
       style="stroke-width:0.352778" />
    <path
       fill-rule="nonzero"
       fill="#211f1f"
       fill-opacity="1"
       d="m 116.8262,186.85926 c 0,0 -0.37208,0.40514 -0.86955,0.88883 -0.46026,0.44924 -0.6022,0.5774 -1.02939,0.99494 -0.24943,0.24392 -0.0441,0.46716 0.43132,0.44925 0.41755,-0.0166 1.36288,-0.22049 1.89343,-0.41066 0.37483,-0.13505 1.06384,-0.51539 1.41662,-0.73863 0.3514,-0.22324 0.4203,-0.53192 0.4203,-0.53192 v -0.74828 l -2.26273,0.0965"
       id="path2016"
       style="stroke-width:0.352778" />
    <path
       fill-rule="nonzero"
       fill="#211f1f"
       fill-opacity="1"
       d="m 122.74074,187.79081 c 0,0 -0.0854,0.76757 -0.13919,1.73082 -0.0537,0.96324 0.0827,1.81487 0.37759,1.92098 0.29489,0.10473 1.13412,0.0923 1.61092,-1.24575 0.47681,-1.33807 0.19293,-2.63618 0.19293,-2.63618 l -2.04225,0.23013"
       id="path2018"
       style="stroke-width:0.352778" />
    <path
       fill-rule="nonzero"
       fill="#27559f"
       fill-opacity="1"
       d="m 123.69434,174.60574 c 0.17639,-2.74505 -1.3367,-4.18924 -1.3367,-4.18924 0.11989,-0.92466 -4.17132,0.3707 -4.17132,0.3707 0,0 -0.91915,4.97334 -1.30776,7.59299 -0.44097,2.97656 -0.24805,8.29028 -0.24805,8.29028 0,0 0.0565,0.64767 1.16445,0.64354 0.85162,-0.004 1.55305,-0.69591 1.55305,-0.69591 l 0.0882,-6.20393 0.9853,-4.89203 c 0,0 0.16812,4.56406 0.79375,5.88284 1.14239,2.41019 1.14239,6.6573 1.14239,6.6573 0,0 1.43867,0.51401 2.42535,0.0207 0.9853,-0.49334 0.79099,-1.04318 0.79099,-1.04318 0,0 -0.24805,-3.29351 -1.51584,-6.14467 -0.10611,-2.1649 -0.44373,-5.02846 -0.3638,-6.28937"
       id="path2020"
       style="stroke-width:0.352778" />
    <path
       fill-rule="nonzero"
       fill="#3d75be"
       fill-opacity="1"
       d="m 119.1537,162.4294 c 0,0 -1.48139,1.19613 -1.65778,2.88699 -0.0868,0.8406 0.1695,3.66833 0.17639,5.52179 0.004,1.03905 -0.40928,3.95773 -0.40928,3.95773 0,0 0.51677,0.36105 1.35875,0.7469 0,-0.74001 0.27836,-1.89618 0.27836,-1.89618 0,0 0.0841,1.30362 0.0841,2.02158 0.44649,0.13367 0.95361,0.22462 1.51171,0.22186 1.37115,-0.007 3.41753,-0.94809 3.41753,-0.94809 0,0 -0.74965,-3.61459 -0.58566,-4.87825 0.24391,-1.87827 0.60909,-4.91546 0.54295,-5.41294 -0.11025,-0.83095 -1.9954,-1.73081 -1.9954,-1.73081 0,0 -1.3367,-1.03491 -2.72163,-0.49058"
       id="path2022"
       style="stroke-width:0.352778" />
    <path
       fill-rule="nonzero"
       fill="#27559f"
       fill-opacity="1"
       d="m 119.8,162.27092 c 0,0 -0.80753,0.64217 -1.38493,1.42489 -0.34037,0.46164 -0.43546,0.78411 -0.43546,0.78411 l 0.43546,0.42581 -0.62011,0.29766 c 0,0 -0.34589,2.33577 0.12402,3.11988 0.46991,0.78548 1.03766,2.7478 1.03766,2.7478 0,0 0.65457,-2.02709 0.9412,-2.53145 0.28526,-0.50574 1.36977,-1.90307 1.36977,-1.90307 l -0.54295,-0.81856 0.88608,-0.28939 c 0,0 1.24713,-1.56407 1.11759,-2.03673 -0.24391,-0.88333 -1.0914,-1.06247 -1.0914,-1.06247 L 119.8,162.27092"
       id="path2024"
       style="stroke-width:0.352778" />
    <path
       fill-rule="nonzero"
       fill="#e0dfdd"
       fill-opacity="1"
       d="m 118.99385,163.88461 c 0,0 -0.3514,1.06522 -0.54433,2.02984 -0.19292,0.96325 0.50712,4.16995 0.50712,4.16995 0,0 0.31282,-3.13366 0.9412,-4.02663 0.74414,-1.05558 1.7129,-2.05879 1.7129,-2.05879 0,0 -1.97472,-0.36104 -2.61689,-0.11437"
       id="path2026"
       style="stroke-width:0.352778" />
    <path
       fill-rule="nonzero"
       fill="#e12e2e"
       fill-opacity="1"
       d="m 119.36041,164.08304 -0.10473,0.82269 c 0,0 -0.48645,0.46991 -0.5898,1.04456 -0.10473,0.57463 0.006,2.65547 0.006,2.65547 l 0.28525,1.47864 0.12541,-0.98806 c 0,0 0.22186,-1.27882 0.41341,-2.06843 0.0276,-0.34589 0.0565,-0.63114 0.0854,-0.71658 0.13229,-0.38723 0.15985,-1.18649 0.15985,-1.18649 l 0.51401,-0.61461 -0.48921,-0.57188 -0.40514,0.14469"
       id="path2028"
       style="stroke-width:0.352778" />
    <path
       fill-rule="nonzero"
       fill="#f89d8e"
       fill-opacity="1"
       d="m 119.68287,162.37841 -0.0896,1.30224 c 0,0 0.17225,0.2577 0.61185,0.62977 0.46991,-0.14745 1.56269,-1.16031 1.56269,-1.16031 l -0.36518,-2.02158 -1.71979,1.24988"
       id="path2030"
       style="stroke-width:0.352778" />
    <path
       fill-rule="nonzero"
       fill="#fabaac"
       fill-opacity="1"
       d="m 121.60523,158.90437 c -0.49058,-0.62287 -1.89756,-1.14928 -2.81533,0.20809 -0.96187,1.42351 -0.0524,3.75102 0.78962,3.61459 0.47266,-0.0758 1.53513,-0.50574 1.99953,-1.26504 0.52503,-0.85576 0.40652,-2.07257 0.0262,-2.55764"
       id="path2032"
       style="stroke-width:0.352778" />
    <path
       fill-rule="nonzero"
       fill="#ffffff"
       fill-opacity="1"
       d="m 119.64842,162.88139 0.11713,1.05696 -0.85852,0.34864 c 0,0 -0.0992,-1.12723 0.74139,-1.4056"
       id="path2034"
       style="stroke-width:0.352778" />
    <path
       fill-rule="nonzero"
       fill="#ffffff"
       fill-opacity="1"
       d="m 121.69205,162.73394 c 0,0 -0.26596,0.49472 -0.88195,0.84198 -0.31419,0.17915 -1.04455,0.36243 -1.04455,0.36243 l 0.32246,0.96738 c 0,0 1.02113,-0.41341 1.52273,-0.81166 0,0 0.6656,-0.78824 0.0813,-1.36013"
       id="path2036"
       style="stroke-width:0.352778" />
    <path
       fill-rule="nonzero"
       fill="#211f1f"
       fill-opacity="1"
       d="m 118.49776,159.73395 c 0.19154,-0.25356 0.29214,-0.62149 0.93982,-0.39825 1.42351,0.48783 1.36977,1.67018 1.36977,1.67018 0,0 0.12816,0.006 0.23426,-0.0317 0.0854,-0.32522 0.22463,-0.40101 0.38448,-0.26458 0.17914,0.15572 0.15296,0.75241 0.15296,0.75241 0,0 0.67937,-0.58705 0.67662,-1.56821 -10e-4,-0.61185 -0.45476,-1.82177 -1.5751,-1.96095 -1.12035,-0.13918 -1.80523,0.32797 -2.05879,0.83371 -0.14883,0.29353 -0.21222,0.82683 -0.12402,0.96739"
       id="path2038"
       style="stroke-width:0.352778" />
    <path
       fill-rule="nonzero"
       fill="#fabaac"
       fill-opacity="1"
       d="m 123.13485,174.70496 c 0,0 -0.0455,0.33762 -0.43546,0.81855 -0.0923,0.11438 -0.34175,0.60083 -0.5898,0.77722 -0.19292,0.13642 -0.24529,0.3197 -0.0716,0.3514 0.18879,0.0358 0.54156,-0.36518 0.64354,-0.35416 0.17914,0.0193 -0.15158,0.81718 -0.15847,1.26917 -0.007,0.45338 0.26044,1.15205 0.81442,0.44374 0.55397,-0.70832 0.66145,-1.35875 0.7841,-1.97198 0.10473,-0.52228 0.29214,-0.86265 0.29214,-0.86265 l -1.27882,-0.47129"
       id="path2040"
       style="stroke-width:0.352778" />
    <path
       fill-rule="nonzero"
       fill="#27559f"
       fill-opacity="1"
       d="m 124.80366,175.68337 c 0.23426,-0.76068 0.40376,-4.35598 0.53054,-5.29167 0.0124,-1.31189 -0.17087,-2.70233 -0.44924,-3.87504 -0.38171,-1.61093 -0.58429,-2.48047 -1.4428,-2.55488 -0.37896,0.24253 -0.70418,1.44831 -0.70418,2.70922 l 0.33211,3.7207 -0.33211,4.61505 c 0.29765,0.16674 1.2926,0.97014 2.06568,0.67662"
       id="path2042"
       style="stroke-width:0.352778" />
    <path
       fill-rule="nonzero"
       fill="#d79442"
       fill-opacity="1"
       d="m 118.71686,169.0867 -0.0758,-0.1943 c -0.0317,-0.0813 -0.58153,-3.08681 -0.31144,-4.3298 0.19569,-0.89986 0.64768,-1.59853 0.88746,-1.92099 0.0496,0.0317 0.1006,0.0538 0.15985,0.073 -0.22048,0.29215 -0.68075,0.99219 -0.87505,1.88654 -0.20946,0.966 0.0537,3.51399 0.23289,4.03213 0.22324,-0.44373 1.02112,-2.69268 1.93063,-3.7083 0.58015,-0.6463 1.04317,-0.966 1.41387,-1.22369 0.22599,-0.15572 0.4203,-0.29077 0.59669,-0.4644 0.0345,-0.0345 0.0896,-0.0345 0.12402,0 0.0345,0.0345 0.0345,0.0909 -0.001,0.1254 -0.18604,0.18466 -0.38585,0.32384 -0.61874,0.48369 -0.3638,0.25218 -0.81718,0.56637 -1.38217,1.19751 -1.13551,1.26504 -1.98851,3.83784 -1.99403,3.853 l -0.0868,0.19017"
       id="path2044"
       style="stroke-width:0.352778" />
    <path
       fill-rule="nonzero"
       fill="#ffffff"
       fill-opacity="1"
       d="m 118.21801,167.96635 -0.11851,1.77216 v 0.003 l 1.12586,0.65044 0.11851,-1.77492 -1.12586,-0.65043"
       id="path2046"
       style="stroke-width:0.352778" />
    <path
       fill-rule="nonzero"
       fill="#e12e2e"
       fill-opacity="1"
       d="m 118.29105,168.13172 -0.0124,0.19844 0.95635,0.55397 0.0138,-0.19982 -0.95773,-0.55259"
       id="path2048"
       style="stroke-width:0.352778" />
    <path
       fill-rule="nonzero"
       fill="#e0dfdd"
       fill-opacity="1"
       d="m 118.62729,168.7036 -0.0827,1.16307 0.57877,0.33486 0.0841,-1.16444 -0.58016,-0.33349"
       id="path2050"
       style="stroke-width:0.352778" />
    <path
       fill-rule="nonzero"
       fill="#fabaac"
       fill-opacity="1"
       d="m 113.96952,163.28653 c 0,0 0.0455,-0.82682 0.0882,-1.18097 0.0579,-0.4961 0.39687,-0.4961 0.44786,0.11024 0.0482,0.56086 0.062,1.11208 0.0661,1.20165 0.004,0.0882 0.83785,2.19935 0.83785,2.19935 l -0.95498,0.51125 c 0,0 -0.19706,-0.49471 -0.54432,-0.74552 -0.24943,-0.18052 -0.66973,-0.37069 -0.77446,-0.70555 -0.0786,-0.25494 -0.0537,-0.48921 0.12816,-0.67662 0.0827,-0.42306 0.29352,-0.77032 0.70555,-0.71383"
       id="path2052"
       style="stroke-width:0.352778" />
    <path
       fill-rule="nonzero"
       fill="#27559f"
       fill-opacity="1"
       d="m 115.25523,164.90573 c 0,0 1.24024,1.79007 1.49931,2.54524 0.25907,0.75378 0.41341,2.02158 0,2.42121 -0.41341,0.39963 -1.19201,-0.31144 -1.63298,-0.78548 -0.39687,-0.42719 -1.0349,-3.36241 -1.0349,-3.36241 0,0 0.3514,-0.001 0.78134,-0.36243 0.27837,-0.23427 0.38723,-0.45613 0.38723,-0.45613"
       id="path2054"
       style="stroke-width:0.352778" />
  </g>
</svg>
