<?xml version="1.0" encoding="UTF-8" standalone="no"?>
<!-- Created with Inkscape (http://www.inkscape.org/) -->

<svg
   width="28.2353mm"
   height="31.661507mm"
   viewBox="0 0 28.2353 31.661507"
   version="1.1"
   id="svg6108"
   xmlns="http://www.w3.org/2000/svg"
   xmlns:svg="http://www.w3.org/2000/svg">
  <defs
     id="defs6105" />
  <g
     id="layer1"
     transform="translate(-36.007494,-96.695294)">
    <path
       fill-rule="nonzero"
       fill="#5c2c2e"
       fill-opacity="1"
       d="m 42.770907,112.40972 0.01792,0.0193 z m -0.04961,-0.0648 0.01242,0.0248 z m -0.0248,-0.0662 0.0041,0.0262 z m 1.083137,0.15434 h -0.0014 l -0.07028,0.051 z m 0.07028,-0.0882 0.01792,-0.0358 z m -0.01655,0.0303 -0.03447,0.0372 0.03447,-0.0386 z m -0.129537,-0.37896 c -0.23289,-0.13504 -0.609092,-0.13504 -0.840602,0 -0.115757,0.0662 -0.173634,0.15434 -0.173634,0.24254 v 10e-4 l -0.03305,11.89936 c -0.0014,0.0896 0.05788,0.17777 0.175009,0.24667 l 0.08682,0.04 0.0041,0.003 0.01379,0.004 0.05374,0.0179 0.0303,0.008 0.01654,0.003 0.01517,0.004 0.05926,0.011 0.02205,0.003 0.01379,0.001 0.02205,10e-4 0.05925,0.004 h 0.06064 l 0.06477,-0.006 0.0083,-0.001 0.01792,-10e-4 0.05099,-0.007 0.02067,-0.006 0.05926,-0.0152 0.03168,-0.008 0.02618,-0.008 0.02205,-0.01 0.08268,-0.0386 0.0083,-0.006 0.06339,-0.0455 0.0055,-0.006 0.0055,-0.004 0.03721,-0.04 0.01379,-0.0193 0.0096,-0.0165 0.01655,-0.0331 0.0014,-0.006 0.0014,-0.007 0.0069,-0.0207 0.0041,-0.0345 v -0.006 l 0.03305,-11.90212 -0.0055,0.0345 c 0.01792,-0.0992 -0.03721,-0.20258 -0.170879,-0.27975"
       id="path1039"
       style="stroke-width:0.352778" />
    <path
       fill-rule="nonzero"
       fill="#5c2c2e"
       fill-opacity="1"
       d="m 46.286281,114.08266 0.0014,0.0138 z m -0.0041,-0.04 -0.0014,0.0138 z m 0.0069,-0.0331 -0.0041,0.0124 z m 0.4079,0.34726 h -0.0014 l -0.04272,0.003 z m 0.05236,-0.0179 0.01655,-0.011 v 10e-4 z m -0.01517,0.008 -0.0248,0.007 z m 0.04686,-0.19017 c -0.06201,-0.11714 -0.217731,-0.21635 -0.348643,-0.22049 -0.06615,-0.003 -0.111623,0.0179 -0.135051,0.0538 v 0.001 l -3.135037,4.90995 c -0.02342,0.0372 -0.02342,0.0882 0.0083,0.14745 l 0.0248,0.04 0.0014,0.001 0.0041,0.006 0.01792,0.022 0.0096,0.011 0.01242,0.0124 0.02067,0.0193 0.0096,0.007 0.0041,0.004 0.0096,0.007 0.02205,0.0152 0.0083,0.006 0.0055,0.004 0.01242,0.007 0.02893,0.0165 0.0028,0.001 0.0083,0.003 0.02205,0.011 0.01101,0.003 0.02755,0.01 0.01655,0.006 0.01242,0.001 0.01101,0.003 0.04547,0.006 h 0.0041 l 0.03859,-0.003 h 0.0069 l 0.0248,-0.007 0.0055,-10e-4 0.01379,-0.007 0.01517,-0.01 0.0028,-10e-4 0.0028,-0.003 0.0083,-0.007 0.01101,-0.0138 0.0014,-0.003 3.135034,-4.90995 -0.01242,0.0124 c 0.03305,-0.0372 0.03858,-0.0937 0.0041,-0.15985"
       id="path1041"
       style="stroke-width:0.352778" />
    <path
       fill-rule="nonzero"
       fill="#62952e"
       fill-opacity="1"
       d="m 49.572903,112.11345 c 0,-0.59532 -0.203951,-1.1424 -0.545705,-1.57786 0.168124,-0.40238 0.261828,-0.84336 0.261828,-1.30638 0,-1.09692 -0.519518,-2.07257 -1.327051,-2.69268 0.02755,-0.15021 0.0441,-0.30455 0.0441,-0.46303 0,-1.41248 -1.145148,-2.55626 -2.556259,-2.55626 -0.416169,0 -0.810288,0.1006 -1.157552,0.27699 -0.479559,-0.42168 -1.106565,-0.67662 -1.794207,-0.67662 -1.208539,0 -2.23242,0.78824 -2.583822,1.88102 -1.8259,0.15572 -3.25768,1.68535 -3.25768,3.54983 0,0.40514 0.06752,0.79237 0.192923,1.15618 -0.512628,0.40376 -0.841981,1.02939 -0.841981,1.73357 0,1.06109 0.749652,1.94854 1.748733,2.16076 0.140557,1.9265 1.74873,3.44785 3.712432,3.44785 1.190625,0 2.251717,-0.55948 2.932466,-1.4304 0.226,0.0634 0.4644,0.0992 0.711069,0.0992 0.858516,0 1.620573,-0.41479 2.097373,-1.0542 1.321537,-0.0978 2.363336,-1.20027 2.363336,-2.54799"
       id="path1043"
       style="stroke-width:0.352778" />
    <path
       fill-rule="nonzero"
       fill="#75aa2b"
       fill-opacity="1"
       d="m 42.498054,103.11761 c -1.208539,0 -2.23242,0.78824 -2.583822,1.88102 -1.8259,0.15572 -3.25768,1.68535 -3.25768,3.54983 0,0.40514 0.06752,0.79237 0.192923,1.15618 -0.512628,0.40376 -0.841981,1.02939 -0.841981,1.73357 0,1.06109 0.749652,1.94854 1.748733,2.16076 0.07579,1.0418 0.58153,1.96371 1.339451,2.59209 0.161231,0.0221 0.32384,0.0331 0.489204,0.0331 1.190625,0 2.250338,-0.55948 2.932466,-1.4304 0.225996,0.0634 0.4644,0.0992 0.711066,0.0992 0.85852,0 1.620572,-0.41479 2.097376,-1.0542 1.321538,-0.0978 2.363336,-1.20027 2.363336,-2.54661 0,-0.5967 -0.203951,-1.14378 -0.545705,-1.57924 0.16812,-0.40238 0.261828,-0.84336 0.261828,-1.30638 0,-1.09692 -0.519521,-2.07119 -1.327051,-2.69268 0.02755,-0.15021 0.04272,-0.30455 0.04272,-0.46302 0,-0.66973 -0.256314,-1.27745 -0.676617,-1.73358 -0.416165,10e-4 -0.80615,0.10198 -1.152038,0.27699 -0.479559,-0.42168 -1.106565,-0.67662 -1.794207,-0.67662"
       id="path1045"
       style="stroke-width:0.352778" />
    <path
       fill-rule="nonzero"
       fill="#8cbb25"
       fill-opacity="1"
       d="m 42.498054,103.11761 c -1.208539,0 -2.23242,0.78824 -2.583822,1.88102 -1.8259,0.15572 -3.25768,1.68535 -3.25768,3.54983 0,0.40514 0.06752,0.79237 0.192923,1.15618 -0.15434,0.12126 -0.290766,0.26458 -0.407899,0.42305 0.173634,0.22876 0.370692,0.4396 0.591178,0.6215 0.159854,0.0207 0.323839,0.0331 0.489204,0.0331 1.190625,0 2.250338,-0.55948 2.932465,-1.4304 0.226,0.0648 0.4644,0.0992 0.70969,0.0992 0.859896,0 1.621953,-0.41479 2.097374,-1.0542 1.322916,-0.0978 2.364715,-1.20027 2.364715,-2.54662 0,-0.59669 -0.203952,-1.14377 -0.545705,-1.57923 0.09922,-0.23564 0.168123,-0.48507 0.210841,-0.74414 -0.356912,0.0221 -0.695911,0.113 -0.999077,0.26734 -0.479559,-0.42168 -1.106565,-0.67662 -1.794207,-0.67662"
       id="path1047"
       style="stroke-width:0.352778" />
    <path
       fill-rule="nonzero"
       fill="#100e0c"
       fill-opacity="1"
       d="m 57.412564,121.98571 c 0,0 -0.08131,0.78548 -0.429948,1.20303 -0.351402,0.4203 -1.947171,1.37115 -1.836928,1.80523 0.108867,0.43408 1.241615,0.48645 1.963705,-0.22324 0.722094,-0.70969 0.913638,-0.81718 1.218188,-0.87781 0.305922,-0.062 0.744139,-0.43822 0.436838,-1.10795 0,0 -0.966005,-0.28525 -1.351855,-0.79926"
       id="path1049"
       style="stroke-width:0.352778" />
    <path
       fill-rule="nonzero"
       fill="#100e0c"
       fill-opacity="1"
       d="m 60.759818,124.37247 c 0,0 -0.06064,0.78686 -0.398255,1.21405 -0.340374,0.4272 -1.90996,1.41938 -1.790072,1.85209 0.119892,0.43132 1.252637,0.45199 1.958192,-0.27423 0.70418,-0.72898 0.892969,-0.84198 1.196139,-0.91088 0.301791,-0.0689 0.730359,-0.45614 0.405144,-1.11759 0,0 -0.971518,-0.26045 -1.371148,-0.76344"
       id="path1051"
       style="stroke-width:0.352778" />
    <path
       fill-rule="nonzero"
       fill="#7e4287"
       fill-opacity="1"
       d="m 58.570116,108.50574 c 0,0 -1.58888,4.30913 -1.602659,7.00319 0,0 -0.329354,4.81487 -0.133671,7.19612 0,0 1.192004,0.85025 2.005044,-0.0138 0,0 0.785484,-3.66558 0.587047,-5.98758 0,0 1.19338,-3.50297 1.296733,-5.25859 0.101974,-1.75424 -2.152494,-2.93936 -2.152494,-2.93936"
       id="path1053"
       style="stroke-width:0.352778" />
    <path
       fill-rule="nonzero"
       fill="#e5e8e4"
       fill-opacity="1"
       d="m 60.328491,103.36842 1.371148,0.11024 0.152961,-1.87551 -1.372524,-0.11024 -0.151585,1.87551"
       id="path1055"
       style="stroke-width:0.352778" />
    <path
       fill-rule="nonzero"
       fill="#c2b8b2"
       fill-opacity="1"
       d="m 56.344582,112.12171 c 0,0 -0.237021,-0.55121 -0.964625,-0.55948 0,0 0.180523,0.68764 0.964625,0.55948"
       id="path1057"
       style="stroke-width:0.352778" />
    <path
       fill-rule="nonzero"
       fill="#efa774"
       fill-opacity="1"
       d="m 55.63765,111.27835 c 0,0 -0.606336,0.77171 -0.662837,0.97566 -0.05512,0.20395 -0.308681,1.06522 0.114377,1.6564 0.230131,0.31832 0.359668,-0.12678 0.424434,-0.70418 0.02893,-0.26183 -0.0069,-0.46164 0.341754,-0.74138 0.249424,-0.2012 0.533301,-0.61048 0.640789,-0.82545 0.106108,-0.2136 -0.858517,-0.36105 -0.858517,-0.36105"
       id="path1059"
       style="stroke-width:0.352778" />
    <path
       fill-rule="nonzero"
       fill="#e69865"
       fill-opacity="1"
       d="m 56.481008,111.68488 c -0.104729,0.21359 -0.41341,0.58291 -0.463021,0.90123 -0.06063,0.38172 -0.475424,0.35829 -0.504363,0.62012 -0.05236,0.44924 -0.152961,0.82407 -0.292142,0.81304 0.06201,-0.33899 -0.332109,-0.59944 0.09784,-1.38493 0.15572,-0.28525 0.672483,-0.88056 0.966005,-1.1231 0.172254,0.0813 0.2384,0.0909 0.195682,0.17364"
       id="path1061"
       style="stroke-width:0.352778" />
    <path
       fill-rule="nonzero"
       fill="#efa774"
       fill-opacity="1"
       d="m 56.241228,111.50435 c 0,0 -0.129532,1.0983 -0.217727,1.42627 -0.08819,0.3266 -0.285256,0.51814 -0.326598,0.44511 -0.03858,-0.0717 0.168123,-1.0542 -0.187413,-1.0294 -0.190169,0.011 0.679376,-0.68764 0.731738,-0.84198"
       id="path1063"
       style="stroke-width:0.352778" />
    <path
       fill-rule="nonzero"
       fill="#d88817"
       fill-opacity="1"
       d="m 58.906355,102.64357 c 0,0 -1.10243,-0.25632 -1.559937,1.93476 -0.460266,2.19246 -0.460266,3.04547 -0.78135,3.79788 -0.32384,0.75103 -1.185111,3.18602 -1.185111,3.18602 0,0 0.697286,0.0372 0.964625,0.55948 0,0 1.807986,-3.00825 2.166278,-4.33255 0.355532,-1.32567 1.543402,-4.53788 0.395495,-5.14559"
       id="path1065"
       style="stroke-width:0.352778" />
    <path
       fill-rule="nonzero"
       fill="#eb9e14"
       fill-opacity="1"
       d="m 56.565068,108.37621 c 0.321084,-0.75241 0.321084,-1.60542 0.78135,-3.79788 0.248045,-1.192 0.687638,-1.65915 1.03766,-1.83692 1.043175,0.68902 -0.106108,3.80614 -0.456131,5.10701 -0.267338,0.99081 -1.313268,3.01652 -1.827276,3.97839 -0.372071,-0.27285 -0.720714,-0.26458 -0.720714,-0.26458 0,0 0.861271,-2.43499 1.185111,-3.18602"
       id="path1067"
       style="stroke-width:0.352778" />
    <path
       fill-rule="nonzero"
       fill="#eb9e14"
       fill-opacity="1"
       d="m 63.430455,104.84567 c 0,0 -0.937066,-1.76389 -4.772145,-2.2021 0,0 -0.609095,-0.25494 -0.549839,1.71841 0.0083,0.28388 -0.286632,0.7717 -0.487825,1.02802 -0.201193,0.25907 -0.730359,1.24574 0.431327,2.42948 0,0 0.449238,1.757 -0.08819,2.89526 -0.47818,1.01561 2.029848,2.00642 4.165808,1.79972 0.260449,-0.0248 0.988053,-0.27837 0.757922,-1.19339 -0.228756,-0.91639 -0.916397,-2.43775 -0.486449,-4.12722 0.429948,-1.6881 1.316027,-1.48828 1.029395,-2.34818"
       id="path1069"
       style="stroke-width:0.352778" />
    <path
       fill-rule="nonzero"
       fill="#d88817"
       fill-opacity="1"
       d="m 63.430455,104.78504 c 0.286632,0.85852 -0.599447,0.65732 -1.029395,2.3468 -0.429948,1.68809 0.257693,3.27284 0.486449,4.18923 0.230131,0.91502 -0.329354,1.13275 -0.592558,1.15893 -0.352777,0.0331 -0.777215,0.0772 -1.134124,0.051 0.748274,-1.63711 -0.316949,-4.68119 -0.362426,-6.32382 -0.05099,-1.73908 1.524109,-2.41845 1.525489,-2.41845 0.832337,0.52365 1.106565,0.99632 1.106565,0.99632"
       id="path1071"
       style="stroke-width:0.352778" />
    <path
       fill-rule="nonzero"
       fill="#fab319"
       fill-opacity="1"
       d="m 57.963779,110.71474 c 0.537432,-1.13826 0.08819,-2.89526 0.08819,-2.89526 -1.161686,-1.18374 -0.63252,-2.17041 -0.431327,-2.42948 0.201193,-0.25632 0.496094,-0.74414 0.487825,-1.02802 -0.0248,-0.77583 0.0565,-1.20716 0.16123,-1.44556 0.221865,0.25907 0.665592,0.16536 0.518142,1.07211 -0.08819,0.53882 0.09233,1.33808 0.926042,1.34083 0.833712,0.001 0.363802,1.34221 0.316949,1.71428 -0.338998,2.58934 1.04042,3.80063 0.593933,5.43636 -1.635728,-0.2191 -3.028925,-0.98529 -2.660988,-1.76526"
       id="path1073"
       style="stroke-width:0.352778" />
    <path
       fill-rule="nonzero"
       fill="#884b8e"
       fill-opacity="1"
       d="m 62.609142,110.25585 c 0,0 -2.472199,1.96508 -4.792814,0.8406 0,0 1.070734,1.9389 1.628839,2.17317 0,0 0.600826,3.59806 1.036284,5.95037 l -0.110243,5.98068 c 0,0 1.256771,0.53882 2.113912,-0.23702 0,0 0.533301,-2.71473 0.281121,-6.58013 0,0 1.353231,-7.00319 -0.157099,-8.12767"
       id="path1075"
       style="stroke-width:0.352778" />
    <path
       fill-rule="nonzero"
       fill="#884b8e"
       fill-opacity="1"
       d="m 61.877407,110.95314 c 0,0 -2.094618,-0.83372 -1.639866,-4.71014 0,0 -1.992644,0.58843 -2.616895,-0.853 0,0 -0.94809,2.98621 0.261828,5.89524 0,0 1.937519,1.50758 3.994933,-0.3321"
       id="path1077"
       style="stroke-width:0.352778" />
    <path
       fill-rule="nonzero"
       fill="#884b8e"
       fill-opacity="1"
       d="m 62.32389,103.78872 c 0,0 -1.696364,1.25952 -2.086349,2.45428 l -0.785481,0.2384 c 0,0 1.007343,-1.82865 2.425347,-2.9366 l 0.446483,0.24392"
       id="path1079"
       style="stroke-width:0.352778" />
    <path
       fill-rule="nonzero"
       fill="#884b8e"
       fill-opacity="1"
       d="m 59.993627,102.91642 c 0,0 -1.718412,1.87551 -2.108398,3.07027 L 57.620646,105.39 c 0,0 0.71658,-1.64951 2.133201,-2.75746 l 0.23978,0.28388"
       id="path1081"
       style="stroke-width:0.352778" />
    <path
       fill-rule="nonzero"
       fill="#1c1a19"
       fill-opacity="1"
       d="m 59.566434,99.282532 c 0,0 0.460266,2.175918 0.427193,4.059698 -0.0041,0.2701 -0.159851,0.0276 -0.647679,-0.14194 0,0 -1.783179,-1.83279 -0.468531,-3.946696 0.417544,-0.668349 1.795582,-1.544781 3.195669,-0.395497 l -2.506652,0.424435"
       id="path1083"
       style="stroke-width:0.352778" />
    <path
       fill-rule="nonzero"
       fill="#e89965"
       fill-opacity="1"
       d="m 58.957342,101.82501 c 0,0 0.615985,0.84887 0.234266,1.67845 -0.106109,0.23014 -0.395496,1.17823 1.09554,0.89711 0,0 1.580611,-0.65319 1.160311,-1.14653 -0.281121,-0.32797 -0.540191,-0.79375 0.02618,-2.33026 l -2.516296,0.90123"
       id="path1085"
       style="stroke-width:0.352778" />
    <path
       fill-rule="nonzero"
       fill="#da8a58"
       fill-opacity="1"
       d="m 61.447459,103.25404 c 0.0441,0.0537 0.06339,0.10611 0.06339,0.15847 -1.418,0.17088 -2.301321,-0.88608 -2.301321,-0.88608 l 1.934764,-1.46347 c 0,0 0.08819,0.0689 0.217731,0.18328 -0.416168,1.28019 -0.173634,1.70325 0.08544,2.0078"
       id="path1087"
       style="stroke-width:0.352778" />
    <path
       fill-rule="nonzero"
       fill="#f1a876"
       fill-opacity="1"
       d="m 59.413473,99.060668 c 0,0 -0.402385,0.103353 -0.507118,1.269172 -0.01101,0.12816 -0.230131,0.2825 -0.31006,0.59945 -0.07855,0.32108 -0.2508,1.6123 0.491963,1.80798 0.536056,0.14194 1.90996,-0.0978 2.462551,-1.37114 0.552595,-1.27331 -0.432703,-3.04409 -2.137336,-2.305462"
       id="path1089"
       style="stroke-width:0.352778" />
    <path
       fill-rule="nonzero"
       fill="#1c1a19"
       fill-opacity="1"
       d="m 59.45206,99.531958 c 0,0 1.951302,0.03169 1.637108,3.451982 l -0.128158,1.72255 c 2.525946,-1.41387 1.90996,-4.26503 1.90996,-4.26503 0,0 -0.216351,-2.169029 -2.031227,-1.991263 0,0 -1.219563,0.35829 -1.387683,1.081761"
       id="path1091"
       style="stroke-width:0.352778" />
    <path
       fill-rule="nonzero"
       fill="#1c1a19"
       fill-opacity="1"
       d="m 59.45206,99.531958 c 0,0 -0.576023,-0.155719 -0.946714,0.898482 0,0 0.336243,-3.034442 3.143306,-1.88378 0,0 -1.723926,-0.05374 -2.196592,0.985298"
       id="path1093"
       style="stroke-width:0.352778" />
    <path
       fill-rule="nonzero"
       fill="#f1a876"
       fill-opacity="1"
       d="m 60.868681,101.53838 c 0,0 0.256315,-0.62976 0.611851,-0.40376 0.111619,0.0717 0.228752,0.21497 0.0248,0.5333 -0.205327,0.31832 -0.595312,0.59117 -0.884699,0.53192 l 0.248045,-0.66146"
       id="path1095"
       style="stroke-width:0.352778" />
    <path
       fill-rule="nonzero"
       fill="#f1a876"
       fill-opacity="1"
       d="m 59.653253,110.95452 c 0,0 -0.87919,-0.04 -1.029395,-0.21084 -0.150206,-0.17226 -0.435462,-0.0179 -0.237025,0.16949 0.195683,0.18604 0.491963,0.26459 0.491963,0.26459 0,0 -1.034909,0.0909 -1.135503,-0.20946 -0.100598,-0.30042 -0.08131,0.81166 0.391361,1.00321 0.468535,0.1943 0.949469,0.49334 1.952681,-0.3073 0,0 -0.04823,-0.50023 -0.434082,-0.70969"
       id="path1097"
       style="stroke-width:0.352778" />
    <path
       fill-rule="nonzero"
       fill="#fab319"
       fill-opacity="1"
       d="m 62.825497,104.38403 c 0,0 -0.926041,0.0537 -0.803398,1.45521 0.121267,1.40284 0.319705,3.74964 0.319705,3.74964 l -0.05926,0.36518 -2.808439,0.90675 c 0,0 0.673858,0.50436 0.276983,1.14515 0,0 3.928787,-0.12265 4.386298,-1.55443 0,0 0.183278,-6.34173 -1.311893,-6.0675"
       id="path1099"
       style="stroke-width:0.352778" />
    <path
       fill-rule="nonzero"
       fill="#fab21a"
       fill-opacity="1"
       d="m 63.565502,98.59627 c 1.132748,1.098296 0.811664,2.27101 -0.71658,2.61827 -1.529623,0.35002 -3.689008,-0.25769 -4.821756,-1.355987 -1.131369,-1.095541 -0.811664,-2.268251 0.719338,-2.618273 1.528244,-0.347266 3.687629,0.260449 4.818998,1.35599"
       id="path1101"
       style="stroke-width:0.352778" />
    <path
       fill-rule="nonzero"
       fill="#f3a114"
       fill-opacity="1"
       d="m 62.992238,98.286211 c 0.844737,0.818555 0.604961,1.692231 -0.534677,1.951299 -1.139638,0.26045 -2.747811,-0.19292 -3.591169,-1.010099 -0.843361,-0.817177 -0.604957,-1.690853 0.534678,-1.951302 1.138262,-0.259071 2.749186,0.192925 3.591168,1.010102"
       id="path1103"
       style="stroke-width:0.352778" />
    <path
       fill-rule="nonzero"
       fill="#e79813"
       fill-opacity="1"
       d="m 62.230185,98.069859 c 0.515384,0.49885 0.369312,1.034907 -0.326598,1.192003 -0.695907,0.159853 -1.679826,-0.117133 -2.195213,-0.615983 -0.515387,-0.500228 -0.369316,-1.033529 0.326595,-1.193381 0.69591,-0.158474 1.679829,0.118511 2.195216,0.617361"
       id="path1105"
       style="stroke-width:0.352778" />
    <path
       fill-rule="nonzero"
       fill="#e79813"
       fill-opacity="1"
       d="m 62.486499,98.922865 -3.099209,-0.872299 0.254938,-0.910883 3.099206,0.87092 -0.254935,0.912262"
       id="path1107"
       style="stroke-width:0.352778" />
    <path
       fill-rule="nonzero"
       fill="#fab21a"
       fill-opacity="1"
       d="m 62.429998,97.357413 c 0.516767,0.49885 0.369316,1.033529 -0.326594,1.192003 -0.695911,0.159853 -1.67845,-0.118511 -2.193837,-0.617361 -0.515387,-0.500228 -0.370692,-1.03215 0.326595,-1.192003 0.69591,-0.158474 1.679828,0.117133 2.193836,0.617361"
       id="path1109"
       style="stroke-width:0.352778" />
    <path
       fill-rule="nonzero"
       fill="#5c2c2e"
       fill-opacity="1"
       d="m 51.401558,113.0326 0.02205,0.0248 z m -0.06339,-0.0827 0.01655,0.0317 z m -0.03168,-0.0841 0.0069,0.0331 z m 1.373903,0.19569 v 10e-4 c -0.02618,0.022 -0.05512,0.0427 -0.08957,0.0634 0.03447,-0.0207 0.06339,-0.0427 0.08957,-0.0648 z m 0.09095,-0.11162 0.02342,-0.0455 -0.0014,0.001 z m -0.02067,0.0372 -0.0441,0.0482 z m -0.165365,-0.47956 c -0.294901,-0.17087 -0.773077,-0.17087 -1.066602,0 -0.146071,0.0854 -0.220486,0.19706 -0.220486,0.30869 v -10e-4 0.003 l -0.04272,15.09917 c 0,0.11299 0.07442,0.22462 0.223241,0.31143 0.03305,0.0193 0.07028,0.0372 0.108867,0.0524 l 0.0069,0.003 0.01655,0.004 0.0689,0.0248 0.0372,0.008 0.02205,0.006 0.0193,0.004 0.07579,0.0138 0.02618,0.003 0.01792,0.001 0.02755,0.004 0.07442,0.004 h 0.07855 l 0.08268,-0.007 0.0096,-10e-4 0.02205,-0.003 0.06477,-0.008 0.02755,-0.007 0.07579,-0.0193 0.03996,-0.01 0.03168,-0.0124 0.02893,-0.011 c 0.03583,-0.0152 0.07303,-0.0317 0.104733,-0.0496 l 0.0096,-0.006 0.08131,-0.0579 0.01379,-0.0138 0.04685,-0.0496 0.0303,-0.0455 0.02067,-0.0427 0.0028,-0.007 0.0028,-0.008 0.0069,-0.0276 0.0055,-0.0427 v -0.007 l 0.04134,-15.10192 -0.0069,0.0441 c 0.02342,-0.12678 -0.04685,-0.25769 -0.216352,-0.35553"
       id="path1111"
       style="stroke-width:0.352778" />
    <path
       fill-rule="nonzero"
       fill="#5c2c2e"
       fill-opacity="1"
       d="m 55.860892,115.15478 0.0041,0.0165 z m -0.0041,-0.051 -0.0014,0.0179 z m 0.0096,-0.0427 -0.0069,0.0165 z m 0.515387,0.44097 -0.05374,0.004 z m 0.06752,-0.022 0.02205,-0.0124 z m -0.0193,0.01 -0.0303,0.01 0.03168,-0.01 z m 0.05926,-0.24116 c -0.07855,-0.14883 -0.275607,-0.27285 -0.442351,-0.27974 -0.08268,-0.003 -0.141937,0.0248 -0.170875,0.0703 h -0.0014 v 0.001 l -3.977019,6.23011 c -0.02893,0.0455 -0.02893,0.11162 0.0096,0.18603 l 0.03168,0.051 0.0028,0.001 0.02755,0.0345 0.01242,0.0138 0.01517,0.0152 0.02755,0.0248 0.01101,0.01 0.0055,0.004 0.01242,0.01 0.02893,0.0207 0.01101,0.007 0.0069,0.006 0.01379,0.008 0.03721,0.0193 0.0041,0.001 0.0096,0.006 0.02893,0.0124 0.01242,0.006 0.03583,0.011 0.02067,0.007 0.01654,0.003 0.01379,0.004 0.0565,0.006 h 0.0055 l 0.04823,-0.003 h 0.0096 l 0.03306,-0.01 0.0055,-0.003 0.0083,-0.003 0.0096,-0.006 0.02067,-0.0124 0.0014,-0.001 0.0041,-0.003 0.0096,-0.01 0.01379,-0.0165 0.0028,-0.003 3.978398,-6.23149 -0.01517,0.0165 c 0.04134,-0.0468 0.04823,-0.11851 0.0041,-0.20395"
       id="path1113"
       style="stroke-width:0.352778" />
    <path
       fill-rule="nonzero"
       fill="#62952e"
       fill-opacity="1"
       d="m 60.032214,112.65639 c 0,-0.75516 -0.259073,-1.44969 -0.691776,-2.00091 0.212217,-0.51125 0.332108,-1.07073 0.332108,-1.65916 0,-1.39182 -0.660082,-2.62929 -1.683963,-3.41615 0.03447,-0.19155 0.05512,-0.38723 0.05512,-0.58843 0,-1.79145 -1.452453,-3.24252 -3.243901,-3.24252 -0.529166,0 -1.028019,0.12678 -1.468991,0.35278 -0.606337,-0.53606 -1.402842,-0.8599 -2.275142,-0.8599 -1.533754,0 -2.833246,1.00046 -3.279729,2.38539 -2.315104,0.19843 -4.132735,2.13871 -4.132735,4.50618 0,0.51263 0.08682,1.00597 0.243911,1.46623 -0.650434,0.51263 -1.067979,1.30776 -1.067979,2.19935 0,1.34772 0.952225,2.4722 2.218641,2.74092 0.180523,2.44602 2.22002,4.37527 4.711513,4.37527 1.511709,0 2.856674,-0.70969 3.720701,-1.81487 0.286632,0.0827 0.589802,0.12678 0.902617,0.12678 1.088651,0 2.056032,-0.52642 2.660993,-1.33808 1.67707,-0.12402 2.998611,-1.52411 2.998611,-3.23288"
       id="path1115"
       style="stroke-width:0.352778" />
    <path
       fill-rule="nonzero"
       fill="#75aa2b"
       fill-opacity="1"
       d="m 51.05567,101.2421 c -1.533754,0 -2.833246,1.00046 -3.279729,2.38539 -2.315104,0.19843 -4.132735,2.13871 -4.132735,4.50618 0,0.51263 0.08682,1.00597 0.243911,1.46623 -0.650434,0.51263 -1.067979,1.30776 -1.067979,2.19935 0,1.34772 0.952225,2.4722 2.218641,2.74092 0.09784,1.32292 0.738629,2.49287 1.701878,3.29076 0.202572,0.0262 0.409278,0.0413 0.61874,0.0413 1.511706,0 2.856671,-0.71107 3.722081,-1.81488 0.286632,0.0813 0.588422,0.1254 0.901234,0.1254 1.088651,0 2.056035,-0.52503 2.659616,-1.33669 1.67845,-0.12541 3.001367,-1.52411 3.001367,-3.23288 0,-0.75654 -0.259073,-1.45108 -0.693152,-2.00229 0.213593,-0.50988 0.333484,-1.07074 0.333484,-1.65778 0,-1.39182 -0.661458,-2.6293 -1.685343,-3.41754 0.03583,-0.19017 0.05375,-0.38722 0.05375,-0.58842 0,-0.84749 -0.325219,-1.62057 -0.85852,-2.19797 -0.526408,0.001 -1.022502,0.12816 -1.462098,0.35278 -0.606337,-0.53606 -1.402842,-0.8599 -2.275142,-0.8599"
       id="path1117"
       style="stroke-width:0.352778" />
    <path
       fill-rule="nonzero"
       fill="#8cbb25"
       fill-opacity="1"
       d="m 51.05567,101.2421 c -1.533754,0 -2.833246,1.00046 -3.279729,2.38539 -2.315104,0.19843 -4.132735,2.13871 -4.132735,4.50618 0,0.51263 0.08682,1.00597 0.243911,1.46623 -0.195683,0.15434 -0.366558,0.33625 -0.515387,0.53606 0.220486,0.29077 0.469914,0.55811 0.749652,0.78962 0.202572,0.0276 0.409279,0.0413 0.62012,0.0413 1.51033,0 2.855295,-0.70969 3.720701,-1.8135 0.286632,0.0799 0.588423,0.12402 0.901238,0.12402 1.088651,0 2.056031,-0.52503 2.660992,-1.33669 1.677071,-0.12403 2.999987,-1.52411 2.999987,-3.23288 0,-0.75517 -0.259069,-1.4497 -0.693152,-2.00091 0.125402,-0.29904 0.213597,-0.61736 0.270098,-0.94534 -0.454756,0.0276 -0.884703,0.14332 -1.270554,0.34038 -0.606337,-0.53606 -1.402842,-0.8599 -2.275142,-0.8599"
       id="path1119"
       style="stroke-width:0.352778" />
  </g>
</svg>
