<?xml version="1.0" encoding="UTF-8" standalone="no"?>
<!-- Created with Inkscape (http://www.inkscape.org/) -->

<svg
   width="14.702201mm"
   height="36.697426mm"
   viewBox="0 0 14.702201 36.697426"
   version="1.1"
   id="svg2982"
   xmlns="http://www.w3.org/2000/svg"
   xmlns:svg="http://www.w3.org/2000/svg">
  <defs
     id="defs2979">
    <clipPath
       id="clip-6">
      <path
         clip-rule="nonzero"
         d="m 364,44 h 12 v 13 h -12 z m 0,0"
         id="path20" />
    </clipPath>
    <clipPath
       id="clip-7">
      <path
         clip-rule="nonzero"
         d="m 373.3125,45.527344 c -1.54297,-1.40625 -4.66406,-0.96875 -7.21875,0.195312 -1.27344,0.585938 -1.58594,2.335938 -1.58594,2.335938 -0.28906,0.484375 1.08594,1.527344 1.44141,1.714844 0.73437,0.382812 1.49609,0.496093 2.3125,0.546874 0.49609,0.03125 1.01953,0.02344 1.5,-0.01562 0.30859,-0.03125 0.80469,-0.160157 1.09765,-0.128907 0.76172,0.08203 0.76954,1.09375 0.89844,1.699219 0.11328,0.507812 0.28906,0.914062 0.32813,1.464844 0.0156,0.246094 -0.42969,2.996094 -0.0391,3.066406 0.53125,0.09766 2.67969,-2.421875 2.83204,-3.832031 0.0976,-0.933594 1.16015,-4.566407 -1.56641,-7.046875 z m 0,0"
         id="path23" />
    </clipPath>
    <clipPath
       id="clip-8">
      <path
         clip-rule="nonzero"
         d="m 373.3125,45.527344 c -1.54297,-1.40625 -4.66406,-0.96875 -7.21875,0.195312 -1.27344,0.585938 -1.58594,2.335938 -1.58594,2.335938 -0.28906,0.484375 1.08594,1.527344 1.44141,1.714844 0.73437,0.382812 1.49609,0.496093 2.3125,0.546874 0.49609,0.03125 1.01953,0.02344 1.5,-0.01562 0.30859,-0.03125 0.80469,-0.160157 1.09765,-0.128907 0.76172,0.08203 0.76954,1.09375 0.89844,1.699219 0.11328,0.507812 0.28906,0.914062 0.32813,1.464844 0.0156,0.246094 -0.42969,2.996094 -0.0391,3.066406 0.53125,0.09766 2.67969,-2.421875 2.83204,-3.832031 0.0976,-0.933594 1.16015,-4.566407 -1.56641,-7.046875"
         id="path26" />
    </clipPath>
  </defs>
  <g
     id="layer1"
     transform="translate(-97.843504,-130.49227)">
    <path
       fill-rule="nonzero"
       fill="#fcd498"
       fill-opacity="1"
       d="m 104.23898,147.19188 c 0,0 0.0537,0.75929 0.3955,0.9095 0.34175,0.15021 0.95636,-0.59118 0.95636,-0.59118 l -1.35186,-0.31832"
       id="path698"
       style="stroke-width:0.352778" />
    <path
       fill-rule="nonzero"
       fill="#1e1712"
       fill-opacity="1"
       d="m 107.16042,162.00992 c 0,0 0.64906,0.92328 0.33211,1.73495 -0.073,0.19017 -0.77308,0.66973 -0.94534,0.66284 -0.17638,-0.008 -0.25355,0.0152 -0.41754,0.17501 -0.16399,0.15985 -0.1323,0.22599 -0.38999,0.43132 -0.25631,0.20533 -1.46761,0.72623 -2.37987,0.0909 0,0 -0.0413,-0.39411 0.007,-0.5209 0.0469,-0.12677 0.67937,-0.67248 0.98392,-0.82268 0.30041,-0.15021 1.10794,-1.04456 1.18098,-1.23059 0.073,-0.18328 0.37758,-0.29628 0.37758,-0.29628 0,0 0.56086,-0.68488 1.25126,-0.22462"
       id="path700"
       style="stroke-width:0.352778" />
    <path
       fill-rule="nonzero"
       fill="#1e1712"
       fill-opacity="1"
       d="m 110.39192,163.78897 c 0,0 0.64906,0.92466 0.33211,1.73632 -0.073,0.1888 -0.77308,0.66973 -0.94534,0.66146 -0.17776,-0.007 -0.25356,0.0152 -0.41754,0.17639 -0.16537,0.15986 -0.13367,0.22462 -0.38999,0.42995 -0.25769,0.20533 -1.46899,0.72622 -2.37987,0.0923 0,0 -0.0413,-0.39412 0.004,-0.52228 0.0496,-0.12678 0.68213,-0.67248 0.9853,-0.82131 0.30178,-0.15021 1.10932,-1.04593 1.18097,-1.23059 0.0744,-0.18465 0.37758,-0.29628 0.37758,-0.29628 0,0 0.56224,-0.68488 1.25264,-0.22599"
       id="path702"
       style="stroke-width:0.352778" />
    <path
       fill-rule="nonzero"
       fill="#525d66"
       fill-opacity="1"
       d="m 108.83612,149.34988 c -0.26734,0.93018 -0.26734,1.8948 -0.46303,2.84152 -0.23289,1.1231 -0.12264,2.47495 -0.73587,3.48781 -0.18466,0.30455 -0.74,0.78549 -1.37115,0.67662 -0.3638,-0.062 -1.01837,-0.23427 -1.06798,-0.4892 -0.0813,-0.42306 -0.0909,-0.75103 -0.0579,-0.98668 0.0606,-0.43959 0.27561,-3.0744 0.3197,-3.92465 0.0331,-0.69591 0.0841,-1.12448 0.1571,-1.89205 0,0 -0.14056,-0.85163 1.50481,-0.47818 1.64538,0.37345 1.75287,0.62977 1.71429,0.76481"
       id="path704"
       style="stroke-width:0.352778" />
    <path
       fill-rule="nonzero"
       fill="#525d66"
       fill-opacity="1"
       d="m 107.87425,156.24972 c -0.0992,-0.61323 -0.0303,-1.10105 -0.0496,-1.78456 -0.0138,-0.50298 -2.6665,0.0717 -2.70233,1.28985 0,0 0.54708,4.74045 0.21498,6.24389 l -0.0427,0.25218 c 0,0 -0.0772,0.22737 0.10335,0.38447 0.0138,0.01 0.26734,0.21911 0.6022,0.2949 0.46716,0.10611 1.08865,0.051 1.41249,-0.30317 0.791,-0.86678 0.79651,-4.32153 0.46165,-6.37756"
       id="path706"
       style="stroke-width:0.352778" />
    <path
       fill-rule="nonzero"
       fill="#606c76"
       fill-opacity="1"
       d="m 110.65788,149.46839 c -0.10197,0.96325 0.26045,2.30546 0.23151,3.27147 -0.0358,1.14652 -0.0785,3.03581 0.0951,4.32704 0.0482,0.35415 -0.81304,0.13504 -1.45383,0.13642 -0.36794,0.001 -0.96601,-0.10059 -1.13551,-0.29628 -0.0592,-0.0675 -0.17363,-0.16812 -0.22186,-0.37482 -0.13918,-0.61874 -0.21497,-3.27146 -0.36794,-4.51032 -0.0854,-0.6904 -0.15158,-1.32154 -0.41616,-1.9954 0,0 -0.0854,-0.91502 1.60128,-0.93431 1.40973,-0.0165 1.66742,0.3762 1.66742,0.3762"
       id="path708"
       style="stroke-width:0.352778" />
    <path
       fill-rule="nonzero"
       fill="#606c76"
       fill-opacity="1"
       d="m 110.98448,157.0669 c -0.56224,-2.78364 -2.49976,-1.50069 -2.70647,-0.29904 0,0 0.8971,5.28616 0.35829,6.73034 l -0.0786,0.24254 c 0,0 -0.10749,0.21359 0.0496,0.39687 0.0124,0.011 0.23427,0.25218 0.55535,0.37483 0.44786,0.1695 1.07074,0.20257 1.44005,-0.10198 0.90399,-0.74827 0.79513,-5.30131 0.38172,-7.34356"
       id="path710"
       style="stroke-width:0.352778" />
    <path
       fill-rule="nonzero"
       fill="#100e0c"
       fill-opacity="1"
       d="m 106.87379,138.52126 c -0.36932,1.87 -1.16169,4.96645 -1.82177,4.83691 -0.24805,-0.0482 -0.74,-0.7717 -0.60082,-1.36701 0.32246,-1.39458 0.12264,-2.99448 0.35277,-4.16305 0.36794,-1.86862 0.74001,-2.09738 1.40009,-1.96784 0.66146,0.13091 1.03767,0.78961 0.66973,2.66099"
       id="path712"
       style="stroke-width:0.352778" />
    <path
       fill-rule="nonzero"
       fill="#100e0c"
       fill-opacity="1"
       d="m 105.24908,143.32786 c -1.56132,0.75241 -3.40789,0.54294 -4.24849,0.9219 -0.20533,0.0923 -0.55535,-0.87918 -0.13918,-1.24436 0.65319,-0.57327 2.75332,-0.71521 4.24298,-1.7198 0,0 -0.0827,-0.0565 0.22738,0.45613 0.31143,0.51263 0.64492,1.2361 -0.0827,1.58613"
       id="path714"
       style="stroke-width:0.352778" />
    <path
       fill-rule="nonzero"
       fill="#a7d81b"
       fill-opacity="1"
       d="m 109.02215,136.47074 c 0.15158,0.0303 1.75286,0.83647 2.46393,1.644 0.52366,0.59255 0.11852,1.99264 0.113,2.17592 -0.0221,0.59807 -0.84336,4.23333 -0.97014,5.04362 -0.12678,0.80891 0.20395,1.39595 0.25081,2.28754 0.0317,0.57878 0.073,1.94993 0.0262,2.1966 -0.15296,0.81304 -2.47358,0.6835 -2.88286,0.66008 -1.31326,-0.0786 -2.96553,-1.07212 -2.82911,-1.71428 0.31557,-1.48828 0.28388,-5.2586 0.17088,-7.01146 -0.0275,-0.42168 -0.0592,-0.72761 -0.0923,-0.85438 -0.1695,-0.65595 -0.98116,-4.02525 0.0289,-4.92098 0.25907,-0.23013 0.77997,-0.37758 1.09416,-0.36242 1.11897,0.0551 2.43913,0.8158 2.62654,0.85576"
       id="path716"
       style="stroke-width:0.352778" />
    <path
       fill-rule="nonzero"
       fill="#767779"
       fill-opacity="1"
       d="m 105.86093,143.65032 c -0.44648,-0.47956 -0.44786,-0.89711 -0.44786,-0.89711 0.0165,0.46303 0.0262,0.97703 0.0303,1.50896 0.27836,0.40238 0.71796,0.66697 1.26229,0.96324 1.40146,0.76206 3.36241,0.4079 3.91362,0.16399 0.004,-0.0331 0.004,-0.0634 0.01,-0.0965 0.0317,-0.19982 0.10474,-0.57189 0.19844,-1.02802 -0.27009,0.17364 -0.50574,0.32384 -1.06109,0.43271 -1.50619,0.2949 -3.34174,-0.44235 -3.90536,-1.04731"
       id="path718"
       style="stroke-width:0.352778" />
    <path
       fill-rule="nonzero"
       fill="#767779"
       fill-opacity="1"
       d="m 110.78604,146.87079 c -0.0565,-0.27974 -0.11851,-0.54294 -0.15572,-0.80891 -0.2067,0.12265 -0.44373,0.22876 -0.86403,0.31144 -1.50619,0.2949 -3.47954,-0.38034 -4.04454,-0.9853 -0.11989,-0.12953 -0.20946,-0.24667 -0.27837,-0.35277 -0.003,0.33761 -0.01,0.67661 -0.0179,1.00596 0.29628,0.37759 0.77859,0.63252 1.29674,0.91364 1.52824,0.83096 3.72621,0.10611 4.06383,-0.0841"
       id="path720"
       style="stroke-width:0.352778" />
    <path
       fill-rule="nonzero"
       fill="#141414"
       fill-opacity="1"
       d="m 108.01756,135.80101 c -0.0207,0.0276 -1.01561,-0.0248 -1.61644,0.66008 -0.6022,0.68489 -0.43684,0.57878 -0.43684,0.57878 l 0.42306,-0.13781 c 0,0 0.15159,1.76252 0.35002,2.01056 l 1.69775,-1.12172 0.12815,0.77997 c 0,0 1.30914,-1.44694 1.13551,-1.82039 -0.41893,-0.8971 -1.45797,-1.23059 -1.68121,-0.94947"
       id="path722"
       style="stroke-width:0.352778" />
    <path
       fill-rule="nonzero"
       fill="#fbc584"
       fill-opacity="1"
       d="m 107.51044,136.02012 c 0,0 -0.73174,0.24529 -0.83784,1.22783 -0.10611,0.98392 0.0648,1.66467 0.0648,1.66467 0.004,-0.0703 1.01424,-0.94947 1.8452,-1.56269 0.0896,-0.0661 1.00045,-0.74414 0,-1.20716 l -1.07212,-0.12265"
       id="path724"
       style="stroke-width:0.352778" />
    <path
       fill-rule="nonzero"
       fill="#fbc584"
       fill-opacity="1"
       d="m 109.0883,134.6159 c 0,0.52641 -0.0882,0.79375 -0.0166,1.42765 0.0234,0.20257 0.11575,0.46026 0.11575,0.74414 0,0.47955 -0.52365,0.68488 -0.78823,0.82269 -0.24116,0.1254 -1.2361,-0.20947 -1.1796,-0.54846 0.0469,-0.27423 -0.01,-0.67524 0.0841,-0.94534 0.1061,-0.29903 0.3886,-0.46302 0.3886,-0.77721 l 1.39595,-0.72347"
       id="path726"
       style="stroke-width:0.352778" />
    <path
       fill-rule="nonzero"
       fill="#fcd498"
       fill-opacity="1"
       d="m 106.19855,132.39037 c 0.005,0.29765 0.001,0.55121 -0.0661,0.83922 -0.0469,0.20257 0.0317,0.71107 -0.0441,1.24851 -0.0455,0.33624 0.0716,0.68075 0.1626,1.00872 0.0703,0.25769 0.10612,0.55948 0.33763,0.71796 0.57464,0.39412 1.22645,-0.0152 1.81349,-0.2136 0.58154,-0.1943 0.49885,-1.03353 0.68627,-1.51171 0.33486,-0.86265 0.11024,-2.07946 -0.84061,-2.46806 -0.42581,-0.17364 -1.12861,-0.26596 -1.5682,-0.10473 -0.15434,0.0565 -0.49196,0.18052 -0.48094,0.48369"
       id="path728"
       style="stroke-width:0.352778" />
    <g
       clip-path="url(#clip-6)"
       id="g736"
       transform="matrix(0.35277777,0,0,0.35277777,-22.430288,115.29167)">
      <g
         clip-path="url(#clip-7)"
         id="g734">
        <g
           clip-path="url(#clip-8)"
           id="g732">
          <path
             fill-rule="nonzero"
             fill="#201c1c"
             fill-opacity="1"
             d="M 379.89844,45.46875 374.75,60.1875 360.35937,55.15625 365.50781,40.4375 Z m 0,0"
             id="path730" />
        </g>
      </g>
    </g>
    <path
       fill-rule="nonzero"
       fill="#fcd498"
       fill-opacity="1"
       d="m 109.27571,134.6035 c -0.1254,0.31006 -0.33762,0.51676 -0.47405,0.46164 -0.13642,-0.0551 -0.28111,-0.35416 -0.15571,-0.66421 0.1254,-0.31006 0.47404,-0.51401 0.61047,-0.45889 0.13642,0.0551 0.14469,0.3514 0.0193,0.66146"
       id="path738"
       style="stroke-width:0.352778" />
    <path
       fill-rule="nonzero"
       fill="#141414"
       fill-opacity="1"
       d="m 112.3198,140.42295 c 0.26182,1.88791 0.4203,5.3523 -0.24529,5.44325 -0.25081,0.0358 -1.38493,-0.50298 -1.44832,-1.11207 -0.15021,-1.42352 -0.4644,-3.07165 -0.62839,-4.25125 -0.26045,-1.88791 0.1571,-2.28479 0.82407,-2.37712 0.66559,-0.0923 1.23748,0.40928 1.49793,2.29719"
       id="path740"
       style="stroke-width:0.352778" />
    <path
       fill-rule="nonzero"
       fill="#141414"
       fill-opacity="1"
       d="m 111.10988,146.54558 c -1.52687,0.82131 -4.53926,1.87688 -4.81211,1.34496 -0.10198,-0.20119 -0.45889,-0.79788 -0.0179,-1.13275 0.69177,-0.52641 2.78915,-1.10794 4.34633,-2.00366 0.34175,-0.19569 1.31465,-0.25632 1.5875,0.27836 0.27147,0.5333 -0.022,0.93293 -1.10381,1.51309"
       id="path742"
       style="stroke-width:0.352778" />
    <path
       fill-rule="nonzero"
       fill="#fbda26"
       fill-opacity="1"
       d="m 106.16961,132.23052 c 0,0 -1.06522,0.0496 -0.91915,0.30179 0.14745,0.25218 1.4869,1.13825 2.21451,1.1603 0.7276,0.0234 1.73357,-0.20808 1.73357,-0.20808 l -3.02893,-1.25401"
       id="path744"
       style="stroke-width:0.352778" />
    <path
       fill-rule="nonzero"
       fill="#fab50a"
       fill-opacity="1"
       d="m 107.13699,133.18412 c -0.76067,-0.27837 -1.13964,-0.48783 -1.44142,-0.87368 0.29765,-1.24299 1.531,-2.0326 2.7919,-1.76664 1.28158,0.27009 2.10013,1.52824 1.83004,2.80844 -0.0675,0.32246 -0.19844,0.6146 -0.37483,0.86816 -0.46853,-0.008 -2.19108,-0.81166 -2.80569,-1.03628"
       id="path746"
       style="stroke-width:0.352778" />
    <path
       fill-rule="nonzero"
       fill="#222d61"
       fill-opacity="1"
       d="m 97.941347,144.25528 4.400073,2.5411 4.85207,1.23748 -4.40007,-2.54111 -4.852073,-1.23747"
       id="path748"
       style="stroke-width:0.352778" />
    <path
       fill-rule="nonzero"
       fill="#ffffff"
       fill-opacity="1"
       d="m 98.995545,144.61357 3.971505,2.13596 3.68625,1.0349 -3.90812,-2.24207 -3.749635,-0.92879"
       id="path750"
       style="stroke-width:0.352778" />
    <path
       fill-rule="nonzero"
       fill="#fbda26"
       fill-opacity="1"
       d="m 106.06488,132.66735 c 0.57878,-1.85208 1.96784,-1.70876 1.96784,-1.70876 l 0.56637,0.0827 c -1.64538,0.36656 -1.93338,1.531 -1.98437,1.93476 -0.22187,-0.0992 -0.39963,-0.19706 -0.54984,-0.30868"
       id="path752"
       style="stroke-width:0.352778" />
    <path
       fill-rule="nonzero"
       fill="#fcd498"
       fill-opacity="1"
       d="m 100.92755,143.08119 c -0.0758,-0.0372 -0.13367,-0.0965 -0.20946,-0.12954 -0.25356,-0.11024 -0.29076,0.26183 -0.3886,0.42719 -0.0565,0.0965 -0.12403,0.19569 -0.19844,0.27699 -0.0772,0.0841 0.58842,0.50712 0.70693,0.49885 0.11024,-0.01 0.26458,-0.18328 0.3266,-0.26734 0.0785,-0.10473 0.1502,-0.61598 -0.23703,-0.80615"
       id="path754"
       style="stroke-width:0.352778" />
    <path
       fill-rule="nonzero"
       fill="#fbc584"
       fill-opacity="1"
       d="m 100.17377,142.68431 c -0.0386,-0.0386 -0.16674,-0.0234 -0.226,-0.0289 -0.117133,-0.011 -0.223245,-0.0234 -0.338998,-0.0496 -0.183279,-0.0427 -0.290767,-0.0923 -0.472666,-0.01 -0.104733,0.0482 -0.186037,0.0703 -0.297656,0.0868 -0.135051,0.0207 -0.183282,0.0606 -0.286632,0.14882 -0.130916,0.113 -0.253559,0.226 -0.38861,0.33349 -0.04272,0.0345 -0.199813,0.13367 -0.212217,0.18603 -0.05099,0.23014 0.40652,0.0579 0.482315,0.0179 0.124022,-0.0661 0.2384,-0.15985 0.369312,-0.20395 0.198438,-0.0661 0.469911,-0.0234 0.672483,0.0179 0.115757,0.0221 0.213596,0.062 0.334863,0.0372 0.165365,-0.0344 0.341756,-0.10886 0.496096,-0.1695 l -0.13229,-0.36656"
       id="path756"
       style="stroke-width:0.352778" />
    <path
       fill-rule="nonzero"
       fill="#fbc584"
       fill-opacity="1"
       d="m 100.69604,142.13585 -2.852536,1.65089 2.852536,-1.65089"
       id="path758"
       style="stroke-width:0.352778" />
    <path
       fill-rule="nonzero"
       fill="#201c1c"
       fill-opacity="1"
       d="m 98.055724,144.10507 c -0.03306,0.004 -0.06615,-0.01 -0.08819,-0.0386 -0.03171,-0.0413 -0.0248,-0.10197 0.01792,-0.13366 l 2.622406,-1.99816 c 0.0427,-0.0317 0.10335,-0.0248 0.13504,0.0179 0.0317,0.0427 0.0234,0.10198 -0.0179,0.13505 l -2.62378,1.99816 -0.04547,0.0193"
       id="path760"
       style="stroke-width:0.352778" />
    <path
       fill-rule="nonzero"
       fill="#fbc584"
       fill-opacity="1"
       d="m 100.93582,143.78674 c 0.0593,0.15986 -1.248499,-0.70969 -1.270547,-0.68213 l -0.883324,0.19706 c -0.08957,0.0896 -0.283877,0.24254 -0.195682,0.37896 0.04272,0.0689 0.15434,0.0868 0.256314,0.0923 -0.05788,0.1006 -0.10335,0.21635 -0.02342,0.29352 0.05512,0.051 0.157096,0.0469 0.253559,0.0303 -0.03306,0.0868 -0.04272,0.17501 0.02618,0.23013 0.09922,0.0799 0.31419,-0.011 0.417544,-0.0413 0.272852,-0.0772 1.821766,0.12816 1.419386,-0.49885"
       id="path762"
       style="stroke-width:0.352778" />
    <path
       fill-rule="nonzero"
       fill="#fcd498"
       fill-opacity="1"
       d="m 100.98819,143.70957 c -0.0606,0.15021 -1.441429,-0.35829 -1.411112,-0.53054 0.04823,-0.26459 0.319705,-0.44235 0.500222,-0.51539 0.26459,-0.10473 0.59256,0.1571 0.78549,0.33073 0.10335,0.0909 0.14607,0.26458 0.12815,0.44924 -0.0248,0.2701 -0.003,0.26596 -0.003,0.26596"
       id="path764"
       style="stroke-width:0.352778" />
    <path
       fill-rule="nonzero"
       fill="#fcd498"
       fill-opacity="1"
       d="m 99.56054,142.92547 c -0.108864,0.0854 -0.563619,0.13643 -0.686262,0.14056 -0.190168,0.006 -0.516767,0.26458 -0.226,0.39687 0.221865,0.10198 0.440972,-0.0413 0.650434,-0.0799 0.173634,-0.0331 0.202572,-0.0207 0.304546,0.10335 0.08957,0.10749 0.190172,0.20671 0.30317,0.28939 0.230132,0.16536 0.501602,0.22049 0.773082,0.12402 0.10611,-0.0386 0.31143,-0.10886 0.36104,-0.21635 0.14745,-0.33211 -0.25493,-0.48231 -0.50023,-0.55535 -0.16812,-0.0469 -0.2756,-0.0978 -0.41892,-0.19292 -0.172254,-0.11576 -0.388606,-0.1447 -0.56086,-0.01"
       id="path766"
       style="stroke-width:0.352778" />
    <path
       fill-rule="nonzero"
       fill="#fcd498"
       fill-opacity="1"
       d="m 106.64228,147.18361 c -0.20946,-0.21773 -0.69867,-0.28112 -0.8158,-0.29904 -0.23013,-0.0344 -0.47267,-0.20119 -0.68626,-0.0372 -0.11025,0.0827 -0.19431,0.14056 -0.32384,0.15434 -0.13918,0.0152 -0.0992,0.073 -10e-4,0.14056 0.0882,0.0592 0.17777,0.12264 0.28249,0.0827 0.13919,-0.0524 0.36105,-0.0868 0.38861,0.13642 0.0276,0.22049 -0.15572,0.19569 -0.30317,0.27699 -0.23426,0.12954 -0.39687,0.13918 -0.53467,0.3762 -0.0799,0.11576 0.10611,0.30731 0.32797,0.23703 -0.0166,0.0289 -0.0937,0.0345 -0.0579,0.10886 0.113,0.16123 0.31695,0.17226 0.43959,0.0744 -0.17225,0.22048 0.23014,0.30592 0.37207,0.1378 -0.011,0.19706 0.38172,0.11438 0.4837,0.062 0.18741,-0.0951 0.47128,-0.339 0.59531,-0.50298 0.10335,-0.13367 0.14883,-0.49885 0.0482,-0.66008 -0.0427,-0.0689 -0.14745,-0.24116 -0.21497,-0.28801"
       id="path768"
       style="stroke-width:0.352778" />
  </g>
</svg>
