<?xml version="1.0" encoding="UTF-8" standalone="no"?>
<!-- Created with Inkscape (http://www.inkscape.org/) -->

<svg
   width="11.205516mm"
   height="23.434406mm"
   viewBox="0 0 11.205516 23.434406"
   version="1.1"
   id="svg9391"
   xmlns="http://www.w3.org/2000/svg"
   xmlns:svg="http://www.w3.org/2000/svg">
  <defs
     id="defs9388">
    <clipPath
       id="clip-56">
      <path
         clip-rule="nonzero"
         d="m 209,272 h 2 v 2 h -2 z m 0,0"
         id="path1829" />
    </clipPath>
    <clipPath
       id="clip-57">
      <path
         clip-rule="nonzero"
         d="m 209.89062,273.36328 c -0.16015,-0.19531 -0.36328,-0.50781 -0.48046,-0.73047 l 0.7539,0.1836 c 0.0391,0.0586 0.0859,0.12109 0.14063,0.1875 l -0.10157,0.0859 -0.3125,0.27344"
         id="path1832" />
    </clipPath>
  </defs>
  <g
     id="layer1"
     transform="translate(-99.591844,-137.12378)">
    <path
       fill-rule="nonzero"
       fill="#dcdcdb"
       fill-opacity="1"
       d="m 103.43726,160.55816 c -0.98392,0 -1.96784,-0.21773 -2.71887,-0.65043 -1.502061,-0.86679 -1.502061,-2.27239 0,-3.13917 0.73725,-0.42582 1.7005,-0.64355 2.66651,-0.65044 0.0165,0.18053 0.0331,0.3514 0.0537,0.5085 l 1.41938,-0.0965 c 0.0303,-0.0124 0.0634,-0.0179 0.0992,-0.0179 0.062,0 0.12953,0.0165 0.19292,0.0331 0.0648,0.0165 0.1254,0.0331 0.17363,0.0331 0.0551,0 0.0951,-0.0207 0.10749,-0.0854 0.001,-0.01 0.003,-0.0275 0.004,-0.0524 0.25631,0.0896 0.49885,0.19981 0.72071,0.32797 1.50206,0.86678 1.50206,2.27238 0,3.13917 -0.75103,0.4327 -1.73495,0.65043 -2.71887,0.65043"
       id="path7169"
       style="stroke-width:0.352778" />
    <path
       fill-rule="nonzero"
       fill="#3c3c3b"
       fill-opacity="1"
       d="m 108.77165,141.96429 c 0.15709,0.28939 0.10335,0.70969 0.10335,0.70969 -0.0207,0.27974 -0.20946,0.38448 -0.59256,0.43133 l -2.66375,0.32797 c -0.0331,0.004 -0.0661,0.007 -0.0978,0.006 h -0.01 c -0.33899,-0.01 -0.62838,-0.26597 -0.6711,-0.61323 -0.0179,-0.14332 0.008,-0.28388 0.0703,-0.40376 l 0.04,-0.0689 c 0.11025,-0.16261 0.28664,-0.27974 0.49747,-0.30592 l 0.1006,-0.0124 2.56315,-0.31557 c 0.36243,-0.0799 0.55673,0.0537 0.66008,0.24529"
       id="path7171"
       style="stroke-width:0.352778" />
    <path
       fill-rule="nonzero"
       fill="#3c3c3b"
       fill-opacity="1"
       d="m 105.81851,142.15859 -0.98668,-0.94533 -0.88883,-0.79513 c -0.30179,-0.27009 -0.76895,-0.24667 -1.04317,0.0538 -0.27424,0.29903 -0.25081,0.76205 0.051,1.03215 l 1.91272,1.69361 c 0.57189,0.42857 0.91915,0.21084 1.12035,0.003 0.28111,-0.29215 0.13642,-0.7717 -0.16537,-1.0418"
       id="path7173"
       style="stroke-width:0.352778" />
    <path
       fill-rule="nonzero"
       fill="#262626"
       fill-opacity="1"
       d="m 101.15247,158.66198 c -0.23013,0.12816 -0.23151,0.34175 -0.007,0.47542 l 1.28158,0.76068 c 0.226,0.13367 0.59531,0.13918 0.82407,0.011 0.22875,-0.12954 0.23151,-0.34176 0.005,-0.4768 l -1.2802,-0.76068 c -0.226,-0.13367 -0.59531,-0.1378 -0.82407,-0.01"
       id="path7175"
       style="stroke-width:0.352778" />
    <path
       fill-rule="nonzero"
       fill="#262626"
       fill-opacity="1"
       d="M 102.3803,157.92198 101.42946,157.82 c -0.20671,0.27147 -0.38999,0.57878 -0.45062,1.05834 l 2.44188,0.83095 c 0.0661,-0.33349 -0.31695,-0.8158 -0.77997,-1.15617 -0.18879,-0.13919 -0.0909,-0.44511 -0.26045,-0.63114"
       id="path7177"
       style="stroke-width:0.352778" />
    <path
       fill-rule="nonzero"
       fill="#262626"
       fill-opacity="1"
       d="m 103.73767,157.02349 c -0.23013,0.12816 -0.23289,0.34176 -0.007,0.47543 l 1.28158,0.76067 c 0.226,0.13368 0.59531,0.13919 0.82407,0.01 0.22875,-0.12816 0.23151,-0.34038 0.005,-0.47543 l -1.28157,-0.76067 c -0.226,-0.13367 -0.59394,-0.13781 -0.82269,-0.01"
       id="path7179"
       style="stroke-width:0.352778" />
    <path
       fill-rule="nonzero"
       fill="#262626"
       fill-opacity="1"
       d="m 104.96551,156.28349 -0.95085,-0.10198 c -0.20671,0.27148 -0.38998,0.57878 -0.45062,1.05833 l 2.44188,0.83096 c 0.0661,-0.33348 -0.31694,-0.8158 -0.77997,-1.15617 -0.18879,-0.13918 -0.0909,-0.44373 -0.26044,-0.63114"
       id="path7181"
       style="stroke-width:0.352778" />
    <path
       fill-rule="nonzero"
       fill="#3c3c3b"
       fill-opacity="1"
       d="m 105.30864,151.93578 -2.00918,0.24667 -0.0537,-0.42857 -0.16261,-1.32154 -0.0593,-0.47956 -0.0138,-0.11713 -0.0689,-0.56638 -0.16398,-1.33118 -0.12954,-1.05007 2.01056,-0.24666 0.25907,2.11115 0.0717,0.5774 0.3197,2.60587"
       id="path7183"
       style="stroke-width:0.352778" />
    <path
       fill-rule="nonzero"
       fill="#363635"
       fill-opacity="1"
       d="m 103.21815,149.73505 c 0.0179,-0.008 0.0345,-0.0165 0.0524,-0.0248 0.0303,-0.0152 0.0606,-0.0303 0.0909,-0.0469 -0.0427,0.0221 -0.0841,0.0427 -0.12678,0.0634 l -0.0165,0.008"
       id="path7185"
       style="stroke-width:0.352778" />
    <path
       fill-rule="nonzero"
       fill="#3c3c3b"
       fill-opacity="1"
       d="m 105.11158,156.10572 c 0.40376,0.19844 0.42857,0.56224 0.0551,0.81304 -0.37483,0.25081 -1.00459,0.29353 -1.40973,0.0951 -0.40377,-0.19844 -0.42858,-0.56224 -0.0551,-0.81305 0.37482,-0.2508 1.00596,-0.29352 1.40973,-0.0951"
       id="path7187"
       style="stroke-width:0.352778" />
    <path
       fill-rule="nonzero"
       fill="#3c3c3b"
       fill-opacity="1"
       d="m 103.43864,156.62662 c -0.18742,-1.47174 -0.16261,-4.24711 -0.13918,-4.44417 0.0248,-0.2136 0.14469,-0.91915 0.30868,-1.05834 0.23289,-0.19568 0.50849,-0.38171 0.81166,-0.36104 0.36656,0.0262 0.8475,0.80753 0.88884,1.17271 0.0455,0.40238 0.1626,4.34357 0.12264,4.55717 -0.0234,0.12264 -0.14469,0.0882 -0.28112,0.0524 -0.0992,-0.0248 -0.2067,-0.051 -0.29214,-0.0152 l -1.41938,0.0965"
       id="path7189"
       style="stroke-width:0.352778" />
    <path
       fill-rule="nonzero"
       fill="#3c3c3b"
       fill-opacity="1"
       d="m 103.04865,147.94222 -0.0648,5.33301 -2.02434,-0.0248 0.0648,-5.33301 2.02434,0.0248"
       id="path7191"
       style="stroke-width:0.352778" />
    <path
       fill-rule="nonzero"
       fill="#3c3c3b"
       fill-opacity="1"
       d="m 105.1226,148.61333 c 0,0 -0.0937,0.0648 -0.25356,0.1695 -0.30179,0.19843 -0.83922,0.53605 -1.4304,0.84198 -0.0551,0.0289 -0.11162,0.0565 -0.16812,0.0854 -0.0868,0.0427 -0.17364,0.0841 -0.26045,0.12541 -0.98943,0.45613 -2.00505,0.71658 -2.25034,0.0276 -0.0372,-0.10336 -0.0579,-0.22876 -0.0565,-0.37758 l -0.13091,-2.98897 -0.1943,-4.44142 c 0.33761,-0.57877 0.86265,-1.07762 1.54064,-1.48552 1.1231,-0.67524 2.31097,-0.0345 2.5604,1.14653 l 10e-4,0.001 c 0.0331,0.15572 0.0496,0.32108 0.0469,0.49472 l 0.008,0.11575 0.28663,3.95221 c 0.0854,0.63114 0.18465,1.33808 0.28112,2.16904 l 0.001,0.001 c 0.005,0.0537 0.0124,0.10749 0.0179,0.16261"
       id="path7193"
       style="stroke-width:0.352778" />
    <path
       fill-rule="nonzero"
       fill="#3c3c3b"
       fill-opacity="1"
       d="m 102.53878,157.71665 c 0.41065,0.18603 0.44511,0.54983 0.0785,0.81028 -0.36656,0.26183 -0.99632,0.32246 -1.4056,0.13643 -0.40928,-0.18741 -0.44511,-0.54984 -0.0786,-0.81166 0.36656,-0.26183 0.99632,-0.32246 1.4056,-0.13505"
       id="path7195"
       style="stroke-width:0.352778" />
    <path
       fill-rule="nonzero"
       fill="#3c3c3b"
       fill-opacity="1"
       d="m 100.881,158.28578 c -0.0937,-1.48139 -0.004,-4.86448 0.0785,-5.03535 0.0923,-0.19431 0.23564,-0.40377 0.4079,-0.53193 0.24391,-0.1819 0.53192,-0.35002 0.83233,-0.31006 0.3638,0.0482 0.70142,0.50988 0.78411,0.86679 0.0827,0.35691 -0.0606,4.60816 -0.11438,4.819 -0.0537,0.20946 -0.0496,0.19982 -0.25356,0.27285 l -1.73495,-0.0813"
       id="path7197"
       style="stroke-width:0.352778" />
    <path
       fill-rule="nonzero"
       fill="#ffffff"
       fill-opacity="1"
       d="m 102.77304,142.42318 -0.24942,-0.7593 -0.003,-0.11162 1.14653,-0.71796 0.0372,-0.0234 c 0.16261,0.31006 0.14745,0.66421 0.22738,1.13826 -0.0868,0.41479 -0.18052,0.78686 -0.30179,1.13412 l -0.0372,0.23151 -0.81993,-0.89159"
       id="path7199"
       style="stroke-width:0.352778" />
    <path
       fill-rule="nonzero"
       fill="#c1aaa4"
       fill-opacity="1"
       d="m 103.50754,141.68593 -0.26183,0.14469 -0.19017,-0.54432 0.43684,-0.16399 0.0152,0.56362"
       id="path7201"
       style="stroke-width:0.352778" />
    <path
       fill-rule="nonzero"
       fill="#ededed"
       fill-opacity="1"
       d="m 101.98756,140.28446 c -0.073,0.13367 -0.25907,0.35554 -0.31695,0.45613 -0.0345,0.062 -0.0345,0.13368 -0.011,0.21222 0.0661,0.22325 0.19292,0.35416 0.3762,0.49747 0.27975,0.21911 0.56913,0.42582 0.86403,0.62288 0.15434,-0.27285 0.27975,-0.56224 0.37207,-0.86128 0.15986,0.13919 0.31971,0.27837 0.47956,0.41617 0.0248,-0.24529 0.0345,-0.49747 -0.0248,-0.73725 -0.0579,-0.24116 -0.19155,-0.47129 -0.40101,-0.6022 -0.18328,-0.11438 -0.4079,-0.14469 -0.62287,-0.1254 -0.21498,0.0193 -0.42306,0.0841 -0.62839,0.14883 -0.022,0.007 -0.0358,-0.007 -0.0468,-0.0193 -0.0152,-0.0165 -0.0248,-0.0331 -0.04,-0.008"
       id="path7203"
       style="stroke-width:0.352778" />
    <path
       fill-rule="nonzero"
       fill="#c1aaa4"
       fill-opacity="1"
       d="m 103.65637,143.45395 0.0303,0.0675 -0.1943,0.12953 -0.23978,-0.24942 -0.003,-0.71245 -0.004,-0.85852 0.26182,-0.14469 0.14883,0.98805 0.0841,0.565 -0.0841,0.21497"
       id="path7205"
       style="stroke-width:0.352778" />
    <path
       fill-rule="nonzero"
       fill="#262626"
       fill-opacity="1"
       d="m 101.90075,140.41813 -0.0303,0.0372 0.0303,-0.0372"
       id="path7207"
       style="stroke-width:0.352778" />
    <path
       fill-rule="nonzero"
       fill="#262626"
       fill-opacity="1"
       d="m 103.90579,144.08096 -0.41341,-0.42995 -0.23978,-0.24942 -0.70004,-0.72898 -0.46302,-0.48232 0.20119,-0.37207 -0.28801,0.22049 c -0.47404,-0.51815 -0.67386,-0.99081 -0.39687,-1.26642 l 0.26458,-0.31695 c -0.0799,0.11162 -0.24805,0.46027 0.48645,1.05558 0.062,0.051 0.11713,0.10059 0.16674,0.15296 0.21773,0.22462 0.35553,0.48094 0.66973,0.9412 l 0.0565,0.0841 c 0.13918,0.21635 0.26045,0.44924 0.35967,0.66146 0.0165,0.0345 0.0317,0.0689 0.0468,0.10335 l 0.0303,0.0675 c 0.13643,0.31143 0.21497,0.54708 0.21911,0.55948"
       id="path7209"
       style="stroke-width:0.352778" />
    <path
       fill-rule="nonzero"
       fill="#262626"
       fill-opacity="1"
       d="m 104.23239,141.09062 c 0,0 -0.0675,0.41203 -0.17088,0.91088 -0.0868,0.41617 -0.19981,0.89021 -0.32108,1.23748 l -0.0841,0.21497 c -0.022,0.0496 -0.0441,0.0937 -0.0675,0.13229 0.007,-0.0772 0.0138,-0.15572 0.0207,-0.23564 0.0179,-0.21497 0.0331,-0.44373 0.0468,-0.67662 0.0372,-0.68075 0.0524,-1.38906 0.011,-1.83968 -0.011,-0.11162 -0.0234,-0.2067 -0.0413,-0.28249 l 0.15434,-0.073 0.34176,0.45337 -0.28526,0.11024 c 0.0717,0.006 0.3955,0.0482 0.3955,0.0482"
       id="path7211"
       style="stroke-width:0.352778" />
    <path
       fill-rule="nonzero"
       fill="#d0d0d0"
       fill-opacity="1"
       d="m 100.98711,150.94772 0.01,-0.77583 -0.01,0.77583 m 2.09599,-0.51538 -0.0593,-0.47956 -0.004,0.35967 0.004,-0.36105 v 0.001 l 0.0593,0.47956"
       id="path7213"
       style="stroke-width:0.352778" />
    <path
       fill-rule="nonzero"
       fill="#363635"
       fill-opacity="1"
       d="m 103.24571,151.75388 -0.16261,-1.32154 -0.0593,-0.47956 v -10e-4 l 0.003,-0.12402 c 0.13918,-0.0648 0.27561,-0.1323 0.41203,-0.20258 0.17915,-0.0923 0.35278,-0.18741 0.51677,-0.28112 10e-4,-0.001 0.003,-0.003 0.004,-0.003 0.40652,-0.23289 0.75103,-0.45338 0.95774,-0.58842 l 0.0717,0.57739 -0.0868,0.0634 c -0.49334,0.33072 -1.00597,0.63114 -1.53651,0.89985 l -0.004,0.0524 c -0.0386,0.46991 -0.0772,0.93844 -0.11576,1.40835"
       id="path7215"
       style="stroke-width:0.352778" />
    <path
       fill-rule="nonzero"
       fill="#313130"
       fill-opacity="1"
       d="m 103.0266,149.82738 c 0.0648,-0.0303 0.12816,-0.0606 0.19155,-0.0923 l 0.0166,-0.008 c 0.0427,-0.0207 0.0841,-0.0413 0.12677,-0.0634 0.0262,-0.0124 0.051,-0.0262 0.0772,-0.0386 -0.13642,0.0703 -0.27285,0.1378 -0.41203,0.20257"
       id="path7217"
       style="stroke-width:0.352778" />
    <path
       fill-rule="nonzero"
       fill="#363635"
       fill-opacity="1"
       d="m 101.33024,150.97942 c -0.11576,0 -0.23013,-0.011 -0.34313,-0.0317 l 0.01,-0.77584 c 0.0758,0.0482 0.1626,0.0799 0.26182,0.0965 0,0.001 0,0.001 10e-4,0.001 0.0634,0.011 0.13092,0.0165 0.2012,0.0165 0.43132,0 0.99494,-0.1943 1.54891,-0.45062 0.006,-0.003 0.011,-0.006 0.0165,-0.008 l -0.003,0.12402 -0.004,0.36105 -0.001,0.15158 c -0.10198,0.0482 -0.20533,0.0965 -0.30868,0.14194 -0.32522,0.14607 -0.66009,0.27974 -1.01148,0.34037 -0.12127,0.0207 -0.24529,0.0331 -0.36794,0.0331"
       id="path7219"
       style="stroke-width:0.352778" />
    <path
       fill-rule="nonzero"
       fill="#363635"
       fill-opacity="1"
       d="m 103.36147,149.66339 c 0.0234,-0.011 0.0469,-0.0234 0.0703,-0.0358 0.18052,-0.0937 0.35691,-0.18879 0.52365,-0.28387 -0.16398,0.0937 -0.33762,0.18879 -0.51676,0.28112 -0.0262,0.0124 -0.051,0.0262 -0.0772,0.0386 m 0.59393,-0.3197 c 0.001,-0.001 0.003,-0.003 0.004,-0.003 -0.001,0 -0.003,10e-4 -0.004,0.003"
       id="path7221"
       style="stroke-width:0.352778" />
    <path
       fill-rule="nonzero"
       fill="#363635"
       fill-opacity="1"
       d="m 101.46115,150.28627 c -0.0703,0 -0.1378,-0.006 -0.20119,-0.0165 -0.001,0 -0.001,0 -0.001,-0.001 -0.23702,-0.0413 -0.41341,-0.16674 -0.49885,-0.40514 -0.0372,-0.10198 -0.0565,-0.22462 -0.0565,-0.3707 0,-0.003 0,-0.005 0,-0.007 l -0.13088,-2.98894 c 0.17639,-1.30362 0.50987,-2.59347 0.91639,-3.84748 0.0662,0.48231 0.0289,0.97014 0.0152,1.45521 -0.0317,1.12999 0.0648,2.26136 0.28801,3.3693 0.0372,0.1819 0.0772,0.3638 0.13643,0.54019 0.19155,0.56362 0.58015,1.04869 1.05282,1.41111 0.0992,0.0758 0.20533,0.15021 0.27285,0.25632 l 0.0165,0.0289 c -0.0179,0.008 -0.0345,0.0165 -0.0524,0.0248 l -0.005,0.003 c -0.0579,0.0289 -0.11576,0.0565 -0.17502,0.0841 l -0.0276,0.0138 c -0.55397,0.25494 -1.11759,0.45062 -1.54892,0.45062"
       id="path7223"
       style="stroke-width:0.352778" />
    <path
       fill-rule="nonzero"
       fill="#313130"
       fill-opacity="1"
       d="m 101.46115,150.28627 c -0.0703,0 -0.1378,-0.006 -0.20119,-0.0165 0.0634,0.011 0.13091,0.0165 0.20119,0.0165 0.43133,0 0.99495,-0.19569 1.54892,-0.45062 -0.55397,0.25631 -1.11759,0.45062 -1.54892,0.45062 m 1.54892,-0.45062 0.0276,-0.0138 c 0.0593,-0.0276 0.11713,-0.0551 0.17501,-0.0841 l 0.006,-0.003 c -0.0689,0.0344 -0.1378,0.0675 -0.20808,0.10059"
       id="path7225"
       style="stroke-width:0.352778" />
    <path
       fill-rule="nonzero"
       fill="#3c3c3b"
       fill-opacity="1"
       d="m 101.1511,145.5968 c -0.0703,0.41066 -0.46027,0.68764 -0.87092,0.61736 -0.410662,-0.0689 -0.68627,-0.45888 -0.615989,-0.86954 l 0.485069,-2.85805 c 0.0703,-0.41066 0.46027,-0.68626 0.87092,-0.61736 0.41066,0.0703 0.68627,0.46026 0.61736,0.87092 l -0.48644,2.85667"
       id="path7227"
       style="stroke-width:0.352778" />
    <path
       fill-rule="nonzero"
       fill="#363635"
       fill-opacity="1"
       d="m 104.86904,148.78283 -0.0234,-0.0661 c -0.19982,-0.68351 -0.25907,-1.40009 -0.31695,-2.10978 l -0.073,-0.89572 c -0.0234,-0.27147 0.0469,-3.38446 0.0786,-3.38446 0.001,0 0.001,0 0.001,10e-4 l 0.28664,3.95221 c 0.0854,0.63115 0.18465,1.33808 0.28111,2.16904 l 0.001,0.001 c 0.006,0.0537 0.0124,0.10749 0.0179,0.16261 0,0 -0.0937,0.0648 -0.25356,0.1695"
       id="path7229"
       style="stroke-width:0.352778" />
    <path
       fill-rule="nonzero"
       fill="#575756"
       fill-opacity="1"
       d="m 103.83827,144.9381 c -10e-4,0.0662 -0.0482,0.14607 -0.10611,0.17777 -0.0579,0.0331 -0.10335,0.006 -0.10335,-0.0606 0.001,-0.0661 0.0482,-0.14607 0.10611,-0.17776 0.0579,-0.0331 0.10335,-0.006 0.10335,0.0606"
       id="path7231"
       style="stroke-width:0.352778" />
    <path
       fill-rule="nonzero"
       fill="#575756"
       fill-opacity="1"
       d="m 103.8176,146.53938 c 0,0.0661 -0.0482,0.14469 -0.10473,0.17777 -0.0579,0.0317 -0.10473,0.005 -0.10335,-0.062 10e-4,-0.0648 0.0482,-0.1447 0.1061,-0.17777 0.0565,-0.0317 0.10336,-0.004 0.10198,0.062"
       id="path7233"
       style="stroke-width:0.352778" />
    <path
       fill-rule="nonzero"
       fill="#575756"
       fill-opacity="1"
       d="m 103.79831,148.13928 c -0.001,0.0661 -0.0482,0.14607 -0.10611,0.17777 -0.0565,0.0331 -0.10336,0.006 -0.10198,-0.0606 0,-0.0661 0.0482,-0.14608 0.10473,-0.17777 0.0579,-0.0317 0.10473,-0.004 0.10336,0.0606"
       id="path7235"
       style="stroke-width:0.352778" />
    <path
       fill-rule="nonzero"
       fill="#262626"
       fill-opacity="1"
       d="m 102.87502,144.67214 -0.79099,0.44373 0.003,-0.24254 0.79099,-0.44373 -0.003,0.24254"
       id="path7237"
       style="stroke-width:0.352778" />
    <path
       fill-rule="nonzero"
       fill="#ffc187"
       fill-opacity="1"
       d="m 108.94666,142.0456 c -0.0634,0.005 -0.12127,0.001 -0.17639,-0.004 -0.13505,-0.01 -0.24805,-0.0207 -0.35829,0.11576 -0.13918,0.17087 -0.17777,0.32659 -0.003,0.46026 0.10748,0.0827 0.50298,0.54157 0.64216,0.55259 0.0303,0.003 0.0551,0.001 0.0799,-0.001 0.04,-0.001 0.0758,-0.004 0.12126,0.01 0.0606,0.0179 0.12679,0.0469 0.17088,0.0923 0.0455,0.0455 0.12403,0.0758 0.16812,0.0303 0.0165,-0.0179 0.0606,-0.14332 -0.20532,-0.33625 -0.0579,-0.0413 0.42856,0.18328 0.82819,0.46164 0.0675,0.0455 0.23703,0.004 0.14745,-0.16812 -0.12677,-0.15847 -0.28663,-0.25493 -0.45613,-0.36655 0.0496,-0.0868 0.11852,-0.26459 0.0992,-0.36381 -0.0207,-0.11713 -0.34726,-0.4451 -0.46302,-0.49471 -0.0923,-0.04 -0.49471,0.004 -0.59531,0.0124"
       id="path7239"
       style="stroke-width:0.352778" />
    <path
       fill-rule="nonzero"
       fill="#ededed"
       fill-opacity="1"
       d="m 110.79736,141.42273 v 4.20577 l -2.49562,2.17041 v -4.20716 l 0.88332,-0.76756 0.13918,-0.12127 1.47312,-1.28019"
       id="path7241"
       style="stroke-width:0.352778" />
    <path
       fill-rule="nonzero"
       fill="#444443"
       fill-opacity="1"
       d="m 110.24615,142.58303 0.10059,-0.0882 v -0.13091 l -0.10059,0.0882 v 0.13091"
       id="path7243"
       style="stroke-width:0.352778" />
    <path
       fill-rule="nonzero"
       fill="#444443"
       fill-opacity="1"
       d="m 108.55943,144.04789 1.5117,-1.31327 v -0.13092 l -1.5117,1.31465 v 0.12954"
       id="path7245"
       style="stroke-width:0.352778" />
    <path
       fill-rule="nonzero"
       fill="#444443"
       fill-opacity="1"
       d="m 110.24615,142.87104 0.10059,-0.0882 v -0.13092 l -0.10059,0.0882 v 0.13091"
       id="path7247"
       style="stroke-width:0.352778" />
    <path
       fill-rule="nonzero"
       fill="#444443"
       fill-opacity="1"
       d="m 108.55943,144.33728 1.5117,-1.31465 v -0.13092 l -1.5117,1.31465 v 0.13092"
       id="path7249"
       style="stroke-width:0.352778" />
    <path
       fill-rule="nonzero"
       fill="#444443"
       fill-opacity="1"
       d="m 110.24615,143.15905 0.10059,-0.0882 v -0.12954 l -0.10059,0.0882 v 0.12953"
       id="path7251"
       style="stroke-width:0.352778" />
    <path
       fill-rule="nonzero"
       fill="#444443"
       fill-opacity="1"
       d="m 108.55943,144.62528 1.5117,-1.31464 v -0.13092 l -1.5117,1.31465 v 0.13091"
       id="path7253"
       style="stroke-width:0.352778" />
    <path
       fill-rule="nonzero"
       fill="#444443"
       fill-opacity="1"
       d="m 108.55943,144.9133 1.78731,-1.55306 v -0.13091 l -1.78731,1.55443 v 0.12954"
       id="path7255"
       style="stroke-width:0.352778" />
    <path
       fill-rule="nonzero"
       fill="#444443"
       fill-opacity="1"
       d="m 108.55943,145.20268 1.28157,-1.11483 v -0.13091 l -1.28157,1.11483 v 0.13091"
       id="path7257"
       style="stroke-width:0.352778" />
    <path
       fill-rule="nonzero"
       fill="#444443"
       fill-opacity="1"
       d="m 108.55943,145.49069 0.69591,-0.60496 -0.001,-0.12953 -0.69454,0.60358 v 0.13091"
       id="path7259"
       style="stroke-width:0.352778" />
    <path
       fill-rule="nonzero"
       fill="#2f79c6"
       fill-opacity="1"
       d="m 109.99396,144.15262 c 0,0.18741 0.12403,0.23151 0.27699,0.0978 0.15434,-0.13367 0.27836,-0.39412 0.27836,-0.58154 0,-0.18741 -0.12402,-0.23151 -0.27836,-0.0978 -0.15296,0.13367 -0.27699,0.39412 -0.27699,0.58153 z m -0.0276,0.0234 c 0,-0.20532 0.13643,-0.49196 0.30455,-0.63803 0.1695,-0.14607 0.30592,-0.0978 0.30592,0.10749 0,0.20533 -0.13642,0.49196 -0.30592,0.63803 -0.16812,0.14745 -0.30455,0.0992 -0.30455,-0.10749"
       id="path7261"
       style="stroke-width:0.352778" />
    <path
       fill-rule="nonzero"
       fill="#2f79c6"
       fill-opacity="1"
       d="m 110.09594,144.06442 c 0,0.11852 0.0786,0.14608 0.17501,0.062 0.0978,-0.0854 0.17639,-0.24943 0.17639,-0.36932 0,-0.11851 -0.0785,-0.14607 -0.17639,-0.062 -0.0965,0.0854 -0.17501,0.2508 -0.17501,0.36931 z m -0.0179,0.0152 c 0,-0.13091 0.0868,-0.31281 0.19293,-0.40514 0.10749,-0.0923 0.1943,-0.062 0.1943,0.0675 0,0.13092 -0.0868,0.31282 -0.1943,0.40514 -0.10611,0.0937 -0.19293,0.062 -0.19293,-0.0675"
       id="path7263"
       style="stroke-width:0.352778" />
    <path
       fill-rule="nonzero"
       fill="#2f79c6"
       fill-opacity="1"
       d="m 110.14279,144.02308 c 0,0.0868 0.0579,0.10611 0.12816,0.0455 0.0717,-0.062 0.12954,-0.18328 0.12954,-0.2701 0,-0.0868 -0.0579,-0.10611 -0.12954,-0.0441 -0.0703,0.0606 -0.12816,0.18191 -0.12816,0.26872 z m -0.0124,0.011 c 0,-0.0951 0.0634,-0.22876 0.14056,-0.29628 0.0786,-0.0675 0.14193,-0.0455 0.14193,0.0496 0,0.0965 -0.0634,0.22875 -0.14193,0.29628 -0.0772,0.0675 -0.14056,0.0455 -0.14056,-0.0496"
       id="path7265"
       style="stroke-width:0.352778" />
    <path
       fill-rule="nonzero"
       fill="#2f79c6"
       fill-opacity="1"
       d="m 109.86581,144.57843 0.0427,-0.0606 10e-4,-0.0165 -0.0138,0.01 -0.0358,0.0482 -0.0165,-0.0138 c -0.0152,-0.0386 -0.0138,-0.0978 -0.011,-0.15572 v -0.0165 c 0.001,-0.062 0.001,-0.13092 -0.0248,-0.16675 l -0.0289,0.001 -0.0234,0.0496 c -0.0124,0.0579 -0.0152,0.10887 -0.0179,0.15847 -10e-4,0.0606 -0.004,0.11714 -0.0234,0.18191 l -0.0234,0.0441 -0.011,-0.0193 -0.003,-0.0551 c 0,-0.0482 -10e-4,-0.0992 -0.0234,-0.12403 l -0.01,-0.003 -0.0166,0.011 -0.0179,0.0413 -0.0152,0.0675 -0.0207,0.0868 -0.001,0.004 -0.001,-0.004 -0.005,-0.0248 -0.0276,-0.0689 -0.0289,0.01 -0.011,0.0207 -0.0165,0.0469 -0.008,0.0276 -0.005,-0.0303 -0.0317,-0.0221 -0.0538,0.0606 v 0.001 l -0.005,0.0124 -0.0179,-0.0289 -0.0413,0.0248 -0.006,0.0193 0.0124,-0.004 0.0221,-0.0124 0.011,0.0221 0.007,0.011 0.0124,-0.006 0.0207,-0.0386 v -10e-4 l 0.0303,-0.0317 0.0221,0.0152 0.004,0.0482 10e-4,0.0179 0.0124,-0.0179 0.0317,-0.0744 0.0124,-0.0372 0.003,-0.007 0.008,0.001 0.0234,0.062 0.006,0.0262 0.0193,0.007 0.0193,-0.0289 c 0.0124,-0.0344 0.0179,-0.0661 0.0221,-0.0965 l 0.0138,-0.0634 0.008,-0.0193 0.004,0.001 c 0.0179,0.0221 0.0193,0.0675 0.0207,0.11438 l 0.003,0.0579 0.0234,0.0275 0.0469,-0.0772 c 0.0193,-0.0703 0.022,-0.13229 0.0248,-0.19155 0.003,-0.0482 0.006,-0.0978 0.0165,-0.15158 l 0.008,-0.0207 0.01,0.003 c 0.0234,0.0331 0.0234,0.0992 0.022,0.1571 v 0.0165 c -10e-4,0.0593 -0.004,0.12127 0.0124,0.16399 l 0.0275,0.0179 0.0124,-0.008"
       id="path7267"
       style="stroke-width:0.352778" />
    <path
       fill-rule="nonzero"
       fill="#ffc187"
       fill-opacity="1"
       d="m 110.00499,142.52791 c -0.0166,-0.10473 -0.2825,-0.37758 -0.4203,-0.46991 -0.15848,0.30317 -0.86817,0.29214 -0.19844,0.90675 -0.10473,0.8406 0.67662,-0.0717 0.61874,-0.43684"
       id="path7269"
       style="stroke-width:0.352778" />
    <g
       clip-path="url(#clip-56)"
       id="g7275"
       transform="matrix(0.35277777,0,0,0.35277777,35.030068,46.484163)">
      <g
         clip-path="url(#clip-57)"
         id="g7273">
        <path
           fill-rule="nonzero"
           fill="#e8b07c"
           fill-opacity="1"
           d="m 209.41016,273.36328 h 0.89453 v -0.73047 h -0.89453 z m 0,0"
           id="path7271" />
      </g>
    </g>
    <path
       fill-rule="nonzero"
       fill="#d8d8d8"
       fill-opacity="1"
       d="m 109.38487,142.9675 -0.0345,-0.0358 c 0.011,0.011 0.0234,0.022 0.0345,0.0331 v 0.003 m -0.31006,-0.0468 0.11025,-0.0965 0.0358,-0.0303 c 0.001,0.003 0.004,0.006 0.005,0.007 -0.0772,0.0551 -0.0772,0.0551 -0.15158,0.11989"
       id="path7277"
       style="stroke-width:0.352778" />
    <path
       fill-rule="nonzero"
       fill="#e8b07c"
       fill-opacity="1"
       d="m 109.38487,142.96475 c -0.011,-0.011 -0.0234,-0.0221 -0.0345,-0.0331 l -0.12403,-0.13091 c -10e-4,-10e-4 -0.004,-0.004 -0.006,-0.007 -0.0193,-0.0234 -0.0358,-0.0455 -0.0496,-0.0661 l 0.16812,0.04 0.0455,0.19706"
       id="path7279"
       style="stroke-width:0.352778" />
    <path
       fill-rule="nonzero"
       fill="#ffc187"
       fill-opacity="1"
       d="m 100.39179,149.63583 c 0.006,0.0923 0.0138,0.18879 0.0537,0.27285 0.0276,0.0593 0.0703,0.11024 0.113,0.16124 0.11024,0.13091 0.22048,0.26182 0.33073,0.39274 0.0331,0.04 0.0675,0.0799 0.10611,0.11437 0.0868,0.0785 0.20119,0.12816 0.31832,0.13918 0.0358,0.004 0.0744,0.003 0.1006,-0.022 l 0.0262,-0.0469 c 0.022,-0.0854 -0.0331,-0.16812 -0.0717,-0.24667 -0.073,-0.14607 -0.0937,-0.31144 -0.0992,-0.47404 -0.004,-0.16399 0.005,-0.3266 -0.01,-0.4892 0,0.1185 0.007,0.24115 0.0565,0.34864 0.0496,0.10886 0.15158,0.19981 0.27147,0.20533 l 0.0331,-0.007 0.0165,-0.0221 c 0.0303,-0.0593 0.0331,-0.13229 0.01,-0.19431 -0.0193,-0.0482 -0.0524,-0.0882 -0.0717,-0.13505 -0.022,-0.0579 -0.0207,-0.12264 -0.0248,-0.18603 -0.0165,-0.25907 -0.13504,-0.51263 -0.32522,-0.69178 -0.0358,-0.0344 -0.0744,-0.0661 -0.11851,-0.0896 -0.10473,-0.0565 -0.23013,-0.0592 -0.34864,-0.0496 l -0.0786,0.0165 -0.0482,0.0372 c -0.12265,0.1185 -0.1943,0.28525 -0.22462,0.45337 -0.0317,0.16812 -0.0248,0.34175 -0.0152,0.51263"
       id="path7281"
       style="stroke-width:0.352778" />
    <path
       fill-rule="nonzero"
       fill="#3c3c3b"
       fill-opacity="1"
       d="m 101.51903,148.28535 c 0.21773,0.98668 -1.03215,0.82545 -1.03215,0.82545 -0.30179,-0.0234 -0.41479,-0.226 -0.46578,-0.63941 l -0.35553,-2.87734 c -0.05099,-0.41342 0.242535,-0.78962 0.65594,-0.84061 0.4148,-0.051 0.791,0.24254 0.84199,0.65595 l 0.35553,2.87596"
       id="path7283"
       style="stroke-width:0.352778" />
    <path
       fill-rule="nonzero"
       fill="#ffc187"
       fill-opacity="1"
       d="m 103.49376,140.6524 c -0.0331,0.062 -0.21497,0.55673 -0.22186,0.55948 -0.3266,-0.0896 -0.76068,-0.20257 -1.06247,-0.3762 -0.30042,-0.17363 -0.30042,-0.45613 0,-0.62976 0.0703,-0.0372 0.14745,-0.0689 0.22875,-0.0896 0.0441,-0.011 0.0909,-0.0207 0.13643,-0.0276 l 0.0703,-0.007 c 0.0386,-0.003 0.0758,-0.004 0.11438,-0.004 0.19568,0 0.39274,0.0427 0.54157,0.12816 0.10335,0.0606 0.17087,0.13367 0.20394,0.20808 l 0.0166,0.0593 c 0.0124,0.0606 0.001,0.11989 -0.0276,0.17914"
       id="path7285"
       style="stroke-width:0.352778" />
    <path
       fill-rule="nonzero"
       fill="#ffc187"
       fill-opacity="1"
       d="m 101.98481,140.52149 h 1.54202 v -1.9954 h -1.54202 z m 0,0"
       id="path7287"
       style="stroke-width:0.352778" />
    <path
       fill-rule="nonzero"
       fill="#d8d8d8"
       fill-opacity="1"
       d="m 103.40556,140.87013 c 0.0317,-0.0827 0.062,-0.15847 0.0786,-0.19844 -0.022,0.0551 -0.0234,0.11025 -0.0786,0.19844 m 0.0882,-0.21773 c 0.0207,-0.0427 0.0317,-0.0854 0.0331,-0.12816 -0.001,0.0427 -0.0124,0.0854 -0.0331,0.12816"
       id="path7289"
       style="stroke-width:0.352778" />
    <path
       fill-rule="nonzero"
       fill="#e7e7e6"
       fill-opacity="1"
       d="m 103.65499,140.25828 c -0.0427,-0.011 -0.0854,-0.0193 -0.12816,-0.0248 v -0.35829 l 0.0965,0.01 0.0317,0.37345"
       id="path7291"
       style="stroke-width:0.352778" />
    <path
       fill-rule="nonzero"
       fill="#393938"
       fill-opacity="1"
       d="m 103.57368,140.4705 c -0.0152,-0.008 -0.0317,-0.0152 -0.0468,-0.0234 v -0.2136 c 0.0427,0.006 0.0854,0.0138 0.12816,0.0248 l 0.0179,0.20808 -0.0992,0.004"
       id="path7293"
       style="stroke-width:0.352778" />
    <path
       fill-rule="nonzero"
       fill="#393938"
       fill-opacity="1"
       d="m 103.52821,140.47326 c 0,-0.001 -0.001,-0.003 -0.001,-0.004 v -0.0221 c 0.0152,0.008 0.0317,0.0152 0.0469,0.0234 l -0.0455,0.003"
       id="path7295"
       style="stroke-width:0.352778" />
    <path
       fill-rule="nonzero"
       fill="#d8d8d8"
       fill-opacity="1"
       d="m 103.52683,140.47326 v -0.004 c 0,0.001 10e-4,0.003 10e-4,0.004 h -10e-4"
       id="path7297"
       style="stroke-width:0.352778" />
    <path
       fill-rule="nonzero"
       fill="#e8b17c"
       fill-opacity="1"
       d="m 103.40556,140.87013 c -0.19981,-0.0882 -0.36931,-0.20808 -0.5016,-0.34864 h 0.62287 c 0,0.001 0,0.001 0,0.003 -0.001,0.0427 -0.0124,0.0854 -0.0331,0.12816 -0.004,0.007 -0.007,0.0138 -0.01,0.0193 -0.0165,0.04 -0.0469,0.11576 -0.0785,0.19844"
       id="path7299"
       style="stroke-width:0.352778" />
    <path
       fill-rule="nonzero"
       fill="#e8b17c"
       fill-opacity="1"
       d="m 103.52683,140.52149 h -0.62287 c -0.12403,-0.13229 -0.2136,-0.2825 -0.25907,-0.4396 -0.0276,-0.0937 -0.0455,-0.1943 -0.0579,-0.30041 h 0.001 l 0.93844,0.0937 v 0.59807 h -0.005 c 0.003,0.0165 0.004,0.0317 0.005,0.0482"
       id="path7301"
       style="stroke-width:0.352778" />
    <path
       fill-rule="nonzero"
       fill="#ffc187"
       fill-opacity="1"
       d="m 104.21172,139.37771 -0.12816,0.0455 c 0.005,0.0909 0.0468,0.47818 0.0468,0.47818 0.008,0.22875 -0.0951,0.5457 -0.36931,0.56086 l -0.0882,0.004 -0.15158,0.007 -0.0537,0.001 c -0.21498,-0.008 -0.50712,-0.15159 -0.70831,-0.39688 -0.0703,-0.0868 -0.13092,-0.18603 -0.17088,-0.29628 -0.0345,-0.0909 -0.0551,-0.18741 -0.0579,-0.29214 h -0.0234 c -0.22463,0.008 -0.60497,0.18604 -0.69591,0 -0.13092,-0.26321 -0.19844,-0.53606 -0.22876,-0.83234 -0.005,-0.12402 -0.011,-0.1626 0,-0.26458 0.1006,-1.01286 0.8158,-1.05971 1.26779,-1.09416 0.40515,-0.0138 0.80754,0.14883 1.05145,0.5457 0.11024,0.17777 0.18741,0.40377 0.21911,0.68075 -0.0234,0.0896 -0.0524,0.16537 -0.0524,0.16537 l 0.23151,0.48783 c 0.0372,0.0785 -0.004,0.17501 -0.0882,0.19981"
       id="path7303"
       style="stroke-width:0.352778" />
    <path
       fill-rule="nonzero"
       fill="#444443"
       fill-opacity="1"
       d="m 101.99032,139.83247 c 0.92604,0.12816 0.33349,-0.87368 0.33349,-0.87368 0,0 0.23013,0.31144 0.31143,0.39826 0.14745,-0.0138 0.14745,-0.0138 0.28112,-0.0345 -0.0358,-1.15066 -0.29766,-1.64813 0.98668,-1.47863 0.24529,-0.062 0.32521,-0.8599 -1.19752,-0.69867 -0.67386,0.0717 -1.17133,0.48369 -1.24161,1.15755 -0.0661,0.65595 -0.0152,1.39871 0.52641,1.52962"
       id="path7305"
       style="stroke-width:0.352778" />
    <path
       fill-rule="nonzero"
       fill="#ffc187"
       fill-opacity="1"
       d="m 102.17636,139.05939 c 0.0179,0.21084 0.21497,0.44097 0.35277,0.42995 0.13919,-0.011 0.10887,-0.18191 0.0951,-0.39274 -0.011,-0.14056 0.01,-0.34176 -0.14607,-0.37345 -0.13643,-0.0276 -0.3266,0.0262 -0.30179,0.33624"
       id="path7307"
       style="stroke-width:0.352778" />
  </g>
</svg>
