<svg id="visual" viewBox="0 0 960 540" width="960" height="540" xmlns="http://www.w3.org/2000/svg" xmlns:xlink="http://www.w3.org/1999/xlink" version="1.1"><path d="M0 39L26.7 42.5C53.3 46 106.7 53 160 56.5C213.3 60 266.7 60 320 59.2C373.3 58.3 426.7 56.7 480 55.8C533.3 55 586.7 55 640 55C693.3 55 746.7 55 800 48.7C853.3 42.3 906.7 29.7 933.3 23.3L960 17L960 0L933.3 0C906.7 0 853.3 0 800 0C746.7 0 693.3 0 640 0C586.7 0 533.3 0 480 0C426.7 0 373.3 0 320 0C266.7 0 213.3 0 160 0C106.7 0 53.3 0 26.7 0L0 0Z" fill="#f3f4f6"></path><path d="M0 109L26.7 102.7C53.3 96.3 106.7 83.7 160 83.7C213.3 83.7 266.7 96.3 320 105.3C373.3 114.3 426.7 119.7 480 114.3C533.3 109 586.7 93 640 82.2C693.3 71.3 746.7 65.7 800 61.2C853.3 56.7 906.7 53.3 933.3 51.7L960 50L960 15L933.3 21.3C906.7 27.7 853.3 40.3 800 46.7C746.7 53 693.3 53 640 53C586.7 53 533.3 53 480 53.8C426.7 54.7 373.3 56.3 320 57.2C266.7 58 213.3 58 160 54.5C106.7 51 53.3 44 26.7 40.5L0 37Z" fill="#9fa7b4"></path><path d="M0 147L26.7 163.2C53.3 179.3 106.7 211.7 160 219.7C213.3 227.7 266.7 211.3 320 196C373.3 180.7 426.7 166.3 480 152.8C533.3 139.3 586.7 126.7 640 117.7C693.3 108.7 746.7 103.3 800 114.2C853.3 125 906.7 152 933.3 165.5L960 179L960 48L933.3 49.7C906.7 51.3 853.3 54.7 800 59.2C746.7 63.7 693.3 69.3 640 80.2C586.7 91 533.3 107 480 112.3C426.7 117.7 373.3 112.3 320 103.3C266.7 94.3 213.3 81.7 160 81.7C106.7 81.7 53.3 94.3 26.7 100.7L0 107Z" fill="#4f6177"></path><path d="M0 266L26.7 286.7C53.3 307.3 106.7 348.7 160 364.8C213.3 381 266.7 372 320 345C373.3 318 426.7 273 480 245C533.3 217 586.7 206 640 214C693.3 222 746.7 249 800 271.5C853.3 294 906.7 312 933.3 321L960 330L960 177L933.3 163.5C906.7 150 853.3 123 800 112.2C746.7 101.3 693.3 106.7 640 115.7C586.7 124.7 533.3 137.3 480 150.8C426.7 164.3 373.3 178.7 320 194C266.7 209.3 213.3 225.7 160 217.7C106.7 209.7 53.3 177.3 26.7 161.2L0 145Z" fill="#082f49"></path><path d="M0 428L26.7 442.3C53.3 456.7 106.7 485.3 160 481.7C213.3 478 266.7 442 320 415.8C373.3 389.7 426.7 373.3 480 361.7C533.3 350 586.7 343 640 354.8C693.3 366.7 746.7 397.3 800 400C853.3 402.7 906.7 377.3 933.3 364.7L960 352L960 328L933.3 319C906.7 310 853.3 292 800 269.5C746.7 247 693.3 220 640 212C586.7 204 533.3 215 480 243C426.7 271 373.3 316 320 343C266.7 370 213.3 379 160 362.8C106.7 346.7 53.3 305.3 26.7 284.7L0 264Z" fill="#082f49"></path><path d="M0 482L26.7 489.2C53.3 496.3 106.7 510.7 160 502.5C213.3 494.3 266.7 463.7 320 444.7C373.3 425.7 426.7 418.3 480 410.2C533.3 402 586.7 393 640 397.5C693.3 402 746.7 420 800 423.7C853.3 427.3 906.7 416.7 933.3 411.3L960 406L960 350L933.3 362.7C906.7 375.3 853.3 400.7 800 398C746.7 395.3 693.3 364.7 640 352.8C586.7 341 533.3 348 480 359.7C426.7 371.3 373.3 387.7 320 413.8C266.7 440 213.3 476 160 479.7C106.7 483.3 53.3 454.7 26.7 440.3L0 426Z" fill="#4f6177"></path><path d="M0 519L26.7 521.8C53.3 524.7 106.7 530.3 160 533.2C213.3 536 266.7 536 320 530.5C373.3 525 426.7 514 480 505.8C533.3 497.7 586.7 492.3 640 487.8C693.3 483.3 746.7 479.7 800 480.5C853.3 481.3 906.7 486.7 933.3 489.3L960 492L960 404L933.3 409.3C906.7 414.7 853.3 425.3 800 421.7C746.7 418 693.3 400 640 395.5C586.7 391 533.3 400 480 408.2C426.7 416.3 373.3 423.7 320 442.7C266.7 461.7 213.3 492.3 160 500.5C106.7 508.7 53.3 494.3 26.7 487.2L0 480Z" fill="#9fa7b4"></path><path d="M0 541L26.7 541C53.3 541 106.7 541 160 541C213.3 541 266.7 541 320 541C373.3 541 426.7 541 480 541C533.3 541 586.7 541 640 541C693.3 541 746.7 541 800 541C853.3 541 906.7 541 933.3 541L960 541L960 490L933.3 487.3C906.7 484.7 853.3 479.3 800 478.5C746.7 477.7 693.3 481.3 640 485.8C586.7 490.3 533.3 495.7 480 503.8C426.7 512 373.3 523 320 528.5C266.7 534 213.3 534 160 531.2C106.7 528.3 53.3 522.7 26.7 519.8L0 517Z" fill="#f3f4f6"></path></svg>