<?xml version="1.0" encoding="UTF-8" standalone="no"?>
<!-- Created with Inkscape (http://www.inkscape.org/) -->

<svg
   width="42.422836mm"
   height="49.424648mm"
   viewBox="0 0 42.422836 49.424648"
   version="1.1"
   id="svg16498"
   xmlns="http://www.w3.org/2000/svg"
   xmlns:svg="http://www.w3.org/2000/svg">
  <defs
     id="defs16495" />
  <g
     id="layer1"
     transform="translate(-25.832476,-52.371651)">
    <path
       d="M 61.267153,101.7963 H 59.42213 l 1.408638,-2.600674 -12.049095,-6.968049 c -1.111953,-0.09913 -2.227786,-0.149225 -3.343972,-0.149225 -0.573263,0 -1.146878,0.01305 -1.719435,0.03986 -0.492829,0.02258 -0.988833,0.05503 -1.482016,0.05503 -0.453318,0 -0.90452,-0.02716 -1.349371,-0.1143 -0.820559,-0.160513 -1.597021,-0.521051 -2.426753,-0.626884 -0.179916,-0.02293 -0.359832,-0.03351 -0.539395,-0.03351 -1.049864,0 -2.089145,0.365124 -3.063868,0.783517 -0.68227,0.293158 -1.359955,0.617007 -2.087381,0.765526 -0.243769,0.04974 -0.495651,0.07761 -0.746476,0.07761 -0.497415,0 -0.989892,-0.110419 -1.403699,-0.379588 -0.492124,-0.320674 -0.846664,-0.843842 -1.279169,-1.231544 -0.212724,-0.1905 -0.444499,-0.348544 -0.720723,-0.43321 -0.622651,-0.191205 -1.398761,0.0194 -1.869365,-0.430741 -0.305858,-0.292452 -0.352424,-0.781753 -0.216958,-1.182508 0.274108,-0.810328 1.149347,-1.462613 1.861604,-1.873951 1.294691,-0.747534 2.619368,-0.99095 3.962037,-0.99095 2.250011,0 4.548706,0.685093 6.829761,0.832201 0.170039,0.01094 0.339724,0.01552 0.50941,0.01552 0.337255,0 0.674509,-0.0187 1.011764,-0.04374 l 4.026243,-2.05422 2.016825,1.281285 -2.02635,1.020937 c 0.312913,0.178505 0.591254,0.415218 0.863245,0.653695 0.104422,0.09137 0.208844,0.182739 0.313266,0.274108 l 16.603797,9.672084 2.619722,-1.808334 3.130895,1.721198 -6.988158,3.728857"
       style="fill:#9093a2;fill-opacity:1;fill-rule:nonzero;stroke:none;stroke-width:0.0352777"
       id="path39" />
    <path
       d="m 39.031625,89.607855 -0.736245,-0.380646 0.473426,-0.245533 0.725662,0.359833 -0.462843,0.266346"
       style="fill:#78797b;fill-opacity:1;fill-rule:nonzero;stroke:none;stroke-width:0.0352777"
       id="path41" />
    <path
       d="m 39.494468,89.910538 v -0.569029 l -0.462843,0.266346 v 0.569029 l 0.462843,-0.266346"
       style="fill:#515254;fill-opacity:1;fill-rule:nonzero;stroke:none;stroke-width:0.0352777"
       id="path43" />
    <path
       d="M 39.031625,90.176884 38.29538,89.796591 v -0.569382 l 0.736245,0.380646 v 0.569029"
       style="fill:#656769;fill-opacity:1;fill-rule:nonzero;stroke:none;stroke-width:0.0352777"
       id="path45" />
    <path
       d="m 45.470156,85.878651 -0.736245,-0.380647 0.473426,-0.245532 0.725663,0.359832 -0.462844,0.266347"
       style="fill:#78797b;fill-opacity:1;fill-rule:nonzero;stroke:none;stroke-width:0.0352777"
       id="path47" />
    <path
       d="m 45.933,86.181686 v -0.569382 l -0.462844,0.266347 v 0.569382 L 45.933,86.181686"
       style="fill:#515254;fill-opacity:1;fill-rule:nonzero;stroke:none;stroke-width:0.0352777"
       id="path49" />
    <path
       d="m 45.470156,86.448033 -0.736245,-0.380647 v -0.569382 l 0.736245,0.380647 v 0.569382"
       style="fill:#656769;fill-opacity:1;fill-rule:nonzero;stroke:none;stroke-width:0.0352777"
       id="path51" />
    <path
       d="m 39.031625,88.723796 6.901375,-3.99802 -0.736246,-0.382058 -6.901374,3.998021 0.736245,0.382057"
       style="fill:#78797b;fill-opacity:1;fill-rule:nonzero;stroke:none;stroke-width:0.0352777"
       id="path53" />
    <path
       d="m 38.29538,89.227209 v -0.88547 l 0.736245,0.382057 v 0.88547 L 38.29538,89.227209"
       style="fill:#656769;fill-opacity:1;fill-rule:nonzero;stroke:none;stroke-width:0.0352777"
       id="path55" />
    <path
       d="M 39.031625,89.609266 45.933,85.611246 v -0.88547 l -6.901375,3.99802 v 0.88547"
       style="fill:#515254;fill-opacity:1;fill-rule:nonzero;stroke:none;stroke-width:0.0352777"
       id="path57" />
    <path
       d="M 62.375578,98.626244 42.186156,87.031173 42.659583,86.78564 62.848652,98.380711 62.375578,98.626244"
       style="fill:#78797b;fill-opacity:1;fill-rule:nonzero;stroke:none;stroke-width:0.0352777"
       id="path59" />
    <path
       d="m 62.848652,98.950093 v -0.569382 l -0.473074,0.245533 v 0.569382 l 0.473074,-0.245533"
       style="fill:#515254;fill-opacity:1;fill-rule:nonzero;stroke:none;stroke-width:0.0352777"
       id="path61" />
    <path
       d="M 62.375578,99.195626 42.186156,87.600202 v -0.569029 l 20.189422,11.595071 v 0.569382"
       style="fill:#656769;fill-opacity:1;fill-rule:nonzero;stroke:none;stroke-width:0.0352777"
       id="path63" />
    <path
       d="m 41.879593,60.498469 -0.290335,-0.167569 0.473426,-0.245532 0.290336,0.167569 -0.473427,0.245532"
       style="fill:#78797b;fill-opacity:1;fill-rule:nonzero;stroke:none;stroke-width:0.0352777"
       id="path65" />
    <path
       d="M 42.35302,86.652996 V 57.273383 l -0.473427,0.245533 v 29.379613 l 0.473427,-0.245533"
       style="fill:#515254;fill-opacity:1;fill-rule:nonzero;stroke:none;stroke-width:0.0352777"
       id="path67" />
    <path
       d="M 41.879593,86.898529 41.589258,86.73096 V 57.351347 l 0.290335,0.167569 v 29.379613"
       style="fill:#656769;fill-opacity:1;fill-rule:nonzero;stroke:none;stroke-width:0.0352777"
       id="path69" />
    <path
       d="m 42.171692,60.666038 -0.290335,-0.167569 0.473074,-0.245532 0.290688,0.167569 -0.473427,0.245532"
       style="fill:#58595b;fill-opacity:1;fill-rule:nonzero;stroke:none;stroke-width:0.0352777"
       id="path71" />
    <path
       d="m 42.645119,60.989535 v -0.569029 l -0.473427,0.245532 v 0.56903 l 0.473427,-0.245533"
       style="fill:#48484a;fill-opacity:1;fill-rule:nonzero;stroke:none;stroke-width:0.0352777"
       id="path73" />
    <path
       d="m 42.171692,61.235068 -0.290335,-0.16757 v -0.569029 l 0.290335,0.167569 v 0.56903"
       style="fill:#48484a;fill-opacity:1;fill-rule:nonzero;stroke:none;stroke-width:0.0352777"
       id="path75" />
    <path
       d="m 42.598552,59.94214 0.63641,-0.382057 -0.418394,-0.197202 -0.636056,0.314676 0.41804,0.264583"
       style="fill:#58595b;fill-opacity:1;fill-rule:nonzero;stroke:none;stroke-width:0.0352777"
       id="path77" />
    <path
       d="m 42.180512,61.819619 v -2.142062 l 0.41804,0.264583 v 2.142062 l -0.41804,-0.264583"
       style="fill:#48484a;fill-opacity:1;fill-rule:nonzero;stroke:none;stroke-width:0.0352777"
       id="path79" />
    <path
       d="m 42.598552,62.084202 0.63641,-0.382058 v -2.142061 l -0.63641,0.382057 v 2.142062"
       style="fill:#353331;fill-opacity:1;fill-rule:nonzero;stroke:none;stroke-width:0.0352777"
       id="path81" />
    <path
       d="m 61.321128,64.193807 -18.713051,-10.78192 0.473427,-0.245533 18.713051,10.781921 -0.473427,0.245532"
       style="fill:#78797b;fill-opacity:1;fill-rule:nonzero;stroke:none;stroke-width:0.0352777"
       id="path83" />
    <path
       d="m 61.794555,80.138265 v -16.18999 l -0.473427,0.245532 v 16.189991 l 0.473427,-0.245533"
       style="fill:#515254;fill-opacity:1;fill-rule:nonzero;stroke:none;stroke-width:0.0352777"
       id="path85" />
    <path
       d="M 61.321128,80.383798 42.608077,69.601877 v -16.18999 l 18.713051,10.78192 v 16.189991"
       style="fill:#656769;fill-opacity:1;fill-rule:nonzero;stroke:none;stroke-width:0.0352777"
       id="path87" />
    <path
       d="M 43.098437,69.318245 V 54.260668 L 60.830768,64.47744 V 79.535016 L 43.098437,69.318245"
       style="fill:#ffffff;fill-opacity:1;fill-rule:nonzero;stroke:none;stroke-width:0.0352777"
       id="path89" />
    <path
       d="m 59.42213,101.22727 -0.736246,-0.38065 0.473427,-0.24553 0.725662,0.35983 -0.462843,0.26635"
       style="fill:#78797b;fill-opacity:1;fill-rule:nonzero;stroke:none;stroke-width:0.0352777"
       id="path91" />
    <path
       d="m 59.884973,101.52995 v -0.56903 l -0.462843,0.26635 v 0.56903 l 0.462843,-0.26635"
       style="fill:#515254;fill-opacity:1;fill-rule:nonzero;stroke:none;stroke-width:0.0352777"
       id="path93" />
    <path
       d="m 59.42213,101.7963 -0.736246,-0.38065 v -0.56903 l 0.736246,0.38065 v 0.56903"
       style="fill:#656769;fill-opacity:1;fill-rule:nonzero;stroke:none;stroke-width:0.0352777"
       id="path95" />
    <path
       d="m 65.860661,97.498063 -0.736245,-0.380646 0.473426,-0.245533 0.725662,0.359833 -0.462843,0.266346"
       style="fill:#78797b;fill-opacity:1;fill-rule:nonzero;stroke:none;stroke-width:0.0352777"
       id="path97" />
    <path
       d="m 66.323504,97.801099 v -0.569382 l -0.462843,0.266346 v 0.569382 l 0.462843,-0.266346"
       style="fill:#515254;fill-opacity:1;fill-rule:nonzero;stroke:none;stroke-width:0.0352777"
       id="path99" />
    <path
       d="m 65.860661,98.067445 -0.736245,-0.380646 v -0.569382 l 0.736245,0.380646 v 0.569382"
       style="fill:#656769;fill-opacity:1;fill-rule:nonzero;stroke:none;stroke-width:0.0352777"
       id="path101" />
    <path
       d="m 59.42213,100.34462 6.901374,-3.998373 -0.736245,-0.381705 -6.901375,3.998021 0.736246,0.382057"
       style="fill:#78797b;fill-opacity:1;fill-rule:nonzero;stroke:none;stroke-width:0.0352777"
       id="path103" />
    <path
       d="m 58.685884,100.84803 v -0.885467 l 0.736246,0.382057 v 0.88512 l -0.736246,-0.38171"
       style="fill:#656769;fill-opacity:1;fill-rule:nonzero;stroke:none;stroke-width:0.0352777"
       id="path105" />
    <path
       d="m 59.42213,101.22974 6.901374,-3.998023 v -0.88547 l -6.901374,3.998373 v 0.88512"
       style="fill:#515254;fill-opacity:1;fill-rule:nonzero;stroke:none;stroke-width:0.0352777"
       id="path107" />
    <path
       d="m 61.685546,70.91456 0.636057,-0.382057 -0.41804,-0.197203 -0.63641,0.382058 0.418393,0.197202"
       style="fill:#78797b;fill-opacity:1;fill-rule:nonzero;stroke:none;stroke-width:0.0352777"
       id="path109" />
    <path
       d="m 61.267153,72.859419 v -2.142061 l 0.418393,0.197202 v 2.142061 l -0.418393,-0.197202"
       style="fill:#656769;fill-opacity:1;fill-rule:nonzero;stroke:none;stroke-width:0.0352777"
       id="path111" />
    <path
       d="m 61.685546,73.056621 0.636057,-0.382057 v -2.142061 l -0.636057,0.382057 v 2.142061"
       style="fill:#515254;fill-opacity:1;fill-rule:nonzero;stroke:none;stroke-width:0.0352777"
       id="path113" />
    <path
       d="m 62.08489,71.825783 -0.290335,-0.167569 0.473073,-0.245533 0.290689,0.167569 -0.473427,0.245533"
       style="fill:#78797b;fill-opacity:1;fill-rule:nonzero;stroke:none;stroke-width:0.0352777"
       id="path115" />
    <path
       d="M 62.558317,72.149632 V 71.58025 l -0.473427,0.245533 v 0.569382 l 0.473427,-0.245533"
       style="fill:#656769;fill-opacity:1;fill-rule:nonzero;stroke:none;stroke-width:0.0352777"
       id="path117" />
    <path
       d="m 62.08489,72.395165 -0.290335,-0.167569 v -0.569382 l 0.290335,0.167569 v 0.569382"
       style="fill:#656769;fill-opacity:1;fill-rule:nonzero;stroke:none;stroke-width:0.0352777"
       id="path119" />
    <path
       d="m 62.375578,71.993352 -0.290688,-0.167569 0.473427,-0.245533 0.290335,0.167569 -0.473074,0.245533"
       style="fill:#78797b;fill-opacity:1;fill-rule:nonzero;stroke:none;stroke-width:0.0352777"
       id="path121" />
    <path
       d="M 62.848652,98.147878 V 68.768265 l -0.473074,0.245533 v 29.379613 l 0.473074,-0.245533"
       style="fill:#515254;fill-opacity:1;fill-rule:nonzero;stroke:none;stroke-width:0.0352777"
       id="path123" />
    <path
       d="M 62.375578,98.393411 62.08489,98.225842 V 68.846229 l 0.290688,0.167569 v 29.379613"
       style="fill:#656769;fill-opacity:1;fill-rule:nonzero;stroke:none;stroke-width:0.0352777"
       id="path125" />
    <path
       d="m 27.553676,74.643765 c -0.01976,-0.269875 -0.06103,-0.54751 -0.05962,-0.81809 0.0014,-0.226483 -0.0575,-0.329494 -0.162631,-0.535515 -0.133349,-0.262113 -0.112183,-0.573968 -0.07232,-0.865715 -0.394404,0.03598 -0.788809,0.07161 -1.183214,0.107244 l -0.0702,0.01976 -0.03387,0.04833 c -0.04621,0.09878 -0.06562,0.209903 -0.05574,0.318558 0.0071,0.08114 0.02999,0.159455 0.04868,0.23883 0.06985,0.29598 0.07232,0.588079 0.03351,0.887234 -0.03563,0.274813 0.06809,0.484362 0.201436,0.731306 0.198966,0.368299 0.41028,0.75071 0.755648,0.987423 0.08749,0.05997 0.373944,0.174272 0.371474,-0.01411 -0.0021,-0.154869 -0.271285,-0.314677 -0.341135,-0.450144 -0.05115,-0.09878 -0.06703,-0.211666 -0.08184,-0.322085 -0.01552,-0.113947 -0.03104,-0.227894 -0.04657,-0.341841 -0.01305,-0.09631 -0.02187,-0.403929 0.1524,-0.37994 0.04057,0.0056 0.06809,0.04339 0.08714,0.08008 0.17921,0.345369 0.02752,0.836434 0.310796,1.103486 l 0.05221,0.02928 c 0.04868,0.0049 0.07549,-0.05503 0.08431,-0.103364 0.0441,-0.236713 0.02681,-0.480129 0.0095,-0.720723"
       style="fill:#fbc6aa;fill-opacity:1;fill-rule:nonzero;stroke:none;stroke-width:0.0352777"
       id="path163" />
    <path
       d="m 29.015231,60.72213 c -0.07161,-0.160161 -0.109361,-0.383469 -0.284691,-0.42686 -0.214842,-0.05327 -0.519994,0.214135 -0.639585,0.360185 -0.186266,0.226483 -0.289277,0.509057 -0.380999,0.787398 -0.175683,0.533752 -0.322438,1.077028 -0.440266,1.626302 -0.117474,0.548568 -0.145344,1.117244 -0.263877,1.661932 -0.233185,1.069972 -0.536221,2.124775 -0.73942,3.205683 -0.293158,1.559274 -0.523521,3.147123 -0.399696,4.728975 0.01164,0.149577 0.02928,0.30621 0.115358,0.428624 0.11183,0.159455 0.312913,0.225777 0.50059,0.277282 0.294569,0.08114 0.65934,0.131586 0.861834,-0.09737 0.120297,-0.135819 0.141111,-0.330199 0.158397,-0.510821 0.200377,-2.09867 0.675215,-4.171234 1.408638,-6.148196 0.232833,-0.627237 0.493888,-1.253416 0.575379,-1.917695 0.163336,-1.329264 -0.40534,-2.637713 -0.471662,-3.975443"
       style="fill:#edeceb;fill-opacity:1;fill-rule:nonzero;stroke:none;stroke-width:0.0352777"
       id="path165" />
    <path
       d="m 31.556988,87.875015 c -0.03351,-0.08678 -0.08326,-0.165099 -0.10548,-0.261408 -0.03951,-0.170744 -0.02999,-0.365124 -0.0035,-0.536926 l -0.0056,-0.05785 -0.0755,-0.01693 c -0.509409,0.06915 -1.025522,0.08996 -1.538812,0.06209 -0.05786,-0.0032 -0.121709,-0.0049 -0.166158,0.03245 -0.0321,0.02716 -0.04621,0.06915 -0.06033,0.109009 -0.218369,0.611362 -0.826204,1.035753 -1.387119,1.324677 -0.216958,0.111477 -0.444499,0.212019 -0.624062,0.377118 -0.179564,0.1651 -0.3048,0.414513 -0.248355,0.651932 0.06174,0.259644 0.31891,0.428271 0.576084,0.501296 0.262819,0.07479 0.545746,0.07655 0.809623,0.006 0.552802,-0.148166 0.97437,-0.589843 1.484838,-0.849134 0.312561,-0.158749 0.660751,-0.250119 0.94897,-0.44979 0.238477,-0.165453 0.457199,-0.457905 0.427919,-0.763057 -0.0046,-0.04692 -0.01658,-0.0889 -0.03246,-0.129469"
       style="fill:#232221;fill-opacity:1;fill-rule:nonzero;stroke:none;stroke-width:0.0352777"
       id="path167" />
    <path
       d="m 31.97644,85.013642 c -0.07197,-0.361244 -0.06032,-0.733423 -0.04868,-1.101723 0.01764,-0.541865 0.03493,-1.083377 0.05256,-1.62489 0.01552,-0.478365 0.11677,-1.06715 0.05045,-1.523996 -0.05644,-0.39123 -0.204257,-0.764821 -0.259996,-1.15605 -0.07761,-0.54751 0.02716,-1.116892 -0.113594,-1.652054 -0.112183,-0.425449 -0.370769,-0.794101 -0.581729,-1.180039 -0.210608,-0.385938 -0.379941,-0.827967 -0.290336,-1.258708 0.04374,-0.20955 0.146755,-0.402166 0.206375,-0.608187 0.14993,-0.51823 0.01199,-1.085495 -0.254352,-1.554688 -0.266347,-0.469193 -0.651227,-0.857954 -1.03152,-1.240717 -0.225777,-0.0078 -0.485421,0.04163 -0.700615,-0.04621 -0.128411,-0.05256 -0.23883,-0.239889 -0.360185,-0.270227 -0.377471,-0.09419 -0.465666,0.473779 -0.502355,0.756353 -0.184855,1.423808 0.04974,2.915701 0.288572,4.320459 0.138289,0.813856 0.26423,1.629829 0.385232,2.446155 0.05891,0.396168 0.180269,0.832906 0.174272,1.233661 -0.0134,0.89817 0.271286,1.756123 0.36336,2.657115 0.07338,0.715432 -0.05997,1.48378 -0.03069,2.209442 0.0071,0.180975 0.01729,0.363008 0.05821,0.539396 0.08361,0.362302 0.476249,0.898523 0.183797,1.263294 -0.04339,0.05433 -0.106186,0.118886 -0.07585,0.182033 0.01729,0.03598 0.05891,0.05186 0.09454,0.0702 0.23883,0.124883 0.285749,0.454376 0.488949,0.630765 0.163335,0.141816 0.397932,0.160513 0.614184,0.154869 0.217664,-0.0053 0.438149,-0.02928 0.640643,-0.109714 0.202141,-0.08043 0.386291,-0.222955 0.481893,-0.418746 0.05927,-0.121708 0.08185,-0.257174 0.111831,-0.38876 0.07973,-0.353483 0.251882,-0.665337 0.278341,-1.028698 0.03316,-0.45861 -0.135114,-0.857953 -0.223308,-1.300335"
       style="fill:#082f49;fill-opacity:1;fill-rule:nonzero;stroke:none;stroke-width:0.0352777"
       id="path169" />
    <path
       d="m 34.418714,88.966154 c -0.07902,-0.163336 -0.251177,-0.25541 -0.388054,-0.373943 -0.201789,-0.174272 -0.337255,-0.42298 -0.374649,-0.686857 -0.239183,0.07408 -0.449438,0.218722 -0.671335,0.334432 -0.222249,0.115358 -0.47519,0.204258 -0.720723,0.153106 -0.03986,-0.0085 -0.08361,-0.02011 -0.119944,-0.0018 -0.0381,0.01905 -0.05433,0.06385 -0.06738,0.104422 -0.03069,0.0956 -0.06103,0.191205 -0.09172,0.286807 l -0.03528,0.164747 c -0.04586,0.399696 -0.170744,0.79022 -0.365124,1.142292 -0.137231,0.247649 -0.307975,0.475896 -0.434974,0.728484 -0.127,0.252941 -0.209902,0.541865 -0.153105,0.819148 0.07091,0.34678 0.362301,0.626885 0.700967,0.730954 0.338313,0.104069 0.713668,0.04692 1.032226,-0.108303 0.318204,-0.155222 0.584551,-0.401813 0.808564,-0.676626 0.154516,-0.189441 0.292099,-0.39511 0.387349,-0.620534 0.158397,-0.37465 0.195439,-0.790926 0.346074,-1.16875 0.107597,-0.269169 0.27305,-0.566913 0.147108,-0.827615"
       style="fill:#232221;fill-opacity:1;fill-rule:nonzero;stroke:none;stroke-width:0.0352777"
       id="path171" />
    <path
       d="m 36.251676,74.727726 c -0.01235,-0.355247 -0.02364,-0.710846 -0.03386,-1.066092 -0.0053,-0.185561 -0.01023,-0.371121 -0.01482,-0.556329 -0.0021,-0.08714 -0.06385,-0.449791 -0.01164,-0.510116 -0.277632,0.321027 -0.610654,0.489655 -0.972243,0.581024 -0.402868,0.101952 -0.841013,0.108302 -1.278449,0.124177 -0.924618,0.03422 -1.850297,0.01164 -2.774915,-0.01799 -0.207077,-0.0071 -0.421565,-0.0568 -0.602536,0.08361 -0.218365,0.16898 -0.198257,0.470604 -0.209197,0.716137 -0.01199,0.267758 -0.09242,0.502707 -0.116413,0.768701 -0.05397,0.607834 -0.01658,1.293985 0.330549,1.816801 0.157338,0.236713 0.371823,0.429329 0.5535,0.648404 0.21343,0.257527 0.379937,0.550332 0.531631,0.848428 0.131935,0.258938 0.253643,0.525285 0.323489,0.807506 0.07021,0.282222 0.08643,0.575027 0.102662,0.865362 0.05573,1.008942 -0.01941,2.05669 0.19861,3.033529 0.04868,0.216958 0.0762,0.437796 0.103716,0.658281 0.05432,0.435327 0.136521,0.863246 0.08995,1.293281 -0.05292,0.487184 -0.129466,0.978603 -0.11818,1.470374 0.0056,0.255763 0.0078,0.527048 -0.122414,0.747534 -0.08537,0.144286 -0.22824,0.272697 -0.224715,0.440618 0.0028,0.129117 0.09455,0.239536 0.120297,0.366183 0.0441,0.21731 -0.11606,0.393346 -0.09736,0.607834 0.02011,0.231422 0.184499,0.436738 0.37182,0.561621 0.21978,0.146403 0.482595,0.210961 0.739766,0.273049 0.125588,0.03034 0.252584,0.06103 0.381697,0.06773 0.368299,0.02011 0.732714,-0.159808 0.973305,-0.439208 0.377115,-0.437443 0.416975,-1.083377 0.482591,-1.633004 0.112889,-0.947911 0.185561,-1.900409 0.21766,-2.854671 0.07126,-2.118778 0.510821,-4.231911 0.806445,-6.341164 0.06314,-0.450849 0.07761,-0.888293 0.154156,-1.334203 0.115009,-0.672392 0.118886,-1.348313 0.0949,-2.027408"
       style="fill:#07263b;fill-opacity:1;fill-rule:nonzero;stroke:none;stroke-width:0.0352775"
       id="path173" />
    <path
       d="m 36.6846,60.983538 c -0.158396,0.922511 -0.316793,1.845376 -0.477307,2.76824 -0.113241,0.660045 -0.228246,1.322913 -0.279046,1.994953 -0.07303,0.942267 -0.02011,1.89159 0.03281,2.836327 0.07867,1.403346 0.157338,2.804223 0.236008,4.207922 0.01023,0.150283 0.01588,0.305505 -0.03845,0.444852 -0.07761,0.197202 -0.264935,0.327377 -0.448379,0.432505 -1.061506,0.61489 -2.294461,0.852309 -3.500253,1.081614 -0.315735,0.05715 -0.631118,0.116769 -0.948617,0.132996 -0.03422,0.0011 -0.06844,0.0025 -0.102658,0.0014 -0.116416,0.0042 -0.231069,0.0014 -0.345721,-0.0127 -0.199672,-0.02222 -0.398286,-0.06985 -0.590549,-0.138289 -0.532693,-0.188736 -1.027992,-0.536574 -1.406169,-0.93627 -0.556682,-0.588079 -0.614537,-1.425219 -0.503059,-2.190392 0.0822,-0.570087 0.239888,-1.133825 0.275871,-1.71132 0.03563,-0.591254 -0.01587,-1.179334 0.02434,-1.775527 0.08678,-1.251652 0.0635,-2.508243 -0.06879,-3.754251 -0.06632,-0.621593 -0.159808,-1.242481 -0.28081,-1.857723 -0.115006,-0.583493 -0.104775,-1.119009 -0.04198,-1.715907 0.03034,-0.29598 0.03916,-0.362655 0.291747,-0.529518 0.198613,-0.130881 0.404635,-0.250119 0.613126,-0.363008 0.228599,-0.125236 0.464607,-0.236713 0.705554,-0.339018 0.657576,-0.277989 1.347608,-0.474838 2.054925,-0.578202 0.493535,-0.07303 1.000123,-0.103011 1.488366,-0.0067 0.386996,0.07514 0.751415,0.226483 1.111953,0.389466 0.0441,0.02117 0.09066,0.04233 0.134761,0.0635 0.05362,0.0254 0.107244,0.05115 0.162983,0.07655 0.49812,0.237771 0.998358,0.475543 1.496479,0.713314 0.150989,0.07232 0.311855,0.153458 0.385938,0.303741 0.06914,0.139347 0.04339,0.307269 0.01693,0.461433"
       style="fill:#e9e8e7;fill-opacity:1;fill-rule:nonzero;stroke:none;stroke-width:0.0352777"
       id="path175" />
    <path
       d="m 33.69658,57.937309 c 0.03916,-0.152752 0.12453,-0.310444 0.144639,-0.466371 0.0067,-0.05186 -0.05821,-0.360185 -0.01905,-0.37853 -0.356658,0.167922 -0.591255,0.513291 -0.802568,0.846312 -0.06068,0.09595 -0.0568,0.147814 -0.147461,0.227894 -0.07585,0.06703 -0.152399,0.132997 -0.23001,0.197908 -0.154516,0.129469 -0.31256,0.254705 -0.475896,0.373238 -0.323497,0.234596 -0.667101,0.44344 -1.033284,0.604307 l -0.572204,-0.0056 c 0.04057,3.53e-4 0.103717,0.227541 0.112536,0.261761 0.02505,0.09878 0.03387,0.201435 0.02646,0.303035 -0.01482,0.198261 -0.11183,0.367594 -0.179916,0.550332 -0.02787,0.07514 -0.04233,0.164394 7.06e-4,0.232127 0.04621,0.07232 0.143933,0.0949 0.228599,0.0829 0.08502,-0.01235 0.163336,-0.05186 0.244827,-0.07796 0.165453,-0.05327 0.348191,-0.05115 0.512585,0.006 0.199319,0.0695 0.369005,0.2159 0.575379,0.258586 0.170391,0.03493 0.349249,-0.006 0.505882,-0.08079 0.156633,-0.07514 0.294922,-0.182739 0.432152,-0.28963 0.195086,-0.1524 0.394404,-0.309738 0.520346,-0.522463 0.393346,-0.66569 -0.02611,-1.413224 0.15628,-2.123011"
       style="fill:#f2b292;fill-opacity:1;fill-rule:nonzero;stroke:none;stroke-width:0.0352777"
       id="path177" />
    <path
       d="m 30.815098,68.613396 c -0.08855,1.269997 -0.08537,2.550225 0.04339,3.819163 0.06491,0.642407 0.163688,1.283755 0.298802,1.91699 0.04163,0.197202 0.142169,0.388054 0.104069,0.533398 -0.148166,0.0078 -0.299155,0.0063 -0.448379,-0.01129 -0.199672,-0.02222 -0.398286,-0.06985 -0.590549,-0.138289 -0.167922,-1.402288 -0.317852,-2.812337 -0.316794,-4.225562 0.0025,-1.431216 0.160514,-2.859256 0.332669,-4.280947 0.09878,-0.806448 0.201788,-1.615013 0.355246,-2.414053 0.218722,-1.155697 0.56268,-2.254597 0.677332,-3.424758 0.313266,0.180622 0.643112,0.328435 0.985659,0.43956 -0.20073,0.453319 -0.315383,0.942267 -0.423333,1.428394 -0.472015,2.095847 -0.8703,4.21392 -1.018114,6.357392"
       style="fill:#ffffff;fill-opacity:1;fill-rule:nonzero;stroke:none;stroke-width:0.0352777"
       id="path179" />
    <path
       d="m 31.349203,69.799785 -0.892879,0.890056 -0.603954,-1.235777 1.335966,-8.202769 0.650521,0.03351 -0.489654,8.514976"
       style="fill:#082f49;fill-opacity:1;fill-rule:nonzero;stroke:none;stroke-width:0.0352777"
       id="path181" />
    <path
       d="m 31.275472,60.424386 0.791279,0.142522 0.185913,0.779284 -0.858659,0.367241 -0.583846,-0.728837 0.465313,-0.56021"
       style="fill:#062337;fill-opacity:1;fill-rule:nonzero;stroke:none;stroke-width:0.0352777"
       id="path183" />
    <path
       d="m 30.826034,59.568197 c -0.136877,-0.146756 -0.299154,-0.269522 -0.47766,-0.360538 l -0.08043,-0.02399 c -0.03245,0.0014 -0.06138,0.02081 -0.08819,0.03916 -0.138641,0.09666 -0.180622,0.198966 -0.173566,0.376413 0.01023,0.252236 0.138994,0.408163 0.225072,0.634293 0.116769,0.306563 0.156632,0.820912 0.02787,1.122183 0.185561,0.01235 0.389113,-0.218369 0.524932,-0.323496 0.312913,-0.242711 0.696734,-0.38488 0.996595,-0.643465 -0.1143,-0.08467 -0.268816,-0.0889 -0.400049,-0.144639 -0.305858,-0.130174 -0.350308,-0.456846 -0.554566,-0.67592"
       style="fill:#ffffff;fill-opacity:1;fill-rule:nonzero;stroke:none;stroke-width:0.0352777"
       id="path185" />
    <path
       d="m 33.553705,56.300424 c -0.01411,-0.385585 -0.208491,-0.837845 -0.330552,-1.201205 -0.13723,-0.408163 -0.124177,-0.733071 -0.110772,-1.163811 0.0046,-0.147461 0.0067,-0.305505 -0.07338,-0.42933 -0.12453,-0.194027 -0.408163,-0.226482 -0.621593,-0.139346 -0.21343,0.08749 -0.375355,0.263524 -0.537985,0.427212 -0.173566,0.174625 -0.342193,0.369711 -0.571851,0.44203 -0.245886,0.07761 -0.537985,0.08714 -0.793395,0.128411 -0.05574,0.0092 -0.198261,-0.138289 -0.250472,-0.162278 -0.1143,-0.05221 -0.275519,-0.09137 -0.383469,0.0049 -0.0515,0.04586 -0.07302,0.115711 -0.09137,0.182033 -0.08643,0.310796 -0.149224,0.630412 -0.154163,0.95285 -0.0025,0.166511 0.01023,0.333375 0.02293,0.499532 0.07867,1.017762 -0.08643,2.163581 0.383822,3.093148 0.07761,0.153458 0.15628,0.309033 0.269168,0.439208 0.112536,0.130174 0.26423,0.234596 0.434974,0.256116 0.288925,0.03563 0.638174,-0.124531 0.91969,-0.186619 0.266699,-0.05891 0.485068,-0.249414 0.685798,-0.430388 0.240241,-0.216605 0.451907,-0.46496 0.62759,-0.736246 0.16263,-0.25153 0.246944,-0.537279 0.40146,-0.784928 0.01446,0.134761 0.178505,0.212019 0.310444,0.180974 0.131938,-0.03104 0.23248,-0.136524 0.31503,-0.244121 0.135819,-0.176389 0.245532,-0.373238 0.324907,-0.581377 0.03704,-0.09701 0.06773,-0.201082 0.0508,-0.303388 -0.02752,-0.165099 -0.182738,-0.291746 -0.348544,-0.313266 -0.166158,-0.02187 -0.335138,0.04798 -0.460021,0.159456 l -0.01905,-0.08961"
       style="fill:#fbc6aa;fill-opacity:1;fill-rule:nonzero;stroke:none;stroke-width:0.0352777"
       id="path187" />
    <path
       d="m 34.116032,53.423529 c -0.07056,-0.02893 -0.154517,-0.01623 -0.222602,-0.05115 -0.06879,-0.03563 -0.104775,-0.111125 -0.142875,-0.178505 -0.198614,-0.351719 -0.509763,-0.479071 -0.846312,-0.659693 -0.13088,-0.0702 -0.221897,-0.134408 -0.373238,-0.160161 -0.0822,-0.01376 -0.541865,0.03845 -0.574673,0.0032 l 0.07832,0.08361 c -0.741537,0.02505 -1.472844,0.294216 -2.053162,0.756707 0.05645,0.03634 0.130175,0.0448 0.193322,0.02187 -0.253646,0.167216 -0.448732,0.421568 -0.544335,0.71014 0.04057,0.0049 0.08114,0.0099 0.121708,0.01482 -0.06526,0.08396 -0.105833,0.186971 -0.11571,0.292804 0.233185,0.07091 0.431799,0.231069 0.673451,0.239183 0.275166,0.0088 0.562326,-0.04657 0.82585,-0.121002 0.138642,-0.03916 1.492247,-0.597604 1.416753,-0.747182 0.328788,0.651932 0.309032,1.467905 -0.05151,2.103256 0.483657,0.172155 0.849134,0.636057 0.904167,1.146172 0.05962,-0.380646 0.444499,-0.680154 0.827968,-0.644876 0.117827,-0.810681 0.138288,-1.635474 0.06032,-2.450741 -0.01305,-0.140052 -0.04762,-0.304799 -0.177447,-0.358421"
       style="fill:#2d1e15;fill-opacity:1;fill-rule:nonzero;stroke:none;stroke-width:0.0352777"
       id="path189" />
    <path
       d="m 34.052532,59.090537 c -0.0071,-0.0575 -0.01411,-0.116064 -0.03563,-0.170039 -0.02293,-0.05856 -0.06209,-0.109713 -0.09666,-0.16263 -0.132645,-0.202847 -0.202142,-0.440618 -0.252236,-0.677684 0.04939,0.545746 -0.25541,1.075264 -0.66957,1.434391 -0.414161,0.358774 -0.928509,0.57679 -1.433686,0.789161 l -0.0314,0.156633 c 0.253647,0.427566 0.673804,0.752826 1.151111,0.89182 0.09066,-0.16016 0.237419,-0.278693 0.371474,-0.404282 0.246944,-0.232127 0.458257,-0.498474 0.668512,-0.763762 0.138289,-0.174624 0.280458,-0.35701 0.330552,-0.573968 0.03916,-0.169686 0.01835,-0.34678 -0.0025,-0.51964"
       style="fill:#ffffff;fill-opacity:1;fill-rule:nonzero;stroke:none;stroke-width:0.0352777"
       id="path191" />
    <g
       id="g5030"
       transform="matrix(0,-0.00329686,-0.00329686,0,58.164621,76.128543)">
      <path
         id="path28182"
         style="fill:#082f49;fill-opacity:1;stroke:none;stroke-width:19.9065;stroke-linecap:round;stroke-linejoin:round;stroke-miterlimit:4;stroke-dasharray:none;stroke-opacity:1"
         d="M 5521.33,3895.57 H 3139.36 c -67.09,0 -179.99,-54.14 -231.54,-110.51 L 1069.36,1879.15 722.882,26.2133 C 709.351,-30.1551 764.361,-82.7821 831.458,-82.7821 H 3224.42 Z" />
      <path
         id="path18306"
         style="fill:#f3f4f6;fill-opacity:1;stroke:none;stroke-width:19.5414;stroke-linecap:round;stroke-linejoin:round;stroke-miterlimit:4;stroke-dasharray:none;stroke-opacity:1"
         d="M 5478.38,3846.48 H 3154.42 c -65.46,0 -175.98,-53.48 -226.68,-109.15 L 1136.33,1881.76 785.122,26.1959 C 771.53,-29.479 820.3,-82.9547 885.764,-82.9547 H 3209.72 Z" />
      <path
         id="rect14746"
         style="fill:#082f49;stroke-width:26.7777"
         transform="scale(1,-1)"
         d="M 5052.7,-3109.18 3635.4,-654.343 H 1532.32 l 1417.3,-2454.837 z" />
      <g
         aria-label="CONSULTORÍAS SAS."
         transform="scale(1,-1)"
         id="text4986"
         style="font-size:226.771px;line-height:1.25;font-family:'Work Sans';-inkscape-font-specification:'Work Sans';fill:#082f49;stroke-width:5.66929">
        <path
           d="m 2444.01,-2752.55 c -9.74,-2.49 -16.81,-6.42 -21.22,-11.78 -4.41,-5.37 -6.33,-11.72 -5.76,-19.05 0.57,-7.33 3.38,-15.39 8.45,-24.16 7.41,-12.83 17.41,-23.96 30.01,-33.38 12.52,-9.3 26.89,-16.5 43.11,-21.61 16.14,-4.97 33.46,-7.46 51.96,-7.46 18.51,0 32.96,2.49 43.35,7.46 10.32,5.11 16.38,12.31 18.17,21.61 1.71,9.42 -1.06,20.42 -8.32,32.99 -5.14,8.9 -11.44,16.95 -18.92,24.15 -7.3,7.21 -15.7,13.29 -25.21,18.27 -9.58,5.1 -20.11,8.84 -31.6,11.19 l 0.3,-24.55 c 11.76,-2.22 21.14,-5.63 28.15,-10.21 7.19,-4.58 12.86,-10.47 17.01,-17.67 4.09,-7.07 5.41,-13.29 3.97,-18.66 -1.52,-5.24 -5.89,-9.3 -13.13,-12.18 -7.07,-2.88 -17.06,-4.32 -29.98,-4.32 -12.74,0 -24.32,1.31 -34.74,3.93 -10.49,2.75 -19.51,6.74 -27.08,11.98 -7.56,5.24 -13.53,11.65 -17.92,19.25 -4.08,7.07 -5.06,13.16 -2.95,18.26 2.04,5.24 7.61,8.9 16.7,11 z"
           style="font-weight:600;-inkscape-font-specification:'Work Sans Semi-Bold'"
           id="path4924" />
        <path
           d="m 2526.1,-2673.41 c -7.41,12.83 -17.38,23.9 -29.9,33.19 -12.53,9.3 -26.86,16.43 -43,21.41 -16.21,5.1 -33.57,7.66 -52.08,7.66 -18.5,0 -32.91,-2.56 -43.23,-7.66 -10.4,-4.98 -16.49,-12.11 -18.28,-21.41 -1.79,-9.29 1.02,-20.36 8.43,-33.19 7.4,-12.83 17.41,-23.96 30.01,-33.38 12.52,-9.3 26.89,-16.5 43.11,-21.6 16.14,-4.98 33.46,-7.47 51.96,-7.47 18.51,0 32.96,2.49 43.35,7.47 10.32,5.1 16.38,12.3 18.17,21.6 1.71,9.42 -1.14,20.55 -8.54,33.38 z m -29.59,0 c 4.23,-7.33 5.55,-13.55 3.96,-18.65 -1.59,-5.11 -6.04,-9.04 -13.36,-11.79 -7.22,-2.62 -17.28,-3.92 -30.2,-3.92 -12.74,0 -24.32,1.3 -34.74,3.92 -10.49,2.75 -19.48,6.68 -26.96,11.79 -7.49,5.1 -13.35,11.32 -17.58,18.65 -4.16,7.2 -5.44,13.36 -3.85,18.46 1.59,5.11 6.08,8.97 13.47,11.59 7.31,2.75 17.34,4.12 30.09,4.12 12.92,0 24.53,-1.37 34.85,-4.12 10.41,-2.62 19.36,-6.48 26.85,-11.59 7.49,-5.1 13.31,-11.26 17.47,-18.46 z"
           style="font-weight:600;-inkscape-font-specification:'Work Sans Semi-Bold'"
           id="path4926" />
        <path
           d="m 2407.49,-2472.5 h -172.83 l 17.92,-31.03 127.79,-45.37 34.74,-11.19 0.12,-0.2 -30.31,0.79 h -100.03 l 14.06,-24.35 h 172.83 l -17.81,30.83 -127.52,45.36 -35.01,11.2 -0.23,0.39 30.31,-0.79 h 100.03 z"
           style="font-weight:600;-inkscape-font-specification:'Work Sans Semi-Bold'"
           id="path4928" />
        <path
           d="m 2363.28,-2391.4 c -6.8,11.79 -15.48,22.13 -26.03,31.03 -10.56,8.91 -22.97,16.5 -37.25,22.78 l -14.57,-15.12 c 12.18,-5.37 22.21,-11.26 30.1,-17.67 8,-6.29 14.41,-13.62 19.25,-22 3.17,-5.5 4.86,-10.08 5.06,-13.75 0.12,-3.53 -0.9,-6.15 -3.06,-7.85 -2.24,-1.57 -5.28,-2.36 -9.12,-2.36 -4.71,0 -9.52,1.38 -14.42,4.13 -4.73,2.75 -10.07,7.46 -16.02,14.14 l -21.28,24.15 c -11.25,12.83 -22.3,22 -33.16,27.5 -10.75,5.63 -22.15,8.44 -34.2,8.44 -11.35,0 -19.84,-2.23 -25.47,-6.68 -5.46,-4.45 -8.07,-10.67 -7.82,-18.65 0.42,-7.99 3.62,-17.15 9.59,-27.5 5.21,-9.03 11.41,-17.34 18.59,-24.94 7.27,-7.46 15.14,-14.14 23.61,-20.03 8.46,-5.89 17.14,-10.8 26.05,-14.73 l 15.5,15.32 c -7.32,3.01 -14.45,6.74 -21.38,11.19 -6.94,4.45 -13.34,9.5 -19.21,15.13 -5.77,5.76 -10.47,11.78 -14.1,18.06 -3.1,5.37 -4.92,9.89 -5.46,13.55 -0.45,3.8 0.28,6.61 2.19,8.45 2.01,1.96 5.2,2.94 9.56,2.94 4.54,0 9.06,-1.17 13.56,-3.53 4.6,-2.23 9.55,-6.42 14.85,-12.57 l 23.05,-26.32 c 6.83,-7.59 13.75,-14.14 20.77,-19.63 7.11,-5.37 14.55,-9.5 22.33,-12.38 7.87,-2.75 16.08,-4.12 24.64,-4.12 10.3,0 18.34,2.09 24.12,6.28 5.79,4.19 8.77,10.22 8.95,18.07 0.28,7.99 -2.8,17.54 -9.22,28.67 z"
           style="font-weight:600;-inkscape-font-specification:'Work Sans Semi-Bold'"
           id="path4930" />
        <path
           d="m 2252.49,-2204.04 h -104.74 c -23.57,0 -38.56,-4.72 -44.99,-14.14 -6.26,-9.43 -4.17,-23.18 6.26,-41.25 10.44,-18.06 24.22,-31.81 41.36,-41.24 17.31,-9.42 37.75,-14.14 61.32,-14.14 h 104.74 l -15.65,27.11 h -103.17 c -14.49,0 -26.55,2.29 -36.17,6.87 -9.71,4.71 -17.32,11.85 -22.84,21.4 -5.51,9.56 -6.1,16.63 -1.77,21.21 4.34,4.59 13.75,6.88 28.24,6.88 h 103.17 z"
           style="font-weight:600;-inkscape-font-specification:'Work Sans Semi-Bold'"
           id="path4932" />
        <path
           d="m 2075.06,-2145.72 -39.46,68.34 h -29.06 l 55.1,-95.44 h 172.82 l -15.64,27.1 z"
           style="font-weight:600;-inkscape-font-specification:'Work Sans Semi-Bold'"
           id="path4934" />
        <path
           d="m 2122.28,-1978.51 h -29.07 l 25.06,-43.4 h -143.76 l 15.65,-27.1 h 143.76 l 25.17,-43.6 h 29.06 z"
           style="font-weight:600;-inkscape-font-specification:'Work Sans Semi-Bold'"
           id="path4936" />
        <path
           d="m 2082.61,-1905.26 c -7.41,12.83 -17.37,23.89 -29.9,33.19 -12.52,9.29 -26.85,16.43 -42.99,21.4 -16.22,5.11 -33.58,7.66 -52.08,7.66 -18.51,0 -32.92,-2.55 -43.24,-7.66 -10.39,-4.97 -16.49,-12.11 -18.28,-21.4 -1.79,-9.3 1.02,-20.36 8.43,-33.19 7.41,-12.83 17.41,-23.96 30.01,-33.39 12.52,-9.29 26.89,-16.5 43.11,-21.6 16.14,-4.98 33.46,-7.46 51.96,-7.46 18.51,0 32.96,2.48 43.35,7.46 10.32,5.1 16.38,12.31 18.17,21.6 1.71,9.43 -1.13,20.56 -8.54,33.39 z m -29.59,0 c 4.23,-7.34 5.55,-13.55 3.96,-18.66 -1.59,-5.11 -6.04,-9.03 -13.36,-11.78 -7.21,-2.62 -17.28,-3.93 -30.2,-3.93 -12.74,0 -24.32,1.31 -34.74,3.93 -10.49,2.75 -19.48,6.67 -26.96,11.78 -7.49,5.11 -13.35,11.32 -17.58,18.66 -4.16,7.2 -5.44,13.35 -3.85,18.46 1.59,5.1 6.08,8.97 13.47,11.58 7.32,2.75 17.35,4.13 30.09,4.13 12.92,0 24.54,-1.38 34.85,-4.13 10.42,-2.61 19.37,-6.48 26.85,-11.58 7.49,-5.11 13.31,-11.26 17.47,-18.46 z"
           style="font-weight:600;-inkscape-font-specification:'Work Sans Semi-Bold'"
           id="path4938" />
        <path
           d="m 1995.29,-1758.56 c -8.46,14.66 -19.83,26.18 -34.09,34.56 -14.27,8.38 -29.34,12.57 -45.23,12.57 -16.93,0 -27.52,-4.19 -31.76,-12.57 -4.06,-8.38 -1.9,-19.83 6.49,-34.37 l -0.51,-2.75 16.1,-27.88 h -66.25 l 15.42,-26.71 h 172.83 z m -77.26,-3.15 c -4.39,7.6 -5.63,13.23 -3.73,16.89 2,3.8 7.27,5.7 15.83,5.7 8.55,0 15.93,-1.9 22.14,-5.7 6.3,-3.66 11.65,-9.29 16.03,-16.89 l 15.76,-27.29 h -50.27 z m -16.78,15.91 -110.41,42.03 17.57,-30.44 95.74,-34.76 z"
           style="font-weight:600;-inkscape-font-specification:'Work Sans Semi-Bold'"
           id="path4940" />
        <path
           d="m 1935.54,-1655.07 h -172.82 l 15.64,-27.1 h 172.83 z m 67.67,-11.98 -14.29,24.75 -32.44,-17.28 11.45,-19.84 z"
           style="font-weight:600;-inkscape-font-specification:'Work Sans Semi-Bold'"
           id="path4942" />
        <path
           d="m 1678.25,-1508.76 16.21,-28.08 48.39,-10.8 28.69,-49.69 -35.92,-10.8 15.99,-27.69 145.49,47.33 -18.71,32.4 z m 116.48,-82.48 -21.65,37.51 86.3,-18.86 z"
           style="font-weight:600;-inkscape-font-specification:'Work Sans Semi-Bold'"
           id="path4944" />
        <path
           d="m 1815.81,-1443.16 c -6.8,11.78 -15.48,22.13 -26.03,31.03 -10.55,8.9 -22.96,16.5 -37.24,22.78 l -14.58,-15.12 c 12.18,-5.37 22.22,-11.26 30.11,-17.68 7.99,-6.28 14.41,-13.61 19.24,-21.99 3.18,-5.5 4.86,-10.08 5.06,-13.75 0.12,-3.53 -0.9,-6.15 -3.06,-7.85 -2.23,-1.58 -5.27,-2.36 -9.11,-2.36 -4.71,0 -9.52,1.37 -14.43,4.12 -4.73,2.75 -10.07,7.47 -16.02,14.14 l -21.27,24.16 c -11.25,12.83 -22.3,21.99 -33.16,27.49 -10.76,5.63 -22.16,8.45 -34.2,8.45 -11.35,0 -19.84,-2.23 -25.48,-6.68 -5.46,-4.45 -8.06,-10.67 -7.82,-18.66 0.43,-7.98 3.62,-17.15 9.59,-27.49 5.22,-9.03 11.42,-17.35 18.59,-24.94 7.28,-7.46 15.15,-14.14 23.61,-20.03 8.47,-5.89 17.15,-10.8 26.05,-14.73 l 15.51,15.32 c -7.33,3.01 -14.46,6.74 -21.39,11.19 -6.93,4.45 -13.34,9.49 -19.2,15.12 -5.77,5.76 -10.47,11.79 -14.1,18.07 -3.1,5.37 -4.92,9.88 -5.47,13.55 -0.44,3.8 0.29,6.61 2.2,8.44 2,1.97 5.19,2.95 9.56,2.95 4.53,0 9.05,-1.18 13.56,-3.53 4.6,-2.23 9.55,-6.42 14.85,-12.57 l 23.05,-26.32 c 6.83,-7.59 13.75,-14.14 20.76,-19.64 7.12,-5.37 14.56,-9.49 22.33,-12.37 7.87,-2.75 16.09,-4.12 24.64,-4.12 10.3,0 18.34,2.09 24.13,6.28 5.79,4.19 8.77,10.21 8.95,18.07 0.27,7.98 -2.8,17.54 -9.23,28.67 z"
           style="font-weight:600;-inkscape-font-specification:'Work Sans Semi-Bold'"
           id="path4946" />
        <path
           d="m 1708.1,-1256.59 c -6.8,11.78 -15.48,22.12 -26.03,31.03 -10.55,8.9 -22.97,16.49 -37.25,22.78 l -14.57,-15.12 c 12.18,-5.37 22.21,-11.26 30.1,-17.68 8,-6.28 14.41,-13.62 19.25,-21.99 3.17,-5.5 4.86,-10.09 5.06,-13.75 0.12,-3.54 -0.9,-6.16 -3.06,-7.86 -2.24,-1.57 -5.27,-2.35 -9.12,-2.35 -4.71,0 -9.52,1.37 -14.42,4.12 -4.73,2.75 -10.07,7.46 -16.02,14.14 l -21.28,24.16 c -11.25,12.83 -22.3,21.99 -33.15,27.49 -10.76,5.63 -22.16,8.44 -34.21,8.44 -11.34,0 -19.84,-2.22 -25.47,-6.67 -5.46,-4.45 -8.07,-10.67 -7.82,-18.66 0.42,-7.99 3.62,-17.15 9.59,-27.49 5.21,-9.04 11.41,-17.35 18.59,-24.94 7.27,-7.47 15.14,-14.14 23.61,-20.04 8.46,-5.89 17.14,-10.8 26.05,-14.73 l 15.5,15.32 c -7.32,3.01 -14.45,6.75 -21.38,11.2 -6.94,4.45 -13.34,9.49 -19.21,15.12 -5.77,5.76 -10.47,11.78 -14.1,18.07 -3.09,5.36 -4.92,9.88 -5.46,13.55 -0.45,3.79 0.28,6.61 2.19,8.44 2.01,1.97 5.2,2.95 9.56,2.95 4.54,0 9.06,-1.18 13.56,-3.54 4.61,-2.22 9.56,-6.41 14.85,-12.57 l 23.05,-26.31 c 6.83,-7.6 13.75,-14.14 20.77,-19.64 7.11,-5.37 14.56,-9.49 22.33,-12.37 7.87,-2.75 16.08,-4.13 24.64,-4.13 10.3,0 18.34,2.1 24.13,6.29 5.78,4.19 8.76,10.21 8.94,18.06 0.28,7.99 -2.8,17.55 -9.22,28.68 z"
           style="font-weight:600;-inkscape-font-specification:'Work Sans Semi-Bold'"
           id="path4948" />
        <path
           d="m 1422.63,-1066.02 16.21,-28.08 48.4,-10.8 28.68,-49.69 -35.92,-10.8 15.99,-27.69 145.49,47.33 -18.7,32.4 z m 116.49,-82.48 -21.66,37.51 86.3,-18.85 z"
           style="font-weight:600;-inkscape-font-specification:'Work Sans Semi-Bold'"
           id="path4950" />
        <path
           d="m 1560.19,-1000.42 c -6.8,11.788 -15.48,22.131 -26.03,31.034 -10.55,8.902 -22.96,16.496 -37.24,22.78 l -14.57,-15.121 c 12.17,-5.368 22.21,-11.26 30.1,-17.675 7.99,-6.285 14.41,-13.616 19.25,-21.998 3.17,-5.5 4.86,-10.08 5.05,-13.74 0.12,-3.54 -0.9,-6.16 -3.06,-7.86 -2.23,-1.57 -5.27,-2.36 -9.11,-2.36 -4.71,0 -9.52,1.38 -14.43,4.13 -4.73,2.75 -10.07,7.46 -16.01,14.14 l -21.28,24.153 c -11.25,12.83 -22.3,21.995 -33.16,27.494 -10.76,5.63 -22.16,8.445 -34.2,8.445 -11.35,0 -19.84,-2.226 -25.47,-6.678 -5.46,-4.451 -8.07,-10.67 -7.82,-18.656 0.42,-7.987 3.61,-17.151 9.58,-27.494 5.22,-9.034 11.42,-17.344 18.59,-24.944 7.28,-7.46 15.15,-14.14 23.61,-20.03 8.47,-5.89 17.15,-10.8 26.05,-14.73 l 15.51,15.32 c -7.32,3.01 -14.45,6.74 -21.39,11.19 -6.93,4.46 -13.33,9.5 -19.2,15.13 -5.77,5.76 -10.47,11.78 -14.1,18.064 -3.1,5.368 -4.92,9.885 -5.47,13.55 -0.44,3.797 0.29,6.612 2.2,8.445 2.01,1.964 5.19,2.946 9.56,2.946 4.54,0 9.06,-1.179 13.56,-3.535 4.6,-2.226 9.55,-6.415 14.85,-12.569 l 23.05,-26.311 c 6.83,-7.6 13.75,-14.14 20.76,-19.64 7.12,-5.37 14.56,-9.5 22.33,-12.38 7.88,-2.75 16.09,-4.12 24.64,-4.12 10.3,0 18.35,2.1 24.13,6.28 5.79,4.19 8.77,10.22 8.95,18.07 0.27,7.99 -2.8,17.55 -9.23,28.67 z"
           style="font-weight:600;-inkscape-font-specification:'Work Sans Semi-Bold'"
           id="path4952" />
        <path
           d="m 1372.97,-910.62 c -3.02,5.237 -7.32,9.361 -12.9,12.373 -5.66,3.142 -11.71,4.713 -18.17,4.713 -6.63,0 -10.96,-1.571 -12.99,-4.713 -1.93,-3.012 -1.38,-7.136 1.64,-12.373 3.03,-5.237 7.28,-9.426 12.76,-12.569 5.58,-3.011 11.68,-4.516 18.32,-4.516 6.46,0 10.74,1.505 12.84,4.516 2.03,3.143 1.53,7.332 -1.5,12.569 z"
           style="font-weight:600;-inkscape-font-specification:'Work Sans Semi-Bold'"
           id="path4954" />
      </g>
      <path
         style="fill:none;stroke:#082f49;stroke-width:19.4244;stroke-linecap:butt;stroke-linejoin:miter;stroke-miterlimit:4;stroke-dasharray:none;stroke-opacity:1"
         d="M 3031.14,3354.66 1330.38,408.86"
         id="path14606" />
      <g
         aria-label="“Conocimiento que agrega valor”"
         transform="scale(1,-1)"
         id="text26035"
         style="font-size:151.181px;line-height:1.25;font-family:'Work Sans';-inkscape-font-specification:'Work Sans';fill:#082f49;stroke-width:5.66929">
        <path
           d="m 2399.25,-2936.12 c 2.07,-3.58 5.18,-6.46 9.35,-8.65 4.24,-2.09 8.74,-3.14 13.51,-3.14 5.82,0 10.67,1.18 14.55,3.54 3.87,2.35 6.56,5.45 8.07,9.29 1.57,3.93 1.69,8.16 0.35,12.7 l -12.72,4.19 c 1.22,-3.31 1.63,-6.24 1.23,-8.77 -0.46,-2.44 -1.37,-4.49 -2.74,-6.15 -1.25,-1.66 -2.66,-2.84 -4.24,-3.54 l -0.67,0.26 c 0.03,0.35 -0.05,0.79 -0.24,1.31 -0.12,0.61 -0.38,1.27 -0.78,1.97 -1.56,2.7 -3.94,4.8 -7.12,6.28 -3.07,1.49 -6.23,2.23 -9.49,2.23 -4.54,0 -7.69,-1.09 -9.46,-3.28 -1.7,-2.09 -1.57,-4.84 0.4,-8.24 z m -16.63,28.8 c 2.07,-3.58 5.18,-6.46 9.35,-8.64 4.24,-2.1 8.74,-3.14 13.51,-3.14 5.82,0 10.67,1.17 14.55,3.53 3.87,2.36 6.57,5.46 8.07,9.3 1.57,3.92 1.69,8.16 0.35,12.7 l -12.72,4.19 c 1.22,-3.32 1.63,-6.24 1.23,-8.78 -0.45,-2.44 -1.37,-4.49 -2.74,-6.15 -1.25,-1.66 -2.66,-2.84 -4.24,-3.53 l -0.67,0.26 c 0.03,0.35 -0.05,0.78 -0.24,1.31 -0.12,0.61 -0.38,1.26 -0.78,1.96 -1.56,2.71 -3.94,4.8 -7.12,6.28 -3.07,1.49 -6.23,2.23 -9.49,2.23 -4.54,0 -7.69,-1.09 -9.46,-3.27 -1.7,-2.1 -1.57,-4.85 0.4,-8.25 z"
           style="font-style:italic;font-weight:600;-inkscape-font-specification:'Work Sans Semi-Bold Italic'"
           id="path4867" />
        <path
           d="m 2279.15,-2848.14 c 4.13,-7.16 9.78,-13.62 16.95,-19.38 7.28,-5.76 15.57,-10.34 24.87,-13.75 9.36,-3.31 19.28,-4.97 29.75,-4.97 9.43,0 17.7,1 24.8,3.01 7.1,2.01 12.72,4.97 16.86,8.9 4.13,3.93 6.36,8.73 6.69,14.4 0.4,5.76 -1.52,12.31 -5.75,19.64 -3.58,6.2 -8.06,11.65 -13.46,16.37 -5.45,4.8 -11.76,8.77 -18.93,11.91 -7.05,3.14 -14.82,5.33 -23.33,6.55 l 4.35,-17.81 c 8.07,-0.87 14.68,-2.75 19.83,-5.63 5.16,-2.88 9.22,-6.89 12.19,-12.04 2.62,-4.54 3.4,-8.51 2.34,-11.92 -0.99,-3.31 -3.22,-6.11 -6.68,-8.38 -3.51,-2.18 -7.85,-3.84 -13.01,-4.97 -5.05,-1.14 -10.37,-1.7 -15.95,-1.7 -6.41,0 -12.38,0.87 -17.93,2.62 -5.43,1.74 -10.27,4.19 -14.53,7.33 -4.26,3.14 -7.57,6.76 -9.94,10.86 -2.87,4.98 -3.54,8.86 -2.01,11.66 1.48,2.88 4.22,5.28 8.23,7.2 l -18.42,16.49 c -6.45,-3.75 -10.48,-8.55 -12.11,-14.4 -1.68,-5.76 0.05,-13.09 5.19,-21.99 z"
           style="font-style:italic;font-weight:600;-inkscape-font-specification:'Work Sans Semi-Bold Italic'"
           id="path4869" />
        <path
           d="m 2233.97,-2769.59 c 3.73,-6.46 8.64,-12.04 14.74,-16.76 6.16,-4.62 12.94,-8.2 20.34,-10.73 7.51,-2.53 14.99,-3.8 22.44,-3.8 9.66,0 17.5,1.44 23.52,4.32 5.96,2.97 9.62,7.11 10.97,12.44 1.41,5.41 -0.02,11.83 -4.3,19.24 -3.83,6.64 -8.83,12.27 -14.99,16.89 -6.05,4.63 -12.74,8.16 -20.09,10.61 -7.4,2.53 -14.82,3.8 -22.27,3.8 -9.54,0 -17.38,-1.44 -23.51,-4.33 -6.02,-2.88 -9.74,-7.02 -11.15,-12.43 -1.47,-5.33 -0.03,-11.74 4.3,-19.25 z m 17.41,0.39 c -1.47,2.53 -1.89,4.89 -1.29,7.07 0.6,2.19 2.05,4.11 4.35,5.76 2.42,1.66 5.47,2.93 9.16,3.8 3.68,0.87 7.74,1.31 12.16,1.31 4.07,0 7.92,-0.52 11.56,-1.57 3.63,-1.05 6.92,-2.62 9.87,-4.71 2.91,-2.01 5.27,-4.59 7.08,-7.73 1.46,-2.53 1.92,-4.93 1.37,-7.2 -0.61,-2.18 -2.06,-4.1 -4.36,-5.76 -2.35,-1.57 -5.37,-2.79 -9.05,-3.67 -3.69,-0.87 -7.8,-1.31 -12.34,-1.31 -3.84,0 -7.64,0.53 -11.38,1.58 -3.75,1.04 -7.1,2.61 -10.06,4.71 -2.95,2.09 -5.31,4.67 -7.07,7.72 z"
           style="font-style:italic;font-weight:600;-inkscape-font-specification:'Work Sans Semi-Bold Italic'"
           id="path4871" />
        <path
           d="m 2210.67,-2726.51 78.52,15.18 -9.15,15.84 -23.05,-3.01 2.68,-1.31 c 6.97,1.84 11.22,5.07 12.74,9.69 1.51,4.63 0.59,9.87 -2.79,15.71 -2.77,4.8 -6.51,8.86 -11.22,12.18 -4.71,3.32 -10.06,5.63 -16.05,6.94 -5.88,1.31 -12.13,1.35 -18.76,0.13 l -48.67,-9.43 10.36,-17.93 46.63,9.03 c 5.15,0.96 9.88,0.52 14.19,-1.31 4.27,-1.75 7.51,-4.54 9.73,-8.38 1.71,-2.97 2.29,-5.59 1.74,-7.85 -0.43,-2.27 -1.94,-4.19 -4.53,-5.77 -2.46,-1.57 -6.04,-2.83 -10.72,-3.79 l -42,-7.99 z"
           style="font-style:italic;font-weight:600;-inkscape-font-specification:'Work Sans Semi-Bold Italic'"
           id="path4873" />
        <path
           d="m 2143.12,-2612.23 c 3.73,-6.46 8.64,-12.05 14.74,-16.76 6.16,-4.63 12.94,-8.2 20.34,-10.74 7.51,-2.53 14.99,-3.79 22.44,-3.79 9.66,0 17.5,1.44 23.52,4.32 5.96,2.97 9.62,7.11 10.97,12.44 1.41,5.41 -0.02,11.82 -4.3,19.24 -3.83,6.64 -8.83,12.27 -14.99,16.89 -6.05,4.63 -12.74,8.16 -20.09,10.61 -7.4,2.53 -14.82,3.79 -22.27,3.79 -9.54,0 -17.38,-1.44 -23.51,-4.32 -6.02,-2.88 -9.74,-7.02 -11.15,-12.44 -1.47,-5.32 -0.03,-11.74 4.3,-19.24 z m 17.41,0.39 c -1.47,2.53 -1.9,4.89 -1.29,7.07 0.6,2.18 2.05,4.1 4.35,5.76 2.42,1.66 5.47,2.93 9.16,3.8 3.68,0.87 7.74,1.31 12.16,1.31 4.07,0 7.92,-0.53 11.55,-1.57 3.64,-1.05 6.93,-2.62 9.88,-4.72 2.91,-2 5.27,-4.58 7.08,-7.72 1.46,-2.53 1.92,-4.93 1.37,-7.2 -0.61,-2.18 -2.06,-4.1 -4.36,-5.76 -2.35,-1.57 -5.37,-2.8 -9.06,-3.67 -3.68,-0.87 -7.79,-1.31 -12.33,-1.31 -3.84,0 -7.64,0.53 -11.38,1.57 -3.75,1.05 -7.1,2.62 -10.06,4.72 -2.95,2.09 -5.31,4.67 -7.07,7.72 z"
           style="font-style:italic;font-weight:600;-inkscape-font-specification:'Work Sans Semi-Bold Italic'"
           id="path4875" />
        <path
           d="m 2097.77,-2533.68 c 3.78,-6.54 8.71,-12.17 14.81,-16.89 6.21,-4.71 13.02,-8.33 20.41,-10.86 7.47,-2.45 14.92,-3.67 22.37,-3.67 9.66,0 17.5,1.44 23.52,4.32 6.02,2.88 9.67,7.03 10.97,12.44 1.37,5.5 -0.14,12.04 -4.53,19.64 -3.22,5.58 -7.33,10.47 -12.3,14.66 -4.92,4.28 -10.35,7.64 -16.3,10.08 -5.95,2.45 -12.02,3.89 -18.21,4.32 l 5.94,-17.54 c 4.78,0 9.23,-0.96 13.36,-2.88 4.2,-1.83 7.51,-4.84 9.93,-9.03 1.62,-2.8 2.15,-5.33 1.59,-7.6 -0.6,-2.18 -2.05,-4.1 -4.35,-5.76 -2.3,-1.66 -5.3,-2.92 -8.98,-3.8 -3.74,-0.78 -7.82,-1.17 -12.24,-1.17 -4.07,0 -7.98,0.52 -11.73,1.57 -3.68,1.13 -7,2.75 -9.95,4.84 -2.84,2.1 -5.14,4.67 -6.91,7.73 -1.61,2.79 -1.99,5.36 -1.14,7.72 0.85,2.36 2.95,4.06 6.3,5.11 l -16.78,16.36 c -5.8,-2.44 -9.23,-6.28 -10.28,-11.52 -0.98,-5.15 0.52,-11.17 4.5,-18.07 z"
           style="font-style:italic;font-weight:600;-inkscape-font-specification:'Work Sans Semi-Bold Italic'"
           id="path4877" />
        <path
           d="m 2161.93,-2469.13 c 1.81,-3.14 4.24,-5.63 7.27,-7.46 3.04,-1.84 6.4,-2.62 10.09,-2.36 4.62,0.26 7.46,1.4 8.51,3.4 1.12,2.1 0.7,4.85 -1.27,8.25 -1.86,3.23 -4.32,5.76 -7.35,7.6 -3.04,1.83 -6.34,2.61 -9.92,2.35 -4.85,-0.26 -7.78,-1.44 -8.78,-3.53 -1,-2.1 -0.52,-4.85 1.45,-8.25 z m -15.82,5.63 -78.52,-15.19 10.36,-17.94 78.51,15.19 z"
           style="font-style:italic;font-weight:600;-inkscape-font-specification:'Work Sans Semi-Bold Italic'"
           id="path4879" />
        <path
           d="m 2057.01,-2460.36 78.51,15.19 -9.14,15.84 -23.05,-3.01 2.67,-1.31 c 6.98,1.83 11.25,5.02 12.82,9.56 1.52,4.62 0.59,9.86 -2.79,15.71 -2.67,4.62 -6.31,8.51 -10.92,11.65 -4.65,3.23 -9.98,5.5 -15.97,6.81 -6,1.31 -12.28,1.31 -18.86,0 l -48.5,-9.43 10.36,-17.94 46.46,9.04 c 5.21,1.05 9.93,0.74 14.14,-0.92 4.22,-1.66 7.38,-4.32 9.5,-7.98 1.71,-2.97 2.3,-5.59 1.74,-7.86 -0.43,-2.27 -1.94,-4.19 -4.53,-5.76 -2.51,-1.48 -6.12,-2.71 -10.8,-3.67 l -42,-7.98 z m -49.81,86.28 46.53,8.9 c 5.21,1.05 9.93,0.74 14.14,-0.91 4.22,-1.66 7.36,-4.28 9.43,-7.86 1.71,-2.97 2.29,-5.59 1.74,-7.85 -0.44,-2.27 -1.95,-4.19 -4.53,-5.77 -2.47,-1.57 -6.07,-2.79 -10.8,-3.66 l 15.94,-1.31 c 7.65,2.27 12.36,5.8 14.13,10.6 1.83,4.89 1.01,10.35 -2.47,16.37 -2.72,4.71 -6.41,8.68 -11.07,11.91 -4.65,3.23 -9.98,5.5 -15.97,6.81 -5.99,1.31 -12.3,1.36 -18.93,0.13 l -48.5,-9.42 z"
           style="font-style:italic;font-weight:600;-inkscape-font-specification:'Work Sans Semi-Bold Italic'"
           id="path4881" />
        <path
           d="m 2070.46,-2310.71 c 1.82,-3.15 4.24,-5.63 7.28,-7.47 3.04,-1.83 6.4,-2.61 10.09,-2.35 4.62,0.26 7.46,1.39 8.51,3.4 1.12,2.1 0.69,4.85 -1.27,8.25 -1.87,3.23 -4.32,5.76 -7.35,7.59 -3.04,1.84 -6.35,2.62 -9.92,2.36 -4.85,-0.26 -7.78,-1.44 -8.78,-3.53 -1,-2.1 -0.52,-4.85 1.44,-8.25 z m -15.82,5.63 -78.51,-15.19 10.35,-17.94 78.52,15.19 z"
           style="font-style:italic;font-weight:600;-inkscape-font-specification:'Work Sans Semi-Bold Italic'"
           id="path4883" />
        <path
           d="m 1943.72,-2266.85 c 3.63,-6.29 8.49,-11.79 14.58,-16.5 6.05,-4.63 12.8,-8.25 20.24,-10.87 7.4,-2.53 14.94,-3.79 22.62,-3.79 9.54,0 17.32,1.44 23.34,4.32 6.02,2.88 9.74,7.02 11.15,12.43 1.41,5.42 -0.07,11.92 -4.45,19.51 -3.48,6.03 -8,11.13 -13.56,15.32 -5.61,4.28 -11.96,7.51 -19.04,9.69 -7.13,2.27 -14.71,3.4 -22.74,3.4 -2.32,0 -4.66,-0.08 -7,-0.26 -2.23,-0.17 -4.36,-0.52 -6.38,-1.05 l 30.24,-52.37 h 16.58 l -23.89,41.38 -1.63,-5.63 c 1.31,0.35 2.52,0.56 3.63,0.65 1.23,0.09 2.43,0.13 3.59,0.13 3.49,0 6.68,-0.48 9.56,-1.44 3,-0.96 5.64,-2.31 7.93,-4.06 2.29,-1.74 4.14,-3.84 5.55,-6.28 2.07,-3.58 2.76,-6.59 2.07,-9.03 -0.73,-2.36 -2.41,-4.28 -5.05,-5.77 -2.57,-1.39 -5.71,-2.4 -9.43,-3.01 -3.72,-0.61 -7.56,-0.91 -11.52,-0.91 -4.3,0 -8.38,0.61 -12.23,1.83 -3.78,1.31 -7.2,3.1 -10.26,5.37 -2.94,2.27 -5.29,4.93 -7.05,7.98 -2.07,3.58 -2.71,6.51 -1.92,8.78 0.9,2.27 2.6,4.05 5.1,5.36 l -17.19,14.67 c -3.23,-1.66 -5.51,-3.97 -6.82,-6.94 -1.25,-2.88 -1.55,-6.29 -0.91,-10.21 0.59,-3.84 2.22,-8.08 4.89,-12.7 z"
           style="font-style:italic;font-weight:600;-inkscape-font-specification:'Work Sans Semi-Bold Italic'"
           id="path4885" />
        <path
           d="m 1921.86,-2226.27 78.51,15.19 -9.14,15.84 -23.06,-3.01 2.68,-1.31 c 6.97,1.83 11.22,5.06 12.74,9.69 1.52,4.63 0.59,9.86 -2.79,15.71 -2.77,4.8 -6.51,8.86 -11.22,12.18 -4.71,3.31 -10.06,5.63 -16.05,6.94 -5.88,1.31 -12.13,1.35 -18.75,0.13 l -48.68,-9.43 10.36,-17.94 46.63,9.04 c 5.15,0.96 9.88,0.52 14.2,-1.31 4.26,-1.75 7.5,-4.54 9.72,-8.38 1.72,-2.97 2.3,-5.59 1.74,-7.86 -0.43,-2.27 -1.94,-4.19 -4.53,-5.76 -2.46,-1.57 -6.04,-2.83 -10.72,-3.79 l -42,-7.99 z"
           style="font-style:italic;font-weight:600;-inkscape-font-specification:'Work Sans Semi-Bold Italic'"
           id="path4887" />
        <path
           d="m 1856.89,-2116.47 c 2.82,-4.88 6.46,-9.07 10.92,-12.56 4.46,-3.5 9.42,-5.94 14.88,-7.34 5.47,-1.39 11.3,-1.52 17.51,-0.39 l 68.56,13.09 -4.13,19.25 -74.53,-14.53 c -4.39,-0.88 -8.27,-0.4 -11.66,1.44 -3.27,1.83 -5.81,4.32 -7.62,7.46 -1.21,2.09 -1.93,3.84 -2.15,5.24 -0.23,1.39 -0.2,2.66 0.07,3.79 l -16.15,-0.13 c -0.32,-2.27 -0.08,-4.71 0.74,-7.33 0.76,-2.53 1.95,-5.19 3.56,-7.99 z m 86.09,-26.05 15.99,3.14 -28.42,49.23 -15.99,-3.14 z"
           style="font-style:italic;font-weight:600;-inkscape-font-specification:'Work Sans Semi-Bold Italic'"
           id="path4889" />
        <path
           d="m 1821.85,-2055.77 c 3.73,-6.46 8.64,-12.04 14.74,-16.76 6.16,-4.62 12.94,-8.2 20.33,-10.73 7.52,-2.53 15,-3.8 22.45,-3.8 9.66,0 17.49,1.44 23.51,4.32 5.97,2.97 9.63,7.11 10.98,12.44 1.41,5.41 -0.02,11.82 -4.31,19.24 -3.83,6.64 -8.82,12.27 -14.98,16.89 -6.05,4.63 -12.75,8.16 -20.09,10.61 -7.4,2.53 -14.82,3.79 -22.27,3.79 -9.54,0 -17.38,-1.44 -23.52,-4.32 -6.02,-2.88 -9.73,-7.02 -11.15,-12.43 -1.46,-5.33 -0.03,-11.74 4.31,-19.25 z m 17.4,0.39 c -1.46,2.53 -1.89,4.89 -1.29,7.07 0.61,2.19 2.06,4.11 4.36,5.76 2.42,1.66 5.47,2.93 9.15,3.8 3.69,0.87 7.74,1.31 12.17,1.31 4.07,0 7.92,-0.52 11.55,-1.57 3.63,-1.05 6.93,-2.62 9.88,-4.71 2.9,-2.01 5.26,-4.59 7.08,-7.73 1.46,-2.53 1.91,-4.93 1.36,-7.2 -0.6,-2.18 -2.05,-4.1 -4.35,-5.76 -2.35,-1.57 -5.37,-2.79 -9.06,-3.67 -3.68,-0.87 -7.8,-1.31 -12.34,-1.31 -3.84,0 -7.63,0.53 -11.38,1.58 -3.74,1.04 -7.09,2.61 -10.05,4.71 -2.95,2.09 -5.31,4.67 -7.08,7.72 z"
           style="font-style:italic;font-weight:600;-inkscape-font-specification:'Work Sans Semi-Bold Italic'"
           id="path4891" />
        <path
           d="m 1716.69,-1934.4 55.77,10.73 -1.48,1.05 c -6.95,-1.66 -11.61,-4.58 -13.96,-8.77 -2.29,-4.1 -1.89,-8.82 1.18,-14.14 2.62,-4.54 6.45,-8.64 11.47,-12.31 4.98,-3.58 10.75,-6.41 17.31,-8.51 6.63,-2.01 13.72,-3.01 21.29,-3.01 7.21,0 13.63,0.79 19.24,2.36 5.61,1.57 10.08,3.79 13.42,6.67 3.46,2.88 5.49,6.33 6.08,10.35 0.59,4.01 -0.53,8.46 -3.35,13.35 -2.16,3.75 -5.18,7.16 -9.04,10.21 -3.74,3.06 -8.12,5.5 -13.13,7.34 -5.07,1.92 -10.53,2.92 -16.4,3.01 l -2.11,-2.1 25.41,4.98 -10.36,17.93 -111.47,-21.6 z m 55.58,-4.06 c -1.51,2.62 -1.96,5.02 -1.36,7.2 0.72,2.18 2.25,4.06 4.61,5.63 2.41,1.66 5.41,2.92 8.98,3.8 3.68,0.87 7.74,1.31 12.16,1.31 3.96,0 7.69,-0.53 11.21,-1.58 3.51,-1.04 6.58,-2.53 9.2,-4.45 2.69,-1.83 4.76,-4.01 6.22,-6.54 1.67,-2.88 2.16,-5.46 1.49,-7.73 -0.55,-2.27 -1.97,-4.23 -4.28,-5.89 -2.35,-1.57 -5.31,-2.79 -8.88,-3.67 -3.45,-0.87 -7.27,-1.3 -11.46,-1.3 -4.19,0 -8.1,0.52 -11.73,1.57 -3.63,1.04 -6.82,2.53 -9.55,4.45 -2.79,2.01 -4.99,4.41 -6.61,7.2 z"
           style="font-style:italic;font-weight:600;-inkscape-font-specification:'Work Sans Semi-Bold Italic'"
           id="path4893" />
        <path
           d="m 1713.23,-1867.63 c 2.72,-4.71 6.4,-8.77 11.04,-12.18 4.71,-3.31 10.05,-5.71 16.03,-7.2 5.93,-1.39 12.14,-1.48 18.65,-0.26 l 49.03,9.43 -10.36,17.93 -46.53,-8.9 c -5.33,-1.05 -10.1,-0.65 -14.3,1.18 -4.25,1.92 -7.46,4.76 -9.62,8.51 -1.77,3.05 -2.41,5.67 -1.92,7.85 0.6,2.19 2.16,4.02 4.68,5.5 2.58,1.57 6.19,2.8 10.8,3.67 l 41.93,8.12 -10.36,17.93 -78.52,-15.18 9.15,-15.85 23.05,3.01 -2.6,1.18 c -6.97,-1.83 -11.27,-4.97 -12.89,-9.42 -1.5,-4.45 -0.59,-9.56 2.74,-15.32 z"
           style="font-style:italic;font-weight:600;-inkscape-font-specification:'Work Sans Semi-Bold Italic'"
           id="path4895" />
        <path
           d="m 1661.37,-1777.82 c 3.63,-6.28 8.49,-11.78 14.59,-16.49 6.04,-4.63 12.79,-8.25 20.24,-10.87 7.39,-2.53 14.93,-3.8 22.61,-3.8 9.55,0 17.33,1.44 23.35,4.32 6.01,2.88 9.73,7.03 11.15,12.44 1.41,5.41 -0.08,11.91 -4.46,19.51 -3.48,6.02 -8,11.13 -13.56,15.32 -5.61,4.27 -11.95,7.5 -19.03,9.69 -7.13,2.26 -14.71,3.4 -22.74,3.4 -2.33,0 -4.66,-0.09 -7.01,-0.26 -2.22,-0.18 -4.35,-0.53 -6.38,-1.05 l 30.24,-52.37 h 16.58 l -23.88,41.37 -1.64,-5.63 c 1.31,0.35 2.52,0.57 3.64,0.66 1.23,0.08 2.42,0.13 3.59,0.13 3.49,0 6.68,-0.48 9.56,-1.44 3,-0.96 5.64,-2.32 7.93,-4.06 2.29,-1.75 4.14,-3.84 5.55,-6.29 2.06,-3.57 2.75,-6.58 2.07,-9.03 -0.73,-2.36 -2.42,-4.28 -5.05,-5.76 -2.57,-1.4 -5.72,-2.4 -9.44,-3.01 -3.72,-0.61 -7.56,-0.92 -11.51,-0.92 -4.31,0 -8.39,0.61 -12.23,1.84 -3.79,1.3 -7.21,3.09 -10.26,5.36 -2.94,2.27 -5.29,4.94 -7.06,7.99 -2.06,3.58 -2.7,6.5 -1.92,8.77 0.9,2.27 2.6,4.06 5.11,5.37 l -17.2,14.66 c -3.23,-1.66 -5.5,-3.97 -6.81,-6.94 -1.25,-2.88 -1.55,-6.28 -0.92,-10.21 0.59,-3.84 2.22,-8.07 4.89,-12.7 z"
           style="font-style:italic;font-weight:600;-inkscape-font-specification:'Work Sans Semi-Bold Italic'"
           id="path4897" />
        <path
           d="m 1599.16,-1670.07 c 2.67,-4.62 6.5,-8.73 11.47,-12.3 5.09,-3.58 10.92,-6.42 17.48,-8.51 6.52,-2.01 13.55,-3.02 21.12,-3.02 7.1,0 13.45,0.79 19.06,2.36 5.61,1.57 10.11,3.75 13.51,6.55 3.45,2.88 5.48,6.33 6.07,10.34 0.66,4.1 -0.42,8.6 -3.25,13.49 -1.86,3.23 -4.36,6.24 -7.48,9.03 -3.13,2.79 -6.76,5.15 -10.89,7.07 -4.14,1.92 -8.76,3.27 -13.87,4.06 l 16.97,3.27 -10.36,17.94 -78.51,-15.19 9.37,-16.23 15.12,2.22 c -4.26,-2.09 -6.93,-5.02 -8.03,-8.77 -1.09,-3.75 -0.35,-7.86 2.22,-12.31 z m 14,7.2 c -1.41,2.45 -1.82,4.76 -1.21,6.94 0.72,2.19 2.25,4.06 4.6,5.63 2.42,1.66 5.41,2.93 8.98,3.8 3.64,0.96 7.67,1.44 12.09,1.44 3.96,0 7.69,-0.52 11.21,-1.57 3.51,-1.05 6.58,-2.53 9.2,-4.45 2.69,-1.84 4.76,-4.02 6.22,-6.55 1.67,-2.88 2.16,-5.45 1.49,-7.72 -0.55,-2.27 -1.97,-4.24 -4.27,-5.9 -2.36,-1.57 -5.32,-2.79 -8.89,-3.66 -3.45,-0.87 -7.27,-1.31 -11.46,-1.31 -4.19,0 -8.07,0.48 -11.65,1.44 -3.64,1.05 -6.82,2.53 -9.56,4.45 -2.79,2.01 -5.04,4.5 -6.75,7.46 z"
           style="font-style:italic;font-weight:600;-inkscape-font-specification:'Work Sans Semi-Bold Italic'"
           id="path4899" />
        <path
           d="m 1517.39,-1590.73 c 2.22,-3.84 5.04,-7.5 8.45,-10.99 3.29,-3.5 7,-6.59 11.13,-9.3 4.12,-2.71 8.58,-4.89 13.38,-6.55 4.63,-1.57 9.52,-2.48 14.68,-2.75 l -6.52,17.94 c -5.84,0.44 -10.88,1.62 -15.13,3.54 -4.3,2 -7.81,5.36 -10.54,10.08 -1.46,2.53 -2.12,4.88 -1.98,7.07 0.08,2.27 1.28,4.23 3.58,5.89 2.25,1.74 6.01,3.1 11.27,4.06 l 22.55,4.19 -0.14,1.44 c -7.1,-1.4 -11.77,-4.11 -13.99,-8.12 -2.1,-4.02 -1.52,-8.86 1.76,-14.53 2.67,-4.63 6.54,-8.82 11.62,-12.57 5.14,-3.67 10.99,-6.55 17.56,-8.64 6.67,-2.1 13.51,-3.14 20.49,-3.14 7.1,0 13.28,0.78 18.54,2.35 5.26,1.57 9.39,3.8 12.38,6.68 3.11,2.88 4.87,6.28 5.28,10.21 0.35,4.02 -0.85,8.42 -3.62,13.22 -2.17,3.76 -5.18,7.16 -9.04,10.22 -3.91,3.14 -8.51,5.67 -13.81,7.59 -5.19,1.92 -10.8,2.88 -16.85,2.88 l -1.96,-2.36 26.38,5.11 -10.36,17.94 -75.95,-14.8 c -8.88,-1.74 -15.25,-4.32 -19.1,-7.72 -4.02,-3.32 -5.9,-7.42 -5.64,-12.31 0.09,-4.8 1.96,-10.34 5.58,-16.63 z m 52.32,9.17 c -1.91,3.31 -2.15,6.24 -0.7,8.77 1.45,2.53 4.13,4.54 8.04,6.02 3.92,1.49 8.67,2.23 14.26,2.23 3.95,0 7.63,-0.53 11.03,-1.57 3.51,-1.05 6.58,-2.53 9.2,-4.45 2.74,-1.92 4.86,-4.19 6.38,-6.81 2.11,-3.67 2.5,-6.85 1.15,-9.56 -1.28,-2.62 -3.82,-4.67 -7.62,-6.15 -3.8,-1.49 -8.43,-2.23 -13.9,-2.23 -5.82,0 -11.27,1.18 -16.36,3.54 -5.08,2.35 -8.91,5.76 -11.48,10.21 z"
           style="font-style:italic;font-weight:600;-inkscape-font-specification:'Work Sans Semi-Bold Italic'"
           id="path4901" />
        <path
           d="m 1523.48,-1536.26 78.52,15.19 -9,15.58 -25.59,-3.15 2.95,-1.18 c 4.66,1.4 8.29,3.28 10.89,5.63 2.71,2.36 4.24,5.15 4.59,8.38 0.34,3.23 -0.57,6.72 -2.73,10.48 -0.86,1.48 -1.68,2.7 -2.47,3.66 -0.84,1.05 -1.77,1.97 -2.81,2.75 l -18.13,-4.58 c 1.09,-0.87 2.13,-1.88 3.14,-3.01 1,-1.14 1.98,-2.53 2.94,-4.19 1.71,-2.97 2.42,-5.8 2.12,-8.51 -0.18,-2.71 -1.56,-5.06 -4.12,-7.07 -2.57,-2.01 -6.57,-3.54 -12.02,-4.58 l -38.63,-7.47 z"
           style="font-style:italic;font-weight:600;-inkscape-font-specification:'Work Sans Semi-Bold Italic'"
           id="path4903" />
        <path
           d="m 1471.41,-1448.79 c 3.63,-6.29 8.49,-11.79 14.59,-16.5 6.04,-4.63 12.79,-8.25 20.24,-10.87 7.39,-2.53 14.93,-3.79 22.61,-3.79 9.55,0 17.33,1.44 23.34,4.32 6.02,2.88 9.74,7.02 11.15,12.43 1.42,5.42 -0.07,11.92 -4.45,19.51 -3.48,6.02 -8,11.13 -13.56,15.32 -5.61,4.28 -11.95,7.51 -19.03,9.69 -7.13,2.27 -14.71,3.4 -22.74,3.4 -2.33,0 -4.67,-0.08 -7.01,-0.26 -2.23,-0.17 -4.35,-0.52 -6.38,-1.05 l 30.24,-52.37 h 16.58 l -23.88,41.38 -1.64,-5.63 c 1.31,0.34 2.52,0.56 3.64,0.65 1.23,0.09 2.42,0.13 3.59,0.13 3.49,0 6.67,-0.48 9.56,-1.44 2.99,-0.96 5.64,-2.31 7.93,-4.06 2.28,-1.74 4.13,-3.84 5.54,-6.28 2.07,-3.58 2.76,-6.59 2.08,-9.04 -0.74,-2.35 -2.42,-4.27 -5.06,-5.76 -2.56,-1.39 -5.71,-2.4 -9.43,-3.01 -3.72,-0.61 -7.56,-0.91 -11.52,-0.91 -4.3,0 -8.38,0.61 -12.23,1.83 -3.78,1.31 -7.2,3.1 -10.25,5.37 -2.94,2.27 -5.29,4.93 -7.06,7.98 -2.06,3.58 -2.7,6.51 -1.92,8.78 0.9,2.26 2.6,4.05 5.11,5.36 l -17.2,14.67 c -3.23,-1.66 -5.5,-3.97 -6.82,-6.94 -1.24,-2.88 -1.55,-6.29 -0.91,-10.21 0.59,-3.85 2.22,-8.08 4.89,-12.7 z"
           style="font-style:italic;font-weight:600;-inkscape-font-specification:'Work Sans Semi-Bold Italic'"
           id="path4905" />
        <path
           d="m 1396.97,-1382.15 c 2.22,-3.84 5.04,-7.51 8.45,-11 3.29,-3.49 7,-6.59 11.13,-9.3 4.12,-2.7 8.58,-4.89 13.38,-6.54 4.63,-1.57 9.52,-2.49 14.68,-2.75 l -6.52,17.93 c -5.84,0.44 -10.88,1.62 -15.13,3.54 -4.3,2.01 -7.81,5.37 -10.54,10.08 -1.46,2.53 -2.12,4.89 -1.98,7.07 0.08,2.27 1.28,4.23 3.58,5.89 2.25,1.75 6.01,3.1 11.27,4.06 l 22.55,4.19 -0.14,1.44 c -7.1,-1.4 -11.77,-4.1 -13.99,-8.12 -2.1,-4.01 -1.52,-8.86 1.76,-14.53 2.67,-4.63 6.54,-8.82 11.62,-12.57 5.14,-3.66 10.99,-6.54 17.56,-8.64 6.68,-2.09 13.51,-3.14 20.49,-3.14 7.1,0 13.28,0.78 18.54,2.35 5.26,1.58 9.39,3.8 12.38,6.68 3.11,2.88 4.87,6.29 5.28,10.21 0.35,4.02 -0.85,8.43 -3.62,13.23 -2.17,3.75 -5.18,7.15 -9.04,10.21 -3.91,3.14 -8.51,5.67 -13.81,7.59 -5.18,1.92 -10.8,2.88 -16.85,2.88 l -1.96,-2.35 26.38,5.1 -10.36,17.94 -75.95,-14.8 c -8.88,-1.74 -15.25,-4.32 -19.1,-7.72 -4.02,-3.32 -5.9,-7.42 -5.64,-12.31 0.09,-4.8 1.96,-10.34 5.58,-16.62 z m 52.32,9.16 c -1.91,3.32 -2.15,6.24 -0.7,8.77 1.45,2.53 4.13,4.54 8.04,6.03 3.92,1.48 8.67,2.22 14.26,2.22 3.95,0 7.63,-0.52 11.03,-1.57 3.51,-1.05 6.58,-2.53 9.2,-4.45 2.74,-1.92 4.87,-4.19 6.38,-6.81 2.11,-3.67 2.5,-6.85 1.15,-9.56 -1.28,-2.62 -3.82,-4.67 -7.62,-6.15 -3.8,-1.48 -8.43,-2.23 -13.9,-2.23 -5.82,0 -11.27,1.18 -16.36,3.54 -5.08,2.36 -8.91,5.76 -11.48,10.21 z"
           style="font-style:italic;font-weight:600;-inkscape-font-specification:'Work Sans Semi-Bold Italic'"
           id="path4907" />
        <path
           d="m 1385.62,-1300.2 c 2.67,-4.62 6.49,-8.72 11.47,-12.3 5.09,-3.58 10.92,-6.42 17.48,-8.51 6.51,-2.01 13.55,-3.01 21.11,-3.01 7.1,0 13.46,0.78 19.07,2.35 5.61,1.57 10.11,3.76 13.5,6.55 3.46,2.88 5.48,6.33 6.07,10.34 0.66,4.1 -0.42,8.6 -3.24,13.49 -1.87,3.23 -4.36,6.24 -7.49,9.03 -3.12,2.79 -6.75,5.15 -10.89,7.07 -4.13,1.92 -8.75,3.27 -13.86,4.06 l 16.96,3.27 -10.35,17.94 -78.52,-15.19 9.37,-16.23 15.13,2.22 c -4.26,-2.09 -6.94,-5.02 -8.03,-8.77 -1.09,-3.75 -0.35,-7.85 2.22,-12.31 z m 13.99,7.21 c -1.41,2.44 -1.81,4.75 -1.21,6.93 0.72,2.19 2.25,4.06 4.61,5.63 2.41,1.66 5.41,2.93 8.98,3.8 3.63,0.96 7.66,1.44 12.08,1.44 3.96,0 7.7,-0.52 11.21,-1.57 3.51,-1.05 6.58,-2.53 9.2,-4.45 2.69,-1.83 4.77,-4.02 6.23,-6.55 1.66,-2.88 2.16,-5.45 1.49,-7.72 -0.55,-2.27 -1.98,-4.24 -4.28,-5.89 -2.35,-1.57 -5.31,-2.8 -8.88,-3.67 -3.45,-0.87 -7.28,-1.31 -11.47,-1.31 -4.19,0 -8.07,0.48 -11.65,1.44 -3.63,1.05 -6.82,2.53 -9.55,4.45 -2.79,2.01 -5.04,4.5 -6.76,7.47 z"
           style="font-style:italic;font-weight:600;-inkscape-font-specification:'Work Sans Semi-Bold Italic'"
           id="path4909" />
        <path
           d="m 1390.65,-1155.01 -11.56,20.03 -64.69,-39.15 12.02,-20.82 92.65,-9.29 -10.2,17.67 -82.2,5.11 3.06,-3.8 z"
           style="font-style:italic;font-weight:600;-inkscape-font-specification:'Work Sans Semi-Bold Italic'"
           id="path4911" />
        <path
           d="m 1276.7,-1111.54 c 2.67,-4.63 6.49,-8.73 11.47,-12.31 5.09,-3.57 10.91,-6.41 17.48,-8.51 6.51,-2 13.55,-3.01 21.11,-3.01 7.1,0 13.46,0.79 19.07,2.36 5.61,1.57 10.11,3.75 13.5,6.55 3.46,2.88 5.48,6.32 6.07,10.34 0.66,4.1 -0.42,8.6 -3.24,13.48 -1.87,3.23 -4.36,6.24 -7.49,9.04 -3.12,2.79 -6.75,5.15 -10.89,7.07 -4.13,1.92 -8.75,3.27 -13.86,4.06 l 16.96,3.27 -10.35,17.94 -78.52,-15.19 9.37,-16.24 15.13,2.23 c -4.26,-2.1 -6.94,-5.02 -8.03,-8.77 -1.09,-3.76 -0.35,-7.86 2.22,-12.31 z m 13.99,7.2 c -1.41,2.45 -1.81,4.76 -1.21,6.94 0.72,2.18 2.25,4.06 4.61,5.63 2.41,1.66 5.41,2.92 8.98,3.8 3.63,0.96 7.66,1.44 12.08,1.44 3.96,0 7.7,-0.53 11.21,-1.57 3.51,-1.05 6.58,-2.53 9.2,-4.45 2.69,-1.84 4.76,-4.02 6.23,-6.55 1.66,-2.88 2.16,-5.46 1.49,-7.73 -0.55,-2.27 -1.98,-4.23 -4.28,-5.89 -2.35,-1.57 -5.31,-2.79 -8.88,-3.66 -3.46,-0.88 -7.28,-1.31 -11.47,-1.31 -4.19,0 -8.07,0.48 -11.65,1.44 -3.63,1.05 -6.82,2.53 -9.55,4.45 -2.79,2.01 -5.04,4.49 -6.76,7.46 z"
           style="font-style:italic;font-weight:600;-inkscape-font-specification:'Work Sans Semi-Bold Italic'"
           id="path4913" />
        <path
           d="m 1233.63,-1036.65 c 4.14,-7.16 9.71,-12.18 16.73,-15.06 7.13,-2.88 14.72,-3.53 22.78,-1.96 l 87.48,16.89 -10.35,17.94 -87.49,-16.89 c -3.74,-0.79 -6.92,-0.61 -9.55,0.52 -2.69,1.22 -4.89,3.32 -6.6,6.28 -0.65,1.14 -1.18,2.14 -1.56,3.02 -0.39,0.87 -0.64,1.61 -0.76,2.22 l -14.27,-3.4 c 0.1,-1.4 0.47,-2.84 1.09,-4.32 0.51,-1.49 1.34,-3.23 2.5,-5.24 z"
           style="font-style:italic;font-weight:600;-inkscape-font-specification:'Work Sans Semi-Bold Italic'"
           id="path4915" />
        <path
           d="m 1201.95,-982.081 c 3.73,-6.459 8.65,-12.045 14.74,-16.759 6.16,-4.63 12.94,-8.2 20.34,-10.74 7.51,-2.53 14.99,-3.79 22.44,-3.79 9.66,0 17.5,1.44 23.52,4.32 5.97,2.97 9.62,7.11 10.97,12.436 1.42,5.412 -0.02,11.827 -4.3,19.246 -3.83,6.633 -8.83,12.263 -14.99,16.889 -6.05,4.626 -12.74,8.161 -20.09,10.605 -7.39,2.531 -14.82,3.797 -22.27,3.797 -9.54,0 -17.38,-1.44 -23.51,-4.321 -6.02,-2.88 -9.74,-7.026 -11.15,-12.437 -1.46,-5.325 -0.03,-11.74 4.3,-19.246 z m 17.41,0.392 c -1.46,2.532 -1.89,4.888 -1.29,7.07 0.6,2.182 2.05,4.103 4.35,5.761 2.42,1.658 5.47,2.924 9.16,3.797 3.69,0.873 7.74,1.309 12.16,1.309 4.07,0 7.93,-0.524 11.56,-1.571 3.63,-1.047 6.92,-2.618 9.88,-4.713 2.9,-2.008 5.26,-4.583 7.07,-7.725 1.47,-2.531 1.92,-4.931 1.37,-7.201 -0.6,-2.182 -2.06,-4.102 -4.36,-5.76 -2.35,-1.571 -5.37,-2.793 -9.05,-3.666 -3.69,-0.873 -7.8,-1.309 -12.34,-1.309 -3.84,0 -7.63,0.523 -11.38,1.571 -3.75,1.047 -7.1,2.618 -10.05,4.713 -2.96,2.095 -5.32,4.67 -7.08,7.724 z"
           style="font-style:italic;font-weight:600;-inkscape-font-specification:'Work Sans Semi-Bold Italic'"
           id="path4917" />
        <path
           d="m 1178.66,-939.007 78.51,15.187 -8.99,15.58 -25.6,-3.142 2.95,-1.179 c 4.67,1.397 8.3,3.273 10.89,5.63 2.72,2.357 4.25,5.15 4.59,8.379 0.35,3.23 -0.56,6.721 -2.73,10.474 -0.85,1.484 -1.68,2.706 -2.46,3.666 -0.84,1.048 -1.78,1.964 -2.81,2.75 l -18.13,-4.583 c 1.08,-0.873 2.13,-1.876 3.13,-3.011 1.01,-1.135 1.99,-2.531 2.95,-4.19 1.71,-2.967 2.42,-5.804 2.12,-8.51 -0.19,-2.706 -1.56,-5.062 -4.13,-7.07 -2.56,-2.007 -6.57,-3.535 -12.01,-4.582 l -38.64,-7.463 z"
           style="font-style:italic;font-weight:600;-inkscape-font-specification:'Work Sans Semi-Bold Italic'"
           id="path4919" />
        <path
           d="m 1251.78,-855.818 c -2.22,3.84 -5.43,6.677 -9.63,8.51 -4.13,1.92 -8.53,2.88 -13.18,2.88 -5.36,0 -10.05,-1.047 -14.08,-3.142 -3.96,-2.007 -6.81,-4.931 -8.55,-8.772 -1.67,-3.753 -1.78,-8.204 -0.32,-13.354 l 12.87,-4.452 c -1.1,3.317 -1.54,6.198 -1.32,8.641 0.28,2.532 1.05,4.626 2.31,6.285 1.32,1.745 2.97,3.011 4.96,3.797 l 0.5,-0.262 c -0.04,-0.524 -0.03,-1.048 0.04,-1.571 0.13,-0.437 0.48,-1.135 1.03,-2.095 1.41,-2.444 3.73,-4.452 6.97,-6.023 3.35,-1.571 6.66,-2.356 9.91,-2.356 4.66,0 7.73,1.134 9.21,3.404 1.48,2.269 1.24,5.106 -0.72,8.51 z m -16.63,28.803 c -2.22,3.841 -5.43,6.677 -9.63,8.51 -4.13,1.921 -8.53,2.881 -13.18,2.881 -5.36,0 -10.05,-1.048 -14.08,-3.143 -3.96,-2.007 -6.81,-4.931 -8.55,-8.771 -1.67,-3.754 -1.78,-8.205 -0.32,-13.355 l 12.87,-4.451 c -1.1,3.317 -1.54,6.197 -1.32,8.641 0.28,2.531 1.05,4.626 2.31,6.284 1.32,1.746 2.97,3.011 4.96,3.797 l 0.5,-0.262 c -0.04,-0.524 -0.03,-1.047 0.04,-1.571 0.13,-0.436 0.48,-1.135 1.03,-2.095 1.41,-2.444 3.74,-4.451 6.97,-6.022 3.35,-1.571 6.66,-2.357 9.91,-2.357 4.66,0 7.73,1.135 9.21,3.404 1.48,2.269 1.24,5.106 -0.72,8.51 z"
           style="font-style:italic;font-weight:600;-inkscape-font-specification:'Work Sans Semi-Bold Italic'"
           id="path4921" />
      </g>
      <g
         aria-label="JFA"
         transform="scale(1,-1)"
         id="text31564"
         style="font-size:1736.92px;line-height:1.25;font-family:'Work Sans';-inkscape-font-specification:'Work Sans';letter-spacing:-175.501px;word-spacing:0px;fill:#ffffff;stroke-width:9.04646">
        <path
           d="m 3044.28,-2613.83 c 28.95,-50.14 65.79,-94.26 110.52,-132.37 46.07,-38.11 96.87,-68.19 152.39,-90.25 54.95,-21.06 112.99,-33.6 174.14,-37.61 61.15,-4.01 121.56,2.51 181.25,19.56 l -34.8,70.69 c -69.04,-17.04 -135.68,-22.06 -199.9,-15.04 -62.88,7.02 -120.3,26.58 -172.26,58.67 -51.19,33.09 -92.71,77.21 -124.56,132.36 -40.52,70.2 -45.34,124.85 -14.43,163.96 32.24,39.11 104.08,68.69 215.51,88.75 l 814.22,156.43 -43.42,75.21 -833.68,-160.94 c -78.81,-14.04 -141.52,-35.1 -188.16,-63.18 -45.87,-27.08 -73.07,-62.17 -81.6,-105.29 -7.2,-43.12 7.73,-96.77 44.78,-160.95 z"
           style="font-style:italic;font-weight:300;-inkscape-font-specification:'Work Sans Light Italic'"
           id="path4860" />
        <path
           d="m 3571.28,-1362.41 327.4,-567.08 -460.19,-88.74 -270.96,469.3 -84.71,-16.54 270.09,-467.81 -562.36,-109.8 43.42,-75.21 1190.84,230.14 -370.82,642.29 z"
           style="font-style:italic;font-weight:300;-inkscape-font-specification:'Work Sans Light Italic'"
           id="path4862" />
        <path
           d="m 2565.47,-1753.24 968.52,615.22 -54.71,94.76 -1413.17,154.935 42.56,-73.705 452.71,-51.14 264.88,-458.78 -310.29,-195.55 z m 327.86,324.91 -233.61,404.63 747.73,-82.73 z"
           style="font-style:italic;font-weight:300;-inkscape-font-specification:'Work Sans Light Italic'"
           id="path4864" />
      </g>
    </g>
    <path
       d="m 50.820018,63.387007 c -0.06985,-0.05115 -0.155575,-0.05997 -0.23883,-0.06209 -0.05539,-0.0011 -0.110772,0 -0.165805,0.0018 -0.03669,0.0014 -0.107244,-0.0088 -0.140053,0.0067 l 0.07691,-0.04621 0.04304,-0.06385 c 0.0018,-0.110419 -0.178858,-0.128763 -0.254353,-0.121708 -0.441323,0.04269 -0.882647,0.08537 -1.323971,0.128058 0.06385,-0.05539 0.08819,-0.161572 0.02434,-0.214841 -0.03457,-0.02857 -0.08255,-0.03316 -0.126999,-0.03669 -0.299861,-0.02258 -0.599721,-0.04551 -0.899581,-0.06809 -0.10407,-0.0078 -0.212019,-0.01517 -0.310091,0.02046 -0.08855,0.03246 -0.160867,0.09666 -0.231069,0.159808 -0.173214,0.155575 -0.341841,0.316441 -0.515407,0.470957 -0.1524,0.136172 -0.348897,0.21978 -0.491066,0.366536 -0.120297,0.124177 -0.0046,0.154163 0.04904,0.319263 0.05151,0.159455 0.06421,0.66569 -0.161924,0.733423 0.667454,-0.200025 1.379357,-0.150636 2.076092,-0.161219 0.696734,-0.01023 1.431921,-0.09701 1.988603,-0.51576 0.07832,-0.05891 0.183091,-0.167922 0.0889,-0.261408 -0.02681,-0.02716 -0.06209,-0.0441 -0.09631,-0.06068 0.08043,-0.01199 0.160161,-0.02681 0.239535,-0.0441 0.09666,-0.02081 0.200025,-0.0508 0.258939,-0.130175 l 0.02469,-0.0822 c -0.0099,-0.04692 -0.06279,-0.06985 -0.109361,-0.08114 -0.06844,-0.01658 -0.138994,-0.02469 -0.209549,-0.02434 0.09243,-0.02963 0.160513,-0.03704 0.254705,-0.04304 0.0441,-0.0032 0.08961,-0.0063 0.12841,-0.02716 0.03845,-0.02081 0.06879,-0.06491 0.05927,-0.10795 l -0.0381,-0.05433"
       style="fill:#fbc6aa;fill-opacity:1;fill-rule:nonzero;stroke:none;stroke-width:0.0352777"
       id="path193" />
    <path
       d="m 41.309153,64.081977 c -0.04445,-0.09384 -0.127353,-0.169686 -0.268816,-0.214135 -0.370416,-0.116417 -0.699204,-0.206375 -1.031873,-0.414161 -0.393346,-0.245885 -0.758823,-0.533045 -1.104897,-0.84102 -0.41416,-0.367946 -0.800804,-0.765173 -1.184625,-1.164163 -0.165099,-0.17145 -0.33796,-0.335844 -0.502354,-0.508352 -0.147814,-0.154869 -0.304799,-0.251883 -0.434268,-0.423332 -0.132997,-0.177094 -0.316794,-0.178153 -0.497063,-0.0568 -0.175683,0.117827 -0.224366,0.43074 -0.258938,0.622298 -0.04692,0.259644 -0.05715,0.523874 -0.07338,0.786693 -0.03775,0.602895 0.08325,1.236835 0.455082,1.712731 0.201789,0.258233 0.466724,0.45861 0.733776,0.648052 0.901698,0.639937 1.864779,1.193444 2.871604,1.65029 0.128411,0.05856 0.262113,0.116064 0.402871,0.119239 0.268464,0.0063 0.507646,-0.191206 0.631471,-0.428977 0.128764,-0.247297 0.1397,-0.529871 0.21343,-0.79022 0.06597,-0.233539 0.1397,-0.504471 0.04798,-0.698146"
       style="fill:#edeceb;fill-opacity:1;fill-rule:nonzero;stroke:none;stroke-width:0.0352777"
       id="path195" />
    <path
       d="m 46.651253,63.880189 c -0.229305,-0.392994 -0.73942,-0.201789 -1.129239,-0.179564 -0.840667,0.04727 -1.681687,0.106186 -2.52306,0.141817 -0.72672,0.03034 -1.344785,0.248707 -2.08597,0.02505 -0.04621,-0.01376 -0.09596,-0.02893 -0.142169,-0.01376 -0.07055,0.02328 -0.100188,0.105834 -0.116769,0.178506 -0.04657,0.207785 -0.05856,0.426154 -0.08996,0.637467 -0.04551,0.307975 -0.148519,0.539749 -0.28328,0.827615 -0.04868,0.104069 -0.09878,0.220486 -0.06526,0.330552 0.02646,0.08678 0.101953,0.152047 0.185208,0.187677 0.323144,0.139347 0.824793,0.07267 1.165222,0.04974 0.942973,-0.06279 1.882771,-0.174272 2.814102,-0.33408 0.390171,-0.06703 0.806448,-0.126647 1.176863,-0.271991 0.305152,-0.119591 0.629354,-0.143227 0.936623,-0.267052 0.162983,-0.06562 0.329846,-0.16263 0.397227,-0.324908 0.03245,-0.07796 0.03881,-0.165099 0.03316,-0.249413 -0.01764,-0.255763 -0.140758,-0.490712 -0.261055,-0.717195 l -0.01164,-0.02046"
       style="fill:#edeceb;fill-opacity:1;fill-rule:nonzero;stroke:none;stroke-width:0.0352777"
       id="path197" />
  </g>
</svg>
