<?xml version="1.0" encoding="UTF-8" standalone="no"?>
<!-- Created with Inkscape (http://www.inkscape.org/) -->

<svg
   width="162.06903mm"
   height="100.44616mm"
   viewBox="0 0 162.06903 100.44616"
   version="1.1"
   id="svg409"
   xmlns="http://www.w3.org/2000/svg"
   xmlns:svg="http://www.w3.org/2000/svg">
  <defs
     id="defs406" />
  <g
     id="layer1"
     transform="translate(34.605445,-157.35663)">
    <path
       id="path18177"
       style="fill:#450a0a;fill-opacity:1;stroke:none;stroke-width:0.702258;stroke-linecap:round;stroke-linejoin:round;stroke-miterlimit:4;stroke-dasharray:none;stroke-opacity:1"
       d="m -34.605445,157.35663 7e-6,72.77221 c 0,2.04992 2.205504,4.54392 4.501721,5.12481 l 77.639298,22.54914 75.480949,-22.09816 c 2.29622,-0.58089 4.44003,-3.18979 4.44003,-5.23971 v -73.10829 z" />
    <path
       id="path18179"
       style="fill:#fef2f2;fill-opacity:1;stroke:none;stroke-width:0.689376;stroke-linecap:round;stroke-linejoin:round;stroke-miterlimit:4;stroke-dasharray:none;stroke-opacity:1"
       d="m -32.605447,157.80279 7e-6,70.99999 c 0,2 2.178381,4.43326 4.446362,5.00001 l 75.588149,21.99999 75.588169,-21.99999 c 2.26797,-0.56675 4.44635,-3.00001 4.44635,-5.00001 v -70.99999 z" />
    <path
       id="rect18181"
       style="fill:#450a0a;stroke-width:0.944659"
       d="M -2.5709231,157.8028 H 97.429077 v 64.25196 H -2.5709231 Z" />
    <g
       aria-label="LEGAL"
       id="text18185"
       style="font-size:7.99997px;line-height:1.25;font-family:'Work Sans';-inkscape-font-specification:'Work Sans';fill:#450a0a;stroke-width:0.2">
      <path
         d="m 36.114328,231.77936 h 2.783989 v 0.888 h -3.887985 v -5.27998 h 1.103996 z"
         style="font-weight:600;-inkscape-font-specification:'Work Sans Semi-Bold'"
         id="path1023" />
      <path
         d="m 39.818312,232.66736 v -5.27998 h 3.959985 v 0.88799 h -2.855989 v 1.312 H 43.1703 v 0.848 h -2.247992 v 1.34399 h 2.967989 v 0.888 z"
         style="font-weight:600;-inkscape-font-specification:'Work Sans Semi-Bold'"
         id="path1025" />
      <path
         d="m 46.975879,232.74736 q -0.727997,0 -1.279995,-0.32 -0.543998,-0.32 -0.847997,-0.928 -0.303998,-0.60799 -0.303998,-1.46399 0,-0.848 0.319998,-1.456 0.319999,-0.61599 0.903997,-0.94399 0.591998,-0.328 1.367995,-0.328 0.855997,0 1.383995,0.32 0.527998,0.312 0.839997,0.97599 l -1.023997,0.44 q -0.127999,-0.424 -0.439998,-0.624 -0.303999,-0.20799 -0.751997,-0.20799 -0.447998,0 -0.775997,0.21599 -0.327999,0.208 -0.503998,0.616 -0.176,0.4 -0.176,0.984 0,0.6 0.168,1.01599 0.167999,0.408 0.495998,0.616 0.335999,0.2 0.823997,0.2 0.263999,0 0.487998,-0.064 0.231999,-0.064 0.399998,-0.192 0.168,-0.128 0.263999,-0.328 0.096,-0.2 0.096,-0.46399 v -0.12 h -1.383995 v -0.808 h 2.335991 v 2.78399 h -0.775997 l -0.08,-1.152 0.191999,0.136 q -0.175999,0.528 -0.623998,0.816 -0.439998,0.28 -1.111996,0.28 z"
         style="font-weight:600;-inkscape-font-specification:'Work Sans Semi-Bold'"
         id="path1027" />
      <path
         d="m 55.175844,232.66736 h -1.143996 l -0.439998,-1.288 h -2.023992 l -0.439999,1.288 h -1.127995 l 1.927992,-5.27998 h 1.319995 z m -3.359987,-2.10399 h 1.527994 l -0.767997,-2.304 z"
         style="font-weight:600;-inkscape-font-specification:'Work Sans Semi-Bold'"
         id="path1029" />
      <path
         d="m 57.063834,231.77936 h 2.78399 v 0.888 h -3.887986 v -5.27998 h 1.103996 z"
         style="font-weight:600;-inkscape-font-specification:'Work Sans Semi-Bold'"
         id="path1031" />
    </g>
    <path
       style="fill:none;stroke:#450a0a;stroke-width:0.685248;stroke-linecap:butt;stroke-linejoin:miter;stroke-miterlimit:4;stroke-dasharray:none;stroke-opacity:1"
       d="M -12.570921,223.89409 H 107.42907"
       id="path18187" />
    <g
       aria-label="“Conocimiento que agrega valor”"
       id="text18191"
       style="font-size:5.33334px;line-height:1.25;font-family:'Work Sans';-inkscape-font-specification:'Work Sans';fill:#450a0a;stroke-width:0.2">
      <path
         d="m 4.4786111,235.81673 q -0.218667,0 -0.3520005,-0.13333 -0.1280002,-0.13867 -0.1280002,-0.35733 0,-0.26667 0.1440002,-0.50667 0.1440002,-0.24 0.3786672,-0.41067 0.2400003,-0.176 0.517334,-0.23466 l 0.1706669,0.31466 q -0.202667,0.032 -0.3573338,0.11734 -0.1493336,0.0853 -0.250667,0.192 -0.1013335,0.10133 -0.1440002,0.192 l 0.010667,0.016 q 0.021333,-0.0107 0.053333,-0.016 0.037333,-0.0107 0.08,-0.0107 0.1653335,0 0.2560003,0.10667 0.090667,0.10133 0.090667,0.25066 0,0.208 -0.1333335,0.34667 -0.1280002,0.13333 -0.3360004,0.13333 z m 1.1733348,0 q -0.218667,0 -0.3520005,-0.13333 -0.1280001,-0.13867 -0.1280001,-0.35733 0,-0.26667 0.1440002,-0.50667 0.1440001,-0.24 0.3786671,-0.41067 0.2400003,-0.176 0.517334,-0.23466 l 0.1706669,0.31466 q -0.2026669,0.032 -0.3573338,0.11734 -0.1493335,0.0853 -0.250667,0.192 -0.1013335,0.10133 -0.1440002,0.192 l 0.010667,0.016 q 0.021333,-0.0107 0.053333,-0.016 0.037333,-0.0107 0.08,-0.0107 0.1653336,0 0.2560003,0.10667 0.090667,0.10133 0.090667,0.25066 0,0.208 -0.1333335,0.34667 -0.1280001,0.13333 -0.3360004,0.13333 z"
         style="font-style:italic;font-weight:600;-inkscape-font-specification:'Work Sans Semi-Bold Italic'"
         id="path966" />
      <path
         d="m 8.0626214,237.93407 q -0.4373339,0 -0.7893343,-0.176 -0.3520005,-0.18133 -0.5600007,-0.51733 -0.202667,-0.34134 -0.202667,-0.82134 0,-0.432 0.1226669,-0.81067 0.1226668,-0.37866 0.3626671,-0.672 0.2400003,-0.29333 0.5866674,-0.45866 0.3520005,-0.17067 0.800001,-0.17067 0.3786672,0 0.6666676,0.12267 0.2933337,0.12266 0.4853339,0.368 0.1920003,0.24 0.266667,0.59733 l -0.7253342,0.18133 q -0.053333,-0.34666 -0.2293337,-0.50666 -0.1760002,-0.16 -0.4906673,-0.16 -0.2773336,0 -0.4853339,0.13866 -0.2026669,0.13334 -0.3413338,0.352 -0.1333335,0.21867 -0.2026669,0.48534 -0.069333,0.26133 -0.069333,0.51733 0,0.29334 0.1066668,0.50134 0.1066668,0.20266 0.298667,0.31466 0.1920003,0.112 0.4426673,0.112 0.3040003,0 0.4746672,-0.144 0.1760003,-0.144 0.2933337,-0.37866 l 0.6720009,0.272 q -0.2293336,0.39466 -0.5866674,0.624 -0.3520005,0.22933 -0.8960012,0.22933 z"
         style="font-style:italic;font-weight:600;-inkscape-font-specification:'Work Sans Semi-Bold Italic'"
         id="path968" />
      <path
         d="m 11.262633,237.92874 q -0.394667,0 -0.682668,-0.15467 -0.282667,-0.16 -0.437333,-0.432 -0.1546673,-0.27733 -0.1546673,-0.61867 0,-0.44266 0.1760003,-0.79467 0.181333,-0.352 0.506667,-0.55466 0.330667,-0.208 0.784001,-0.208 0.405334,0 0.688001,0.16 0.282667,0.15466 0.432001,0.42666 0.154667,0.272 0.154667,0.61334 0,0.43733 -0.176001,0.79467 -0.176,0.352 -0.506667,0.56 -0.325334,0.208 -0.784001,0.208 z m 0.016,-0.53867 q 0.154667,0 0.288,-0.0853 0.133334,-0.0853 0.234667,-0.23467 0.101334,-0.15467 0.154667,-0.34667 0.05333,-0.192 0.05333,-0.39466 0,-0.18667 -0.064,-0.32534 -0.064,-0.13867 -0.192001,-0.21867 -0.122667,-0.08 -0.314667,-0.08 -0.154667,0 -0.293333,0.0853 -0.133334,0.0853 -0.234667,0.23466 -0.096,0.14934 -0.149334,0.34134 -0.05333,0.192 -0.05333,0.4 0,0.176 0.064,0.32 0.064,0.144 0.192,0.224 0.128,0.08 0.314667,0.08 z"
         style="font-style:italic;font-weight:600;-inkscape-font-specification:'Work Sans Semi-Bold Italic'"
         id="path970" />
      <path
         d="m 13.017299,237.88074 0.618668,-2.66667 h 0.645334 l -0.122667,0.75733 -0.05333,-0.0587 q 0.112,-0.368 0.394667,-0.56 0.282667,-0.192 0.640001,-0.192 0.293333,0 0.496,0.128 0.202667,0.128 0.282667,0.368 0.08,0.23467 0.0053,0.57067 l -0.384001,1.65334 h -0.730667 l 0.368,-1.584 q 0.05867,-0.26134 -0.05333,-0.41067 -0.106667,-0.14934 -0.341334,-0.14934 -0.181334,0 -0.32,0.0853 -0.138667,0.08 -0.234667,0.24 -0.096,0.15467 -0.154667,0.39467 l -0.325334,1.424 z"
         style="font-style:italic;font-weight:600;-inkscape-font-specification:'Work Sans Semi-Bold Italic'"
         id="path972" />
      <path
         d="m 17.672777,237.92874 q -0.394667,0 -0.682668,-0.15467 -0.282667,-0.16 -0.437334,-0.432 -0.154666,-0.27733 -0.154666,-0.61867 0,-0.44266 0.176,-0.79467 0.181333,-0.352 0.506667,-0.55466 0.330667,-0.208 0.784001,-0.208 0.405334,0 0.688001,0.16 0.282667,0.15466 0.432001,0.42666 0.154666,0.272 0.154666,0.61334 0,0.43733 -0.176,0.79467 -0.176,0.352 -0.506667,0.56 -0.325334,0.208 -0.784001,0.208 z m 0.016,-0.53867 q 0.154667,0 0.288,-0.0853 0.133334,-0.0853 0.234667,-0.23467 0.101334,-0.15467 0.154667,-0.34667 0.05333,-0.192 0.05333,-0.39466 0,-0.18667 -0.064,-0.32534 -0.064,-0.13867 -0.192,-0.21867 -0.122667,-0.08 -0.314667,-0.08 -0.154667,0 -0.293334,0.0853 -0.133333,0.0853 -0.234667,0.23466 -0.096,0.14934 -0.149333,0.34134 -0.05333,0.192 -0.05333,0.4 0,0.176 0.064,0.32 0.064,0.144 0.192,0.224 0.128,0.08 0.314667,0.08 z"
         style="font-style:italic;font-weight:600;-inkscape-font-specification:'Work Sans Semi-Bold Italic'"
         id="path974" />
      <path
         d="m 20.872778,237.92874 q -0.4,0 -0.688,-0.15467 -0.288001,-0.16 -0.442668,-0.432 -0.149333,-0.27733 -0.149333,-0.61867 0,-0.44266 0.176,-0.79467 0.176,-0.352 0.506667,-0.55466 0.336001,-0.208 0.800001,-0.208 0.341334,0 0.597334,0.11733 0.261334,0.112 0.410668,0.32 0.149333,0.208 0.176,0.48 l -0.714668,0.128 q 0,-0.21867 -0.117333,-0.35733 -0.112,-0.144 -0.368001,-0.144 -0.170667,0 -0.309333,0.0853 -0.133334,0.0853 -0.234667,0.23467 -0.101334,0.14933 -0.154667,0.34133 -0.048,0.192 -0.048,0.39467 0,0.18667 0.064,0.33067 0.06933,0.13866 0.197333,0.21866 0.128001,0.0747 0.314667,0.0747 0.170667,0 0.314667,-0.10133 0.144001,-0.10134 0.208001,-0.28267 l 0.666667,0.224 q -0.149333,0.33067 -0.469334,0.51733 -0.314667,0.18134 -0.736001,0.18134 z"
         style="font-style:italic;font-weight:600;-inkscape-font-specification:'Work Sans Semi-Bold Italic'"
         id="path976" />
      <path
         d="m 23.50212,234.83007 q -0.192,0 -0.304,-0.0907 -0.112,-0.0907 -0.096,-0.26667 0.016,-0.21866 0.138667,-0.32 0.128,-0.10666 0.336,-0.10666 0.197334,0 0.309334,0.0907 0.112,0.0907 0.096,0.26134 -0.016,0.22933 -0.144,0.33066 -0.128,0.10134 -0.336001,0.10134 z m 0.229334,0.384 -0.618668,2.66667 h -0.730667 l 0.618667,-2.66667 z"
         style="font-style:italic;font-weight:600;-inkscape-font-specification:'Work Sans Semi-Bold Italic'"
         id="path978" />
      <path
         d="m 23.859456,237.88074 0.618667,-2.66667 h 0.645334 l -0.122666,0.75733 -0.05333,-0.0587 q 0.112,-0.368 0.389334,-0.56 0.282667,-0.192 0.640001,-0.192 0.282667,0 0.474667,0.128 0.197334,0.128 0.277334,0.368 0.08,0.24 0,0.57601 l -0.384001,1.648 h -0.730667 l 0.368,-1.57867 q 0.064,-0.26667 -0.03733,-0.416 -0.101334,-0.14934 -0.325334,-0.14934 -0.181334,0 -0.32,0.0853 -0.138667,0.08 -0.234667,0.24 -0.09067,0.15467 -0.149334,0.39467 l -0.325334,1.424 z m 3.514671,0 0.362667,-1.57867 q 0.064,-0.26667 -0.03733,-0.416 -0.101334,-0.14934 -0.320001,-0.14934 -0.181333,0 -0.32,0.0853 -0.138667,0.08 -0.234667,0.24 -0.096,0.15467 -0.149334,0.39467 l -0.05333,-0.46401 q 0.138667,-0.41066 0.432001,-0.61866 0.298667,-0.21334 0.666667,-0.21334 0.288,0 0.485334,0.128 0.197334,0.128 0.277334,0.368 0.08,0.24 0.0053,0.57601 l -0.384,1.648 z"
         style="font-style:italic;font-weight:600;-inkscape-font-specification:'Work Sans Semi-Bold Italic'"
         id="path980" />
      <path
         d="m 29.955467,234.83007 q -0.192001,0 -0.304001,-0.0907 -0.112,-0.0907 -0.096,-0.26667 0.016,-0.21866 0.138667,-0.32 0.128,-0.10666 0.336,-0.10666 0.197334,0 0.309334,0.0907 0.112,0.0907 0.096,0.26134 -0.016,0.22933 -0.144,0.33066 -0.128,0.10134 -0.336,0.10134 z m 0.229333,0.384 -0.618667,2.66667 h -0.730668 l 0.618668,-2.66667 z"
         style="font-style:italic;font-weight:600;-inkscape-font-specification:'Work Sans Semi-Bold Italic'"
         id="path982" />
      <path
         d="m 31.742137,237.92874 q -0.384,0 -0.672001,-0.15467 -0.282667,-0.15467 -0.442667,-0.42667 -0.154667,-0.272 -0.154667,-0.624 0,-0.43733 0.176,-0.78933 0.176001,-0.352 0.506668,-0.56 0.330667,-0.208 0.794667,-0.208 0.368001,0 0.624001,0.144 0.261334,0.144 0.394667,0.41066 0.138667,0.26667 0.138667,0.63467 0,0.10667 -0.01067,0.21867 -0.01067,0.10667 -0.04267,0.21333 h -2.133336 v -0.50666 h 1.685335 l -0.229333,0.14933 q 0.02133,-0.0693 0.02667,-0.12267 0.0053,-0.0587 0.0053,-0.112 0,-0.16 -0.05867,-0.26667 -0.05867,-0.112 -0.165334,-0.17066 -0.106666,-0.0587 -0.256,-0.0587 -0.218667,0 -0.368,0.096 -0.144001,0.096 -0.234667,0.256 -0.08533,0.15467 -0.122667,0.34134 -0.03733,0.18666 -0.03733,0.368 0,0.19733 0.07467,0.34133 0.08,0.13867 0.218667,0.21867 0.138667,0.0747 0.325334,0.0747 0.218667,0 0.357334,-0.096 0.138667,-0.10133 0.218667,-0.25066 l 0.597334,0.26666 q -0.101334,0.192 -0.282667,0.33067 -0.176001,0.13333 -0.416001,0.208 -0.234667,0.0747 -0.517334,0.0747 z"
         style="font-style:italic;font-weight:600;-inkscape-font-specification:'Work Sans Semi-Bold Italic'"
         id="path984" />
      <path
         d="m 33.395468,237.88074 0.618668,-2.66667 h 0.645334 l -0.122667,0.75733 -0.05333,-0.0587 q 0.112,-0.368 0.394667,-0.56 0.282667,-0.192 0.640001,-0.192 0.293334,0 0.496,0.128 0.202667,0.128 0.282667,0.368 0.08,0.23467 0.0053,0.57067 l -0.384001,1.65334 h -0.730667 l 0.368,-1.584 q 0.05867,-0.26134 -0.05333,-0.41067 -0.106667,-0.14934 -0.341334,-0.14934 -0.181334,0 -0.32,0.0853 -0.138667,0.08 -0.234667,0.24 -0.096,0.15467 -0.154667,0.39467 l -0.325334,1.424 z"
         style="font-style:italic;font-weight:600;-inkscape-font-specification:'Work Sans Semi-Bold Italic'"
         id="path986" />
      <path
         d="m 37.868334,237.92874 q -0.298667,0 -0.512001,-0.112 -0.213333,-0.112 -0.298667,-0.32534 -0.08533,-0.21333 -0.016,-0.528 l 0.533334,-2.32533 0.784001,-0.21334 -0.592001,2.53334 q -0.05333,0.224 0.05867,0.33067 0.112,0.10133 0.304001,0.10133 0.128,0 0.213333,-0.0267 0.08533,-0.0267 0.154667,-0.0693 l -0.0053,0.496 q -0.138667,0.0747 -0.298667,0.10667 -0.154667,0.032 -0.325334,0.032 z m -1.061335,-2.17067 0.128,-0.544 h 2.005336 l -0.128,0.544 z"
         style="font-style:italic;font-weight:600;-inkscape-font-specification:'Work Sans Semi-Bold Italic'"
         id="path988" />
      <path
         d="m 40.340877,237.92874 q -0.394667,0 -0.682667,-0.15467 -0.282667,-0.16 -0.437334,-0.432 -0.154667,-0.27733 -0.154667,-0.61867 0,-0.44266 0.176,-0.79467 0.181334,-0.352 0.506667,-0.55466 0.330668,-0.208 0.784001,-0.208 0.405334,0 0.688001,0.16 0.282667,0.15466 0.432001,0.42666 0.154667,0.272 0.154667,0.61334 0,0.43733 -0.176,0.79467 -0.176001,0.352 -0.506668,0.56 -0.325334,0.208 -0.784001,0.208 z m 0.016,-0.53867 q 0.154667,0 0.288001,-0.0853 0.133333,-0.0853 0.234667,-0.23467 0.101333,-0.15467 0.154666,-0.34667 0.05333,-0.192 0.05333,-0.39466 0,-0.18667 -0.064,-0.32534 -0.064,-0.13867 -0.192,-0.21867 -0.122667,-0.08 -0.314668,-0.08 -0.154666,0 -0.293333,0.0853 -0.133334,0.0853 -0.234667,0.23466 -0.096,0.14934 -0.149334,0.34134 -0.05333,0.192 -0.05333,0.4 0,0.176 0.064,0.32 0.064,0.144 0.192,0.224 0.128,0.08 0.314667,0.08 z"
         style="font-style:italic;font-weight:600;-inkscape-font-specification:'Work Sans Semi-Bold Italic'"
         id="path990" />
      <path
         d="m 45.284876,239.00074 0.437334,-1.89334 0.04267,0.0267 q -0.101334,0.36267 -0.357334,0.58133 -0.250667,0.21334 -0.576001,0.21334 -0.277333,0 -0.501334,-0.13334 -0.218667,-0.13333 -0.346667,-0.37866 -0.122667,-0.25067 -0.122667,-0.59734 0,-0.33066 0.096,-0.62933 0.096,-0.29867 0.272,-0.528 0.176,-0.23467 0.421334,-0.368 0.245333,-0.13334 0.544,-0.13334 0.229334,0 0.416001,0.096 0.186667,0.0907 0.298667,0.272 0.117334,0.18134 0.122667,0.448 l -0.08533,0.10134 0.202667,-0.864 h 0.730668 l -0.880001,3.78667 z m -0.165333,-1.62667 q 0.16,0 0.293333,-0.0853 0.133334,-0.0907 0.229334,-0.24 0.101333,-0.15467 0.154667,-0.34134 0.05333,-0.192 0.05333,-0.39466 0,-0.18134 -0.064,-0.31467 -0.064,-0.13334 -0.181333,-0.20267 -0.112,-0.0747 -0.266667,-0.0747 -0.176001,0 -0.314667,0.0907 -0.138667,0.0853 -0.240001,0.23467 -0.096,0.14933 -0.149333,0.336 -0.05333,0.18133 -0.05333,0.37333 0,0.192 0.064,0.33067 0.064,0.13867 0.181334,0.21333 0.122667,0.0747 0.293334,0.0747 z"
         style="font-style:italic;font-weight:600;-inkscape-font-specification:'Work Sans Semi-Bold Italic'"
         id="path992" />
      <path
         d="m 48.004885,237.92874 q -0.288,0 -0.496001,-0.12267 -0.202667,-0.128 -0.293333,-0.36267 -0.08533,-0.23466 -0.01067,-0.56533 l 0.384,-1.664 h 0.730668 l -0.362667,1.57867 q -0.064,0.272 0.048,0.416 0.117333,0.144 0.346667,0.144 0.186667,0 0.32,-0.08 0.133334,-0.0853 0.224001,-0.24 0.096,-0.16 0.149333,-0.39467 l 0.330667,-1.424 h 0.730668 l -0.618667,2.66667 h -0.645335 l 0.122667,-0.75734 0.048,0.0587 q -0.112,0.368 -0.384,0.56 -0.272001,0.18667 -0.624001,0.18667 z"
         style="font-style:italic;font-weight:600;-inkscape-font-specification:'Work Sans Semi-Bold Italic'"
         id="path994" />
      <path
         d="m 51.663562,237.92874 q -0.384,0 -0.672001,-0.15467 -0.282667,-0.15467 -0.442667,-0.42667 -0.154667,-0.272 -0.154667,-0.624 0,-0.43733 0.176,-0.78933 0.176001,-0.352 0.506668,-0.56 0.330667,-0.208 0.794667,-0.208 0.368001,0 0.624001,0.144 0.261334,0.144 0.394667,0.41066 0.138667,0.26667 0.138667,0.63467 0,0.10667 -0.01067,0.21867 -0.01067,0.10667 -0.04267,0.21333 h -2.133336 v -0.50666 h 1.685335 l -0.229333,0.14933 q 0.02133,-0.0693 0.02667,-0.12267 0.0053,-0.0587 0.0053,-0.112 0,-0.16 -0.05867,-0.26667 -0.05867,-0.112 -0.165334,-0.17066 -0.106667,-0.0587 -0.256,-0.0587 -0.218667,0 -0.368001,0.096 -0.144,0.096 -0.234666,0.256 -0.08533,0.15467 -0.122667,0.34134 -0.03733,0.18666 -0.03733,0.368 0,0.19733 0.07467,0.34133 0.08,0.13867 0.218667,0.21867 0.138667,0.0747 0.325334,0.0747 0.218667,0 0.357334,-0.096 0.138666,-0.10133 0.218667,-0.25066 l 0.597334,0.26666 q -0.101334,0.192 -0.282667,0.33067 -0.176001,0.13333 -0.416001,0.208 -0.234667,0.0747 -0.517334,0.0747 z"
         style="font-style:italic;font-weight:600;-inkscape-font-specification:'Work Sans Semi-Bold Italic'"
         id="path996" />
      <path
         d="m 56.05289,237.92874 q -0.282667,0 -0.501334,-0.13334 -0.218667,-0.13866 -0.346667,-0.384 -0.122667,-0.24533 -0.122667,-0.592 0,-0.32533 0.096,-0.624 0.096,-0.29867 0.266667,-0.528 0.176001,-0.23467 0.421334,-0.368 0.250667,-0.13867 0.549334,-0.13867 0.197334,0 0.368001,0.0693 0.170667,0.0693 0.288,0.208 0.117334,0.13866 0.165334,0.352 l 0.133333,-0.576 h 0.730668 l -0.618668,2.66667 h -0.661334 l 0.09067,-0.50134 q -0.128,0.25067 -0.357334,0.4 -0.229334,0.14934 -0.501334,0.14934 z m 0.293334,-0.55467 q 0.149333,0 0.282667,-0.0853 0.133333,-0.0907 0.229333,-0.24 0.101334,-0.15467 0.154667,-0.34134 0.05867,-0.192 0.05867,-0.39466 0,-0.18134 -0.064,-0.31467 -0.064,-0.13334 -0.181334,-0.20267 -0.112,-0.0747 -0.266667,-0.0747 -0.176,0 -0.314667,0.0907 -0.138666,0.0853 -0.24,0.23467 -0.096,0.14933 -0.149333,0.336 -0.05333,0.18133 -0.05333,0.37333 0,0.192 0.05867,0.33067 0.064,0.13867 0.181333,0.21333 0.122667,0.0747 0.304001,0.0747 z"
         style="font-style:italic;font-weight:600;-inkscape-font-specification:'Work Sans Semi-Bold Italic'"
         id="path998" />
      <path
         d="m 59.2849,239.02741 q -0.234667,0 -0.448001,-0.064 -0.213334,-0.0587 -0.378667,-0.176 -0.165334,-0.11734 -0.266667,-0.29334 -0.096,-0.17067 -0.112,-0.4 l 0.730667,-0.11733 q 0.02667,0.256 0.144,0.4 0.122667,0.144 0.410668,0.144 0.154666,0 0.288,-0.064 0.138667,-0.064 0.24,-0.21334 0.106667,-0.14933 0.165334,-0.416 l 0.170667,-0.76266 0.05867,-0.0213 q -0.08533,0.36267 -0.330667,0.57067 -0.245333,0.20267 -0.592,0.20267 -0.282667,0 -0.512001,-0.13334 -0.224,-0.13866 -0.352,-0.384 -0.128001,-0.25066 -0.128001,-0.57066 0,-0.32534 0.096,-0.608 0.096,-0.28267 0.272001,-0.49601 0.176,-0.21866 0.416,-0.34133 0.245334,-0.12267 0.538668,-0.12267 0.229333,0 0.416,0.096 0.192,0.096 0.309334,0.288 0.117333,0.18667 0.117333,0.464 l -0.096,0.10134 0.208001,-0.896 h 0.730667 l -0.602667,2.58133 q -0.106667,0.45334 -0.314667,0.72 -0.202667,0.27201 -0.501334,0.38934 -0.293334,0.12267 -0.677334,0.12267 z m 0.373333,-1.76001 q 0.202667,0 0.357334,-0.13333 0.154667,-0.13333 0.245334,-0.352 0.09067,-0.21867 0.09067,-0.47467 0,-0.18133 -0.064,-0.30933 -0.064,-0.13334 -0.181333,-0.20267 -0.117334,-0.0747 -0.277334,-0.0747 -0.224,0 -0.389334,0.13334 -0.16,0.128 -0.250667,0.34133 -0.09067,0.21334 -0.09067,0.464 0,0.26667 0.144,0.43734 0.144,0.17066 0.416,0.17066 z"
         style="font-style:italic;font-weight:600;-inkscape-font-specification:'Work Sans Semi-Bold Italic'"
         id="path1000" />
      <path
         d="m 61.503567,237.88074 0.618668,-2.66667 h 0.634667 l -0.128,0.83733 -0.048,-0.0693 q 0.08533,-0.25067 0.229334,-0.432 0.144,-0.18667 0.341334,-0.288 0.197333,-0.10134 0.426667,-0.10134 0.09067,0 0.149333,0.0107 0.064,0.0107 0.112,0.0373 l -0.186667,0.63467 q -0.05333,-0.0267 -0.122666,-0.0427 -0.06933,-0.016 -0.170667,-0.016 -0.181334,0 -0.346667,0.0853 -0.165334,0.08 -0.288001,0.25067 -0.122667,0.17066 -0.186667,0.448 l -0.304,1.312 z"
         style="font-style:italic;font-weight:600;-inkscape-font-specification:'Work Sans Semi-Bold Italic'"
         id="path1002" />
      <path
         d="m 65.066665,237.92874 q -0.384001,0 -0.672001,-0.15467 -0.282667,-0.15467 -0.442667,-0.42667 -0.154667,-0.272 -0.154667,-0.624 0,-0.43733 0.176,-0.78933 0.176,-0.352 0.506668,-0.56 0.330667,-0.208 0.794667,-0.208 0.368001,0 0.624001,0.144 0.261334,0.144 0.394667,0.41066 0.138667,0.26667 0.138667,0.63467 0,0.10667 -0.01067,0.21867 -0.01067,0.10667 -0.04267,0.21333 h -2.133336 v -0.50666 h 1.685335 l -0.229334,0.14933 q 0.02133,-0.0693 0.02667,-0.12267 0.0053,-0.0587 0.0053,-0.112 0,-0.16 -0.05867,-0.26667 -0.05867,-0.112 -0.165334,-0.17066 -0.106667,-0.0587 -0.256,-0.0587 -0.218667,0 -0.368001,0.096 -0.144,0.096 -0.234667,0.256 -0.08533,0.15467 -0.122666,0.34134 -0.03733,0.18666 -0.03733,0.368 0,0.19733 0.07467,0.34133 0.08,0.13867 0.218667,0.21867 0.138667,0.0747 0.325334,0.0747 0.218667,0 0.357333,-0.096 0.138667,-0.10133 0.218667,-0.25066 l 0.597334,0.26666 q -0.101333,0.192 -0.282667,0.33067 -0.176,0.13333 -0.416,0.208 -0.234667,0.0747 -0.517334,0.0747 z"
         style="font-style:italic;font-weight:600;-inkscape-font-specification:'Work Sans Semi-Bold Italic'"
         id="path1004" />
      <path
         d="m 67.781329,239.02741 q -0.234667,0 -0.448001,-0.064 -0.213333,-0.0587 -0.378667,-0.176 -0.165333,-0.11734 -0.266667,-0.29334 -0.096,-0.17067 -0.112,-0.4 l 0.730668,-0.11733 q 0.02667,0.256 0.144,0.4 0.122667,0.144 0.410667,0.144 0.154667,0 0.288,-0.064 0.138667,-0.064 0.240001,-0.21334 0.106667,-0.14933 0.165333,-0.416 l 0.170667,-0.76266 0.05867,-0.0213 q -0.08533,0.36267 -0.330667,0.57067 -0.245334,0.20267 -0.592001,0.20267 -0.282667,0 -0.512001,-0.13334 -0.224,-0.13866 -0.352,-0.384 -0.128,-0.25066 -0.128,-0.57066 0,-0.32534 0.096,-0.608 0.096,-0.28267 0.272,-0.49601 0.176,-0.21866 0.416001,-0.34133 0.245333,-0.12267 0.538667,-0.12267 0.229334,0 0.416001,0.096 0.192,0.096 0.309333,0.288 0.117334,0.18667 0.117334,0.464 l -0.096,0.10134 0.208,-0.896 h 0.730668 l -0.602668,2.58133 q -0.106667,0.45334 -0.314667,0.72 -0.202667,0.27201 -0.501334,0.38934 -0.293334,0.12267 -0.677334,0.12267 z m 0.373334,-1.76001 q 0.202667,0 0.357334,-0.13333 0.154666,-0.13333 0.245333,-0.352 0.09067,-0.21867 0.09067,-0.47467 0,-0.18133 -0.064,-0.30933 -0.064,-0.13334 -0.181334,-0.20267 -0.117333,-0.0747 -0.277333,-0.0747 -0.224001,0 -0.389334,0.13334 -0.16,0.128 -0.250667,0.34133 -0.09067,0.21334 -0.09067,0.464 0,0.26667 0.144,0.43734 0.144,0.17066 0.416001,0.17066 z"
         style="font-style:italic;font-weight:600;-inkscape-font-specification:'Work Sans Semi-Bold Italic'"
         id="path1006" />
      <path
         d="m 71.119998,237.92874 q -0.282667,0 -0.501334,-0.13334 -0.218667,-0.13866 -0.346667,-0.384 -0.122667,-0.24533 -0.122667,-0.592 0,-0.32533 0.096,-0.624 0.096,-0.29867 0.266667,-0.528 0.176,-0.23467 0.421333,-0.368 0.250667,-0.13867 0.549334,-0.13867 0.197334,0 0.368001,0.0693 0.170667,0.0693 0.288,0.208 0.117334,0.13866 0.165334,0.352 l 0.133333,-0.576 h 0.730668 l -0.618668,2.66667 h -0.661334 l 0.09067,-0.50134 q -0.128,0.25067 -0.357334,0.4 -0.229333,0.14934 -0.501334,0.14934 z m 0.293334,-0.55467 q 0.149334,0 0.282667,-0.0853 0.133334,-0.0907 0.229334,-0.24 0.101333,-0.15467 0.154667,-0.34134 0.05867,-0.192 0.05867,-0.39466 0,-0.18134 -0.064,-0.31467 -0.064,-0.13334 -0.181333,-0.20267 -0.112001,-0.0747 -0.266667,-0.0747 -0.176001,0 -0.314667,0.0907 -0.138667,0.0853 -0.240001,0.23467 -0.096,0.14933 -0.149333,0.336 -0.05333,0.18133 -0.05333,0.37333 0,0.192 0.05867,0.33067 0.064,0.13867 0.181334,0.21333 0.122666,0.0747 0.304,0.0747 z"
         style="font-style:italic;font-weight:600;-inkscape-font-specification:'Work Sans Semi-Bold Italic'"
         id="path1008" />
      <path
         d="m 77.034144,235.21407 h 0.816001 l -1.594668,2.66667 h -0.848002 l -0.378667,-2.66667 h 0.720001 l 0.208,2.42133 -0.154666,-0.0267 z"
         style="font-style:italic;font-weight:600;-inkscape-font-specification:'Work Sans Semi-Bold Italic'"
         id="path1010" />
      <path
         d="m 78.805126,237.92874 q -0.282667,0 -0.501334,-0.13334 -0.218667,-0.13866 -0.346668,-0.384 -0.122666,-0.24533 -0.122666,-0.592 0,-0.32533 0.096,-0.624 0.096,-0.29867 0.266667,-0.528 0.176,-0.23467 0.421334,-0.368 0.250667,-0.13867 0.549334,-0.13867 0.197333,0 0.368,0.0693 0.170667,0.0693 0.288001,0.208 0.117333,0.13866 0.165333,0.352 l 0.133334,-0.576 h 0.730667 l -0.618667,2.66667 h -0.661334 l 0.09067,-0.50134 q -0.128,0.25067 -0.357333,0.4 -0.229334,0.14934 -0.501334,0.14934 z m 0.293333,-0.55467 q 0.149334,0 0.282667,-0.0853 0.133334,-0.0907 0.229334,-0.24 0.101333,-0.15467 0.154667,-0.34134 0.05867,-0.192 0.05867,-0.39466 0,-0.18134 -0.064,-0.31467 -0.064,-0.13334 -0.181333,-0.20267 -0.112,-0.0747 -0.266667,-0.0747 -0.176,0 -0.314667,0.0907 -0.138667,0.0853 -0.240001,0.23467 -0.096,0.14933 -0.149333,0.336 -0.05333,0.18133 -0.05333,0.37333 0,0.192 0.05867,0.33067 0.064,0.13867 0.181334,0.21333 0.122667,0.0747 0.304,0.0747 z"
         style="font-style:italic;font-weight:600;-inkscape-font-specification:'Work Sans Semi-Bold Italic'"
         id="path1012" />
      <path
         d="m 81.855805,237.9234 q -0.437334,0 -0.613334,-0.24533 -0.176,-0.25067 -0.08,-0.66133 l 0.688001,-2.97067 h 0.730667 l -0.688,2.97067 q -0.048,0.192 0.02133,0.28266 0.07467,0.0907 0.256,0.0907 0.06933,0 0.122667,-0.005 0.05333,-0.005 0.09067,-0.016 l -0.138667,0.496 q -0.08533,0.032 -0.176,0.0427 -0.09067,0.016 -0.213334,0.016 z"
         style="font-style:italic;font-weight:600;-inkscape-font-specification:'Work Sans Semi-Bold Italic'"
         id="path1014" />
      <path
         d="m 84.078739,237.92874 q -0.394667,0 -0.682668,-0.15467 -0.282667,-0.16 -0.437334,-0.432 -0.154666,-0.27733 -0.154666,-0.61867 0,-0.44266 0.176,-0.79467 0.181333,-0.352 0.506667,-0.55466 0.330667,-0.208 0.784001,-0.208 0.405334,0 0.688001,0.16 0.282667,0.15466 0.432001,0.42666 0.154666,0.272 0.154666,0.61334 0,0.43733 -0.176,0.79467 -0.176,0.352 -0.506667,0.56 -0.325334,0.208 -0.784001,0.208 z m 0.016,-0.53867 q 0.154667,0 0.288,-0.0853 0.133334,-0.0853 0.234667,-0.23467 0.101334,-0.15467 0.154667,-0.34667 0.05333,-0.192 0.05333,-0.39466 0,-0.18667 -0.064,-0.32534 -0.064,-0.13867 -0.192,-0.21867 -0.122667,-0.08 -0.314667,-0.08 -0.154667,0 -0.293334,0.0853 -0.133333,0.0853 -0.234667,0.23466 -0.096,0.14934 -0.149333,0.34134 -0.05333,0.192 -0.05333,0.4 0,0.176 0.064,0.32 0.064,0.144 0.192,0.224 0.128,0.08 0.314667,0.08 z"
         style="font-style:italic;font-weight:600;-inkscape-font-specification:'Work Sans Semi-Bold Italic'"
         id="path1016" />
      <path
         d="m 85.833401,237.88074 0.618668,-2.66667 h 0.634667 l -0.128,0.83733 -0.048,-0.0693 q 0.08533,-0.25067 0.229334,-0.432 0.144,-0.18667 0.341334,-0.288 0.197333,-0.10134 0.426667,-0.10134 0.09067,0 0.149333,0.0107 0.064,0.0107 0.112,0.0373 l -0.186667,0.63467 q -0.05333,-0.0267 -0.122666,-0.0427 -0.06933,-0.016 -0.170667,-0.016 -0.181334,0 -0.346667,0.0853 -0.165334,0.08 -0.288001,0.25067 -0.122667,0.17066 -0.186667,0.448 l -0.304,1.312 z"
         style="font-style:italic;font-weight:600;-inkscape-font-specification:'Work Sans Semi-Bold Italic'"
         id="path1018" />
      <path
         d="m 89.222203,234.1794 q 0.234667,0 0.346667,0.144 0.117333,0.13867 0.117333,0.352 0,0.24533 -0.128,0.48533 -0.122667,0.23467 -0.357334,0.416 -0.229333,0.176 -0.544,0.24534 l -0.181334,-0.31467 q 0.202667,-0.0373 0.352001,-0.112 0.154667,-0.08 0.256,-0.18133 0.106667,-0.10667 0.154667,-0.21867 l -0.01067,-0.0107 q -0.032,0.016 -0.064,0.0267 -0.02667,0.005 -0.08533,0.005 -0.149334,0 -0.245334,-0.10666 -0.096,-0.112 -0.096,-0.26134 0,-0.21333 0.138667,-0.34133 0.138667,-0.128 0.346667,-0.128 z m 1.173335,0 q 0.234667,0 0.346667,0.144 0.117333,0.13867 0.117333,0.352 0,0.24533 -0.128,0.48533 -0.122667,0.23467 -0.357334,0.416 -0.229333,0.176 -0.544,0.24534 L 89.64887,235.5074 q 0.202667,-0.0373 0.352001,-0.112 0.154666,-0.08 0.256,-0.18133 0.106667,-0.10667 0.154667,-0.21867 l -0.01067,-0.0107 q -0.032,0.016 -0.064,0.0267 -0.02667,0.005 -0.08533,0.005 -0.149333,0 -0.245333,-0.10666 -0.096,-0.112 -0.096,-0.26134 0,-0.21333 0.138667,-0.34133 0.138666,-0.128 0.346667,-0.128 z"
         style="font-style:italic;font-weight:600;-inkscape-font-specification:'Work Sans Semi-Bold Italic'"
         id="path1020" />
    </g>
    <g
       aria-label="JFA"
       id="text18195"
       style="font-size:61.2747px;line-height:1.25;font-family:'Work Sans';-inkscape-font-specification:'Work Sans';letter-spacing:-6.1913px;word-spacing:0px;fill:#ffffff;stroke-width:0.319139">
      <path
         d="m 17.607485,210.42516 q -3.063735,0 -5.392173,-1.04167 -2.328439,-1.10294 -3.6764824,-3.06373 -1.2867687,-1.9608 -1.5318675,-4.65688 -0.2450988,-2.69609 0.7965711,-5.88237 l 2.8799108,-0.18383 q -1.0416698,3.61521 -0.612747,6.37257 0.428923,2.69609 2.389713,4.22796 2.022066,1.47059 5.392174,1.47059 4.289229,0 6.678942,-2.45099 2.389714,-2.51226 3.615208,-8.14953 l 6.372569,-27.63489 h 3.063735 l -6.556393,28.30891 q -0.857846,3.98285 -2.573538,6.86276 -1.654417,2.81864 -4.289229,4.35051 -2.634812,1.47059 -6.556393,1.47059 z"
         style="font-style:italic;font-weight:300;-inkscape-font-specification:'Work Sans Light Italic'"
         id="path959" />
      <path
         d="M 68.585459,172.25102 H 45.484897 l -3.615207,15.62505 h 19.117706 l -0.674022,2.87991 H 41.256943 l -4.473053,19.11771 h -3.063735 l 9.375029,-40.4413 h 26.164297 z"
         style="font-style:italic;font-weight:300;-inkscape-font-specification:'Work Sans Light Italic'"
         id="path961" />
      <path
         d="m 52.664922,209.87369 25.061352,-40.4413 h 3.860306 l 6.311294,40.4413 h -3.00246 l -2.08334,-12.92896 H 64.123291 l -7.965712,12.92896 z m 13.235335,-15.7476 h 16.482894 l -3.370108,-21.38487 z"
         style="font-style:italic;font-weight:300;-inkscape-font-specification:'Work Sans Light Italic'"
         id="path963" />
    </g>
  </g>
</svg>
