<?xml version="1.0" encoding="UTF-8" standalone="no"?>
<!-- Created with Inkscape (http://www.inkscape.org/) -->

<svg
   width="162.06905mm"
   height="100.44616mm"
   viewBox="0 0 162.06905 100.44616"
   version="1.1"
   id="svg409"
   xmlns="http://www.w3.org/2000/svg"
   xmlns:svg="http://www.w3.org/2000/svg">
  <defs
     id="defs406" />
  <g
     id="layer1"
     transform="translate(-22.504931,-211.25011)">
    <path
       id="path21251"
       style="fill:#d97706;fill-opacity:1;stroke:none;stroke-width:0.702258;stroke-linecap:round;stroke-linejoin:round;stroke-miterlimit:4;stroke-dasharray:none;stroke-opacity:1"
       d="m 22.504931,211.25011 7e-6,72.77221 c 0,2.04992 2.205504,4.54392 4.501721,5.12481 l 77.639301,22.54914 75.48095,-22.09816 c 2.29622,-0.58089 4.44003,-3.18979 4.44003,-5.23971 v -73.10829 z" />
    <path
       id="path21253"
       style="fill:#fffbeb;fill-opacity:1;stroke:none;stroke-width:0.689376;stroke-linecap:round;stroke-linejoin:round;stroke-miterlimit:4;stroke-dasharray:none;stroke-opacity:1"
       d="m 24.504929,211.69627 7e-6,70.99999 c 0,2 2.178381,4.43326 4.446362,5.00001 l 75.588152,21.99999 75.58817,-21.99999 c 2.26797,-0.56675 4.44635,-3.00001 4.44635,-5.00001 v -70.99999 z" />
    <path
       id="rect21255"
       style="fill:#d97706;stroke-width:0.944659"
       d="m 54.539452,211.69626 h 99.999998 v 64.25197 H 54.539452 Z" />
    <g
       aria-label="SEGURIDAD Y SALUD"
       id="text21259"
       style="font-size:7.99997px;line-height:1.25;font-family:'Work Sans';-inkscape-font-specification:'Work Sans';fill:#d97706;stroke-width:0.2">
      <path
         d="m 66.158028,281.20084 q 0.719997,0 1.263995,0.248 0.543998,0.248 0.927997,0.736 l -0.615998,0.712 q -0.327999,-0.416 -0.719997,-0.608 -0.383999,-0.2 -0.895997,-0.2 -0.335998,0 -0.559998,0.088 -0.215999,0.088 -0.319998,0.232 -0.096,0.144 -0.096,0.32 0,0.216 0.167999,0.36799 0.168,0.144 0.575998,0.24 l 0.983996,0.224 q 0.783998,0.176 1.119996,0.528 0.343999,0.344 0.343999,0.896 0,0.52 -0.271999,0.89599 -0.271999,0.368 -0.759997,0.568 -0.487998,0.192 -1.119996,0.192 -0.551998,0 -1.015996,-0.128 -0.455998,-0.136 -0.815997,-0.368 -0.359999,-0.232 -0.599998,-0.53599 l 0.623998,-0.744 q 0.183999,0.256 0.455998,0.456 0.271999,0.2 0.615998,0.31999 0.351998,0.112 0.735997,0.112 0.327999,0 0.551998,-0.072 0.231999,-0.08 0.343999,-0.21599 0.119999,-0.144 0.119999,-0.344 0,-0.208 -0.143999,-0.352 -0.136,-0.152 -0.511998,-0.232 l -1.071996,-0.24 q -0.463999,-0.112 -0.799997,-0.288 -0.327999,-0.184 -0.503998,-0.464 -0.168,-0.288 -0.168,-0.67999 0,-0.472 0.255999,-0.848 0.255999,-0.376 0.735998,-0.592 0.487998,-0.224 1.167995,-0.224 z"
         style="font-weight:600;-inkscape-font-specification:'Work Sans Semi-Bold'"
         id="path1226" />
      <path
         d="m 69.382009,286.56082 v -5.27998 h 3.959985 v 0.888 h -2.85599 v 1.31199 h 2.247992 v 0.848 h -2.247992 v 1.34399 h 2.967989 v 0.888 z"
         style="font-weight:600;-inkscape-font-specification:'Work Sans Semi-Bold'"
         id="path1228" />
      <path
         d="m 76.539575,286.64082 q -0.727997,0 -1.279995,-0.32 -0.543998,-0.32 -0.847997,-0.92799 -0.303998,-0.608 -0.303998,-1.464 0,-0.848 0.319998,-1.45599 0.319999,-0.616 0.903997,-0.944 0.591998,-0.328 1.367995,-0.328 0.855997,0 1.383995,0.32 0.527998,0.312 0.839996,0.976 l -1.023996,0.44 q -0.127999,-0.424 -0.439998,-0.624 -0.303999,-0.208 -0.751997,-0.208 -0.447999,0 -0.775997,0.216 -0.327999,0.208 -0.503998,0.616 -0.176,0.39999 -0.176,0.98399 0,0.6 0.168,1.016 0.167999,0.408 0.495998,0.616 0.335998,0.19999 0.823997,0.19999 0.263999,0 0.487998,-0.064 0.231999,-0.064 0.399998,-0.19199 0.168,-0.128 0.263999,-0.328 0.096,-0.2 0.096,-0.464 v -0.12 h -1.383995 v -0.808 h 2.335991 v 2.78399 h -0.775997 l -0.08,-1.15199 0.191999,0.136 q -0.175999,0.52799 -0.623998,0.81599 -0.439998,0.28 -1.111996,0.28 z"
         style="font-weight:600;-inkscape-font-specification:'Work Sans Semi-Bold'"
         id="path1230" />
      <path
         d="m 84.563542,281.28084 v 3.19999 q 0,1.08 -0.575998,1.62399 -0.575998,0.536 -1.679994,0.536 -1.103996,0 -1.679994,-0.536 -0.575997,-0.54399 -0.575997,-1.62399 v -3.19999 h 1.103995 v 3.15199 q 0,0.664 0.279999,0.984 0.287999,0.31999 0.871997,0.31999 0.583998,0 0.863997,-0.31999 0.279999,-0.32 0.279999,-0.984 v -3.15199 z"
         style="font-weight:600;-inkscape-font-specification:'Work Sans Semi-Bold'"
         id="path1232" />
      <path
         d="m 88.16352,281.28084 q 0.895997,0 1.407995,0.432 0.511998,0.432 0.511998,1.16 0,0.77599 -0.511998,1.19199 -0.511998,0.408 -1.399995,0.408 l -0.111999,0.064 h -1.135996 v 2.02399 h -1.087996 v -5.27998 z m -0.127999,2.41599 q 0.463998,0 0.687997,-0.184 0.231999,-0.192 0.231999,-0.58399 0,-0.392 -0.231999,-0.576 -0.223999,-0.192 -0.687997,-0.192 h -1.111996 v 1.53599 z m 0.647997,0.232 1.711994,2.63199 h -1.239996 l -1.415994,-2.31199 z"
         style="font-weight:600;-inkscape-font-specification:'Work Sans Semi-Bold'"
         id="path1234" />
      <path
         d="m 92.379506,281.28084 v 5.27998 H 91.27551 v -5.27998 z"
         style="font-weight:600;-inkscape-font-specification:'Work Sans Semi-Bold'"
         id="path1236" />
      <path
         d="m 95.795491,281.28084 q 1.239995,0 1.919993,0.688 0.679997,0.68 0.679997,1.95199 0,1.264 -0.679997,1.95199 -0.679998,0.688 -1.919993,0.688 h -2.039993 v -5.27998 z m -0.056,4.39998 q 0.751997,0 1.127996,-0.44799 0.383998,-0.456 0.383998,-1.312 0,-0.856 -0.383998,-1.30399 -0.375999,-0.456 -1.127996,-0.456 h -0.879997 v 3.51998 z"
         style="font-weight:600;-inkscape-font-specification:'Work Sans Semi-Bold'"
         id="path1238" />
      <path
         d="m 103.9033,286.56082 h -1.14399 l -0.44,-1.28799 h -2.024 l -0.439994,1.28799 h -1.127995 l 1.927989,-5.27998 h 1.32 z m -3.35999,-2.10399 h 1.528 l -0.768,-2.30399 z"
         style="font-weight:600;-inkscape-font-specification:'Work Sans Semi-Bold'"
         id="path1240" />
      <path
         d="m 106.72729,281.28084 q 1.23999,0 1.91999,0.688 0.68,0.68 0.68,1.95199 0,1.264 -0.68,1.95199 -0.68,0.688 -1.91999,0.688 h -2.03999 v -5.27998 z m -0.056,4.39998 q 0.752,0 1.12799,-0.44799 0.384,-0.456 0.384,-1.312 0,-0.856 -0.384,-1.30399 -0.37599,-0.456 -1.12799,-0.456 h -0.88 v 3.51998 z"
         style="font-weight:600;-inkscape-font-specification:'Work Sans Semi-Bold'"
         id="path1242" />
      <path
         d="m 116.85813,281.28084 -1.872,3.30399 v 1.97599 h -1.10399 v -1.97599 l -1.872,-3.30399 h 1.176 l 0.848,1.584 0.4,0.82399 0.40799,-0.82399 0.848,-1.584 z"
         style="font-weight:600;-inkscape-font-specification:'Work Sans Semi-Bold'"
         id="path1244" />
      <path
         d="m 121.73298,281.20084 q 0.72,0 1.264,0.248 0.544,0.248 0.92799,0.736 l -0.61599,0.712 q -0.328,-0.416 -0.72,-0.608 -0.384,-0.2 -0.896,-0.2 -0.336,0 -0.55999,0.088 -0.216,0.088 -0.32,0.232 -0.096,0.144 -0.096,0.32 0,0.216 0.168,0.36799 0.168,0.144 0.57599,0.24 l 0.984,0.224 q 0.784,0.176 1.12,0.528 0.34399,0.344 0.34399,0.896 0,0.52 -0.27199,0.89599 -0.272,0.368 -0.76,0.568 -0.488,0.192 -1.12,0.192 -0.55199,0 -1.01599,-0.128 -0.456,-0.136 -0.816,-0.368 -0.36,-0.232 -0.6,-0.53599 l 0.624,-0.744 q 0.184,0.256 0.456,0.456 0.272,0.2 0.616,0.31999 0.35199,0.112 0.73599,0.112 0.328,0 0.552,-0.072 0.232,-0.08 0.344,-0.21599 0.12,-0.144 0.12,-0.344 0,-0.208 -0.144,-0.352 -0.136,-0.152 -0.512,-0.232 l -1.07199,-0.24 q -0.464,-0.112 -0.8,-0.288 -0.328,-0.184 -0.504,-0.464 -0.168,-0.288 -0.168,-0.67999 0,-0.472 0.256,-0.848 0.256,-0.376 0.736,-0.592 0.488,-0.224 1.16799,-0.224 z"
         style="font-weight:600;-inkscape-font-specification:'Work Sans Semi-Bold'"
         id="path1246" />
      <path
         d="m 129.4963,286.56082 h -1.144 l -0.43999,-1.28799 h -2.024 l -0.44,1.28799 h -1.12799 l 1.92799,-5.27998 h 1.32 z m -3.35999,-2.10399 h 1.528 l -0.768,-2.30399 z"
         style="font-weight:600;-inkscape-font-specification:'Work Sans Semi-Bold'"
         id="path1248" />
      <path
         d="m 131.38429,285.67282 h 2.78399 v 0.888 h -3.88798 v -5.27998 h 1.10399 z"
         style="font-weight:600;-inkscape-font-specification:'Work Sans Semi-Bold'"
         id="path1250" />
      <path
         d="m 139.4169,281.28084 v 3.19999 q 0,1.08 -0.576,1.62399 -0.576,0.536 -1.68,0.536 -1.10399,0 -1.67999,-0.536 -0.576,-0.54399 -0.576,-1.62399 v -3.19999 h 1.104 v 3.15199 q 0,0.664 0.28,0.984 0.288,0.31999 0.87199,0.31999 0.584,0 0.864,-0.31999 0.28,-0.32 0.28,-0.984 v -3.15199 z"
         style="font-weight:600;-inkscape-font-specification:'Work Sans Semi-Bold'"
         id="path1252" />
      <path
         d="m 142.72887,281.28084 q 1.24,0 1.92,0.688 0.68,0.68 0.68,1.95199 0,1.264 -0.68,1.95199 -0.68,0.688 -1.92,0.688 h -2.03999 v -5.27998 z m -0.056,4.39998 q 0.752,0 1.128,-0.44799 0.384,-0.456 0.384,-1.312 0,-0.856 -0.384,-1.30399 -0.376,-0.456 -1.128,-0.456 h -0.87999 v 3.51998 z"
         style="font-weight:600;-inkscape-font-specification:'Work Sans Semi-Bold'"
         id="path1254" />
    </g>
    <path
       style="fill:none;stroke:#92400e;stroke-width:0.685248;stroke-linecap:butt;stroke-linejoin:miter;stroke-miterlimit:4;stroke-dasharray:none;stroke-opacity:1"
       d="M 44.539455,277.78757 H 164.53945"
       id="path21261" />
    <g
       aria-label="“Conocimiento que agrega valor”"
       id="text21265"
       style="font-size:5.33334px;line-height:1.25;font-family:'Work Sans';-inkscape-font-specification:'Work Sans';fill:#d97706;stroke-width:0.2">
      <path
         d="m 61.588986,289.7102 q -0.218667,0 -0.352001,-0.13334 -0.128,-0.13866 -0.128,-0.35733 0,-0.26667 0.144,-0.50667 0.144,-0.24 0.378667,-0.41066 0.240001,-0.176 0.517334,-0.23467 l 0.170667,0.31467 q -0.202667,0.032 -0.357333,0.11733 -0.149334,0.0853 -0.250667,0.192 -0.101334,0.10133 -0.144001,0.192 l 0.01067,0.016 q 0.02133,-0.0107 0.05333,-0.016 0.03733,-0.0107 0.08,-0.0107 0.165333,0 0.256,0.10667 0.09067,0.10133 0.09067,0.25067 0,0.208 -0.133334,0.34666 -0.128,0.13334 -0.336,0.13334 z m 1.173335,0 q -0.218667,0 -0.352001,-0.13334 -0.128,-0.13866 -0.128,-0.35733 0,-0.26667 0.144,-0.50667 0.144,-0.24 0.378667,-0.41066 0.240001,-0.176 0.517334,-0.23467 l 0.170667,0.31467 q -0.202667,0.032 -0.357334,0.11733 -0.149333,0.0853 -0.250667,0.192 -0.101333,0.10133 -0.144,0.192 l 0.01067,0.016 q 0.02133,-0.0107 0.05333,-0.016 0.03733,-0.0107 0.08,-0.0107 0.165334,0 0.256001,0.10667 0.09067,0.10133 0.09067,0.25067 0,0.208 -0.133334,0.34666 -0.128,0.13334 -0.336,0.13334 z"
         style="font-style:italic;font-weight:600;-inkscape-font-specification:'Work Sans Semi-Bold Italic'"
         id="path1257" />
      <path
         d="m 65.172996,291.82753 q -0.437334,0 -0.789334,-0.176 -0.352001,-0.18133 -0.560001,-0.51733 -0.202667,-0.34133 -0.202667,-0.82133 0,-0.43201 0.122667,-0.81067 0.122667,-0.37867 0.362667,-0.672 0.24,-0.29334 0.586668,-0.45867 0.352,-0.17067 0.800001,-0.17067 0.378667,0 0.666667,0.12267 0.293334,0.12267 0.485334,0.368 0.192,0.24 0.266667,0.59733 l -0.725334,0.18134 q -0.05333,-0.34667 -0.229334,-0.50667 -0.176,-0.16 -0.490667,-0.16 -0.277334,0 -0.485334,0.13867 -0.202667,0.13333 -0.341334,0.352 -0.133333,0.21866 -0.202667,0.48533 -0.06933,0.26133 -0.06933,0.51734 0,0.29333 0.106667,0.50133 0.106666,0.20267 0.298667,0.31467 0.192,0.112 0.442667,0.112 0.304,0 0.474667,-0.144 0.176,-0.144 0.293334,-0.37867 l 0.672001,0.272 q -0.229334,0.39467 -0.586668,0.624 -0.352,0.22933 -0.896001,0.22933 z"
         style="font-style:italic;font-weight:600;-inkscape-font-specification:'Work Sans Semi-Bold Italic'"
         id="path1259" />
      <path
         d="m 68.373008,291.8222 q -0.394667,0 -0.682668,-0.15467 -0.282667,-0.16 -0.437334,-0.432 -0.154667,-0.27733 -0.154667,-0.61866 0,-0.44267 0.176001,-0.79467 0.181333,-0.352 0.506667,-0.55467 0.330667,-0.208 0.784001,-0.208 0.405334,0 0.688001,0.16 0.282667,0.15467 0.432,0.42667 0.154667,0.272 0.154667,0.61333 0,0.43734 -0.176,0.79467 -0.176,0.352 -0.506667,0.56 -0.325334,0.208 -0.784001,0.208 z m 0.016,-0.53867 q 0.154667,0 0.288,-0.0853 0.133334,-0.0853 0.234667,-0.23467 0.101334,-0.15466 0.154667,-0.34666 0.05333,-0.192 0.05333,-0.39467 0,-0.18667 -0.064,-0.32534 -0.064,-0.13866 -0.192,-0.21866 -0.122667,-0.08 -0.314667,-0.08 -0.154667,0 -0.293334,0.0853 -0.133333,0.0853 -0.234667,0.23467 -0.096,0.14933 -0.149333,0.34133 -0.05333,0.192 -0.05333,0.4 0,0.176 0.064,0.32 0.064,0.144 0.192001,0.224 0.128,0.08 0.314667,0.08 z"
         style="font-style:italic;font-weight:600;-inkscape-font-specification:'Work Sans Semi-Bold Italic'"
         id="path1261" />
      <path
         d="m 70.127674,291.7742 0.618668,-2.66667 h 0.645334 l -0.122667,0.75733 -0.05333,-0.0587 q 0.112001,-0.368 0.394668,-0.56 0.282667,-0.192 0.64,-0.192 0.293334,0 0.496001,0.128 0.202667,0.128 0.282667,0.368 0.08,0.23466 0.0053,0.57066 l -0.384,1.65334 h -0.730668 l 0.368001,-1.584 q 0.05867,-0.26134 -0.05333,-0.41067 -0.106666,-0.14933 -0.341333,-0.14933 -0.181334,0 -0.320001,0.0853 -0.138667,0.08 -0.234667,0.24 -0.096,0.15467 -0.154667,0.39467 l -0.325333,1.424 z"
         style="font-style:italic;font-weight:600;-inkscape-font-specification:'Work Sans Semi-Bold Italic'"
         id="path1263" />
      <path
         d="m 74.783152,291.8222 q -0.394668,0 -0.682668,-0.15467 -0.282667,-0.16 -0.437334,-0.432 -0.154667,-0.27733 -0.154667,-0.61866 0,-0.44267 0.176,-0.79467 0.181334,-0.352 0.506668,-0.55467 0.330667,-0.208 0.784001,-0.208 0.405334,0 0.688001,0.16 0.282667,0.15467 0.432,0.42667 0.154667,0.272 0.154667,0.61333 0,0.43734 -0.176,0.79467 -0.176,0.352 -0.506667,0.56 -0.325334,0.208 -0.784001,0.208 z m 0.016,-0.53867 q 0.154666,0 0.288,-0.0853 0.133333,-0.0853 0.234667,-0.23467 0.101333,-0.15466 0.154667,-0.34666 0.05333,-0.192 0.05333,-0.39467 0,-0.18667 -0.064,-0.32534 -0.064,-0.13866 -0.192,-0.21866 -0.122667,-0.08 -0.314667,-0.08 -0.154667,0 -0.293334,0.0853 -0.133333,0.0853 -0.234667,0.23467 -0.096,0.14933 -0.149333,0.34133 -0.05333,0.192 -0.05333,0.4 0,0.176 0.064,0.32 0.064,0.144 0.192,0.224 0.128001,0.08 0.314668,0.08 z"
         style="font-style:italic;font-weight:600;-inkscape-font-specification:'Work Sans Semi-Bold Italic'"
         id="path1265" />
      <path
         d="m 77.983153,291.8222 q -0.4,0 -0.688001,-0.15467 -0.288,-0.16 -0.442667,-0.432 -0.149334,-0.27733 -0.149334,-0.61866 0,-0.44267 0.176001,-0.79467 0.176,-0.352 0.506667,-0.55467 0.336,-0.208 0.800001,-0.208 0.341334,0 0.597334,0.11733 0.261334,0.112 0.410667,0.32 0.149334,0.208 0.176001,0.48 l -0.714668,0.128 q 0,-0.21866 -0.117334,-0.35733 -0.112,-0.144 -0.368,-0.144 -0.170667,0 -0.309334,0.0853 -0.133333,0.0853 -0.234667,0.23467 -0.101333,0.14933 -0.154667,0.34134 -0.048,0.192 -0.048,0.39466 0,0.18667 0.064,0.33067 0.06933,0.13867 0.197334,0.21867 0.128,0.0747 0.314667,0.0747 0.170667,0 0.314667,-0.10133 0.144,-0.10133 0.208,-0.28267 l 0.666668,0.224 q -0.149334,0.33067 -0.469334,0.51734 -0.314667,0.18133 -0.736001,0.18133 z"
         style="font-style:italic;font-weight:600;-inkscape-font-specification:'Work Sans Semi-Bold Italic'"
         id="path1267" />
      <path
         d="m 80.612495,288.72353 q -0.192,0 -0.304,-0.0907 -0.112001,-0.0907 -0.096,-0.26666 0.016,-0.21867 0.138666,-0.32 0.128001,-0.10667 0.336001,-0.10667 0.197333,0 0.309334,0.0907 0.112,0.0907 0.096,0.26133 -0.016,0.22933 -0.144001,0.33067 -0.128,0.10133 -0.336,0.10133 z m 0.229334,0.384 -0.618668,2.66667 h -0.730667 l 0.618667,-2.66667 z"
         style="font-style:italic;font-weight:600;-inkscape-font-specification:'Work Sans Semi-Bold Italic'"
         id="path1269" />
      <path
         d="m 80.96983,291.7742 0.618668,-2.66667 h 0.645334 l -0.122667,0.75733 -0.05333,-0.0587 q 0.112,-0.368 0.389334,-0.56 0.282667,-0.192 0.640001,-0.192 0.282667,0 0.474667,0.128 0.197333,0.128 0.277333,0.368 0.08,0.24 0,0.576 l -0.384,1.648 h -0.730668 l 0.368001,-1.57867 q 0.064,-0.26667 -0.03733,-0.416 -0.101333,-0.14933 -0.325333,-0.14933 -0.181334,0 -0.320001,0.0853 -0.138667,0.08 -0.234667,0.24 -0.09067,0.15467 -0.149333,0.39467 l -0.325334,1.424 z m 3.514672,0 0.362667,-1.57867 q 0.064,-0.26667 -0.03733,-0.416 -0.101333,-0.14933 -0.32,-0.14933 -0.181334,0 -0.32,0.0853 -0.138667,0.08 -0.234667,0.24 -0.096,0.15467 -0.149334,0.39467 l -0.05333,-0.464 q 0.138667,-0.41067 0.432,-0.61867 0.298667,-0.21333 0.666668,-0.21333 0.288,0 0.485334,0.128 0.197333,0.128 0.277333,0.368 0.08,0.24 0.0053,0.576 l -0.384001,1.648 z"
         style="font-style:italic;font-weight:600;-inkscape-font-specification:'Work Sans Semi-Bold Italic'"
         id="path1271" />
      <path
         d="m 87.065841,288.72353 q -0.192,0 -0.304,-0.0907 -0.112,-0.0907 -0.096,-0.26666 0.016,-0.21867 0.138667,-0.32 0.128,-0.10667 0.336,-0.10667 0.197334,0 0.309334,0.0907 0.112,0.0907 0.096,0.26133 -0.016,0.22933 -0.144,0.33067 -0.128,0.10133 -0.336001,0.10133 z m 0.229334,0.384 -0.618668,2.66667 H 85.94584 l 0.618667,-2.66667 z"
         style="font-style:italic;font-weight:600;-inkscape-font-specification:'Work Sans Semi-Bold Italic'"
         id="path1273" />
      <path
         d="m 88.852512,291.8222 q -0.384001,0 -0.672001,-0.15467 -0.282667,-0.15466 -0.442667,-0.42666 -0.154667,-0.272 -0.154667,-0.624 0,-0.43734 0.176,-0.78934 0.176,-0.352 0.506667,-0.56 0.330668,-0.208 0.794668,-0.208 0.368001,0 0.624001,0.144 0.261334,0.144 0.394667,0.41067 0.138667,0.26666 0.138667,0.63467 0,0.10666 -0.01067,0.21866 -0.01067,0.10667 -0.04267,0.21334 h -2.133337 v -0.50667 h 1.685336 l -0.229334,0.14933 q 0.02133,-0.0693 0.02667,-0.12266 0.0053,-0.0587 0.0053,-0.11201 0,-0.16 -0.05867,-0.26666 -0.05867,-0.112 -0.165334,-0.17067 -0.106667,-0.0587 -0.256,-0.0587 -0.218667,0 -0.368001,0.096 -0.144,0.096 -0.234667,0.256 -0.08533,0.15467 -0.122666,0.34134 -0.03733,0.18667 -0.03733,0.368 0,0.19733 0.07467,0.34133 0.08,0.13867 0.218667,0.21867 0.138667,0.0747 0.325334,0.0747 0.218667,0 0.357333,-0.096 0.138667,-0.10134 0.218667,-0.25067 l 0.597334,0.26667 q -0.101333,0.192 -0.282667,0.33066 -0.176,0.13334 -0.416,0.208 -0.234667,0.0747 -0.517334,0.0747 z"
         style="font-style:italic;font-weight:600;-inkscape-font-specification:'Work Sans Semi-Bold Italic'"
         id="path1275" />
      <path
         d="m 90.505843,291.7742 0.618668,-2.66667 h 0.645334 l -0.122667,0.75733 -0.05333,-0.0587 q 0.112,-0.368 0.394667,-0.56 0.282667,-0.192 0.640001,-0.192 0.293333,0 0.496,0.128 0.202667,0.128 0.282667,0.368 0.08,0.23466 0.0053,0.57066 l -0.384001,1.65334 h -0.730668 l 0.368001,-1.584 q 0.05867,-0.26134 -0.05333,-0.41067 -0.106666,-0.14933 -0.341333,-0.14933 -0.181334,0 -0.320001,0.0853 -0.138667,0.08 -0.234667,0.24 -0.096,0.15467 -0.154667,0.39467 l -0.325333,1.424 z"
         style="font-style:italic;font-weight:600;-inkscape-font-specification:'Work Sans Semi-Bold Italic'"
         id="path1277" />
      <path
         d="m 94.978709,291.8222 q -0.298667,0 -0.512001,-0.112 -0.213334,-0.112 -0.298667,-0.32533 -0.08533,-0.21334 -0.016,-0.528 l 0.533334,-2.32534 0.784001,-0.21333 -0.592001,2.53333 q -0.05333,0.224 0.05867,0.33067 0.112,0.10133 0.304,0.10133 0.128,0 0.213334,-0.0267 0.08533,-0.0267 0.154667,-0.0693 l -0.0053,0.496 q -0.138666,0.0747 -0.298667,0.10667 -0.154667,0.032 -0.325333,0.032 z m -1.061335,-2.17067 0.128,-0.544 h 2.005336 l -0.128,0.544 z"
         style="font-style:italic;font-weight:600;-inkscape-font-specification:'Work Sans Semi-Bold Italic'"
         id="path1279" />
      <path
         d="m 97.451252,291.8222 q -0.394667,0 -0.682668,-0.15467 -0.282667,-0.16 -0.437334,-0.432 -0.154666,-0.27733 -0.154666,-0.61866 0,-0.44267 0.176,-0.79467 0.181333,-0.352 0.506667,-0.55467 0.330667,-0.208 0.784001,-0.208 0.405334,0 0.688001,0.16 0.282667,0.15467 0.432001,0.42667 0.154666,0.272 0.154666,0.61333 0,0.43734 -0.176,0.79467 -0.176,0.352 -0.506667,0.56 -0.325334,0.208 -0.784001,0.208 z m 0.016,-0.53867 q 0.154667,0 0.288,-0.0853 0.133334,-0.0853 0.234667,-0.23467 0.101334,-0.15466 0.154667,-0.34666 0.05333,-0.192 0.05333,-0.39467 0,-0.18667 -0.064,-0.32534 -0.064,-0.13866 -0.192,-0.21866 -0.122667,-0.08 -0.314667,-0.08 -0.154667,0 -0.293334,0.0853 -0.133333,0.0853 -0.234667,0.23467 -0.096,0.14933 -0.149333,0.34133 -0.05333,0.192 -0.05333,0.4 0,0.176 0.064,0.32 0.064,0.144 0.192,0.224 0.128,0.08 0.314667,0.08 z"
         style="font-style:italic;font-weight:600;-inkscape-font-specification:'Work Sans Semi-Bold Italic'"
         id="path1281" />
      <path
         d="m 102.39525,292.8942 0.43733,-1.89333 0.0427,0.0267 q -0.10133,0.36267 -0.35733,0.58134 -0.25067,0.21333 -0.576,0.21333 -0.27734,0 -0.50134,-0.13333 -0.21866,-0.13334 -0.34666,-0.37867 -0.12267,-0.25067 -0.12267,-0.59733 0,-0.33067 0.096,-0.62934 0.096,-0.29867 0.272,-0.528 0.176,-0.23467 0.42133,-0.368 0.24534,-0.13333 0.544,-0.13333 0.22934,0 0.416,0.096 0.18667,0.0907 0.29867,0.272 0.11734,0.18133 0.12267,0.448 l -0.0853,0.10133 0.20266,-0.864 h 0.73067 l -0.88,3.78667 z m -0.16533,-1.62667 q 0.16,0 0.29333,-0.0853 0.13333,-0.0907 0.22933,-0.24 0.10134,-0.15467 0.15467,-0.34133 0.0533,-0.192 0.0533,-0.39467 0,-0.18134 -0.064,-0.31467 -0.064,-0.13333 -0.18133,-0.20267 -0.112,-0.0747 -0.26667,-0.0747 -0.176,0 -0.31466,0.0907 -0.13867,0.0853 -0.24,0.23467 -0.096,0.14933 -0.14934,0.336 -0.0533,0.18134 -0.0533,0.37334 0,0.192 0.064,0.33066 0.064,0.13867 0.18133,0.21334 0.12267,0.0747 0.29334,0.0747 z"
         style="font-style:italic;font-weight:600;-inkscape-font-specification:'Work Sans Semi-Bold Italic'"
         id="path1283" />
      <path
         d="m 105.11526,291.8222 q -0.288,0 -0.496,-0.12267 -0.20267,-0.128 -0.29333,-0.36266 -0.0853,-0.23467 -0.0107,-0.56534 l 0.384,-1.664 h 0.73067 l -0.36267,1.57867 q -0.064,0.272 0.048,0.416 0.11733,0.144 0.34667,0.144 0.18666,0 0.32,-0.08 0.13333,-0.0853 0.224,-0.24 0.096,-0.16 0.14933,-0.39467 l 0.33067,-1.424 h 0.73067 l -0.61867,2.66667 h -0.64534 l 0.12267,-0.75733 0.048,0.0587 q -0.112,0.368 -0.384,0.56 -0.272,0.18667 -0.624,0.18667 z"
         style="font-style:italic;font-weight:600;-inkscape-font-specification:'Work Sans Semi-Bold Italic'"
         id="path1285" />
      <path
         d="m 108.77394,291.8222 q -0.384,0 -0.672,-0.15467 -0.28267,-0.15466 -0.44267,-0.42666 -0.15467,-0.272 -0.15467,-0.624 0,-0.43734 0.176,-0.78934 0.176,-0.352 0.50667,-0.56 0.33067,-0.208 0.79467,-0.208 0.368,0 0.624,0.144 0.26133,0.144 0.39466,0.41067 0.13867,0.26666 0.13867,0.63467 0,0.10666 -0.0107,0.21866 -0.0107,0.10667 -0.0427,0.21334 h -2.13334 v -0.50667 h 1.68534 l -0.22934,0.14933 q 0.0213,-0.0693 0.0267,-0.12266 0.005,-0.0587 0.005,-0.11201 0,-0.16 -0.0587,-0.26666 -0.0587,-0.112 -0.16534,-0.17067 -0.10666,-0.0587 -0.256,-0.0587 -0.21866,0 -0.368,0.096 -0.144,0.096 -0.23466,0.256 -0.0853,0.15467 -0.12267,0.34134 -0.0373,0.18667 -0.0373,0.368 0,0.19733 0.0747,0.34133 0.08,0.13867 0.21867,0.21867 0.13867,0.0747 0.32533,0.0747 0.21867,0 0.35734,-0.096 0.13866,-0.10134 0.21866,-0.25067 l 0.59734,0.26667 q -0.10134,0.192 -0.28267,0.33066 -0.176,0.13334 -0.416,0.208 -0.23467,0.0747 -0.51733,0.0747 z"
         style="font-style:italic;font-weight:600;-inkscape-font-specification:'Work Sans Semi-Bold Italic'"
         id="path1287" />
      <path
         d="m 113.16326,291.8222 q -0.28266,0 -0.50133,-0.13333 -0.21867,-0.13867 -0.34667,-0.384 -0.12266,-0.24534 -0.12266,-0.592 0,-0.32534 0.096,-0.62401 0.096,-0.29866 0.26666,-0.528 0.176,-0.23466 0.42134,-0.368 0.25066,-0.13866 0.54933,-0.13866 0.19734,0 0.368,0.0693 0.17067,0.0693 0.288,0.208 0.11734,0.13867 0.16534,0.352 l 0.13333,-0.576 h 0.73067 l -0.61867,2.66667 h -0.66133 l 0.0907,-0.50133 q -0.128,0.25066 -0.35733,0.4 -0.22933,0.14933 -0.50134,0.14933 z m 0.29334,-0.55467 q 0.14933,0 0.28267,-0.0853 0.13333,-0.0907 0.22933,-0.24 0.10133,-0.15467 0.15467,-0.34133 0.0587,-0.192 0.0587,-0.39467 0,-0.18134 -0.064,-0.31467 -0.064,-0.13333 -0.18133,-0.20267 -0.112,-0.0747 -0.26667,-0.0747 -0.176,0 -0.31466,0.0907 -0.13867,0.0853 -0.24001,0.23467 -0.096,0.14933 -0.14933,0.336 -0.0533,0.18134 -0.0533,0.37334 0,0.192 0.0587,0.33066 0.064,0.13867 0.18134,0.21334 0.12266,0.0747 0.304,0.0747 z"
         style="font-style:italic;font-weight:600;-inkscape-font-specification:'Work Sans Semi-Bold Italic'"
         id="path1289" />
      <path
         d="m 116.39527,292.92087 q -0.23466,0 -0.448,-0.064 -0.21333,-0.0587 -0.37866,-0.176 -0.16534,-0.11734 -0.26667,-0.29334 -0.096,-0.17066 -0.112,-0.4 l 0.73067,-0.11733 q 0.0267,0.256 0.144,0.4 0.12266,0.144 0.41066,0.144 0.15467,0 0.288,-0.064 0.13867,-0.064 0.24,-0.21333 0.10667,-0.14934 0.16534,-0.416 l 0.17067,-0.76267 0.0587,-0.0213 q -0.0853,0.36266 -0.33066,0.57066 -0.24534,0.20267 -0.59201,0.20267 -0.28266,0 -0.512,-0.13333 -0.224,-0.13867 -0.352,-0.384 -0.128,-0.25067 -0.128,-0.57067 0,-0.32533 0.096,-0.608 0.096,-0.28267 0.272,-0.496 0.176,-0.21867 0.416,-0.34134 0.24534,-0.12266 0.53867,-0.12266 0.22934,0 0.416,0.096 0.192,0.096 0.30934,0.288 0.11733,0.18666 0.11733,0.464 l -0.096,0.10133 0.208,-0.896 h 0.73067 l -0.60267,2.58134 q -0.10667,0.45333 -0.31467,0.72 -0.20266,0.272 -0.50133,0.38933 -0.29334,0.12267 -0.67734,0.12267 z m 0.37334,-1.76 q 0.20266,0 0.35733,-0.13334 0.15467,-0.13333 0.24534,-0.352 0.0907,-0.21866 0.0907,-0.47466 0,-0.18134 -0.064,-0.30934 -0.064,-0.13333 -0.18133,-0.20267 -0.11733,-0.0747 -0.27734,-0.0747 -0.224,0 -0.38933,0.13333 -0.16,0.128 -0.25067,0.34133 -0.0907,0.21334 -0.0907,0.46401 0,0.26666 0.144,0.43733 0.144,0.17067 0.416,0.17067 z"
         style="font-style:italic;font-weight:600;-inkscape-font-specification:'Work Sans Semi-Bold Italic'"
         id="path1291" />
      <path
         d="m 118.61394,291.7742 0.61867,-2.66667 h 0.63467 l -0.128,0.83733 -0.048,-0.0693 q 0.0853,-0.25067 0.22933,-0.432 0.144,-0.18667 0.34133,-0.288 0.19734,-0.10133 0.42667,-0.10133 0.0907,0 0.14933,0.0107 0.064,0.0107 0.11201,0.0373 l -0.18667,0.63466 q -0.0533,-0.0267 -0.12267,-0.0427 -0.0693,-0.016 -0.17067,-0.016 -0.18133,0 -0.34666,0.0853 -0.16534,0.08 -0.288,0.25067 -0.12267,0.17067 -0.18667,0.448 l -0.304,1.312 z"
         style="font-style:italic;font-weight:600;-inkscape-font-specification:'Work Sans Semi-Bold Italic'"
         id="path1293" />
      <path
         d="m 122.17704,291.8222 q -0.384,0 -0.672,-0.15467 -0.28267,-0.15466 -0.44267,-0.42666 -0.15467,-0.272 -0.15467,-0.624 0,-0.43734 0.176,-0.78934 0.17601,-0.352 0.50667,-0.56 0.33067,-0.208 0.79467,-0.208 0.368,0 0.624,0.144 0.26133,0.144 0.39467,0.41067 0.13866,0.26666 0.13866,0.63467 0,0.10666 -0.0107,0.21866 -0.0107,0.10667 -0.0427,0.21334 h -2.13333 v -0.50667 h 1.68533 l -0.22933,0.14933 q 0.0213,-0.0693 0.0267,-0.12266 0.005,-0.0587 0.005,-0.11201 0,-0.16 -0.0587,-0.26666 -0.0587,-0.112 -0.16533,-0.17067 -0.10667,-0.0587 -0.256,-0.0587 -0.21867,0 -0.368,0.096 -0.144,0.096 -0.23467,0.256 -0.0853,0.15467 -0.12267,0.34134 -0.0373,0.18667 -0.0373,0.368 0,0.19733 0.0747,0.34133 0.08,0.13867 0.21866,0.21867 0.13867,0.0747 0.32534,0.0747 0.21866,0 0.35733,-0.096 0.13867,-0.10134 0.21867,-0.25067 l 0.59733,0.26667 q -0.10133,0.192 -0.28267,0.33066 -0.176,0.13334 -0.416,0.208 -0.23466,0.0747 -0.51733,0.0747 z"
         style="font-style:italic;font-weight:600;-inkscape-font-specification:'Work Sans Semi-Bold Italic'"
         id="path1295" />
      <path
         d="m 124.8917,292.92087 q -0.23466,0 -0.448,-0.064 -0.21333,-0.0587 -0.37866,-0.176 -0.16534,-0.11734 -0.26667,-0.29334 -0.096,-0.17066 -0.112,-0.4 l 0.73067,-0.11733 q 0.0267,0.256 0.144,0.4 0.12266,0.144 0.41066,0.144 0.15467,0 0.288,-0.064 0.13867,-0.064 0.24,-0.21333 0.10667,-0.14934 0.16534,-0.416 l 0.17066,-0.76267 0.0587,-0.0213 q -0.0853,0.36266 -0.33067,0.57066 -0.24533,0.20267 -0.592,0.20267 -0.28266,0 -0.512,-0.13333 -0.224,-0.13867 -0.352,-0.384 -0.128,-0.25067 -0.128,-0.57067 0,-0.32533 0.096,-0.608 0.096,-0.28267 0.272,-0.496 0.176,-0.21867 0.416,-0.34134 0.24534,-0.12266 0.53867,-0.12266 0.22933,0 0.416,0.096 0.192,0.096 0.30934,0.288 0.11733,0.18666 0.11733,0.464 l -0.096,0.10133 0.208,-0.896 h 0.73067 l -0.60267,2.58134 q -0.10667,0.45333 -0.31467,0.72 -0.20267,0.272 -0.50133,0.38933 -0.29334,0.12267 -0.67734,0.12267 z m 0.37334,-1.76 q 0.20266,0 0.35733,-0.13334 0.15467,-0.13333 0.24533,-0.352 0.0907,-0.21866 0.0907,-0.47466 0,-0.18134 -0.064,-0.30934 -0.064,-0.13333 -0.18133,-0.20267 -0.11734,-0.0747 -0.27734,-0.0747 -0.224,0 -0.38933,0.13333 -0.16,0.128 -0.25067,0.34133 -0.0907,0.21334 -0.0907,0.46401 0,0.26666 0.144,0.43733 0.144,0.17067 0.416,0.17067 z"
         style="font-style:italic;font-weight:600;-inkscape-font-specification:'Work Sans Semi-Bold Italic'"
         id="path1297" />
      <path
         d="m 128.23037,291.8222 q -0.28266,0 -0.50133,-0.13333 -0.21867,-0.13867 -0.34667,-0.384 -0.12266,-0.24534 -0.12266,-0.592 0,-0.32534 0.096,-0.62401 0.096,-0.29866 0.26666,-0.528 0.176,-0.23466 0.42134,-0.368 0.25066,-0.13866 0.54933,-0.13866 0.19733,0 0.368,0.0693 0.17067,0.0693 0.288,0.208 0.11733,0.13867 0.16533,0.352 l 0.13334,-0.576 h 0.73067 l -0.61867,2.66667 h -0.66134 l 0.0907,-0.50133 q -0.128,0.25066 -0.35733,0.4 -0.22934,0.14933 -0.50134,0.14933 z m 0.29334,-0.55467 q 0.14933,0 0.28266,-0.0853 0.13334,-0.0907 0.22934,-0.24 0.10133,-0.15467 0.15466,-0.34133 0.0587,-0.192 0.0587,-0.39467 0,-0.18134 -0.064,-0.31467 -0.064,-0.13333 -0.18133,-0.20267 -0.112,-0.0747 -0.26667,-0.0747 -0.176,0 -0.31467,0.0907 -0.13866,0.0853 -0.24,0.23467 -0.096,0.14933 -0.14933,0.336 -0.0533,0.18134 -0.0533,0.37334 0,0.192 0.0587,0.33066 0.064,0.13867 0.18134,0.21334 0.12266,0.0747 0.304,0.0747 z"
         style="font-style:italic;font-weight:600;-inkscape-font-specification:'Work Sans Semi-Bold Italic'"
         id="path1299" />
      <path
         d="m 134.14452,289.10753 h 0.816 l -1.59467,2.66667 h -0.848 l -0.37867,-2.66667 h 0.72 l 0.208,2.42134 -0.15466,-0.0267 z"
         style="font-style:italic;font-weight:600;-inkscape-font-specification:'Work Sans Semi-Bold Italic'"
         id="path1301" />
      <path
         d="m 135.9155,291.8222 q -0.28267,0 -0.50133,-0.13333 -0.21867,-0.13867 -0.34667,-0.384 -0.12267,-0.24534 -0.12267,-0.592 0,-0.32534 0.096,-0.62401 0.096,-0.29866 0.26667,-0.528 0.176,-0.23466 0.42133,-0.368 0.25067,-0.13866 0.54934,-0.13866 0.19733,0 0.368,0.0693 0.17066,0.0693 0.288,0.208 0.11733,0.13867 0.16533,0.352 l 0.13334,-0.576 h 0.73066 l -0.61866,2.66667 h -0.66134 l 0.0907,-0.50133 q -0.128,0.25066 -0.35734,0.4 -0.22933,0.14933 -0.50133,0.14933 z m 0.29333,-0.55467 q 0.14934,0 0.28267,-0.0853 0.13333,-0.0907 0.22933,-0.24 0.10134,-0.15467 0.15467,-0.34133 0.0587,-0.192 0.0587,-0.39467 0,-0.18134 -0.064,-0.31467 -0.064,-0.13333 -0.18134,-0.20267 -0.112,-0.0747 -0.26666,-0.0747 -0.176,0 -0.31467,0.0907 -0.13867,0.0853 -0.24,0.23467 -0.096,0.14933 -0.14933,0.336 -0.0533,0.18134 -0.0533,0.37334 0,0.192 0.0587,0.33066 0.064,0.13867 0.18133,0.21334 0.12267,0.0747 0.304,0.0747 z"
         style="font-style:italic;font-weight:600;-inkscape-font-specification:'Work Sans Semi-Bold Italic'"
         id="path1303" />
      <path
         d="m 138.96618,291.81687 q -0.43733,0 -0.61333,-0.24534 -0.176,-0.25066 -0.08,-0.66133 l 0.688,-2.97067 h 0.73066 l -0.688,2.97067 q -0.048,0.192 0.0213,0.28267 0.0747,0.0907 0.256,0.0907 0.0693,0 0.12266,-0.005 0.0533,-0.005 0.0907,-0.016 l -0.13867,0.496 q -0.0853,0.032 -0.176,0.0427 -0.0907,0.016 -0.21333,0.016 z"
         style="font-style:italic;font-weight:600;-inkscape-font-specification:'Work Sans Semi-Bold Italic'"
         id="path1305" />
      <path
         d="m 141.18911,291.8222 q -0.39466,0 -0.68266,-0.15467 -0.28267,-0.16 -0.43734,-0.432 -0.15466,-0.27733 -0.15466,-0.61866 0,-0.44267 0.176,-0.79467 0.18133,-0.352 0.50666,-0.55467 0.33067,-0.208 0.784,-0.208 0.40534,0 0.688,0.16 0.28267,0.15467 0.43201,0.42667 0.15466,0.272 0.15466,0.61333 0,0.43734 -0.176,0.79467 -0.176,0.352 -0.50667,0.56 -0.32533,0.208 -0.784,0.208 z m 0.016,-0.53867 q 0.15467,0 0.288,-0.0853 0.13334,-0.0853 0.23467,-0.23467 0.10133,-0.15466 0.15467,-0.34666 0.0533,-0.192 0.0533,-0.39467 0,-0.18667 -0.064,-0.32534 -0.064,-0.13866 -0.192,-0.21866 -0.12267,-0.08 -0.31467,-0.08 -0.15466,0 -0.29333,0.0853 -0.13333,0.0853 -0.23467,0.23467 -0.096,0.14933 -0.14933,0.34133 -0.0533,0.192 -0.0533,0.4 0,0.176 0.064,0.32 0.064,0.144 0.192,0.224 0.128,0.08 0.31466,0.08 z"
         style="font-style:italic;font-weight:600;-inkscape-font-specification:'Work Sans Semi-Bold Italic'"
         id="path1307" />
      <path
         d="m 142.94378,291.7742 0.61866,-2.66667 h 0.63467 l -0.128,0.83733 -0.048,-0.0693 q 0.0853,-0.25067 0.22933,-0.432 0.144,-0.18667 0.34134,-0.288 0.19733,-0.10133 0.42667,-0.10133 0.0907,0 0.14933,0.0107 0.064,0.0107 0.112,0.0373 l -0.18667,0.63466 q -0.0533,-0.0267 -0.12266,-0.0427 -0.0693,-0.016 -0.17067,-0.016 -0.18134,0 -0.34667,0.0853 -0.16533,0.08 -0.288,0.25067 -0.12267,0.17067 -0.18667,0.448 l -0.304,1.312 z"
         style="font-style:italic;font-weight:600;-inkscape-font-specification:'Work Sans Semi-Bold Italic'"
         id="path1309" />
      <path
         d="m 146.33258,288.07286 q 0.23466,0 0.34666,0.144 0.11734,0.13867 0.11734,0.352 0,0.24534 -0.128,0.48534 -0.12267,0.23466 -0.35734,0.416 -0.22933,0.176 -0.544,0.24533 l -0.18133,-0.31467 q 0.20267,-0.0373 0.352,-0.112 0.15467,-0.08 0.256,-0.18133 0.10667,-0.10667 0.15467,-0.21867 l -0.0107,-0.0107 q -0.032,0.016 -0.064,0.0267 -0.0267,0.005 -0.0853,0.005 -0.14934,0 -0.24534,-0.10667 -0.096,-0.112 -0.096,-0.26133 0,-0.21334 0.13867,-0.34134 0.13867,-0.128 0.34667,-0.128 z m 1.17333,0 q 0.23467,0 0.34667,0.144 0.11733,0.13867 0.11733,0.352 0,0.24534 -0.128,0.48534 -0.12266,0.23466 -0.35733,0.416 -0.22933,0.176 -0.544,0.24533 l -0.18134,-0.31467 q 0.20267,-0.0373 0.35201,-0.112 0.15466,-0.08 0.256,-0.18133 0.10666,-0.10667 0.15466,-0.21867 l -0.0107,-0.0107 q -0.032,0.016 -0.064,0.0267 -0.0267,0.005 -0.0853,0.005 -0.14933,0 -0.24533,-0.10667 -0.096,-0.112 -0.096,-0.26133 0,-0.21334 0.13867,-0.34134 0.13866,-0.128 0.34666,-0.128 z"
         style="font-style:italic;font-weight:600;-inkscape-font-specification:'Work Sans Semi-Bold Italic'"
         id="path1311" />
    </g>
    <g
       aria-label="JFA"
       id="text21269"
       style="font-size:61.2747px;line-height:1.25;font-family:'Work Sans';-inkscape-font-specification:'Work Sans';letter-spacing:-6.1913px;word-spacing:0px;fill:#ffffff;stroke-width:0.319139">
      <path
         d="m 74.71786,264.31862 q -3.063735,0 -5.392174,-1.04167 -2.328439,-1.10294 -3.676482,-3.06373 -1.286769,-1.96079 -1.531867,-4.65688 -0.245099,-2.69609 0.796571,-5.88237 l 2.879911,-0.18382 q -1.04167,3.6152 -0.612747,6.37256 0.428922,2.69609 2.389713,4.22796 2.022065,1.47059 5.392174,1.47059 4.289229,0 6.678942,-2.45099 2.389713,-2.51226 3.615207,-8.14953 l 6.372569,-27.63489 h 3.063735 l -6.556393,28.30891 q -0.857846,3.98286 -2.573537,6.86277 -1.654417,2.81863 -4.289229,4.3505 -2.634812,1.47059 -6.556393,1.47059 z"
         style="font-style:italic;font-weight:300;-inkscape-font-specification:'Work Sans Light Italic'"
         id="path1314" />
      <path
         d="m 125.69583,226.14448 h -23.10056 l -3.615206,15.62505 h 19.117706 l -0.67402,2.87991 H 98.367317 l -4.473053,19.11771 h -3.063735 l 9.375031,-40.4413 h 26.1643 z"
         style="font-style:italic;font-weight:300;-inkscape-font-specification:'Work Sans Light Italic'"
         id="path1316" />
      <path
         d="m 109.7753,263.76715 25.06135,-40.4413 h 3.8603 l 6.3113,40.4413 h -3.00246 l -2.08334,-12.92896 h -18.68879 l -7.96571,12.92896 z m 13.23533,-15.7476 h 16.4829 l -3.37011,-21.38487 z"
         style="font-style:italic;font-weight:300;-inkscape-font-specification:'Work Sans Light Italic'"
         id="path1318" />
    </g>
  </g>
</svg>
