<?xml version="1.0" encoding="UTF-8" standalone="no"?>
<!-- Created with Inkscape (http://www.inkscape.org/) -->

<svg
   width="162.06905mm"
   height="100.44616mm"
   viewBox="0 0 162.06905 100.44616"
   version="1.1"
   id="svg409"
   xmlns="http://www.w3.org/2000/svg"
   xmlns:svg="http://www.w3.org/2000/svg">
  <defs
     id="defs406" />
  <g
     id="layer1"
     transform="translate(-13.416508,-91.273897)">
    <path
       id="path11413"
       style="fill:#365314;fill-opacity:1;stroke:none;stroke-width:0.702258;stroke-linecap:round;stroke-linejoin:round;stroke-miterlimit:4;stroke-dasharray:none;stroke-opacity:1"
       d="m 13.416508,91.273897 7e-6,72.772213 c 0,2.04992 2.205504,4.54392 4.501721,5.12481 l 77.639298,22.54914 75.480956,-22.09816 c 2.29622,-0.58089 4.44003,-3.18979 4.44003,-5.23971 V 91.273897 Z" />
    <path
       id="path11415"
       style="fill:#f7fee7;fill-opacity:1;stroke:none;stroke-width:0.689376;stroke-linecap:round;stroke-linejoin:round;stroke-miterlimit:4;stroke-dasharray:none;stroke-opacity:1"
       d="m 15.416507,91.720057 6e-6,70.999993 c 0,2 2.178381,4.43326 4.446362,5.00001 l 75.588149,21.99999 75.588176,-21.99999 c 2.26797,-0.56675 4.44635,-3.00001 4.44635,-5.00001 V 91.720057 Z" />
    <path
       id="rect11417"
       style="fill:#365314;stroke-width:0.944659"
       d="M 45.451031,91.720055 H 145.45103 V 155.97202 H 45.451031 Z" />
    <g
       aria-label="AMBIENTAL"
       id="text11421"
       style="font-size:7.99997px;line-height:1.25;font-family:'Work Sans';-inkscape-font-specification:'Work Sans';fill:#1a2e05;stroke-width:0.2">
      <path
         d="M 77.844856,166.58461 H 76.70086 l -0.439998,-1.288 H 74.23687 l -0.439999,1.288 h -1.127995 l 1.927992,-5.27998 h 1.319995 z m -3.359987,-2.10399 h 1.527994 l -0.767997,-2.30399 z"
         style="font-weight:600;-inkscape-font-specification:'Work Sans Semi-Bold'"
         id="path673" />
      <path
         d="m 84.372828,161.30463 v 5.27998 h -0.999996 v -2.75199 l 0.056,-1.54399 h -0.016 l -1.463995,4.29598 h -0.903996 l -1.455995,-4.29598 h -0.016 l 0.056,1.54399 v 2.75199 H 78.62885 v -5.27998 h 1.599994 l 0.951996,2.87999 0.335999,1.19199 h 0.016 l 0.343998,-1.18399 0.943997,-2.88799 z"
         style="font-weight:600;-inkscape-font-specification:'Work Sans Semi-Bold'"
         id="path675" />
      <path
         d="m 85.748818,166.58461 v -5.27998 h 2.311991 q 0.959997,0 1.415995,0.376 0.455998,0.376 0.455998,1.06399 0,0.424 -0.255999,0.752 -0.255999,0.328 -0.751997,0.416 v 0.008 q 0.551998,0.08 0.847997,0.416 0.295999,0.336 0.295999,0.8 0,0.67999 -0.495998,1.06399 -0.487999,0.384 -1.431995,0.384 z m 1.071996,-0.832 h 1.223995 q 0.447999,0 0.663998,-0.184 0.215999,-0.184 0.215999,-0.51199 0,-0.336 -0.215999,-0.512 -0.215999,-0.176 -0.663998,-0.176 h -1.223995 z m 0,-2.23199 h 1.095996 q 0.871997,0 0.871997,-0.68 0,-0.67999 -0.871997,-0.67999 h -1.095996 z"
         style="font-weight:600;-inkscape-font-specification:'Work Sans Semi-Bold'"
         id="path677" />
      <path
         d="m 92.228801,161.30463 v 5.27998 h -1.103996 v -5.27998 z"
         style="font-weight:600;-inkscape-font-specification:'Work Sans Semi-Bold'"
         id="path679" />
      <path
         d="m 93.604791,166.58461 v -5.27998 h 3.959985 v 0.888 h -2.855989 v 1.31199 h 2.247992 v 0.848 h -2.247992 v 1.34399 h 2.967989 v 0.888 z"
         style="font-weight:600;-inkscape-font-specification:'Work Sans Semi-Bold'"
         id="path681" />
      <path
         d="m 103.20475,161.30463 v 5.27998 h -1.26399 l -1.848,-3.10399 -0.455996,-0.864 h -0.008 l 0.032,0.912 v 3.05599 h -0.991996 v -5.27998 h 1.255995 l 1.847997,3.09599 0.45599,0.87199 h 0.016 l -0.032,-0.91199 v -3.05599 z"
         style="font-weight:600;-inkscape-font-specification:'Work Sans Semi-Bold'"
         id="path683" />
      <path
         d="m 108.75673,161.30463 v 0.888 h -1.76799 v 4.39198 h -1.104 v -4.39198 h -1.77599 v -0.888 z"
         style="font-weight:600;-inkscape-font-specification:'Work Sans Semi-Bold'"
         id="path685" />
      <path
         d="m 113.5612,166.58461 h -1.144 l -0.43999,-1.288 h -2.024 l -0.44,1.288 h -1.12799 l 1.92799,-5.27998 h 1.32 z m -3.35999,-2.10399 h 1.528 l -0.768,-2.30399 z"
         style="font-weight:600;-inkscape-font-specification:'Work Sans Semi-Bold'"
         id="path687" />
      <path
         d="m 115.44919,165.69661 h 2.78399 v 0.888 h -3.88799 v -5.27998 h 1.104 z"
         style="font-weight:600;-inkscape-font-specification:'Work Sans Semi-Bold'"
         id="path689" />
    </g>
    <path
       style="fill:none;stroke:#1a2e05;stroke-width:0.685248;stroke-linecap:butt;stroke-linejoin:miter;stroke-miterlimit:4;stroke-dasharray:none;stroke-opacity:1"
       d="M 35.451032,157.81136 H 155.45103"
       id="path11423" />
    <g
       aria-label="“Conocimiento que agrega valor”"
       id="text11427"
       style="font-size:5.33334px;line-height:1.25;font-family:'Work Sans';-inkscape-font-specification:'Work Sans';fill:#1a2e05;stroke-width:0.2">
      <path
         d="m 52.500565,169.734 q -0.218667,0 -0.352001,-0.13333 -0.128,-0.13867 -0.128,-0.35734 0,-0.26666 0.144,-0.50666 0.144001,-0.24 0.378668,-0.41067 0.24,-0.176 0.517334,-0.23467 l 0.170666,0.31467 q -0.202666,0.032 -0.357333,0.11733 -0.149334,0.0853 -0.250667,0.192 -0.101334,0.10134 -0.144,0.192 l 0.01067,0.016 q 0.02133,-0.0107 0.05333,-0.016 0.03733,-0.0107 0.08,-0.0107 0.165333,0 0.256,0.10666 0.09067,0.10134 0.09067,0.25067 0,0.208 -0.133334,0.34667 -0.128,0.13333 -0.336,0.13333 z m 1.173335,0 q -0.218667,0 -0.352001,-0.13333 -0.128,-0.13867 -0.128,-0.35734 0,-0.26666 0.144,-0.50666 0.144,-0.24 0.378667,-0.41067 0.240001,-0.176 0.517334,-0.23467 l 0.170667,0.31467 q -0.202667,0.032 -0.357333,0.11733 -0.149334,0.0853 -0.250667,0.192 -0.101334,0.10134 -0.144001,0.192 l 0.01067,0.016 q 0.02133,-0.0107 0.05333,-0.016 0.03733,-0.0107 0.08,-0.0107 0.165333,0 0.256,0.10666 0.09067,0.10134 0.09067,0.25067 0,0.208 -0.133334,0.34667 -0.128,0.13333 -0.336,0.13333 z"
         style="font-style:italic;font-weight:600;-inkscape-font-specification:'Work Sans Semi-Bold Italic'"
         id="path616" />
      <path
         d="m 56.084575,171.85134 q -0.437334,0 -0.789334,-0.176 -0.352001,-0.18134 -0.560001,-0.51734 -0.202667,-0.34133 -0.202667,-0.82133 0,-0.432 0.122667,-0.81067 0.122667,-0.37867 0.362667,-0.672 0.240001,-0.29333 0.586668,-0.45867 0.352,-0.17066 0.800001,-0.17066 0.378667,0 0.666667,0.12266 0.293334,0.12267 0.485334,0.368 0.192,0.24 0.266667,0.59734 L 57.09791,169.494 q -0.05333,-0.34667 -0.229334,-0.50667 -0.176,-0.16 -0.490667,-0.16 -0.277334,0 -0.485334,0.13867 -0.202667,0.13333 -0.341334,0.352 -0.133333,0.21867 -0.202667,0.48533 -0.06933,0.26134 -0.06933,0.51734 0,0.29333 0.106667,0.50133 0.106667,0.20267 0.298667,0.31467 0.192,0.112 0.442667,0.112 0.304,0 0.474667,-0.144 0.176,-0.144 0.293334,-0.37867 l 0.672001,0.272 q -0.229334,0.39467 -0.586668,0.624 -0.352,0.22934 -0.896001,0.22934 z"
         style="font-style:italic;font-weight:600;-inkscape-font-specification:'Work Sans Semi-Bold Italic'"
         id="path618" />
      <path
         d="m 59.284587,171.846 q -0.394667,0 -0.682668,-0.15466 -0.282667,-0.16 -0.437334,-0.432 -0.154666,-0.27734 -0.154666,-0.61867 0,-0.44267 0.176,-0.79467 0.181333,-0.352 0.506667,-0.55467 0.330667,-0.208 0.784001,-0.208 0.405334,0 0.688001,0.16 0.282667,0.15467 0.432001,0.42667 0.154666,0.272 0.154666,0.61334 0,0.43733 -0.176,0.79466 -0.176,0.352 -0.506667,0.56 -0.325334,0.208 -0.784001,0.208 z m 0.016,-0.53866 q 0.154667,0 0.288,-0.0853 0.133334,-0.0853 0.234667,-0.23466 0.101334,-0.15467 0.154667,-0.34667 0.05333,-0.192 0.05333,-0.39467 0,-0.18666 -0.064,-0.32533 -0.064,-0.13867 -0.192,-0.21867 -0.122667,-0.08 -0.314667,-0.08 -0.154667,0 -0.293334,0.0853 -0.133333,0.0853 -0.234667,0.23467 -0.096,0.14934 -0.149333,0.34134 -0.05333,0.192 -0.05333,0.4 0,0.176 0.064,0.32 0.064,0.144 0.192,0.224 0.128,0.08 0.314667,0.08 z"
         style="font-style:italic;font-weight:600;-inkscape-font-specification:'Work Sans Semi-Bold Italic'"
         id="path620" />
      <path
         d="m 61.039253,171.798 0.618668,-2.66667 h 0.645334 l -0.122667,0.75734 -0.05333,-0.0587 q 0.112,-0.368 0.394667,-0.56 0.282667,-0.192 0.640001,-0.192 0.293333,0 0.496,0.128 0.202667,0.128 0.282667,0.368 0.08,0.23467 0.0053,0.57067 l -0.384001,1.65333 h -0.730668 l 0.368001,-1.584 q 0.05867,-0.26133 -0.05333,-0.41067 -0.106667,-0.14933 -0.341334,-0.14933 -0.181334,0 -0.320001,0.0853 -0.138666,0.08 -0.234667,0.24001 -0.096,0.15466 -0.154666,0.39466 l -0.325334,1.424 z"
         style="font-style:italic;font-weight:600;-inkscape-font-specification:'Work Sans Semi-Bold Italic'"
         id="path622" />
      <path
         d="m 65.694731,171.846 q -0.394667,0 -0.682668,-0.15466 -0.282667,-0.16 -0.437334,-0.432 -0.154667,-0.27734 -0.154667,-0.61867 0,-0.44267 0.176001,-0.79467 0.181333,-0.352 0.506667,-0.55467 0.330667,-0.208 0.784001,-0.208 0.405334,0 0.688001,0.16 0.282667,0.15467 0.432,0.42667 0.154667,0.272 0.154667,0.61334 0,0.43733 -0.176,0.79466 -0.176,0.352 -0.506667,0.56 -0.325334,0.208 -0.784001,0.208 z m 0.016,-0.53866 q 0.154667,0 0.288,-0.0853 0.133334,-0.0853 0.234667,-0.23466 0.101333,-0.15467 0.154667,-0.34667 0.05333,-0.192 0.05333,-0.39467 0,-0.18666 -0.064,-0.32533 -0.064,-0.13867 -0.192,-0.21867 -0.122667,-0.08 -0.314667,-0.08 -0.154667,0 -0.293334,0.0853 -0.133333,0.0853 -0.234667,0.23467 -0.096,0.14934 -0.149333,0.34134 -0.05333,0.192 -0.05333,0.4 0,0.176 0.064,0.32 0.064,0.144 0.192001,0.224 0.128,0.08 0.314667,0.08 z"
         style="font-style:italic;font-weight:600;-inkscape-font-specification:'Work Sans Semi-Bold Italic'"
         id="path624" />
      <path
         d="m 68.894732,171.846 q -0.4,0 -0.688001,-0.15466 -0.288,-0.16 -0.442667,-0.432 -0.149333,-0.27734 -0.149333,-0.61867 0,-0.44267 0.176,-0.79467 0.176,-0.352 0.506667,-0.55467 0.336001,-0.208 0.800001,-0.208 0.341334,0 0.597334,0.11734 0.261334,0.112 0.410667,0.32 0.149334,0.208 0.176001,0.48 l -0.714668,0.128 q 0,-0.21867 -0.117333,-0.35734 -0.112001,-0.144 -0.368001,-0.144 -0.170667,0 -0.309334,0.0853 -0.133333,0.0853 -0.234667,0.23467 -0.101333,0.14933 -0.154666,0.34133 -0.048,0.192 -0.048,0.39467 0,0.18666 0.064,0.33066 0.06933,0.13867 0.197333,0.21867 0.128,0.0747 0.314667,0.0747 0.170667,0 0.314667,-0.10134 0.144,-0.10133 0.208001,-0.28266 l 0.666667,0.224 q -0.149333,0.33066 -0.469334,0.51733 -0.314667,0.18133 -0.736001,0.18133 z"
         style="font-style:italic;font-weight:600;-inkscape-font-specification:'Work Sans Semi-Bold Italic'"
         id="path626" />
      <path
         d="m 71.524074,168.74733 q -0.192,0 -0.304,-0.0907 -0.112,-0.0907 -0.096,-0.26667 0.016,-0.21867 0.138666,-0.32 0.128001,-0.10667 0.336001,-0.10667 0.197333,0 0.309334,0.0907 0.112,0.0907 0.096,0.26133 -0.016,0.22934 -0.144,0.33067 -0.128001,0.10133 -0.336001,0.10133 z m 0.229334,0.384 -0.618668,2.66667 h -0.730667 l 0.618667,-2.66667 z"
         style="font-style:italic;font-weight:600;-inkscape-font-specification:'Work Sans Semi-Bold Italic'"
         id="path628" />
      <path
         d="m 71.88141,171.798 0.618667,-2.66667 h 0.645334 l -0.122667,0.75734 -0.05333,-0.0587 q 0.112,-0.368 0.389334,-0.56 0.282667,-0.192 0.640001,-0.192 0.282667,0 0.474667,0.128 0.197334,0.128 0.277334,0.368 0.08,0.24 0,0.576 l -0.384001,1.648 h -0.730667 l 0.368,-1.57866 q 0.064,-0.26667 -0.03733,-0.41601 -0.101334,-0.14933 -0.325334,-0.14933 -0.181334,0 -0.320001,0.0853 -0.138666,0.08 -0.234667,0.24001 -0.09067,0.15466 -0.149333,0.39466 l -0.325334,1.424 z m 3.514671,0 0.362667,-1.57866 q 0.064,-0.26667 -0.03733,-0.41601 -0.101334,-0.14933 -0.320001,-0.14933 -0.181333,0 -0.32,0.0853 -0.138667,0.08 -0.234667,0.24001 -0.096,0.15466 -0.149334,0.39466 l -0.05333,-0.464 q 0.138667,-0.41067 0.432,-0.61867 0.298667,-0.21333 0.666668,-0.21333 0.288,0 0.485334,0.128 0.197333,0.128 0.277334,0.368 0.08,0.24 0.0053,0.576 l -0.384001,1.648 z"
         style="font-style:italic;font-weight:600;-inkscape-font-specification:'Work Sans Semi-Bold Italic'"
         id="path630" />
      <path
         d="m 77.97742,168.74733 q -0.192,0 -0.304,-0.0907 -0.112,-0.0907 -0.096,-0.26667 0.016,-0.21867 0.138667,-0.32 0.128,-0.10667 0.336,-0.10667 0.197334,0 0.309334,0.0907 0.112,0.0907 0.096,0.26133 -0.016,0.22934 -0.144,0.33067 -0.128,0.10133 -0.336001,0.10133 z m 0.229334,0.384 -0.618667,2.66667 h -0.730668 l 0.618667,-2.66667 z"
         style="font-style:italic;font-weight:600;-inkscape-font-specification:'Work Sans Semi-Bold Italic'"
         id="path632" />
      <path
         d="m 79.764091,171.846 q -0.384,0 -0.672001,-0.15466 -0.282667,-0.15467 -0.442667,-0.42667 -0.154667,-0.272 -0.154667,-0.624 0,-0.43733 0.176,-0.78934 0.176001,-0.352 0.506668,-0.56 0.330667,-0.208 0.794667,-0.208 0.368001,0 0.624001,0.144 0.261334,0.144 0.394667,0.41067 0.138667,0.26667 0.138667,0.63467 0,0.10667 -0.01067,0.21867 -0.01067,0.10666 -0.04267,0.21333 H 78.942757 V 170.198 h 1.685335 l -0.229334,0.14934 q 0.02133,-0.0693 0.02667,-0.12267 0.0053,-0.0587 0.0053,-0.112 0,-0.16 -0.05867,-0.26667 -0.05867,-0.112 -0.165334,-0.17067 -0.106667,-0.0587 -0.256,-0.0587 -0.218667,0 -0.368001,0.096 -0.144,0.096 -0.234667,0.256 -0.08533,0.15467 -0.122666,0.34133 -0.03733,0.18667 -0.03733,0.368 0,0.19734 0.07467,0.34134 0.08,0.13866 0.218667,0.21866 0.138667,0.0747 0.325334,0.0747 0.218667,0 0.357334,-0.096 0.138666,-0.10133 0.218666,-0.25067 l 0.597335,0.26667 q -0.101334,0.192 -0.282667,0.33067 -0.176001,0.13333 -0.416001,0.208 -0.234667,0.0747 -0.517334,0.0747 z"
         style="font-style:italic;font-weight:600;-inkscape-font-specification:'Work Sans Semi-Bold Italic'"
         id="path634" />
      <path
         d="m 81.417422,171.798 0.618668,-2.66667 h 0.645334 l -0.122667,0.75734 -0.05333,-0.0587 q 0.112,-0.368 0.394667,-0.56 0.282667,-0.192 0.640001,-0.192 0.293333,0 0.496,0.128 0.202667,0.128 0.282667,0.368 0.08,0.23467 0.0053,0.57067 l -0.384001,1.65333 h -0.730667 l 0.368,-1.584 q 0.05867,-0.26133 -0.05333,-0.41067 -0.106667,-0.14933 -0.341334,-0.14933 -0.181334,0 -0.320001,0.0853 -0.138666,0.08 -0.234667,0.24001 -0.096,0.15466 -0.154666,0.39466 l -0.325334,1.424 z"
         style="font-style:italic;font-weight:600;-inkscape-font-specification:'Work Sans Semi-Bold Italic'"
         id="path636" />
      <path
         d="m 85.890288,171.846 q -0.298667,0 -0.512001,-0.112 -0.213334,-0.112 -0.298667,-0.32533 -0.08533,-0.21333 -0.016,-0.528 l 0.533334,-2.32534 0.784001,-0.21333 -0.592001,2.53334 q -0.05333,0.224 0.05867,0.33066 0.112,0.10134 0.304,0.10134 0.128001,0 0.213334,-0.0267 0.08533,-0.0267 0.154667,-0.0693 l -0.0053,0.496 q -0.138666,0.0747 -0.298667,0.10666 -0.154666,0.032 -0.325333,0.032 z m -1.061335,-2.17067 0.128,-0.544 h 2.005336 l -0.128,0.544 z"
         style="font-style:italic;font-weight:600;-inkscape-font-specification:'Work Sans Semi-Bold Italic'"
         id="path638" />
      <path
         d="m 88.362831,171.846 q -0.394667,0 -0.682668,-0.15466 -0.282667,-0.16 -0.437333,-0.432 -0.154667,-0.27734 -0.154667,-0.61867 0,-0.44267 0.176,-0.79467 0.181334,-0.352 0.506667,-0.55467 0.330667,-0.208 0.784001,-0.208 0.405334,0 0.688001,0.16 0.282667,0.15467 0.432001,0.42667 0.154667,0.272 0.154667,0.61334 0,0.43733 -0.176001,0.79466 -0.176,0.352 -0.506667,0.56 -0.325334,0.208 -0.784001,0.208 z m 0.016,-0.53866 q 0.154667,0 0.288,-0.0853 0.133334,-0.0853 0.234667,-0.23466 0.101334,-0.15467 0.154667,-0.34667 0.05333,-0.192 0.05333,-0.39467 0,-0.18666 -0.064,-0.32533 -0.064,-0.13867 -0.192001,-0.21867 -0.122666,-0.08 -0.314667,-0.08 -0.154667,0 -0.293333,0.0853 -0.133334,0.0853 -0.234667,0.23467 -0.096,0.14934 -0.149334,0.34134 -0.05333,0.192 -0.05333,0.4 0,0.176 0.064,0.32 0.064,0.144 0.192,0.224 0.128,0.08 0.314667,0.08 z"
         style="font-style:italic;font-weight:600;-inkscape-font-specification:'Work Sans Semi-Bold Italic'"
         id="path640" />
      <path
         d="m 93.30683,172.91801 0.437334,-1.89334 0.04267,0.0267 q -0.101334,0.36266 -0.357334,0.58133 -0.250667,0.21333 -0.576001,0.21333 -0.277334,0 -0.501334,-0.13333 -0.218667,-0.13333 -0.346667,-0.37867 -0.122667,-0.25066 -0.122667,-0.59733 0,-0.33067 0.096,-0.62933 0.096,-0.29867 0.272001,-0.52801 0.176,-0.23466 0.421334,-0.368 0.245333,-0.13333 0.544,-0.13333 0.229334,0 0.416001,0.096 0.186667,0.0907 0.298667,0.272 0.117333,0.18133 0.122667,0.448 l -0.08533,0.10134 0.202667,-0.86401 h 0.730668 l -0.880001,3.78668 z m -0.165333,-1.62667 q 0.16,0 0.293333,-0.0853 0.133334,-0.0907 0.229334,-0.24 0.101333,-0.15466 0.154667,-0.34133 0.05333,-0.192 0.05333,-0.39467 0,-0.18133 -0.064,-0.31466 -0.064,-0.13334 -0.181334,-0.20267 -0.112,-0.0747 -0.266667,-0.0747 -0.176,0 -0.314667,0.0907 -0.138666,0.0853 -0.24,0.23467 -0.096,0.14933 -0.149333,0.336 -0.05333,0.18133 -0.05333,0.37333 0,0.192 0.064,0.33067 0.064,0.13866 0.181334,0.21333 0.122667,0.0747 0.293334,0.0747 z"
         style="font-style:italic;font-weight:600;-inkscape-font-specification:'Work Sans Semi-Bold Italic'"
         id="path642" />
      <path
         d="m 96.026839,171.846 q -0.288001,0 -0.496001,-0.12266 -0.202667,-0.128 -0.293334,-0.36267 -0.08533,-0.23467 -0.01067,-0.56533 l 0.384,-1.66401 h 0.730668 L 95.978839,170.71 q -0.064,0.272 0.048,0.416 0.117333,0.144 0.346667,0.144 0.186667,0 0.32,-0.08 0.133334,-0.0853 0.224001,-0.24 0.096,-0.16 0.149333,-0.39466 l 0.330667,-1.42401 h 0.730668 l -0.618668,2.66667 h -0.645334 l 0.122667,-0.75733 0.048,0.0587 q -0.112,0.368 -0.384,0.56 -0.272001,0.18666 -0.624001,0.18666 z"
         style="font-style:italic;font-weight:600;-inkscape-font-specification:'Work Sans Semi-Bold Italic'"
         id="path644" />
      <path
         d="m 99.685516,171.846 q -0.384001,0 -0.672001,-0.15466 -0.282667,-0.15467 -0.442667,-0.42667 -0.154667,-0.272 -0.154667,-0.624 0,-0.43733 0.176,-0.78934 0.176,-0.352 0.506667,-0.56 0.330668,-0.208 0.794668,-0.208 0.368004,0 0.624004,0.144 0.26133,0.144 0.39466,0.41067 0.13867,0.26667 0.13867,0.63467 0,0.10667 -0.0107,0.21867 -0.0107,0.10666 -0.0427,0.21333 H 98.864181 V 170.198 h 1.685339 l -0.22934,0.14934 q 0.0213,-0.0693 0.0267,-0.12267 0.005,-0.0587 0.005,-0.112 0,-0.16 -0.0587,-0.26667 -0.0587,-0.112 -0.16534,-0.17067 -0.10666,-0.0587 -0.255997,-0.0587 -0.218667,0 -0.368001,0.096 -0.144,0.096 -0.234667,0.256 -0.08533,0.15467 -0.122666,0.34133 -0.03733,0.18667 -0.03733,0.368 0,0.19734 0.07467,0.34134 0.08,0.13866 0.218667,0.21866 0.138667,0.0747 0.325334,0.0747 0.218667,0 0.357337,-0.096 0.13866,-0.10133 0.21866,-0.25067 l 0.59734,0.26667 q -0.10134,0.192 -0.28267,0.33067 -0.176,0.13333 -0.416,0.208 -0.234667,0.0747 -0.517334,0.0747 z"
         style="font-style:italic;font-weight:600;-inkscape-font-specification:'Work Sans Semi-Bold Italic'"
         id="path646" />
      <path
         d="m 104.07484,171.846 q -0.28266,0 -0.50133,-0.13333 -0.21867,-0.13867 -0.34667,-0.384 -0.12266,-0.24533 -0.12266,-0.592 0,-0.32533 0.096,-0.624 0.096,-0.29867 0.26666,-0.528 0.176,-0.23467 0.42134,-0.368 0.25066,-0.13867 0.54933,-0.13867 0.19733,0 0.368,0.0693 0.17067,0.0693 0.288,0.208 0.11734,0.13867 0.16534,0.352 l 0.13333,-0.576 h 0.73067 l -0.61867,2.66667 h -0.66134 l 0.0907,-0.50133 q -0.128,0.25067 -0.35733,0.4 -0.22934,0.14933 -0.50134,0.14933 z m 0.29334,-0.55466 q 0.14933,0 0.28266,-0.0853 0.13334,-0.0907 0.22934,-0.24 0.10133,-0.15466 0.15467,-0.34133 0.0587,-0.192 0.0587,-0.39467 0,-0.18133 -0.064,-0.31466 -0.064,-0.13334 -0.18133,-0.20267 -0.112,-0.0747 -0.26667,-0.0747 -0.176,0 -0.31467,0.0907 -0.13866,0.0853 -0.24,0.23467 -0.096,0.14933 -0.14933,0.336 -0.0533,0.18133 -0.0533,0.37333 0,0.192 0.0587,0.33067 0.064,0.13866 0.18134,0.21333 0.12266,0.0747 0.304,0.0747 z"
         style="font-style:italic;font-weight:600;-inkscape-font-specification:'Work Sans Semi-Bold Italic'"
         id="path648" />
      <path
         d="m 107.30685,172.94467 q -0.23466,0 -0.448,-0.064 -0.21333,-0.0587 -0.37866,-0.176 -0.16534,-0.11733 -0.26667,-0.29333 -0.096,-0.17067 -0.112,-0.4 l 0.73067,-0.11734 q 0.0267,0.256 0.144,0.4 0.12266,0.144 0.41066,0.144 0.15467,0 0.288,-0.064 0.13867,-0.064 0.24,-0.21333 0.10667,-0.14933 0.16534,-0.416 l 0.17066,-0.76267 0.0587,-0.0213 q -0.0853,0.36267 -0.33067,0.57067 -0.24533,0.20266 -0.592,0.20266 -0.28266,0 -0.512,-0.13333 -0.224,-0.13867 -0.352,-0.384 -0.128,-0.25067 -0.128,-0.57067 0,-0.32533 0.096,-0.608 0.096,-0.28267 0.272,-0.496 0.176,-0.21867 0.416,-0.34133 0.24534,-0.12267 0.53867,-0.12267 0.22933,0 0.416,0.096 0.192,0.096 0.30933,0.288 0.11734,0.18667 0.11734,0.464 l -0.096,0.10134 0.208,-0.89601 h 0.73067 l -0.60267,2.58134 q -0.10667,0.45333 -0.31467,0.72 -0.20267,0.272 -0.50133,0.38934 -0.29334,0.12266 -0.67734,0.12266 z m 0.37334,-1.76 q 0.20266,0 0.35733,-0.13333 0.15467,-0.13334 0.24533,-0.352 0.0907,-0.21867 0.0907,-0.47467 0,-0.18133 -0.064,-0.30933 -0.064,-0.13334 -0.18133,-0.20267 -0.11734,-0.0747 -0.27734,-0.0747 -0.224,0 -0.38933,0.13333 -0.16,0.12801 -0.25067,0.34134 -0.0907,0.21333 -0.0907,0.464 0,0.26667 0.144,0.43733 0.144,0.17067 0.416,0.17067 z"
         style="font-style:italic;font-weight:600;-inkscape-font-specification:'Work Sans Semi-Bold Italic'"
         id="path650" />
      <path
         d="m 109.52552,171.798 0.61867,-2.66667 h 0.63467 l -0.128,0.83734 -0.048,-0.0693 q 0.0853,-0.25067 0.22933,-0.43201 0.144,-0.18666 0.34133,-0.288 0.19734,-0.10133 0.42667,-0.10133 0.0907,0 0.14933,0.0107 0.064,0.0107 0.112,0.0373 l -0.18666,0.63467 q -0.0533,-0.0267 -0.12267,-0.0427 -0.0693,-0.016 -0.17067,-0.016 -0.18133,0 -0.34666,0.0853 -0.16534,0.08 -0.288,0.25067 -0.12267,0.17067 -0.18667,0.448 l -0.304,1.312 z"
         style="font-style:italic;font-weight:600;-inkscape-font-specification:'Work Sans Semi-Bold Italic'"
         id="path652" />
      <path
         d="m 113.08862,171.846 q -0.384,0 -0.672,-0.15466 -0.28267,-0.15467 -0.44267,-0.42667 -0.15467,-0.272 -0.15467,-0.624 0,-0.43733 0.176,-0.78934 0.176,-0.352 0.50667,-0.56 0.33067,-0.208 0.79467,-0.208 0.368,0 0.624,0.144 0.26133,0.144 0.39467,0.41067 0.13866,0.26667 0.13866,0.63467 0,0.10667 -0.0107,0.21867 -0.0107,0.10666 -0.0427,0.21333 h -2.13334 V 170.198 h 1.68534 l -0.22933,0.14934 q 0.0213,-0.0693 0.0267,-0.12267 0.005,-0.0587 0.005,-0.112 0,-0.16 -0.0587,-0.26667 -0.0587,-0.112 -0.16533,-0.17067 -0.10667,-0.0587 -0.256,-0.0587 -0.21867,0 -0.368,0.096 -0.144,0.096 -0.23467,0.256 -0.0853,0.15467 -0.12267,0.34133 -0.0373,0.18667 -0.0373,0.368 0,0.19734 0.0747,0.34134 0.08,0.13866 0.21867,0.21866 0.13867,0.0747 0.32534,0.0747 0.21866,0 0.35733,-0.096 0.13867,-0.10133 0.21867,-0.25067 l 0.59733,0.26667 q -0.10133,0.192 -0.28267,0.33067 -0.176,0.13333 -0.416,0.208 -0.23466,0.0747 -0.51733,0.0747 z"
         style="font-style:italic;font-weight:600;-inkscape-font-specification:'Work Sans Semi-Bold Italic'"
         id="path654" />
      <path
         d="m 115.80328,172.94467 q -0.23466,0 -0.448,-0.064 -0.21333,-0.0587 -0.37866,-0.176 -0.16534,-0.11733 -0.26667,-0.29333 -0.096,-0.17067 -0.112,-0.4 l 0.73067,-0.11734 q 0.0267,0.256 0.144,0.4 0.12266,0.144 0.41066,0.144 0.15467,0 0.288,-0.064 0.13867,-0.064 0.24,-0.21333 0.10667,-0.14933 0.16534,-0.416 l 0.17066,-0.76267 0.0587,-0.0213 q -0.0853,0.36267 -0.33067,0.57067 -0.24533,0.20266 -0.592,0.20266 -0.28266,0 -0.512,-0.13333 -0.224,-0.13867 -0.352,-0.384 -0.128,-0.25067 -0.128,-0.57067 0,-0.32533 0.096,-0.608 0.096,-0.28267 0.272,-0.496 0.176,-0.21867 0.416,-0.34133 0.24534,-0.12267 0.53867,-0.12267 0.22933,0 0.416,0.096 0.192,0.096 0.30933,0.288 0.11734,0.18667 0.11734,0.464 l -0.096,0.10134 0.208,-0.89601 h 0.73067 l -0.60267,2.58134 q -0.10667,0.45333 -0.31467,0.72 -0.20267,0.272 -0.50133,0.38934 -0.29334,0.12266 -0.67734,0.12266 z m 0.37334,-1.76 q 0.20266,0 0.35733,-0.13333 0.15467,-0.13334 0.24533,-0.352 0.0907,-0.21867 0.0907,-0.47467 0,-0.18133 -0.064,-0.30933 -0.064,-0.13334 -0.18133,-0.20267 -0.11734,-0.0747 -0.27734,-0.0747 -0.224,0 -0.38933,0.13333 -0.16,0.12801 -0.25067,0.34134 -0.0907,0.21333 -0.0907,0.464 0,0.26667 0.144,0.43733 0.144,0.17067 0.416,0.17067 z"
         style="font-style:italic;font-weight:600;-inkscape-font-specification:'Work Sans Semi-Bold Italic'"
         id="path656" />
      <path
         d="m 119.14195,171.846 q -0.28266,0 -0.50133,-0.13333 -0.21867,-0.13867 -0.34667,-0.384 -0.12267,-0.24533 -0.12267,-0.592 0,-0.32533 0.096,-0.624 0.096,-0.29867 0.26667,-0.528 0.176,-0.23467 0.42134,-0.368 0.25066,-0.13867 0.54933,-0.13867 0.19733,0 0.368,0.0693 0.17067,0.0693 0.288,0.208 0.11733,0.13867 0.16533,0.352 l 0.13334,-0.576 h 0.73066 l -0.61866,2.66667 h -0.66134 l 0.0907,-0.50133 q -0.128,0.25067 -0.35733,0.4 -0.22934,0.14933 -0.50134,0.14933 z m 0.29334,-0.55466 q 0.14933,0 0.28266,-0.0853 0.13334,-0.0907 0.22934,-0.24 0.10133,-0.15466 0.15466,-0.34133 0.0587,-0.192 0.0587,-0.39467 0,-0.18133 -0.064,-0.31466 -0.064,-0.13334 -0.18133,-0.20267 -0.112,-0.0747 -0.26667,-0.0747 -0.176,0 -0.31467,0.0907 -0.13866,0.0853 -0.24,0.23467 -0.096,0.14933 -0.14933,0.336 -0.0533,0.18133 -0.0533,0.37333 0,0.192 0.0587,0.33067 0.064,0.13866 0.18134,0.21333 0.12266,0.0747 0.304,0.0747 z"
         style="font-style:italic;font-weight:600;-inkscape-font-specification:'Work Sans Semi-Bold Italic'"
         id="path658" />
      <path
         d="m 125.0561,169.13133 h 0.816 l -1.59467,2.66667 h -0.848 l -0.37867,-2.66667 h 0.72 l 0.208,2.42134 -0.15466,-0.0267 z"
         style="font-style:italic;font-weight:600;-inkscape-font-specification:'Work Sans Semi-Bold Italic'"
         id="path660" />
      <path
         d="m 126.82708,171.846 q -0.28267,0 -0.50133,-0.13333 -0.21867,-0.13867 -0.34667,-0.384 -0.12267,-0.24533 -0.12267,-0.592 0,-0.32533 0.096,-0.624 0.096,-0.29867 0.26667,-0.528 0.176,-0.23467 0.42133,-0.368 0.25067,-0.13867 0.54934,-0.13867 0.19733,0 0.368,0.0693 0.17066,0.0693 0.288,0.208 0.11733,0.13867 0.16533,0.352 l 0.13333,-0.576 h 0.73067 l -0.61867,2.66667 h -0.66133 l 0.0907,-0.50133 q -0.128,0.25067 -0.35734,0.4 -0.22933,0.14933 -0.50133,0.14933 z m 0.29333,-0.55466 q 0.14934,0 0.28267,-0.0853 0.13333,-0.0907 0.22933,-0.24 0.10134,-0.15466 0.15467,-0.34133 0.0587,-0.192 0.0587,-0.39467 0,-0.18133 -0.064,-0.31466 -0.064,-0.13334 -0.18134,-0.20267 -0.112,-0.0747 -0.26666,-0.0747 -0.176,0 -0.31467,0.0907 -0.13867,0.0853 -0.24,0.23467 -0.096,0.14933 -0.14933,0.336 -0.0533,0.18133 -0.0533,0.37333 0,0.192 0.0587,0.33067 0.064,0.13866 0.18133,0.21333 0.12267,0.0747 0.304,0.0747 z"
         style="font-style:italic;font-weight:600;-inkscape-font-specification:'Work Sans Semi-Bold Italic'"
         id="path662" />
      <path
         d="m 129.87776,171.84067 q -0.43733,0 -0.61334,-0.24533 -0.176,-0.25067 -0.08,-0.66134 l 0.68801,-2.97067 h 0.73066 l -0.688,2.97067 q -0.048,0.192 0.0213,0.28267 0.0747,0.0907 0.256,0.0907 0.0693,0 0.12266,-0.005 0.0533,-0.005 0.0907,-0.016 l -0.13867,0.496 q -0.0853,0.032 -0.176,0.0427 -0.0907,0.016 -0.21333,0.016 z"
         style="font-style:italic;font-weight:600;-inkscape-font-specification:'Work Sans Semi-Bold Italic'"
         id="path664" />
      <path
         d="m 132.10069,171.846 q -0.39466,0 -0.68266,-0.15466 -0.28267,-0.16 -0.43734,-0.432 -0.15467,-0.27734 -0.15467,-0.61867 0,-0.44267 0.176,-0.79467 0.18134,-0.352 0.50667,-0.55467 0.33067,-0.208 0.784,-0.208 0.40534,0 0.688,0.16 0.28267,0.15467 0.432,0.42667 0.15467,0.272 0.15467,0.61334 0,0.43733 -0.176,0.79466 -0.176,0.352 -0.50667,0.56 -0.32533,0.208 -0.784,0.208 z m 0.016,-0.53866 q 0.15467,0 0.288,-0.0853 0.13334,-0.0853 0.23467,-0.23466 0.10133,-0.15467 0.15467,-0.34667 0.0533,-0.192 0.0533,-0.39467 0,-0.18666 -0.064,-0.32533 -0.064,-0.13867 -0.192,-0.21867 -0.12267,-0.08 -0.31467,-0.08 -0.15466,0 -0.29333,0.0853 -0.13333,0.0853 -0.23467,0.23467 -0.096,0.14934 -0.14933,0.34134 -0.0533,0.192 -0.0533,0.4 0,0.176 0.064,0.32 0.064,0.144 0.192,0.224 0.128,0.08 0.31466,0.08 z"
         style="font-style:italic;font-weight:600;-inkscape-font-specification:'Work Sans Semi-Bold Italic'"
         id="path666" />
      <path
         d="m 133.85536,171.798 0.61866,-2.66667 h 0.63467 l -0.128,0.83734 -0.048,-0.0693 q 0.0853,-0.25067 0.22933,-0.43201 0.144,-0.18666 0.34134,-0.288 0.19733,-0.10133 0.42666,-0.10133 0.0907,0 0.14934,0.0107 0.064,0.0107 0.112,0.0373 l -0.18667,0.63467 q -0.0533,-0.0267 -0.12267,-0.0427 -0.0693,-0.016 -0.17066,-0.016 -0.18134,0 -0.34667,0.0853 -0.16533,0.08 -0.288,0.25067 -0.12267,0.17067 -0.18667,0.448 l -0.304,1.312 z"
         style="font-style:italic;font-weight:600;-inkscape-font-specification:'Work Sans Semi-Bold Italic'"
         id="path668" />
      <path
         d="m 137.24416,168.09667 q 0.23466,0 0.34666,0.144 0.11734,0.13866 0.11734,0.352 0,0.24533 -0.128,0.48533 -0.12267,0.23467 -0.35734,0.416 -0.22933,0.176 -0.544,0.24533 l -0.18133,-0.31466 q 0.20267,-0.0373 0.352,-0.112 0.15467,-0.08 0.256,-0.18134 0.10667,-0.10666 0.15467,-0.21866 l -0.0107,-0.0107 q -0.032,0.016 -0.064,0.0267 -0.0267,0.005 -0.0853,0.005 -0.14934,0 -0.24534,-0.10667 -0.096,-0.112 -0.096,-0.26133 0,-0.21333 0.13867,-0.34133 0.13867,-0.128 0.34667,-0.128 z m 1.17333,0 q 0.23467,0 0.34667,0.144 0.11733,0.13866 0.11733,0.352 0,0.24533 -0.128,0.48533 -0.12266,0.23467 -0.35733,0.416 -0.22934,0.176 -0.544,0.24533 l -0.18134,-0.31466 q 0.20267,-0.0373 0.352,-0.112 0.15467,-0.08 0.256,-0.18134 0.10667,-0.10666 0.15467,-0.21866 l -0.0107,-0.0107 q -0.032,0.016 -0.064,0.0267 -0.0267,0.005 -0.0853,0.005 -0.14933,0 -0.24533,-0.10667 -0.096,-0.112 -0.096,-0.26133 0,-0.21333 0.13866,-0.34133 0.13867,-0.128 0.34667,-0.128 z"
         style="font-style:italic;font-weight:600;-inkscape-font-specification:'Work Sans Semi-Bold Italic'"
         id="path670" />
    </g>
    <g
       aria-label="JFA"
       id="text11431"
       style="font-size:61.2747px;line-height:1.25;font-family:'Work Sans';-inkscape-font-specification:'Work Sans';letter-spacing:-6.1913px;word-spacing:0px;fill:#ffffff;stroke-width:0.319139">
      <path
         d="m 65.629439,144.34243 q -3.063735,0 -5.392174,-1.04167 -2.328438,-1.10295 -3.676482,-3.06374 -1.286768,-1.96079 -1.531867,-4.65688 -0.245099,-2.69608 0.796571,-5.88237 l 2.879911,-0.18382 q -1.04167,3.61521 -0.612747,6.37257 0.428923,2.69609 2.389713,4.22795 2.022065,1.4706 5.392174,1.4706 4.289229,0 6.678942,-2.45099 2.389713,-2.51227 3.615207,-8.14954 l 6.372569,-27.63489 h 3.063735 l -6.556393,28.30891 q -0.857846,3.98286 -2.573537,6.86277 -1.654417,2.81864 -4.289229,4.3505 -2.634812,1.4706 -6.556393,1.4706 z"
         style="font-style:italic;font-weight:300;-inkscape-font-specification:'Work Sans Light Italic'"
         id="path609" />
      <path
         d="M 116.60741,106.16829 H 93.506851 l -3.615208,15.62505 h 19.117707 l -0.67402,2.87991 H 89.278896 l -4.473053,19.1177 h -3.063735 l 9.375029,-40.4413 h 26.164293 z"
         style="font-style:italic;font-weight:300;-inkscape-font-specification:'Work Sans Light Italic'"
         id="path611" />
      <path
         d="m 100.68688,143.79095 25.06135,-40.4413 h 3.8603 l 6.3113,40.4413 h -3.00246 l -2.08334,-12.92896 h -18.68879 l -7.96571,12.92896 z m 13.23533,-15.74759 h 16.48289 l -3.3701,-21.38487 z"
         style="font-style:italic;font-weight:300;-inkscape-font-specification:'Work Sans Light Italic'"
         id="path613" />
    </g>
  </g>
</svg>
