<?xml version="1.0" encoding="UTF-8" standalone="no"?>
<!-- Created with Inkscape (http://www.inkscape.org/) -->

<svg
   width="162.06903mm"
   height="100.44617mm"
   viewBox="0 0 162.06903 100.44617"
   version="1.1"
   id="svg29719"
   xmlns="http://www.w3.org/2000/svg"
   xmlns:svg="http://www.w3.org/2000/svg">
  <defs
     id="defs29716" />
  <g
     id="layer1"
     transform="translate(-16.289543,-69.367004)">
    <path
       id="path28182"
       style="fill:#082f49;fill-opacity:1;stroke:none;stroke-width:0.702258;stroke-linecap:round;stroke-linejoin:round;stroke-miterlimit:4;stroke-dasharray:none;stroke-opacity:1"
       d="m 16.289543,69.367004 7e-6,72.772216 c 0,2.04991 2.205504,4.54391 4.501721,5.12481 l 77.639298,22.54914 75.480951,-22.09816 c 2.29622,-0.5809 4.44003,-3.1898 4.44003,-5.23972 V 69.367004 Z" />
    <path
       id="path18306"
       style="fill:#f3f4f6;fill-opacity:1;stroke:none;stroke-width:0.689376;stroke-linecap:round;stroke-linejoin:round;stroke-miterlimit:4;stroke-dasharray:none;stroke-opacity:1"
       d="m 18.289541,69.813164 7e-6,70.999996 c 0,1.99999 2.178381,4.43325 4.446362,5 l 75.588149,22 75.588171,-22 c 2.26797,-0.56675 4.44635,-3.00001 4.44635,-5 V 69.813164 Z" />
    <path
       id="rect14746"
       style="fill:#082f49;stroke-width:0.944659"
       d="M 48.324066,69.813164 H 148.32407 V 134.06513 H 48.324066 Z" />
    <g
       aria-label="CONSULTORÍAS SAS."
       id="text4986"
       style="font-size:7.99997px;line-height:1.25;font-family:'Work Sans';-inkscape-font-specification:'Work Sans';fill:#082f49;stroke-width:0.2">
      <path
         d="m 62.851657,143.22174 q -0.151999,0.512 -0.479998,0.856 -0.327999,0.344 -0.775997,0.51199 -0.447998,0.168 -0.983996,0.168 -0.783997,0 -1.359995,-0.32799 -0.567998,-0.328 -0.879997,-0.936 -0.303999,-0.608 -0.303999,-1.456 0,-0.84799 0.303999,-1.45599 0.311999,-0.608 0.879997,-0.936 0.575998,-0.328 1.343995,-0.328 0.543998,0 0.983996,0.152 0.439998,0.144 0.743997,0.448 0.311999,0.304 0.455998,0.768 l -0.999996,0.424 q -0.135999,-0.48 -0.415998,-0.68 -0.279999,-0.208 -0.719998,-0.208 -0.431998,0 -0.759997,0.208 -0.319998,0.208 -0.495998,0.616 -0.175999,0.4 -0.175999,0.99199 0,0.584 0.159999,0.992 0.168,0.408 0.487998,0.616 0.319999,0.208 0.783997,0.208 0.431999,0 0.743998,-0.232 0.319998,-0.232 0.447998,-0.704 z"
         style="font-weight:600;-inkscape-font-specification:'Work Sans Semi-Bold'"
         id="path30142" />
      <path
         d="m 66.07565,139.31775 q 0.783997,0 1.351995,0.328 0.567997,0.328 0.871996,0.936 0.311999,0.608 0.311999,1.45599 0,0.848 -0.311999,1.456 -0.303999,0.608 -0.871996,0.936 -0.567998,0.32799 -1.351995,0.32799 -0.783997,0 -1.359995,-0.32799 -0.567998,-0.328 -0.879997,-0.936 -0.303999,-0.608 -0.303999,-1.456 0,-0.84799 0.303999,-1.45599 0.311999,-0.608 0.879997,-0.936 0.575998,-0.328 1.359995,-0.328 z m 0,0.904 q -0.447999,0 -0.759998,0.208 -0.311998,0.208 -0.479998,0.616 -0.159999,0.4 -0.159999,0.99199 0,0.584 0.159999,0.992 0.168,0.408 0.479998,0.616 0.311999,0.208 0.759998,0.208 0.439998,0 0.751997,-0.208 0.311999,-0.208 0.471998,-0.616 0.167999,-0.408 0.167999,-0.992 0,-0.59199 -0.167999,-0.99199 -0.159999,-0.408 -0.471998,-0.616 -0.311999,-0.208 -0.751997,-0.208 z"
         style="font-weight:600;-inkscape-font-specification:'Work Sans Semi-Bold'"
         id="path30144" />
      <path
         d="m 74.259613,139.39775 v 5.27998 h -1.263996 l -1.847993,-3.10398 -0.455998,-0.864 h -0.008 l 0.032,0.912 v 3.05598 H 69.72363 v -5.27998 h 1.255995 l 1.847993,3.09599 0.455998,0.872 h 0.016 l -0.032,-0.912 v -3.05599 z"
         style="font-weight:600;-inkscape-font-specification:'Work Sans Semi-Bold'"
         id="path30146" />
      <path
         d="m 77.563603,139.31775 q 0.719997,0 1.263995,0.248 0.543998,0.248 0.927997,0.736 l -0.615998,0.712 q -0.327999,-0.416 -0.719997,-0.608 -0.383999,-0.2 -0.895997,-0.2 -0.335999,0 -0.559998,0.088 -0.215999,0.088 -0.319999,0.232 -0.096,0.144 -0.096,0.32 0,0.216 0.167999,0.368 0.167999,0.144 0.575998,0.24 l 0.983996,0.224 q 0.783997,0.17599 1.119996,0.52799 0.343999,0.344 0.343999,0.896 0,0.52 -0.271999,0.896 -0.271999,0.368 -0.759997,0.56799 -0.487999,0.192 -1.119996,0.192 -0.551998,0 -1.015996,-0.128 -0.455999,-0.13599 -0.815997,-0.36799 -0.359999,-0.232 -0.599998,-0.536 l 0.623998,-0.744 q 0.183999,0.256 0.455998,0.456 0.271999,0.2 0.615998,0.32 0.351998,0.112 0.735997,0.112 0.327999,0 0.551998,-0.072 0.231999,-0.08 0.343998,-0.216 0.12,-0.144 0.12,-0.344 0,-0.208 -0.143999,-0.352 -0.136,-0.152 -0.511999,-0.232 l -1.071995,-0.24 q -0.463999,-0.112 -0.799997,-0.288 -0.327999,-0.184 -0.503999,-0.46399 -0.167999,-0.288 -0.167999,-0.68 0,-0.472 0.255999,-0.848 0.255999,-0.376 0.735997,-0.592 0.487998,-0.224 1.167996,-0.224 z"
         style="font-weight:600;-inkscape-font-specification:'Work Sans Semi-Bold'"
         id="path30148" />
      <path
         d="m 85.195567,139.39775 v 3.19999 q 0,1.08 -0.575997,1.624 -0.575998,0.53599 -1.679994,0.53599 -1.103996,0 -1.679994,-0.53599 -0.575998,-0.544 -0.575998,-1.624 v -3.19999 h 1.103996 v 3.15199 q 0,0.664 0.279999,0.984 0.287999,0.32 0.871997,0.32 0.583998,0 0.863997,-0.32 0.279999,-0.32 0.279999,-0.984 v -3.15199 z"
         style="font-weight:600;-inkscape-font-specification:'Work Sans Semi-Bold'"
         id="path30150" />
      <path
         d="m 87.57155,143.78974 h 2.783989 v 0.88799 h -3.887985 v -5.27998 h 1.103996 z"
         style="font-weight:600;-inkscape-font-specification:'Work Sans Semi-Bold'"
         id="path30152" />
      <path
         d="m 94.383042,139.39775 v 0.888 h -1.767993 v 4.39198 h -1.103996 v -4.39198 h -1.775994 v -0.888 z"
         style="font-weight:600;-inkscape-font-specification:'Work Sans Semi-Bold'"
         id="path30154" />
      <path
         d="m 97.366716,139.31775 q 0.783997,0 1.351995,0.328 0.567998,0.328 0.871997,0.936 0.311999,0.608 0.311999,1.45599 0,0.848 -0.311999,1.456 -0.303999,0.608 -0.871997,0.936 -0.567998,0.32799 -1.351995,0.32799 -0.783997,0 -1.359995,-0.32799 -0.567997,-0.328 -0.879996,-0.936 -0.303999,-0.608 -0.303999,-1.456 0,-0.84799 0.303999,-1.45599 0.311999,-0.608 0.879996,-0.936 0.575998,-0.328 1.359995,-0.328 z m 0,0.904 q -0.447998,0 -0.759997,0.208 -0.311999,0.208 -0.479998,0.616 -0.159999,0.4 -0.159999,0.99199 0,0.584 0.159999,0.992 0.167999,0.408 0.479998,0.616 0.311999,0.208 0.759997,0.208 0.439999,0 0.751997,-0.208 0.311999,-0.208 0.471999,-0.616 0.167999,-0.408 0.167999,-0.992 0,-0.59199 -0.167999,-0.99199 -0.16,-0.408 -0.471999,-0.616 -0.311998,-0.208 -0.751997,-0.208 z"
         style="font-weight:600;-inkscape-font-specification:'Work Sans Semi-Bold'"
         id="path30156" />
      <path
         d="m 103.34269,139.39775 q 0.89599,0 1.40799,0.432 0.512,0.432 0.512,1.16 0,0.776 -0.512,1.19199 -0.512,0.408 -1.39999,0.408 l -0.112,0.064 h -1.136 v 2.02399 h -1.08799 v -5.27998 z m -0.128,2.416 q 0.464,0 0.68799,-0.184 0.232,-0.192 0.232,-0.584 0,-0.392 -0.232,-0.576 -0.22399,-0.192 -0.68799,-0.192 h -1.112 v 1.536 z m 0.648,0.23199 1.71199,2.63199 h -1.24 l -1.41599,-2.31199 z"
         style="font-weight:600;-inkscape-font-specification:'Work Sans Semi-Bold'"
         id="path30158" />
      <path
         d="m 107.55867,139.39775 v 5.27998 h -1.10399 v -5.27998 z m -0.488,-1.85599 h 1.008 l -0.704,1.296 h -0.808 z"
         style="font-weight:600;-inkscape-font-specification:'Work Sans Semi-Bold'"
         id="path30160" />
      <path
         d="m 113.51865,144.67773 h -1.144 l -0.44,-1.28799 h -2.02399 l -0.44,1.28799 h -1.12799 l 1.92799,-5.27998 h 1.31999 z m -3.35999,-2.10399 h 1.52799 l -0.76799,-2.30399 z"
         style="font-weight:600;-inkscape-font-specification:'Work Sans Semi-Bold'"
         id="path30162" />
      <path
         d="m 116.19096,139.31775 q 0.72,0 1.264,0.248 0.54399,0.248 0.92799,0.736 l -0.616,0.712 q -0.32799,-0.416 -0.71999,-0.608 -0.384,-0.2 -0.896,-0.2 -0.336,0 -0.56,0.088 -0.216,0.088 -0.32,0.232 -0.096,0.144 -0.096,0.32 0,0.216 0.168,0.368 0.168,0.144 0.576,0.24 l 0.984,0.224 q 0.78399,0.17599 1.11999,0.52799 0.344,0.344 0.344,0.896 0,0.52 -0.272,0.896 -0.272,0.368 -0.75999,0.56799 -0.488,0.192 -1.12,0.192 -0.552,0 -1.016,-0.128 -0.45599,-0.13599 -0.81599,-0.36799 -0.36,-0.232 -0.6,-0.536 l 0.624,-0.744 q 0.184,0.256 0.456,0.456 0.27199,0.2 0.61599,0.32 0.352,0.112 0.736,0.112 0.328,0 0.552,-0.072 0.232,-0.08 0.344,-0.216 0.12,-0.144 0.12,-0.344 0,-0.208 -0.144,-0.352 -0.136,-0.152 -0.512,-0.232 l -1.072,-0.24 q -0.464,-0.112 -0.79999,-0.288 -0.328,-0.184 -0.504,-0.46399 -0.168,-0.288 -0.168,-0.68 0,-0.472 0.256,-0.848 0.256,-0.376 0.73599,-0.592 0.488,-0.224 1.168,-0.224 z"
         style="font-weight:600;-inkscape-font-specification:'Work Sans Semi-Bold'"
         id="path30164" />
      <path
         d="m 123.79092,139.31775 q 0.72,0 1.264,0.248 0.54399,0.248 0.92799,0.736 l -0.616,0.712 q -0.32799,-0.416 -0.71999,-0.608 -0.384,-0.2 -0.896,-0.2 -0.336,0 -0.56,0.088 -0.216,0.088 -0.32,0.232 -0.096,0.144 -0.096,0.32 0,0.216 0.168,0.368 0.168,0.144 0.576,0.24 l 0.984,0.224 q 0.784,0.17599 1.11999,0.52799 0.344,0.344 0.344,0.896 0,0.52 -0.272,0.896 -0.272,0.368 -0.75999,0.56799 -0.488,0.192 -1.12,0.192 -0.552,0 -1.016,-0.128 -0.45599,-0.13599 -0.81599,-0.36799 -0.36,-0.232 -0.6,-0.536 l 0.624,-0.744 q 0.184,0.256 0.456,0.456 0.27199,0.2 0.61599,0.32 0.352,0.112 0.736,0.112 0.328,0 0.552,-0.072 0.232,-0.08 0.344,-0.216 0.12,-0.144 0.12,-0.344 0,-0.208 -0.144,-0.352 -0.136,-0.152 -0.512,-0.232 l -1.072,-0.24 q -0.46399,-0.112 -0.79999,-0.288 -0.328,-0.184 -0.504,-0.46399 -0.168,-0.288 -0.168,-0.68 0,-0.472 0.256,-0.848 0.256,-0.376 0.736,-0.592 0.48799,-0.224 1.16799,-0.224 z"
         style="font-weight:600;-inkscape-font-specification:'Work Sans Semi-Bold'"
         id="path30166" />
      <path
         d="m 131.55424,144.67773 h -1.144 l -0.44,-1.28799 h -2.02399 l -0.44,1.28799 h -1.12799 l 1.92799,-5.27998 h 1.31999 z m -3.35999,-2.10399 h 1.52799 l -0.76799,-2.30399 z"
         style="font-weight:600;-inkscape-font-specification:'Work Sans Semi-Bold'"
         id="path30168" />
      <path
         d="m 134.22655,139.31775 q 0.72,0 1.26399,0.248 0.544,0.248 0.928,0.736 l -0.616,0.712 q -0.328,-0.416 -0.72,-0.608 -0.38399,-0.2 -0.89599,-0.2 -0.336,0 -0.56,0.088 -0.216,0.088 -0.32,0.232 -0.096,0.144 -0.096,0.32 0,0.216 0.168,0.368 0.168,0.144 0.576,0.24 l 0.984,0.224 q 0.78399,0.17599 1.11999,0.52799 0.344,0.344 0.344,0.896 0,0.52 -0.272,0.896 -0.272,0.368 -0.76,0.56799 -0.48799,0.192 -1.11999,0.192 -0.552,0 -1.016,-0.128 -0.456,-0.13599 -0.816,-0.36799 -0.35999,-0.232 -0.59999,-0.536 l 0.62399,-0.744 q 0.184,0.256 0.456,0.456 0.272,0.2 0.616,0.32 0.352,0.112 0.736,0.112 0.328,0 0.552,-0.072 0.23199,-0.08 0.34399,-0.216 0.12,-0.144 0.12,-0.344 0,-0.208 -0.144,-0.352 -0.136,-0.152 -0.51199,-0.232 l -1.072,-0.24 q -0.464,-0.112 -0.8,-0.288 -0.328,-0.184 -0.50399,-0.46399 -0.168,-0.288 -0.168,-0.68 0,-0.472 0.25599,-0.848 0.256,-0.376 0.736,-0.592 0.488,-0.224 1.168,-0.224 z"
         style="font-weight:600;-inkscape-font-specification:'Work Sans Semi-Bold'"
         id="path30170" />
      <path
         d="m 137.88446,143.45374 q 0.32,0 0.504,0.176 0.192,0.176 0.192,0.472 0,0.304 -0.192,0.47999 -0.184,0.168 -0.504,0.168 -0.32,0 -0.512,-0.168 -0.184,-0.17599 -0.184,-0.47999 0,-0.296 0.184,-0.472 0.192,-0.176 0.512,-0.176 z"
         style="font-weight:600;-inkscape-font-specification:'Work Sans Semi-Bold'"
         id="path30172" />
    </g>
    <path
       style="fill:none;stroke:#082f49;stroke-width:0.685248;stroke-linecap:butt;stroke-linejoin:miter;stroke-miterlimit:4;stroke-dasharray:none;stroke-opacity:1"
       d="M 38.324067,135.90447 H 158.32406"
       id="path14606" />
    <g
       aria-label="“Conocimiento que agrega valor”"
       id="text26035"
       style="font-size:5.33334px;line-height:1.25;font-family:'Work Sans';-inkscape-font-specification:'Work Sans';fill:#082f49;stroke-width:0.2">
      <path
         d="m 55.3736,147.82713 q -0.218667,0 -0.352,-0.13334 -0.128,-0.13866 -0.128,-0.35733 0,-0.26667 0.144,-0.50667 0.144,-0.24 0.378667,-0.41067 0.24,-0.176 0.517334,-0.23466 l 0.170667,0.31466 q -0.202667,0.032 -0.357334,0.11734 -0.149333,0.0853 -0.250667,0.192 -0.101333,0.10133 -0.144,0.192 l 0.01067,0.016 q 0.02133,-0.0107 0.05333,-0.016 0.03733,-0.0107 0.08,-0.0107 0.165334,0 0.256,0.10667 0.09067,0.10133 0.09067,0.25067 0,0.208 -0.133333,0.34666 -0.128,0.13334 -0.336001,0.13334 z m 1.173335,0 q -0.218667,0 -0.352,-0.13334 -0.128,-0.13866 -0.128,-0.35733 0,-0.26667 0.144,-0.50667 0.144,-0.24 0.378667,-0.41067 0.24,-0.176 0.517334,-0.23466 l 0.170667,0.31466 q -0.202667,0.032 -0.357334,0.11734 -0.149334,0.0853 -0.250667,0.192 -0.101333,0.10133 -0.144,0.192 l 0.01067,0.016 q 0.02133,-0.0107 0.05333,-0.016 0.03733,-0.0107 0.08,-0.0107 0.165334,0 0.256,0.10667 0.09067,0.10133 0.09067,0.25067 0,0.208 -0.133333,0.34666 -0.128001,0.13334 -0.336001,0.13334 z"
         style="font-style:italic;font-weight:600;-inkscape-font-specification:'Work Sans Semi-Bold Italic'"
         id="path30175" />
      <path
         d="m 58.957611,149.94446 q -0.437334,0 -0.789335,-0.176 -0.352,-0.18133 -0.56,-0.51733 -0.202667,-0.34134 -0.202667,-0.82134 0,-0.432 0.122667,-0.81066 0.122666,-0.37867 0.362667,-0.67201 0.24,-0.29333 0.586667,-0.45866 0.352001,-0.17067 0.800001,-0.17067 0.378667,0 0.666668,0.12267 0.293333,0.12266 0.485334,0.368 0.192,0.24 0.266667,0.59733 l -0.725335,0.18134 q -0.05333,-0.34667 -0.229333,-0.50667 -0.176001,-0.16 -0.490668,-0.16 -0.277333,0 -0.485334,0.13866 -0.202666,0.13334 -0.341333,0.35201 -0.133334,0.21866 -0.202667,0.48533 -0.06933,0.26133 -0.06933,0.51733 0,0.29334 0.106667,0.50134 0.106667,0.20266 0.298667,0.31466 0.192,0.112 0.442667,0.112 0.304001,0 0.474668,-0.144 0.176,-0.144 0.293333,-0.37866 l 0.672001,0.272 q -0.229333,0.39466 -0.586667,0.624 -0.352001,0.22933 -0.896001,0.22933 z"
         style="font-style:italic;font-weight:600;-inkscape-font-specification:'Work Sans Semi-Bold Italic'"
         id="path30177" />
      <path
         d="m 62.157622,149.93913 q -0.394667,0 -0.682667,-0.15467 -0.282667,-0.16 -0.437334,-0.432 -0.154667,-0.27733 -0.154667,-0.61867 0,-0.44266 0.176,-0.79466 0.181334,-0.352 0.506667,-0.55467 0.330668,-0.208 0.784001,-0.208 0.405334,0 0.688001,0.16 0.282667,0.15467 0.432001,0.42667 0.154667,0.272 0.154667,0.61333 0,0.43733 -0.176,0.79467 -0.176001,0.352 -0.506668,0.56 -0.325333,0.208 -0.784001,0.208 z m 0.016,-0.53867 q 0.154667,0 0.288001,-0.0853 0.133333,-0.0853 0.234667,-0.23467 0.101333,-0.15467 0.154666,-0.34667 0.05333,-0.192 0.05333,-0.39466 0,-0.18667 -0.064,-0.32534 -0.064,-0.13866 -0.192,-0.21866 -0.122667,-0.08 -0.314668,-0.08 -0.154666,0 -0.293333,0.0853 -0.133334,0.0853 -0.234667,0.23467 -0.096,0.14933 -0.149334,0.34133 -0.05333,0.192 -0.05333,0.4 0,0.176 0.064,0.32 0.064,0.144 0.192,0.224 0.128,0.08 0.314667,0.08 z"
         style="font-style:italic;font-weight:600;-inkscape-font-specification:'Work Sans Semi-Bold Italic'"
         id="path30179" />
      <path
         d="m 63.912289,149.89113 0.618667,-2.66667 h 0.645334 l -0.122667,0.75733 -0.05333,-0.0587 q 0.112,-0.368 0.394667,-0.56 0.282667,-0.192 0.640001,-0.192 0.293334,0 0.496001,0.128 0.202667,0.128 0.282667,0.368 0.08,0.23466 0.0053,0.57066 l -0.384,1.65334 h -0.730668 l 0.368,-1.584 q 0.05867,-0.26134 -0.05333,-0.41067 -0.106667,-0.14933 -0.341334,-0.14933 -0.181333,0 -0.32,0.0853 -0.138667,0.08 -0.234667,0.24 -0.096,0.15467 -0.154667,0.39467 l -0.325334,1.424 z"
         style="font-style:italic;font-weight:600;-inkscape-font-specification:'Work Sans Semi-Bold Italic'"
         id="path30181" />
      <path
         d="m 68.567766,149.93913 q -0.394667,0 -0.682667,-0.15467 -0.282667,-0.16 -0.437334,-0.432 -0.154667,-0.27733 -0.154667,-0.61867 0,-0.44266 0.176,-0.79466 0.181334,-0.352 0.506667,-0.55467 0.330667,-0.208 0.784001,-0.208 0.405334,0 0.688001,0.16 0.282667,0.15467 0.432001,0.42667 0.154667,0.272 0.154667,0.61333 0,0.43733 -0.176001,0.79467 -0.176,0.352 -0.506667,0.56 -0.325334,0.208 -0.784001,0.208 z m 0.016,-0.53867 q 0.154667,0 0.288,-0.0853 0.133334,-0.0853 0.234667,-0.23467 0.101334,-0.15467 0.154667,-0.34667 0.05333,-0.192 0.05333,-0.39466 0,-0.18667 -0.064,-0.32534 -0.064,-0.13866 -0.192001,-0.21866 -0.122666,-0.08 -0.314667,-0.08 -0.154667,0 -0.293333,0.0853 -0.133334,0.0853 -0.234667,0.23467 -0.096,0.14933 -0.149334,0.34133 -0.05333,0.192 -0.05333,0.4 0,0.176 0.064,0.32 0.064,0.144 0.192,0.224 0.128,0.08 0.314667,0.08 z"
         style="font-style:italic;font-weight:600;-inkscape-font-specification:'Work Sans Semi-Bold Italic'"
         id="path30183" />
      <path
         d="m 71.767768,149.93913 q -0.400001,0 -0.688001,-0.15467 -0.288001,-0.16 -0.442667,-0.432 -0.149334,-0.27733 -0.149334,-0.61867 0,-0.44266 0.176,-0.79466 0.176,-0.352 0.506668,-0.55467 0.336,-0.208 0.800001,-0.208 0.341333,0 0.597334,0.11733 0.261333,0.112 0.410667,0.32 0.149333,0.208 0.176,0.48 l -0.714667,0.128 q 0,-0.21866 -0.117334,-0.35733 -0.112,-0.144 -0.368,-0.144 -0.170667,0 -0.309334,0.0853 -0.133334,0.0853 -0.234667,0.23467 -0.101334,0.14933 -0.154667,0.34133 -0.048,0.192 -0.048,0.39467 0,0.18667 0.064,0.33067 0.06933,0.13866 0.197334,0.21866 0.128,0.0747 0.314667,0.0747 0.170667,0 0.314667,-0.10133 0.144,-0.10134 0.208,-0.28267 l 0.666668,0.224 q -0.149334,0.33067 -0.469334,0.51734 -0.314667,0.18133 -0.736001,0.18133 z"
         style="font-style:italic;font-weight:600;-inkscape-font-specification:'Work Sans Semi-Bold Italic'"
         id="path30185" />
      <path
         d="m 74.39711,146.84046 q -0.192001,0 -0.304001,-0.0907 -0.112,-0.0907 -0.096,-0.26667 0.016,-0.21866 0.138667,-0.32 0.128,-0.10666 0.336,-0.10666 0.197334,0 0.309334,0.0907 0.112,0.0907 0.096,0.26134 -0.016,0.22933 -0.144,0.33066 -0.128,0.10134 -0.336,0.10134 z m 0.229333,0.384 -0.618667,2.66667 h -0.730668 l 0.618668,-2.66667 z"
         style="font-style:italic;font-weight:600;-inkscape-font-specification:'Work Sans Semi-Bold Italic'"
         id="path30187" />
      <path
         d="m 74.754445,149.89113 0.618667,-2.66667 h 0.645335 l -0.122667,0.75733 -0.05333,-0.0587 q 0.112001,-0.368 0.389334,-0.56 0.282667,-0.192 0.640001,-0.192 0.282667,0 0.474667,0.128 0.197334,0.128 0.277334,0.368 0.08,0.24 0,0.576 l -0.384,1.648 h -0.730668 l 0.368,-1.57867 q 0.064,-0.26667 -0.03733,-0.416 -0.101333,-0.14933 -0.325334,-0.14933 -0.181333,0 -0.32,0.0853 -0.138667,0.08 -0.234667,0.24 -0.09067,0.15467 -0.149334,0.39467 l -0.325333,1.424 z m 3.514671,0 0.362667,-1.57867 q 0.064,-0.26667 -0.03733,-0.416 -0.101334,-0.14933 -0.32,-0.14933 -0.181334,0 -0.320001,0.0853 -0.138667,0.08 -0.234667,0.24 -0.096,0.15467 -0.149333,0.39467 l -0.05333,-0.464 q 0.138667,-0.41067 0.432001,-0.61867 0.298667,-0.21333 0.666667,-0.21333 0.288001,0 0.485334,0.128 0.197334,0.128 0.277334,0.368 0.08,0.24 0.0053,0.576 l -0.384,1.648 z"
         style="font-style:italic;font-weight:600;-inkscape-font-specification:'Work Sans Semi-Bold Italic'"
         id="path30189" />
      <path
         d="m 80.850456,146.84046 q -0.192,0 -0.304001,-0.0907 -0.112,-0.0907 -0.096,-0.26667 0.016,-0.21866 0.138667,-0.32 0.128,-0.10666 0.336001,-0.10666 0.197333,0 0.309333,0.0907 0.112,0.0907 0.096,0.26134 -0.016,0.22933 -0.144,0.33066 -0.128,0.10134 -0.336,0.10134 z m 0.229333,0.384 -0.618667,2.66667 h -0.730668 l 0.618668,-2.66667 z"
         style="font-style:italic;font-weight:600;-inkscape-font-specification:'Work Sans Semi-Bold Italic'"
         id="path30191" />
      <path
         d="m 82.637126,149.93913 q -0.384,0 -0.672,-0.15467 -0.282667,-0.15467 -0.442668,-0.42667 -0.154667,-0.272 -0.154667,-0.624 0,-0.43733 0.176001,-0.78933 0.176,-0.352 0.506667,-0.56 0.330667,-0.208 0.794668,-0.208 0.368,0 0.624001,0.144 0.261333,0.144 0.394667,0.41067 0.138667,0.26666 0.138667,0.63466 0,0.10667 -0.01067,0.21867 -0.01067,0.10667 -0.04267,0.21333 h -2.133336 v -0.50666 h 1.685336 l -0.229334,0.14933 q 0.02133,-0.0693 0.02667,-0.12267 0.0053,-0.0587 0.0053,-0.112 0,-0.16 -0.05867,-0.26666 -0.05867,-0.112 -0.165333,-0.17067 -0.106667,-0.0587 -0.256001,-0.0587 -0.218667,0 -0.368,0.096 -0.144,0.096 -0.234667,0.256 -0.08533,0.15467 -0.122667,0.34134 -0.03733,0.18666 -0.03733,0.368 0,0.19733 0.07467,0.34133 0.08,0.13867 0.218667,0.21867 0.138667,0.0747 0.325334,0.0747 0.218667,0 0.357334,-0.096 0.138667,-0.10133 0.218667,-0.25066 l 0.597334,0.26666 q -0.101333,0.192 -0.282667,0.33067 -0.176,0.13334 -0.416001,0.208 -0.234667,0.0747 -0.517334,0.0747 z"
         style="font-style:italic;font-weight:600;-inkscape-font-specification:'Work Sans Semi-Bold Italic'"
         id="path30193" />
      <path
         d="m 84.290458,149.89113 0.618667,-2.66667 h 0.645334 l -0.122667,0.75733 -0.05333,-0.0587 q 0.112,-0.368 0.394667,-0.56 0.282667,-0.192 0.640001,-0.192 0.293334,0 0.496001,0.128 0.202667,0.128 0.282667,0.368 0.08,0.23466 0.0053,0.57066 l -0.384,1.65334 H 86.08246 l 0.368,-1.584 q 0.05867,-0.26134 -0.05333,-0.41067 -0.106667,-0.14933 -0.341334,-0.14933 -0.181333,0 -0.32,0.0853 -0.138667,0.08 -0.234667,0.24 -0.096,0.15467 -0.154667,0.39467 l -0.325334,1.424 z"
         style="font-style:italic;font-weight:600;-inkscape-font-specification:'Work Sans Semi-Bold Italic'"
         id="path30195" />
      <path
         d="m 88.763323,149.93913 q -0.298667,0 -0.512001,-0.112 -0.213333,-0.112 -0.298667,-0.32534 -0.08533,-0.21333 -0.016,-0.528 l 0.533334,-2.32533 0.784001,-0.21334 -0.592,2.53334 q -0.05333,0.224 0.05867,0.33067 0.112001,0.10133 0.304001,0.10133 0.128,0 0.213333,-0.0267 0.08533,-0.0267 0.154667,-0.0693 l -0.0053,0.496 q -0.138667,0.0747 -0.298667,0.10667 -0.154667,0.032 -0.325334,0.032 z m -1.061335,-2.17067 0.128001,-0.544 h 2.005335 l -0.128,0.544 z"
         style="font-style:italic;font-weight:600;-inkscape-font-specification:'Work Sans Semi-Bold Italic'"
         id="path30197" />
      <path
         d="m 91.235866,149.93913 q -0.394667,0 -0.682667,-0.15467 -0.282667,-0.16 -0.437334,-0.432 -0.154667,-0.27733 -0.154667,-0.61867 0,-0.44266 0.176,-0.79466 0.181334,-0.352 0.506668,-0.55467 0.330667,-0.208 0.784001,-0.208 0.405334,0 0.688001,0.16 0.282667,0.15467 0.432,0.42667 0.154667,0.272 0.154667,0.61333 0,0.43733 -0.176,0.79467 -0.176,0.352 -0.506668,0.56 -0.325333,0.208 -0.784001,0.208 z m 0.016,-0.53867 q 0.154667,0 0.288001,-0.0853 0.133333,-0.0853 0.234667,-0.23467 0.101333,-0.15467 0.154667,-0.34667 0.05333,-0.192 0.05333,-0.39466 0,-0.18667 -0.064,-0.32534 -0.064,-0.13866 -0.192,-0.21866 -0.122667,-0.08 -0.314667,-0.08 -0.154667,0 -0.293334,0.0853 -0.133334,0.0853 -0.234667,0.23467 -0.096,0.14933 -0.149334,0.34133 -0.05333,0.192 -0.05333,0.4 0,0.176 0.064,0.32 0.064,0.144 0.192,0.224 0.128001,0.08 0.314667,0.08 z"
         style="font-style:italic;font-weight:600;-inkscape-font-specification:'Work Sans Semi-Bold Italic'"
         id="path30199" />
      <path
         d="m 96.179865,151.01113 0.437334,-1.89334 0.04267,0.0267 q -0.101333,0.36267 -0.357334,0.58133 -0.250667,0.21334 -0.576,0.21334 -0.277334,0 -0.501334,-0.13333 -0.218667,-0.13334 -0.346668,-0.37867 -0.122666,-0.25067 -0.122666,-0.59734 0,-0.33066 0.096,-0.62933 0.096,-0.29867 0.272,-0.528 0.176,-0.23467 0.421334,-0.368 0.245334,-0.13333 0.544001,-0.13333 0.229333,0 0.416,0.096 0.186667,0.0907 0.298667,0.272 0.117334,0.18133 0.122667,0.448 l -0.08533,0.10133 0.202667,-0.864 h 0.730667 l -0.880001,3.78667 z m -0.165333,-1.62667 q 0.16,0 0.293334,-0.0853 0.133333,-0.0907 0.229333,-0.24 0.101334,-0.15467 0.154667,-0.34134 0.05333,-0.192 0.05333,-0.39466 0,-0.18134 -0.064,-0.31467 -0.064,-0.13333 -0.181333,-0.20267 -0.112,-0.0747 -0.266667,-0.0747 -0.176,0 -0.314667,0.0907 -0.138667,0.0853 -0.24,0.23467 -0.096,0.14933 -0.149334,0.336 -0.05333,0.18133 -0.05333,0.37333 0,0.192 0.064,0.33067 0.064,0.13867 0.181333,0.21333 0.122667,0.0747 0.293334,0.0747 z"
         style="font-style:italic;font-weight:600;-inkscape-font-specification:'Work Sans Semi-Bold Italic'"
         id="path30201" />
      <path
         d="m 98.899874,149.93913 q -0.288,0 -0.496,-0.12267 -0.202667,-0.128 -0.293334,-0.36267 -0.08533,-0.23466 -0.01067,-0.56533 l 0.384001,-1.664 h 0.730667 l -0.362667,1.57867 q -0.064,0.272 0.048,0.416 0.117334,0.144 0.346667,0.144 0.186667,0 0.320001,-0.08 0.133333,-0.0853 0.224,-0.24 0.096,-0.16 0.149334,-0.39467 l 0.330664,-1.424 h 0.73067 l -0.61867,2.66667 h -0.645331 l 0.122666,-0.75734 0.048,0.0587 q -0.112001,0.368 -0.384001,0.56 -0.272,0.18667 -0.624001,0.18667 z"
         style="font-style:italic;font-weight:600;-inkscape-font-specification:'Work Sans Semi-Bold Italic'"
         id="path30203" />
      <path
         d="m 102.55855,149.93913 q -0.384,0 -0.672,-0.15467 -0.28267,-0.15467 -0.44267,-0.42667 -0.15466,-0.272 -0.15466,-0.624 0,-0.43733 0.176,-0.78933 0.176,-0.352 0.50666,-0.56 0.33067,-0.208 0.79467,-0.208 0.368,0 0.624,0.144 0.26134,0.144 0.39467,0.41067 0.13867,0.26666 0.13867,0.63466 0,0.10667 -0.0107,0.21867 -0.0107,0.10667 -0.0427,0.21333 h -2.13333 v -0.50666 h 1.68533 l -0.22933,0.14933 q 0.0213,-0.0693 0.0267,-0.12267 0.005,-0.0587 0.005,-0.112 0,-0.16 -0.0587,-0.26666 -0.0587,-0.112 -0.16533,-0.17067 -0.10667,-0.0587 -0.256,-0.0587 -0.21867,0 -0.368,0.096 -0.144,0.096 -0.23467,0.256 -0.0853,0.15467 -0.12267,0.34134 -0.0373,0.18666 -0.0373,0.368 0,0.19733 0.0747,0.34133 0.08,0.13867 0.21866,0.21867 0.13867,0.0747 0.32534,0.0747 0.21866,0 0.35733,-0.096 0.13867,-0.10133 0.21867,-0.25066 l 0.59733,0.26666 q -0.10133,0.192 -0.28266,0.33067 -0.176,0.13334 -0.416,0.208 -0.23467,0.0747 -0.51734,0.0747 z"
         style="font-style:italic;font-weight:600;-inkscape-font-specification:'Work Sans Semi-Bold Italic'"
         id="path30205" />
      <path
         d="m 106.94788,149.93913 q -0.28267,0 -0.50133,-0.13333 -0.21867,-0.13867 -0.34667,-0.38401 -0.12267,-0.24533 -0.12267,-0.592 0,-0.32533 0.096,-0.624 0.096,-0.29866 0.26667,-0.528 0.176,-0.23466 0.42133,-0.368 0.25067,-0.13866 0.54934,-0.13866 0.19733,0 0.368,0.0693 0.17066,0.0693 0.288,0.208 0.11733,0.13867 0.16533,0.352 l 0.13333,-0.576 h 0.73067 l -0.61867,2.66667 h -0.66133 l 0.0907,-0.50134 q -0.128,0.25067 -0.35734,0.40001 -0.22933,0.14933 -0.50133,0.14933 z m 0.29333,-0.55467 q 0.14934,0 0.28267,-0.0853 0.13333,-0.0907 0.22933,-0.24 0.10134,-0.15467 0.15467,-0.34134 0.0587,-0.192 0.0587,-0.39466 0,-0.18134 -0.064,-0.31467 -0.064,-0.13333 -0.18134,-0.20267 -0.112,-0.0747 -0.26666,-0.0747 -0.176,0 -0.31467,0.0907 -0.13867,0.0853 -0.24,0.23467 -0.096,0.14933 -0.14933,0.336 -0.0533,0.18133 -0.0533,0.37333 0,0.192 0.0587,0.33067 0.064,0.13867 0.18133,0.21333 0.12267,0.0747 0.304,0.0747 z"
         style="font-style:italic;font-weight:600;-inkscape-font-specification:'Work Sans Semi-Bold Italic'"
         id="path30207" />
      <path
         d="m 110.17989,151.0378 q -0.23467,0 -0.448,-0.064 -0.21334,-0.0587 -0.37867,-0.176 -0.16533,-0.11734 -0.26667,-0.29334 -0.096,-0.17066 -0.112,-0.4 l 0.73067,-0.11733 q 0.0267,0.256 0.144,0.4 0.12267,0.144 0.41067,0.144 0.15467,0 0.288,-0.064 0.13867,-0.064 0.24,-0.21333 0.10667,-0.14934 0.16533,-0.416 l 0.17067,-0.76267 0.0587,-0.0213 q -0.0853,0.36267 -0.33067,0.57067 -0.24533,0.20267 -0.592,0.20267 -0.28267,0 -0.512,-0.13334 -0.224,-0.13866 -0.352,-0.384 -0.128,-0.25066 -0.128,-0.57066 0,-0.32534 0.096,-0.608 0.096,-0.28267 0.272,-0.496 0.176,-0.21867 0.416,-0.34134 0.24533,-0.12266 0.53867,-0.12266 0.22933,0 0.416,0.096 0.192,0.096 0.30933,0.288 0.11733,0.18666 0.11733,0.464 l -0.096,0.10133 0.208,-0.896 h 0.73067 l -0.60267,2.58134 q -0.10666,0.45333 -0.31466,0.72 -0.20267,0.272 -0.50134,0.38933 -0.29333,0.12267 -0.67733,0.12267 z m 0.37333,-1.76001 q 0.20267,0 0.35734,-0.13333 0.15466,-0.13333 0.24533,-0.352 0.0907,-0.21867 0.0907,-0.47467 0,-0.18133 -0.064,-0.30933 -0.064,-0.13333 -0.18134,-0.20267 -0.11733,-0.0747 -0.27733,-0.0747 -0.224,0 -0.38933,0.13333 -0.16,0.128 -0.25067,0.34133 -0.0907,0.21334 -0.0907,0.464 0,0.26667 0.144,0.43734 0.144,0.17066 0.416,0.17066 z"
         style="font-style:italic;font-weight:600;-inkscape-font-specification:'Work Sans Semi-Bold Italic'"
         id="path30209" />
      <path
         d="m 112.39856,149.89113 0.61866,-2.66667 h 0.63467 l -0.128,0.83733 -0.048,-0.0693 q 0.0853,-0.25067 0.22934,-0.432 0.144,-0.18667 0.34133,-0.288 0.19733,-0.10133 0.42667,-0.10133 0.0907,0 0.14933,0.0107 0.064,0.0107 0.112,0.0373 l -0.18667,0.63466 q -0.0533,-0.0267 -0.12266,-0.0427 -0.0693,-0.016 -0.17067,-0.016 -0.18133,0 -0.34667,0.0853 -0.16533,0.08 -0.288,0.25067 -0.12267,0.17066 -0.18667,0.448 l -0.304,1.312 z"
         style="font-style:italic;font-weight:600;-inkscape-font-specification:'Work Sans Semi-Bold Italic'"
         id="path30211" />
      <path
         d="m 115.96165,149.93913 q -0.384,0 -0.672,-0.15467 -0.28266,-0.15467 -0.44266,-0.42667 -0.15467,-0.272 -0.15467,-0.624 0,-0.43733 0.176,-0.78933 0.176,-0.352 0.50667,-0.56 0.33066,-0.208 0.79466,-0.208 0.368,0 0.62401,0.144 0.26133,0.144 0.39466,0.41067 0.13867,0.26666 0.13867,0.63466 0,0.10667 -0.0107,0.21867 -0.0107,0.10667 -0.0427,0.21333 h -2.13334 v -0.50666 h 1.68534 l -0.22934,0.14933 q 0.0213,-0.0693 0.0267,-0.12267 0.005,-0.0587 0.005,-0.112 0,-0.16 -0.0587,-0.26666 -0.0587,-0.112 -0.16533,-0.17067 -0.10667,-0.0587 -0.256,-0.0587 -0.21867,0 -0.368,0.096 -0.144,0.096 -0.23467,0.256 -0.0853,0.15467 -0.12266,0.34134 -0.0373,0.18666 -0.0373,0.368 0,0.19733 0.0747,0.34133 0.08,0.13867 0.21867,0.21867 0.13866,0.0747 0.32533,0.0747 0.21867,0 0.35733,-0.096 0.13867,-0.10133 0.21867,-0.25066 l 0.59734,0.26666 q -0.10134,0.192 -0.28267,0.33067 -0.176,0.13334 -0.416,0.208 -0.23467,0.0747 -0.51734,0.0747 z"
         style="font-style:italic;font-weight:600;-inkscape-font-specification:'Work Sans Semi-Bold Italic'"
         id="path30213" />
      <path
         d="m 118.67632,151.0378 q -0.23467,0 -0.448,-0.064 -0.21334,-0.0587 -0.37867,-0.176 -0.16533,-0.11734 -0.26667,-0.29334 -0.096,-0.17066 -0.112,-0.4 l 0.73067,-0.11733 q 0.0267,0.256 0.144,0.4 0.12267,0.144 0.41067,0.144 0.15467,0 0.288,-0.064 0.13867,-0.064 0.24,-0.21333 0.10667,-0.14934 0.16533,-0.416 l 0.17067,-0.76267 0.0587,-0.0213 q -0.0853,0.36267 -0.33067,0.57067 -0.24533,0.20267 -0.592,0.20267 -0.28267,0 -0.512,-0.13334 -0.224,-0.13866 -0.352,-0.384 -0.128,-0.25066 -0.128,-0.57066 0,-0.32534 0.096,-0.608 0.096,-0.28267 0.272,-0.496 0.176,-0.21867 0.416,-0.34134 0.24533,-0.12266 0.53867,-0.12266 0.22933,0 0.416,0.096 0.192,0.096 0.30933,0.288 0.11733,0.18666 0.11733,0.464 l -0.096,0.10133 0.208,-0.896 h 0.73067 l -0.60267,2.58134 q -0.10666,0.45333 -0.31466,0.72 -0.20267,0.272 -0.50134,0.38933 -0.29333,0.12267 -0.67733,0.12267 z m 0.37333,-1.76001 q 0.20267,0 0.35734,-0.13333 0.15466,-0.13333 0.24533,-0.352 0.0907,-0.21867 0.0907,-0.47467 0,-0.18133 -0.064,-0.30933 -0.064,-0.13333 -0.18134,-0.20267 -0.11733,-0.0747 -0.27733,-0.0747 -0.224,0 -0.38933,0.13333 -0.16001,0.128 -0.25067,0.34133 -0.0907,0.21334 -0.0907,0.464 0,0.26667 0.144,0.43734 0.144,0.17066 0.416,0.17066 z"
         style="font-style:italic;font-weight:600;-inkscape-font-specification:'Work Sans Semi-Bold Italic'"
         id="path30215" />
      <path
         d="m 122.01499,149.93913 q -0.28267,0 -0.50134,-0.13333 -0.21866,-0.13867 -0.34666,-0.38401 -0.12267,-0.24533 -0.12267,-0.592 0,-0.32533 0.096,-0.624 0.096,-0.29866 0.26667,-0.528 0.176,-0.23466 0.42133,-0.368 0.25067,-0.13866 0.54933,-0.13866 0.19734,0 0.36801,0.0693 0.17066,0.0693 0.288,0.208 0.11733,0.13867 0.16533,0.352 l 0.13333,-0.576 h 0.73067 l -0.61867,2.66667 h -0.66133 l 0.0907,-0.50134 q -0.128,0.25067 -0.35734,0.40001 -0.22933,0.14933 -0.50133,0.14933 z m 0.29333,-0.55467 q 0.14933,0 0.28267,-0.0853 0.13333,-0.0907 0.22933,-0.24 0.10134,-0.15467 0.15467,-0.34134 0.0587,-0.192 0.0587,-0.39466 0,-0.18134 -0.064,-0.31467 -0.064,-0.13333 -0.18134,-0.20267 -0.112,-0.0747 -0.26667,-0.0747 -0.176,0 -0.31466,0.0907 -0.13867,0.0853 -0.24,0.23467 -0.096,0.14933 -0.14934,0.336 -0.0533,0.18133 -0.0533,0.37333 0,0.192 0.0587,0.33067 0.064,0.13867 0.18133,0.21333 0.12267,0.0747 0.304,0.0747 z"
         style="font-style:italic;font-weight:600;-inkscape-font-specification:'Work Sans Semi-Bold Italic'"
         id="path30217" />
      <path
         d="m 127.92913,147.22446 h 0.816 l -1.59466,2.66667 h -0.84801 l -0.37866,-2.66667 h 0.72 l 0.208,2.42133 -0.15467,-0.0267 z"
         style="font-style:italic;font-weight:600;-inkscape-font-specification:'Work Sans Semi-Bold Italic'"
         id="path30219" />
      <path
         d="m 129.70011,149.93913 q -0.28266,0 -0.50133,-0.13333 -0.21867,-0.13867 -0.34667,-0.38401 -0.12266,-0.24533 -0.12266,-0.592 0,-0.32533 0.096,-0.624 0.096,-0.29866 0.26666,-0.528 0.176,-0.23466 0.42134,-0.368 0.25066,-0.13866 0.54933,-0.13866 0.19734,0 0.368,0.0693 0.17067,0.0693 0.288,0.208 0.11734,0.13867 0.16534,0.352 l 0.13333,-0.576 h 0.73067 l -0.61867,2.66667 h -0.66133 l 0.0907,-0.50134 q -0.128,0.25067 -0.35733,0.40001 -0.22933,0.14933 -0.50134,0.14933 z m 0.29334,-0.55467 q 0.14933,0 0.28267,-0.0853 0.13333,-0.0907 0.22933,-0.24 0.10133,-0.15467 0.15467,-0.34134 0.0587,-0.192 0.0587,-0.39466 0,-0.18134 -0.064,-0.31467 -0.064,-0.13333 -0.18133,-0.20267 -0.112,-0.0747 -0.26667,-0.0747 -0.176,0 -0.31466,0.0907 -0.13867,0.0853 -0.24001,0.23467 -0.096,0.14933 -0.14933,0.336 -0.0533,0.18133 -0.0533,0.37333 0,0.192 0.0587,0.33067 0.064,0.13867 0.18134,0.21333 0.12266,0.0747 0.304,0.0747 z"
         style="font-style:italic;font-weight:600;-inkscape-font-specification:'Work Sans Semi-Bold Italic'"
         id="path30221" />
      <path
         d="m 132.75079,149.9338 q -0.43733,0 -0.61333,-0.24534 -0.176,-0.25067 -0.08,-0.66133 l 0.688,-2.97067 h 0.73067 l -0.688,2.97067 q -0.048,0.192 0.0213,0.28266 0.0747,0.0907 0.256,0.0907 0.0693,0 0.12267,-0.005 0.0533,-0.005 0.0907,-0.016 l -0.13867,0.496 q -0.0853,0.032 -0.176,0.0427 -0.0907,0.016 -0.21334,0.016 z"
         style="font-style:italic;font-weight:600;-inkscape-font-specification:'Work Sans Semi-Bold Italic'"
         id="path30223" />
      <path
         d="m 134.97373,149.93913 q -0.39467,0 -0.68267,-0.15467 -0.28267,-0.16 -0.43733,-0.432 -0.15467,-0.27733 -0.15467,-0.61867 0,-0.44266 0.176,-0.79466 0.18133,-0.352 0.50667,-0.55467 0.33066,-0.208 0.784,-0.208 0.40533,0 0.688,0.16 0.28267,0.15467 0.432,0.42667 0.15467,0.272 0.15467,0.61333 0,0.43733 -0.176,0.79467 -0.176,0.352 -0.50667,0.56 -0.32533,0.208 -0.784,0.208 z m 0.016,-0.53867 q 0.15466,0 0.288,-0.0853 0.13333,-0.0853 0.23467,-0.23467 0.10133,-0.15467 0.15466,-0.34667 0.0533,-0.192 0.0533,-0.39466 0,-0.18667 -0.064,-0.32534 -0.064,-0.13866 -0.192,-0.21866 -0.12267,-0.08 -0.31467,-0.08 -0.15467,0 -0.29334,0.0853 -0.13333,0.0853 -0.23466,0.23467 -0.096,0.14933 -0.14934,0.34133 -0.0533,0.192 -0.0533,0.4 0,0.176 0.064,0.32 0.064,0.144 0.192,0.224 0.128,0.08 0.31467,0.08 z"
         style="font-style:italic;font-weight:600;-inkscape-font-specification:'Work Sans Semi-Bold Italic'"
         id="path30225" />
      <path
         d="m 136.72839,149.89113 0.61867,-2.66667 h 0.63467 l -0.128,0.83733 -0.048,-0.0693 q 0.0853,-0.25067 0.22933,-0.432 0.144,-0.18667 0.34133,-0.288 0.19734,-0.10133 0.42667,-0.10133 0.0907,0 0.14933,0.0107 0.064,0.0107 0.112,0.0373 l -0.18666,0.63466 q -0.0533,-0.0267 -0.12267,-0.0427 -0.0693,-0.016 -0.17067,-0.016 -0.18133,0 -0.34666,0.0853 -0.16534,0.08 -0.288,0.25067 -0.12267,0.17066 -0.18667,0.448 l -0.304,1.312 z"
         style="font-style:italic;font-weight:600;-inkscape-font-specification:'Work Sans Semi-Bold Italic'"
         id="path30227" />
      <path
         d="m 140.11719,146.18979 q 0.23467,0 0.34667,0.144 0.11733,0.13867 0.11733,0.352 0,0.24533 -0.128,0.48534 -0.12266,0.23466 -0.35733,0.416 -0.22933,0.176 -0.544,0.24533 l -0.18134,-0.31467 q 0.20267,-0.0373 0.352,-0.112 0.15467,-0.08 0.25601,-0.18133 0.10666,-0.10667 0.15466,-0.21867 l -0.0107,-0.0107 q -0.032,0.016 -0.064,0.0267 -0.0267,0.005 -0.0853,0.005 -0.14933,0 -0.24533,-0.10666 -0.096,-0.112 -0.096,-0.26134 0,-0.21333 0.13866,-0.34133 0.13867,-0.128 0.34667,-0.128 z m 1.17334,0 q 0.23466,0 0.34666,0.144 0.11734,0.13867 0.11734,0.352 0,0.24533 -0.128,0.48534 -0.12267,0.23466 -0.35734,0.416 -0.22933,0.176 -0.544,0.24533 l -0.18133,-0.31467 q 0.20267,-0.0373 0.352,-0.112 0.15467,-0.08 0.256,-0.18133 0.10667,-0.10667 0.15467,-0.21867 l -0.0107,-0.0107 q -0.032,0.016 -0.064,0.0267 -0.0267,0.005 -0.0853,0.005 -0.14934,0 -0.24534,-0.10666 -0.096,-0.112 -0.096,-0.26134 0,-0.21333 0.13867,-0.34133 0.13867,-0.128 0.34667,-0.128 z"
         style="font-style:italic;font-weight:600;-inkscape-font-specification:'Work Sans Semi-Bold Italic'"
         id="path30229" />
    </g>
    <g
       aria-label="JFA"
       id="text31564"
       style="font-size:61.2747px;line-height:1.25;font-family:'Work Sans';-inkscape-font-specification:'Work Sans';letter-spacing:-6.1913px;word-spacing:0px;fill:#ffffff;stroke-width:0.319139">
      <path
         d="m 68.502474,122.43554 q -3.063735,0 -5.392173,-1.04167 -2.328439,-1.10295 -3.676482,-3.06374 -1.286769,-1.96079 -1.531868,-4.65688 -0.245099,-2.69608 0.796571,-5.88237 l 2.879911,-0.18382 q -1.04167,3.61521 -0.612747,6.37257 0.428923,2.69608 2.389713,4.22795 2.022066,1.47059 5.392174,1.47059 4.289229,0 6.678942,-2.45098 2.389714,-2.51227 3.615208,-8.14954 l 6.372569,-27.634888 h 3.063735 l -6.556393,28.308908 q -0.857846,3.98286 -2.573538,6.86277 -1.654417,2.81864 -4.289229,4.3505 -2.634812,1.4706 -6.556393,1.4706 z"
         style="font-style:italic;font-weight:300;-inkscape-font-specification:'Work Sans Light Italic'"
         id="path30232" />
      <path
         d="M 119.48045,84.261398 H 96.379886 l -3.615207,15.625048 h 19.117711 l -0.67403,2.879914 H 92.151932 l -4.473053,19.1177 h -3.063735 l 9.375029,-40.441298 h 26.164297 z"
         style="font-style:italic;font-weight:300;-inkscape-font-specification:'Work Sans Light Italic'"
         id="path30234" />
      <path
         d="m 103.55991,121.88406 25.06135,-40.441298 h 3.86031 l 6.31129,40.441298 h -3.00246 l -2.08334,-12.92896 h -18.68878 l -7.96571,12.92896 z m 13.23534,-15.74759 h 16.48289 l -3.37011,-21.384875 z"
         style="font-style:italic;font-weight:300;-inkscape-font-specification:'Work Sans Light Italic'"
         id="path30236" />
    </g>
  </g>
</svg>
